M48
;DRILL file {KiCad 4.0.7} date Fri May 21 10:29:08 2021
;FORMAT={-:-/ absolute / inch / decimal}
FMAT,2
INCH,TZ
T1C0.039
%
G90
G05
M72
T1
X3.1433Y-4.3955
X3.1433Y-4.4427
X3.1438Y-6.5895
X3.1438Y-6.6367
X3.1439Y-4.3006
X3.1439Y-4.3481
X3.1444Y-6.4946
X3.1444Y-6.5421
X3.7128Y-8.3885
X3.76Y-8.3885
X3.8074Y-8.3891
X3.8549Y-8.3891
X4.8748Y-1.991
X4.922Y-1.991
X4.9694Y-1.9916
X5.0169Y-1.9916
X7.2343Y-1.99
X7.2815Y-1.99
X7.3289Y-1.9906
X7.3764Y-1.9906
X7.4378Y-8.389
X7.485Y-8.389
X7.5324Y-8.3896
X7.5799Y-8.3896
X8.0693Y-2.8485
X8.0693Y-2.8957
X8.0693Y-5.9665
X8.0693Y-6.0137
X8.0699Y-2.7536
X8.0699Y-2.8011
X8.0699Y-5.8716
X8.0699Y-5.9191
T0
M30
