G04 #@! TF.FileFunction,Profile,NP*
%FSLAX46Y46*%
G04 Gerber Fmt 4.6, Leading zero omitted, Abs format (unit mm)*
G04 Created by KiCad (PCBNEW 4.0.7) date Tue Jun  4 16:27:17 2019*
%MOMM*%
%LPD*%
G01*
G04 APERTURE LIST*
%ADD10C,0.150000*%
%ADD11C,0.200000*%
G04 APERTURE END LIST*
D10*
D11*
X159026280Y-37849680D02*
X159026280Y-89881580D01*
X83023780Y-29983980D02*
X83023780Y-30083980D01*
X33523780Y-29983980D02*
X83023780Y-29983980D01*
X33523780Y-51383980D02*
X33523780Y-29983980D01*
X33523780Y-122083980D02*
X33523780Y-55083980D01*
X33523780Y-178983980D02*
X33523780Y-125683980D01*
X62323780Y-178983980D02*
X33523780Y-178983980D01*
X118223780Y-178983980D02*
X65923780Y-178983980D01*
X159023780Y-178983980D02*
X121823780Y-178983980D01*
X159023780Y-93483980D02*
X159023780Y-178983980D01*
X159023780Y-89883980D02*
X156023780Y-89883980D01*
X86723780Y-29983980D02*
X159023780Y-29983980D01*
X156023780Y-89983980D02*
X156023780Y-37533980D01*
X156023780Y-93233980D02*
X155973780Y-93233980D01*
X156023780Y-176083980D02*
X156023780Y-93233980D01*
X121723780Y-176083980D02*
X156023780Y-176083980D01*
X65823780Y-176083980D02*
X118423780Y-176083980D01*
X36773780Y-176083980D02*
X62523780Y-176083980D01*
X36773780Y-125583980D02*
X36773780Y-176083980D01*
X36773780Y-54933980D02*
X36773780Y-122283980D01*
X36773780Y-33133980D02*
X36773780Y-51683980D01*
X83123780Y-33133980D02*
X36773780Y-33133980D01*
X86423780Y-33133980D02*
X86423780Y-33083980D01*
X156023780Y-33133980D02*
X86423780Y-33133980D01*
X156023780Y-34283980D02*
X156023780Y-33133980D01*
X65823780Y-176083980D02*
X65723780Y-176083980D01*
X65923780Y-178983980D02*
X65923780Y-176083980D01*
X121823780Y-178983980D02*
X121823780Y-176083980D01*
X118273780Y-178983980D02*
X118273780Y-176083980D01*
X36823780Y-125683980D02*
X33523780Y-125683980D01*
X36723780Y-122283980D02*
X36723780Y-122183980D01*
X33573780Y-122083980D02*
X36773780Y-122083980D01*
X33523780Y-55083980D02*
X36723780Y-55083980D01*
X33523780Y-51383980D02*
X36823780Y-51383980D01*
X83023780Y-29983980D02*
X83023780Y-33183980D01*
X86723780Y-33083980D02*
X86723780Y-29983980D01*
X159023780Y-29983980D02*
X159023780Y-34233980D01*
X156023780Y-34233980D02*
X159023780Y-34233980D01*
X156023780Y-37852280D02*
X159023780Y-37852280D01*
X156023780Y-93433980D02*
X159023780Y-93433980D01*
X158023780Y-178983980D02*
X159023780Y-178983980D01*
X62373780Y-175983980D02*
X62373780Y-178983980D01*
X29023780Y-24983980D02*
X164023780Y-24983980D01*
X29023780Y-183983980D02*
X29023780Y-24983980D01*
X164023780Y-183983980D02*
X29023780Y-183983980D01*
X164023780Y-24983980D02*
X164023780Y-183983980D01*
X86423780Y-33083980D02*
X86423780Y-33183980D01*
X159023780Y-178983980D02*
X159023780Y-94283980D01*
X105549700Y-127482600D02*
X122936000Y-127482600D01*
X105552240Y-139047220D02*
X105552240Y-127482600D01*
X122936000Y-139047220D02*
X122936000Y-127482600D01*
X105549700Y-139047220D02*
X122936000Y-139047220D01*
M02*
