G04 #@! TF.FileFunction,Soldermask,Bot*
%FSLAX46Y46*%
G04 Gerber Fmt 4.6, Leading zero omitted, Abs format (unit mm)*
G04 Created by KiCad (PCBNEW 4.0.7) date Tue Jun  4 16:27:17 2019*
%MOMM*%
%LPD*%
G01*
G04 APERTURE LIST*
%ADD10C,0.150000*%
G04 APERTURE END LIST*
D10*
G36*
X31981331Y-179584979D02*
X32227554Y-179635521D01*
X32269489Y-179644129D01*
X32517167Y-179748244D01*
X32540668Y-179758123D01*
X32784542Y-179922618D01*
X32991821Y-180131349D01*
X33154610Y-180376365D01*
X33225208Y-180547649D01*
X33266708Y-180648336D01*
X33319700Y-180915967D01*
X33323844Y-180936897D01*
X33319153Y-181272890D01*
X33253981Y-181559745D01*
X33134333Y-181828478D01*
X32964767Y-182068853D01*
X32751741Y-182271716D01*
X32550071Y-182399699D01*
X32503369Y-182429337D01*
X32229111Y-182535715D01*
X32044810Y-182568212D01*
X31939415Y-182586796D01*
X31661732Y-182580979D01*
X31645312Y-182580635D01*
X31429838Y-182533260D01*
X31358012Y-182517468D01*
X31088450Y-182399699D01*
X30846896Y-182231815D01*
X30642552Y-182020210D01*
X30483200Y-181772945D01*
X30374911Y-181499437D01*
X30321808Y-181210104D01*
X30325915Y-180915968D01*
X30325915Y-180915967D01*
X30387075Y-180628233D01*
X30495026Y-180376365D01*
X30502960Y-180357853D01*
X30669153Y-180115133D01*
X30879326Y-179909317D01*
X30879327Y-179909316D01*
X31110375Y-179758123D01*
X31125473Y-179748243D01*
X31398219Y-179638046D01*
X31687173Y-179582925D01*
X31981331Y-179584979D01*
X31981331Y-179584979D01*
G37*
G36*
X128467540Y-70003540D02*
X126134043Y-70003540D01*
X126133904Y-70003560D01*
X126133775Y-70003618D01*
X126133668Y-70003709D01*
X126133591Y-70003826D01*
X126133549Y-70003961D01*
X126133547Y-70004101D01*
X126133584Y-70004237D01*
X126133657Y-70004357D01*
X126133758Y-70004451D01*
X126268451Y-70095302D01*
X126439431Y-70267480D01*
X126614055Y-70443327D01*
X126885477Y-70851849D01*
X127072382Y-71305316D01*
X127167647Y-71786438D01*
X127159824Y-72346656D01*
X127051161Y-72824940D01*
X126930130Y-73096780D01*
X126851669Y-73273006D01*
X126710307Y-73473399D01*
X126568945Y-73673793D01*
X126213759Y-74012032D01*
X126127745Y-74066618D01*
X126127638Y-74066709D01*
X126127561Y-74066827D01*
X126127519Y-74066961D01*
X126127517Y-74067102D01*
X126127554Y-74067238D01*
X126127627Y-74067358D01*
X126127731Y-74067453D01*
X126127857Y-74067515D01*
X126128013Y-74067540D01*
X128452300Y-74067540D01*
X128452300Y-115764180D01*
X126194295Y-115764180D01*
X126194156Y-115764200D01*
X126194027Y-115764258D01*
X126193920Y-115764349D01*
X126193843Y-115764466D01*
X126193801Y-115764601D01*
X126193799Y-115764741D01*
X126193836Y-115764877D01*
X126193909Y-115764997D01*
X126194012Y-115765092D01*
X126268451Y-115815302D01*
X126439431Y-115987480D01*
X126614055Y-116163327D01*
X126885477Y-116571849D01*
X127072382Y-117025316D01*
X127167647Y-117506438D01*
X127159824Y-118066656D01*
X127051161Y-118544940D01*
X126918166Y-118843650D01*
X126851669Y-118993006D01*
X126710307Y-119193399D01*
X126568945Y-119393793D01*
X126213759Y-119732032D01*
X126127745Y-119786618D01*
X126127638Y-119786709D01*
X126127561Y-119786827D01*
X126127519Y-119786961D01*
X126127517Y-119787102D01*
X126127554Y-119787238D01*
X126127627Y-119787358D01*
X126127731Y-119787453D01*
X126127857Y-119787515D01*
X126128013Y-119787540D01*
X128482780Y-119787540D01*
X128482780Y-161484180D01*
X126194295Y-161484180D01*
X126194156Y-161484200D01*
X126194027Y-161484258D01*
X126193920Y-161484349D01*
X126193843Y-161484466D01*
X126193801Y-161484601D01*
X126193799Y-161484741D01*
X126193836Y-161484877D01*
X126193909Y-161484997D01*
X126194012Y-161485092D01*
X126268451Y-161535302D01*
X126335360Y-161602680D01*
X126614055Y-161883327D01*
X126885477Y-162291849D01*
X127072382Y-162745316D01*
X127167647Y-163226438D01*
X127167647Y-163226444D01*
X127164253Y-163469480D01*
X127159824Y-163786656D01*
X127051161Y-164264940D01*
X126948130Y-164496350D01*
X126851669Y-164713006D01*
X126798068Y-164788990D01*
X126568945Y-165113793D01*
X126220389Y-165445718D01*
X126220302Y-165445828D01*
X126220249Y-165445959D01*
X126220234Y-165446099D01*
X126220259Y-165446237D01*
X126220322Y-165446363D01*
X126220417Y-165446467D01*
X126220537Y-165446540D01*
X126220734Y-165446580D01*
X128472620Y-165446580D01*
X128472620Y-176114580D01*
X122324181Y-176114580D01*
X122324042Y-176114600D01*
X122323913Y-176114658D01*
X122323806Y-176114749D01*
X122323729Y-176114866D01*
X122323687Y-176115001D01*
X122323681Y-176115073D01*
X122323234Y-176147076D01*
X122301467Y-176242885D01*
X122301466Y-176242887D01*
X122261505Y-176332642D01*
X122204869Y-176412928D01*
X122133718Y-176480685D01*
X122050763Y-176533330D01*
X121959160Y-176568861D01*
X121862405Y-176585921D01*
X121764170Y-176583863D01*
X121668214Y-176562766D01*
X121578181Y-176523431D01*
X121497500Y-176467357D01*
X121429249Y-176396680D01*
X121376026Y-176314095D01*
X121339857Y-176222743D01*
X121322121Y-176126105D01*
X121322275Y-176115087D01*
X121322257Y-176114947D01*
X121322201Y-176114818D01*
X121322111Y-176114710D01*
X121321995Y-176114631D01*
X121321861Y-176114587D01*
X121321775Y-176114580D01*
X121153792Y-176114580D01*
X121153653Y-176114600D01*
X121153524Y-176114658D01*
X121153417Y-176114749D01*
X121153340Y-176114866D01*
X121153298Y-176115001D01*
X121153292Y-176115071D01*
X121152684Y-176158626D01*
X121130917Y-176254435D01*
X121130916Y-176254437D01*
X121090955Y-176344192D01*
X121034319Y-176424478D01*
X120963168Y-176492235D01*
X120880213Y-176544880D01*
X120788610Y-176580411D01*
X120691855Y-176597471D01*
X120593620Y-176595413D01*
X120497664Y-176574316D01*
X120407631Y-176534981D01*
X120326950Y-176478907D01*
X120258699Y-176408230D01*
X120205476Y-176325645D01*
X120169307Y-176234293D01*
X120151571Y-176137655D01*
X120151886Y-176115087D01*
X120151868Y-176114947D01*
X120151812Y-176114818D01*
X120151722Y-176114710D01*
X120151606Y-176114631D01*
X120151472Y-176114587D01*
X120151386Y-176114580D01*
X119974181Y-176114580D01*
X119974042Y-176114600D01*
X119973913Y-176114658D01*
X119973806Y-176114749D01*
X119973729Y-176114866D01*
X119973687Y-176115001D01*
X119973681Y-176115073D01*
X119973234Y-176147076D01*
X119951467Y-176242885D01*
X119951466Y-176242887D01*
X119911505Y-176332642D01*
X119854869Y-176412928D01*
X119783718Y-176480685D01*
X119700763Y-176533330D01*
X119609160Y-176568861D01*
X119512405Y-176585921D01*
X119414170Y-176583863D01*
X119318214Y-176562766D01*
X119228181Y-176523431D01*
X119147500Y-176467357D01*
X119079249Y-176396680D01*
X119026026Y-176314095D01*
X118989857Y-176222743D01*
X118972121Y-176126105D01*
X118972275Y-176115087D01*
X118972257Y-176114947D01*
X118972201Y-176114818D01*
X118972111Y-176114710D01*
X118971995Y-176114631D01*
X118971861Y-176114587D01*
X118971775Y-176114580D01*
X118774181Y-176114580D01*
X118774042Y-176114600D01*
X118773913Y-176114658D01*
X118773806Y-176114749D01*
X118773729Y-176114866D01*
X118773687Y-176115001D01*
X118773681Y-176115073D01*
X118773234Y-176147076D01*
X118751467Y-176242885D01*
X118751466Y-176242887D01*
X118711505Y-176332642D01*
X118654869Y-176412928D01*
X118583718Y-176480685D01*
X118500763Y-176533330D01*
X118409160Y-176568861D01*
X118312405Y-176585921D01*
X118214170Y-176583863D01*
X118118214Y-176562766D01*
X118028181Y-176523431D01*
X117947500Y-176467357D01*
X117879249Y-176396680D01*
X117826026Y-176314095D01*
X117789857Y-176222743D01*
X117772121Y-176126105D01*
X117772275Y-176115087D01*
X117772257Y-176114947D01*
X117772201Y-176114818D01*
X117772111Y-176114710D01*
X117771995Y-176114631D01*
X117771861Y-176114587D01*
X117771775Y-176114580D01*
X67522780Y-176114580D01*
X67522780Y-165482140D01*
X69835195Y-165482140D01*
X69835334Y-165482120D01*
X69835463Y-165482062D01*
X69835570Y-165481971D01*
X69835647Y-165481854D01*
X69835689Y-165481719D01*
X69835691Y-165481579D01*
X69835654Y-165481443D01*
X69835581Y-165481323D01*
X69835480Y-165481229D01*
X69697748Y-165385503D01*
X69357038Y-165032687D01*
X69091346Y-164620414D01*
X68910792Y-164164385D01*
X68886069Y-164029680D01*
X68822253Y-163681971D01*
X68823926Y-163562170D01*
X68829100Y-163191546D01*
X68931074Y-162711796D01*
X69124293Y-162260983D01*
X69401393Y-161856288D01*
X69751821Y-161513124D01*
X69779123Y-161495258D01*
X69779229Y-161495166D01*
X69779304Y-161495047D01*
X69779344Y-161494912D01*
X69779344Y-161494771D01*
X69779305Y-161494636D01*
X69779231Y-161494517D01*
X69779125Y-161494423D01*
X69778998Y-161494363D01*
X69778849Y-161494340D01*
X67573580Y-161494340D01*
X67573580Y-119741820D01*
X69805959Y-119741820D01*
X69806098Y-119741800D01*
X69806227Y-119741742D01*
X69806334Y-119741651D01*
X69806411Y-119741534D01*
X69806453Y-119741399D01*
X69806455Y-119741259D01*
X69806418Y-119741123D01*
X69806345Y-119741003D01*
X69806244Y-119740909D01*
X69697748Y-119665503D01*
X69357038Y-119312687D01*
X69091346Y-118900414D01*
X68910792Y-118444385D01*
X68902862Y-118401180D01*
X68822253Y-117961971D01*
X68825922Y-117699180D01*
X68829100Y-117471546D01*
X68931074Y-116991796D01*
X69124293Y-116540983D01*
X69401393Y-116136288D01*
X69751821Y-115793124D01*
X69763597Y-115785418D01*
X69763703Y-115785326D01*
X69763778Y-115785207D01*
X69763818Y-115785072D01*
X69763818Y-115784931D01*
X69763779Y-115784796D01*
X69763705Y-115784677D01*
X69763599Y-115784583D01*
X69763472Y-115784523D01*
X69763323Y-115784500D01*
X67553260Y-115784500D01*
X67553260Y-73960860D01*
X69718248Y-73960860D01*
X69718387Y-73960840D01*
X69718516Y-73960782D01*
X69718623Y-73960691D01*
X69718700Y-73960574D01*
X69718742Y-73960439D01*
X69718744Y-73960299D01*
X69718707Y-73960163D01*
X69718634Y-73960043D01*
X69718533Y-73959949D01*
X69697748Y-73945503D01*
X69357038Y-73592687D01*
X69091346Y-73180414D01*
X68910792Y-72724385D01*
X68822253Y-72241970D01*
X68829100Y-71751546D01*
X68931074Y-71271796D01*
X69124293Y-70820983D01*
X69401393Y-70416288D01*
X69751821Y-70073124D01*
X69841228Y-70014618D01*
X69841334Y-70014526D01*
X69841409Y-70014407D01*
X69841449Y-70014272D01*
X69841449Y-70014131D01*
X69841410Y-70013996D01*
X69841336Y-70013877D01*
X69841230Y-70013783D01*
X69841103Y-70013723D01*
X69840954Y-70013700D01*
X67497380Y-70013700D01*
X67497380Y-59366020D01*
X128467540Y-59366020D01*
X128467540Y-70003540D01*
X128467540Y-70003540D01*
G37*
G36*
X64812470Y-175594859D02*
X64813152Y-175594864D01*
X64829543Y-175598228D01*
X64909397Y-175614619D01*
X64999969Y-175652692D01*
X65023005Y-175668231D01*
X65081425Y-175707635D01*
X65132934Y-175759505D01*
X65150656Y-175777351D01*
X65205027Y-175859186D01*
X65242469Y-175950026D01*
X65261551Y-176046398D01*
X65261551Y-176046404D01*
X65259984Y-176158626D01*
X65238217Y-176254435D01*
X65238216Y-176254437D01*
X65198255Y-176344192D01*
X65141619Y-176424478D01*
X65070468Y-176492235D01*
X64987513Y-176544880D01*
X64895910Y-176580411D01*
X64799155Y-176597471D01*
X64700920Y-176595413D01*
X64604964Y-176574316D01*
X64514931Y-176534981D01*
X64434250Y-176478907D01*
X64365999Y-176408230D01*
X64312776Y-176325645D01*
X64276607Y-176234293D01*
X64258871Y-176137655D01*
X64260243Y-176039413D01*
X64280669Y-175943312D01*
X64319376Y-175853002D01*
X64374885Y-175771934D01*
X64445082Y-175703192D01*
X64527294Y-175649394D01*
X64572845Y-175630991D01*
X64618393Y-175612588D01*
X64645046Y-175607504D01*
X64714903Y-175594177D01*
X64812470Y-175594859D01*
X64812470Y-175594859D01*
G37*
G36*
X65975720Y-175583309D02*
X65976402Y-175583314D01*
X65992793Y-175586678D01*
X66072647Y-175603069D01*
X66163219Y-175641142D01*
X66180342Y-175652692D01*
X66244675Y-175696085D01*
X66277441Y-175729081D01*
X66313906Y-175765801D01*
X66368277Y-175847636D01*
X66405719Y-175938476D01*
X66424801Y-176034848D01*
X66424801Y-176034854D01*
X66423234Y-176147076D01*
X66401467Y-176242885D01*
X66401466Y-176242887D01*
X66361505Y-176332642D01*
X66304869Y-176412928D01*
X66233718Y-176480685D01*
X66150763Y-176533330D01*
X66059160Y-176568861D01*
X65962405Y-176585921D01*
X65864170Y-176583863D01*
X65768214Y-176562766D01*
X65678181Y-176523431D01*
X65597500Y-176467357D01*
X65529249Y-176396680D01*
X65476026Y-176314095D01*
X65439857Y-176222743D01*
X65422121Y-176126105D01*
X65423493Y-176027863D01*
X65443919Y-175931762D01*
X65482626Y-175841452D01*
X65538135Y-175760384D01*
X65608332Y-175691642D01*
X65690544Y-175637844D01*
X65748027Y-175614620D01*
X65781643Y-175601038D01*
X65808296Y-175595954D01*
X65878153Y-175582627D01*
X65975720Y-175583309D01*
X65975720Y-175583309D01*
G37*
G36*
X63625720Y-175583309D02*
X63626402Y-175583314D01*
X63642793Y-175586678D01*
X63722647Y-175603069D01*
X63813219Y-175641142D01*
X63830342Y-175652692D01*
X63894675Y-175696085D01*
X63927441Y-175729081D01*
X63963906Y-175765801D01*
X64018277Y-175847636D01*
X64055719Y-175938476D01*
X64074801Y-176034848D01*
X64074801Y-176034854D01*
X64073234Y-176147076D01*
X64051467Y-176242885D01*
X64051466Y-176242887D01*
X64011505Y-176332642D01*
X63954869Y-176412928D01*
X63883718Y-176480685D01*
X63800763Y-176533330D01*
X63709160Y-176568861D01*
X63612405Y-176585921D01*
X63514170Y-176583863D01*
X63418214Y-176562766D01*
X63328181Y-176523431D01*
X63247500Y-176467357D01*
X63179249Y-176396680D01*
X63126026Y-176314095D01*
X63089857Y-176222743D01*
X63072121Y-176126105D01*
X63073493Y-176027863D01*
X63093919Y-175931762D01*
X63132626Y-175841452D01*
X63188135Y-175760384D01*
X63258332Y-175691642D01*
X63340544Y-175637844D01*
X63398027Y-175614620D01*
X63431643Y-175601038D01*
X63458296Y-175595954D01*
X63528153Y-175582627D01*
X63625720Y-175583309D01*
X63625720Y-175583309D01*
G37*
G36*
X62425720Y-175583309D02*
X62426402Y-175583314D01*
X62442793Y-175586678D01*
X62522647Y-175603069D01*
X62613219Y-175641142D01*
X62630342Y-175652692D01*
X62694675Y-175696085D01*
X62727441Y-175729081D01*
X62763906Y-175765801D01*
X62818277Y-175847636D01*
X62855719Y-175938476D01*
X62874801Y-176034848D01*
X62874801Y-176034854D01*
X62873234Y-176147076D01*
X62851467Y-176242885D01*
X62851466Y-176242887D01*
X62811505Y-176332642D01*
X62754869Y-176412928D01*
X62683718Y-176480685D01*
X62600763Y-176533330D01*
X62509160Y-176568861D01*
X62412405Y-176585921D01*
X62314170Y-176583863D01*
X62218214Y-176562766D01*
X62128181Y-176523431D01*
X62047500Y-176467357D01*
X61979249Y-176396680D01*
X61926026Y-176314095D01*
X61889857Y-176222743D01*
X61872121Y-176126105D01*
X61873493Y-176027863D01*
X61893919Y-175931762D01*
X61932626Y-175841452D01*
X61988135Y-175760384D01*
X62058332Y-175691642D01*
X62140544Y-175637844D01*
X62198027Y-175614620D01*
X62231643Y-175601038D01*
X62258296Y-175595954D01*
X62328153Y-175582627D01*
X62425720Y-175583309D01*
X62425720Y-175583309D01*
G37*
G36*
X59737410Y-175855230D02*
X59240110Y-175855230D01*
X59240110Y-175357930D01*
X59737410Y-175357930D01*
X59737410Y-175855230D01*
X59737410Y-175855230D01*
G37*
G36*
X58838250Y-175855230D02*
X58340950Y-175855230D01*
X58340950Y-175357930D01*
X58838250Y-175357930D01*
X58838250Y-175855230D01*
X58838250Y-175855230D01*
G37*
G36*
X39809715Y-170839599D02*
X39816471Y-170839646D01*
X39938542Y-170864704D01*
X40296925Y-170938268D01*
X40749070Y-171128333D01*
X40749072Y-171128334D01*
X41155691Y-171402602D01*
X41326671Y-171574780D01*
X41501295Y-171750627D01*
X41772717Y-172159149D01*
X41959622Y-172612616D01*
X42054887Y-173093738D01*
X42047064Y-173653956D01*
X41938401Y-174132240D01*
X41862004Y-174303830D01*
X41738909Y-174580306D01*
X41597547Y-174780699D01*
X41456185Y-174981093D01*
X41100999Y-175319332D01*
X40686882Y-175582139D01*
X40229602Y-175759506D01*
X39746585Y-175844675D01*
X39256216Y-175834403D01*
X38777190Y-175729082D01*
X38327741Y-175532722D01*
X38327739Y-175532721D01*
X38076247Y-175357930D01*
X37924988Y-175252803D01*
X37584278Y-174899987D01*
X37318586Y-174487714D01*
X37138032Y-174031685D01*
X37049493Y-173549270D01*
X37056340Y-173058846D01*
X37158314Y-172579096D01*
X37351533Y-172128283D01*
X37628633Y-171723588D01*
X37979061Y-171380424D01*
X38389468Y-171111861D01*
X38616849Y-171019994D01*
X38844227Y-170928127D01*
X38977278Y-170902746D01*
X39326011Y-170836221D01*
X39809715Y-170839599D01*
X39809715Y-170839599D01*
G37*
G36*
X50493180Y-174888240D02*
X49311180Y-174888240D01*
X49311180Y-174186240D01*
X50493180Y-174186240D01*
X50493180Y-174888240D01*
X50493180Y-174888240D01*
G37*
G36*
X55813180Y-174888240D02*
X54631180Y-174888240D01*
X54631180Y-174186240D01*
X55813180Y-174186240D01*
X55813180Y-174888240D01*
X55813180Y-174888240D01*
G37*
G36*
X48536010Y-174801130D02*
X48038710Y-174801130D01*
X48038710Y-174303830D01*
X48536010Y-174303830D01*
X48536010Y-174801130D01*
X48536010Y-174801130D01*
G37*
G36*
X47636850Y-174801130D02*
X47139550Y-174801130D01*
X47139550Y-174303830D01*
X47636850Y-174303830D01*
X47636850Y-174801130D01*
X47636850Y-174801130D01*
G37*
G36*
X142820280Y-174062480D02*
X139418280Y-174062480D01*
X139418280Y-172210480D01*
X142820280Y-172210480D01*
X142820280Y-174062480D01*
X142820280Y-174062480D01*
G37*
G36*
X55813180Y-173618240D02*
X54631180Y-173618240D01*
X54631180Y-172916240D01*
X55813180Y-172916240D01*
X55813180Y-173618240D01*
X55813180Y-173618240D01*
G37*
G36*
X50493180Y-173618240D02*
X49311180Y-173618240D01*
X49311180Y-172916240D01*
X50493180Y-172916240D01*
X50493180Y-173618240D01*
X50493180Y-173618240D01*
G37*
G36*
X148178580Y-173579680D02*
X146426580Y-173579680D01*
X146426580Y-169327680D01*
X148178580Y-169327680D01*
X148178580Y-173579680D01*
X148178580Y-173579680D01*
G37*
G36*
X58325170Y-173538750D02*
X57827870Y-173538750D01*
X57827870Y-173041450D01*
X58325170Y-173041450D01*
X58325170Y-173538750D01*
X58325170Y-173538750D01*
G37*
G36*
X59224330Y-173538750D02*
X58727030Y-173538750D01*
X58727030Y-173041450D01*
X59224330Y-173041450D01*
X59224330Y-173538750D01*
X59224330Y-173538750D01*
G37*
G36*
X154203580Y-173454680D02*
X152901580Y-173454680D01*
X152901580Y-169452680D01*
X154203580Y-169452680D01*
X154203580Y-173454680D01*
X154203580Y-173454680D01*
G37*
G36*
X57984810Y-172578630D02*
X57487510Y-172578630D01*
X57487510Y-172081330D01*
X57984810Y-172081330D01*
X57984810Y-172578630D01*
X57984810Y-172578630D01*
G37*
G36*
X57085650Y-172578630D02*
X56588350Y-172578630D01*
X56588350Y-172081330D01*
X57085650Y-172081330D01*
X57085650Y-172578630D01*
X57085650Y-172578630D01*
G37*
G36*
X145457280Y-172414980D02*
X144655280Y-172414980D01*
X144655280Y-171712980D01*
X145457280Y-171712980D01*
X145457280Y-172414980D01*
X145457280Y-172414980D01*
G37*
G36*
X50493180Y-172348240D02*
X49311180Y-172348240D01*
X49311180Y-171646240D01*
X50493180Y-171646240D01*
X50493180Y-172348240D01*
X50493180Y-172348240D01*
G37*
G36*
X55813180Y-172348240D02*
X54631180Y-172348240D01*
X54631180Y-171646240D01*
X55813180Y-171646240D01*
X55813180Y-172348240D01*
X55813180Y-172348240D01*
G37*
G36*
X58873810Y-171880130D02*
X58376510Y-171880130D01*
X58376510Y-171382830D01*
X58873810Y-171382830D01*
X58873810Y-171880130D01*
X58873810Y-171880130D01*
G37*
G36*
X57974650Y-171880130D02*
X57477350Y-171880130D01*
X57477350Y-171382830D01*
X57974650Y-171382830D01*
X57974650Y-171880130D01*
X57974650Y-171880130D01*
G37*
G36*
X58873810Y-171176550D02*
X58376510Y-171176550D01*
X58376510Y-170679250D01*
X58873810Y-170679250D01*
X58873810Y-171176550D01*
X58873810Y-171176550D01*
G37*
G36*
X57974650Y-171176550D02*
X57477350Y-171176550D01*
X57477350Y-170679250D01*
X57974650Y-170679250D01*
X57974650Y-171176550D01*
X57974650Y-171176550D01*
G37*
G36*
X55813180Y-171078240D02*
X54631180Y-171078240D01*
X54631180Y-170376240D01*
X55813180Y-170376240D01*
X55813180Y-171078240D01*
X55813180Y-171078240D01*
G37*
G36*
X50493180Y-171078240D02*
X49311180Y-171078240D01*
X49311180Y-170376240D01*
X50493180Y-170376240D01*
X50493180Y-171078240D01*
X50493180Y-171078240D01*
G37*
G36*
X145457280Y-170914980D02*
X144655280Y-170914980D01*
X144655280Y-170212980D01*
X145457280Y-170212980D01*
X145457280Y-170914980D01*
X145457280Y-170914980D01*
G37*
G36*
X59612950Y-170572030D02*
X59115650Y-170572030D01*
X59115650Y-170074730D01*
X59612950Y-170074730D01*
X59612950Y-170572030D01*
X59612950Y-170572030D01*
G37*
G36*
X60512110Y-170572030D02*
X60014810Y-170572030D01*
X60014810Y-170074730D01*
X60512110Y-170074730D01*
X60512110Y-170572030D01*
X60512110Y-170572030D01*
G37*
G36*
X59612950Y-169827810D02*
X59115650Y-169827810D01*
X59115650Y-169330510D01*
X59612950Y-169330510D01*
X59612950Y-169827810D01*
X59612950Y-169827810D01*
G37*
G36*
X46506550Y-169822730D02*
X46009250Y-169822730D01*
X46009250Y-169325430D01*
X46506550Y-169325430D01*
X46506550Y-169822730D01*
X46506550Y-169822730D01*
G37*
G36*
X47405710Y-169822730D02*
X46908410Y-169822730D01*
X46908410Y-169325430D01*
X47405710Y-169325430D01*
X47405710Y-169822730D01*
X47405710Y-169822730D01*
G37*
G36*
X55813180Y-169808240D02*
X54631180Y-169808240D01*
X54631180Y-169106240D01*
X55813180Y-169106240D01*
X55813180Y-169808240D01*
X55813180Y-169808240D01*
G37*
G36*
X50493180Y-169808240D02*
X49311180Y-169808240D01*
X49311180Y-169106240D01*
X50493180Y-169106240D01*
X50493180Y-169808240D01*
X50493180Y-169808240D01*
G37*
G36*
X44085930Y-169599210D02*
X43588630Y-169599210D01*
X43588630Y-169101910D01*
X44085930Y-169101910D01*
X44085930Y-169599210D01*
X44085930Y-169599210D01*
G37*
G36*
X57436170Y-169205510D02*
X56938870Y-169205510D01*
X56938870Y-168708210D01*
X57436170Y-168708210D01*
X57436170Y-169205510D01*
X57436170Y-169205510D01*
G37*
G36*
X56537010Y-169205510D02*
X56039710Y-169205510D01*
X56039710Y-168708210D01*
X56537010Y-168708210D01*
X56537010Y-169205510D01*
X56537010Y-169205510D01*
G37*
G36*
X59612950Y-168928650D02*
X59115650Y-168928650D01*
X59115650Y-168431350D01*
X59612950Y-168431350D01*
X59612950Y-168928650D01*
X59612950Y-168928650D01*
G37*
G36*
X46511630Y-168811810D02*
X46014330Y-168811810D01*
X46014330Y-168314510D01*
X46511630Y-168314510D01*
X46511630Y-168811810D01*
X46511630Y-168811810D01*
G37*
G36*
X44085930Y-168700050D02*
X43588630Y-168700050D01*
X43588630Y-168202750D01*
X44085930Y-168202750D01*
X44085930Y-168700050D01*
X44085930Y-168700050D01*
G37*
G36*
X147552880Y-168565380D02*
X146850880Y-168565380D01*
X146850880Y-167763380D01*
X147552880Y-167763380D01*
X147552880Y-168565380D01*
X147552880Y-168565380D01*
G37*
G36*
X149052880Y-168565380D02*
X148350880Y-168565380D01*
X148350880Y-167763380D01*
X149052880Y-167763380D01*
X149052880Y-168565380D01*
X149052880Y-168565380D01*
G37*
G36*
X55813180Y-168538240D02*
X54631180Y-168538240D01*
X54631180Y-167836240D01*
X55813180Y-167836240D01*
X55813180Y-168538240D01*
X55813180Y-168538240D01*
G37*
G36*
X50493180Y-168538240D02*
X49311180Y-168538240D01*
X49311180Y-167836240D01*
X50493180Y-167836240D01*
X50493180Y-168538240D01*
X50493180Y-168538240D01*
G37*
G36*
X142820280Y-168512480D02*
X139418280Y-168512480D01*
X139418280Y-166660480D01*
X142820280Y-166660480D01*
X142820280Y-168512480D01*
X142820280Y-168512480D01*
G37*
G36*
X59618030Y-168176810D02*
X59120730Y-168176810D01*
X59120730Y-167679510D01*
X59618030Y-167679510D01*
X59618030Y-168176810D01*
X59618030Y-168176810D01*
G37*
G36*
X46511630Y-167912650D02*
X46014330Y-167912650D01*
X46014330Y-167415350D01*
X46511630Y-167415350D01*
X46511630Y-167912650D01*
X46511630Y-167912650D01*
G37*
G36*
X146315850Y-167687860D02*
X144914310Y-167687860D01*
X144914310Y-166786700D01*
X146315850Y-166786700D01*
X146315850Y-167687860D01*
X146315850Y-167687860D01*
G37*
G36*
X152303580Y-167304680D02*
X148301580Y-167304680D01*
X148301580Y-166002680D01*
X152303580Y-166002680D01*
X152303580Y-167304680D01*
X152303580Y-167304680D01*
G37*
G36*
X59618030Y-167277650D02*
X59120730Y-167277650D01*
X59120730Y-166780350D01*
X59618030Y-166780350D01*
X59618030Y-167277650D01*
X59618030Y-167277650D01*
G37*
G36*
X50493180Y-167268240D02*
X49311180Y-167268240D01*
X49311180Y-166566240D01*
X50493180Y-166566240D01*
X50493180Y-167268240D01*
X50493180Y-167268240D01*
G37*
G36*
X55813180Y-167268240D02*
X54631180Y-167268240D01*
X54631180Y-166566240D01*
X55813180Y-166566240D01*
X55813180Y-167268240D01*
X55813180Y-167268240D01*
G37*
G36*
X47281250Y-166789970D02*
X46829670Y-166789970D01*
X46829670Y-164788990D01*
X47281250Y-164788990D01*
X47281250Y-166789970D01*
X47281250Y-166789970D01*
G37*
G36*
X41683090Y-166789970D02*
X41231510Y-166789970D01*
X41231510Y-164788990D01*
X41683090Y-164788990D01*
X41683090Y-166789970D01*
X41683090Y-166789970D01*
G37*
G36*
X42480650Y-166789970D02*
X42029070Y-166789970D01*
X42029070Y-164788990D01*
X42480650Y-164788990D01*
X42480650Y-166789970D01*
X42480650Y-166789970D01*
G37*
G36*
X43283290Y-166789970D02*
X42831710Y-166789970D01*
X42831710Y-164788990D01*
X43283290Y-164788990D01*
X43283290Y-166789970D01*
X43283290Y-166789970D01*
G37*
G36*
X44080850Y-166789970D02*
X43629270Y-166789970D01*
X43629270Y-164788990D01*
X44080850Y-164788990D01*
X44080850Y-166789970D01*
X44080850Y-166789970D01*
G37*
G36*
X44883490Y-166789970D02*
X44431910Y-166789970D01*
X44431910Y-164788990D01*
X44883490Y-164788990D01*
X44883490Y-166789970D01*
X44883490Y-166789970D01*
G37*
G36*
X45681050Y-166789970D02*
X45229470Y-166789970D01*
X45229470Y-164788990D01*
X45681050Y-164788990D01*
X45681050Y-166789970D01*
X45681050Y-166789970D01*
G37*
G36*
X46483690Y-166789970D02*
X46032110Y-166789970D01*
X46032110Y-164788990D01*
X46483690Y-164788990D01*
X46483690Y-166789970D01*
X46483690Y-166789970D01*
G37*
G36*
X141719880Y-166431680D02*
X141467880Y-166431680D01*
X141467880Y-164029680D01*
X141719880Y-164029680D01*
X141719880Y-166431680D01*
X141719880Y-166431680D01*
G37*
G36*
X141219880Y-166431680D02*
X140967880Y-166431680D01*
X140967880Y-164029680D01*
X141219880Y-164029680D01*
X141219880Y-166431680D01*
X141219880Y-166431680D01*
G37*
G36*
X140719880Y-166431680D02*
X140467880Y-166431680D01*
X140467880Y-164029680D01*
X140719880Y-164029680D01*
X140719880Y-166431680D01*
X140719880Y-166431680D01*
G37*
G36*
X58419150Y-166266730D02*
X57921850Y-166266730D01*
X57921850Y-165769430D01*
X58419150Y-165769430D01*
X58419150Y-166266730D01*
X58419150Y-166266730D01*
G37*
G36*
X59318310Y-166266730D02*
X58821010Y-166266730D01*
X58821010Y-165769430D01*
X59318310Y-165769430D01*
X59318310Y-166266730D01*
X59318310Y-166266730D01*
G37*
G36*
X138352950Y-166195610D02*
X137855650Y-166195610D01*
X137855650Y-165698310D01*
X138352950Y-165698310D01*
X138352950Y-166195610D01*
X138352950Y-166195610D01*
G37*
G36*
X140094880Y-166106680D02*
X139492880Y-166106680D01*
X139492880Y-165854680D01*
X140094880Y-165854680D01*
X140094880Y-166106680D01*
X140094880Y-166106680D01*
G37*
G36*
X142694880Y-166106680D02*
X142092880Y-166106680D01*
X142092880Y-165854680D01*
X142694880Y-165854680D01*
X142694880Y-166106680D01*
X142694880Y-166106680D01*
G37*
G36*
X144487050Y-165935260D02*
X143085510Y-165935260D01*
X143085510Y-165034100D01*
X144487050Y-165034100D01*
X144487050Y-165935260D01*
X144487050Y-165935260D01*
G37*
G36*
X146315850Y-165782860D02*
X144914310Y-165782860D01*
X144914310Y-164881700D01*
X146315850Y-164881700D01*
X146315850Y-165782860D01*
X146315850Y-165782860D01*
G37*
G36*
X142694880Y-165606680D02*
X142092880Y-165606680D01*
X142092880Y-165354680D01*
X142694880Y-165354680D01*
X142694880Y-165606680D01*
X142694880Y-165606680D01*
G37*
G36*
X140094880Y-165606680D02*
X139492880Y-165606680D01*
X139492880Y-165354680D01*
X140094880Y-165354680D01*
X140094880Y-165606680D01*
X140094880Y-165606680D01*
G37*
G36*
X138352950Y-165296450D02*
X137855650Y-165296450D01*
X137855650Y-164799150D01*
X138352950Y-164799150D01*
X138352950Y-165296450D01*
X138352950Y-165296450D01*
G37*
G36*
X140094880Y-165106680D02*
X139492880Y-165106680D01*
X139492880Y-164854680D01*
X140094880Y-164854680D01*
X140094880Y-165106680D01*
X140094880Y-165106680D01*
G37*
G36*
X142694880Y-165106680D02*
X142092880Y-165106680D01*
X142092880Y-164854680D01*
X142694880Y-164854680D01*
X142694880Y-165106680D01*
X142694880Y-165106680D01*
G37*
G36*
X140094880Y-164606680D02*
X139492880Y-164606680D01*
X139492880Y-164354680D01*
X140094880Y-164354680D01*
X140094880Y-164606680D01*
X140094880Y-164606680D01*
G37*
G36*
X142694880Y-164606680D02*
X142092880Y-164606680D01*
X142092880Y-164354680D01*
X142694880Y-164354680D01*
X142694880Y-164606680D01*
X142694880Y-164606680D01*
G37*
G36*
X147691260Y-164496350D02*
X146790100Y-164496350D01*
X146790100Y-163094810D01*
X147691260Y-163094810D01*
X147691260Y-164496350D01*
X147691260Y-164496350D01*
G37*
G36*
X145786260Y-164496350D02*
X144885100Y-164496350D01*
X144885100Y-163094810D01*
X145786260Y-163094810D01*
X145786260Y-164496350D01*
X145786260Y-164496350D01*
G37*
G36*
X144487050Y-164030260D02*
X143085510Y-164030260D01*
X143085510Y-163129100D01*
X144487050Y-163129100D01*
X144487050Y-164030260D01*
X144487050Y-164030260D01*
G37*
G36*
X40466430Y-164013750D02*
X38465450Y-164013750D01*
X38465450Y-163562170D01*
X40466430Y-163562170D01*
X40466430Y-164013750D01*
X40466430Y-164013750D01*
G37*
G36*
X50032070Y-164008670D02*
X48031090Y-164008670D01*
X48031090Y-163557090D01*
X50032070Y-163557090D01*
X50032070Y-164008670D01*
X50032070Y-164008670D01*
G37*
G36*
X54062780Y-163821480D02*
X53210780Y-163821480D01*
X53210780Y-163469480D01*
X54062780Y-163469480D01*
X54062780Y-163821480D01*
X54062780Y-163821480D01*
G37*
G36*
X51862780Y-163821480D02*
X51010780Y-163821480D01*
X51010780Y-163469480D01*
X51862780Y-163469480D01*
X51862780Y-163821480D01*
X51862780Y-163821480D01*
G37*
G36*
X153285080Y-163699280D02*
X149883080Y-163699280D01*
X149883080Y-161847280D01*
X153285080Y-161847280D01*
X153285080Y-163699280D01*
X153285080Y-163699280D01*
G37*
G36*
X65198480Y-163663980D02*
X64016480Y-163663980D01*
X64016480Y-162961980D01*
X65198480Y-162961980D01*
X65198480Y-163663980D01*
X65198480Y-163663980D01*
G37*
G36*
X59878480Y-163663980D02*
X58696480Y-163663980D01*
X58696480Y-162961980D01*
X59878480Y-162961980D01*
X59878480Y-163663980D01*
X59878480Y-163663980D01*
G37*
G36*
X139018480Y-163434580D02*
X138316480Y-163434580D01*
X138316480Y-162632580D01*
X139018480Y-162632580D01*
X139018480Y-163434580D01*
X139018480Y-163434580D01*
G37*
G36*
X140518480Y-163434580D02*
X139816480Y-163434580D01*
X139816480Y-162632580D01*
X140518480Y-162632580D01*
X140518480Y-163434580D01*
X140518480Y-163434580D01*
G37*
G36*
X50032070Y-163221270D02*
X48031090Y-163221270D01*
X48031090Y-162769690D01*
X50032070Y-162769690D01*
X50032070Y-163221270D01*
X50032070Y-163221270D01*
G37*
G36*
X40466430Y-163213650D02*
X38465450Y-163213650D01*
X38465450Y-162762070D01*
X40466430Y-162762070D01*
X40466430Y-163213650D01*
X40466430Y-163213650D01*
G37*
G36*
X38015280Y-163207480D02*
X37213280Y-163207480D01*
X37213280Y-162505480D01*
X38015280Y-162505480D01*
X38015280Y-163207480D01*
X38015280Y-163207480D01*
G37*
G36*
X51862780Y-163171480D02*
X51010780Y-163171480D01*
X51010780Y-162819480D01*
X51862780Y-162819480D01*
X51862780Y-163171480D01*
X51862780Y-163171480D01*
G37*
G36*
X144360050Y-162685330D02*
X143862750Y-162685330D01*
X143862750Y-162188030D01*
X144360050Y-162188030D01*
X144360050Y-162685330D01*
X144360050Y-162685330D01*
G37*
G36*
X145259210Y-162685330D02*
X144761910Y-162685330D01*
X144761910Y-162188030D01*
X145259210Y-162188030D01*
X145259210Y-162685330D01*
X145259210Y-162685330D01*
G37*
G36*
X135346320Y-162651930D02*
X134546760Y-162651930D01*
X134546760Y-161951430D01*
X135346320Y-161951430D01*
X135346320Y-162651930D01*
X135346320Y-162651930D01*
G37*
G36*
X51862780Y-162521480D02*
X51010780Y-162521480D01*
X51010780Y-162169480D01*
X51862780Y-162169480D01*
X51862780Y-162521480D01*
X51862780Y-162521480D01*
G37*
G36*
X54062780Y-162521480D02*
X53210780Y-162521480D01*
X53210780Y-162169480D01*
X54062780Y-162169480D01*
X54062780Y-162521480D01*
X54062780Y-162521480D01*
G37*
G36*
X40466430Y-162413550D02*
X38465450Y-162413550D01*
X38465450Y-161961970D01*
X40466430Y-161961970D01*
X40466430Y-162413550D01*
X40466430Y-162413550D01*
G37*
G36*
X50032070Y-162408470D02*
X48031090Y-162408470D01*
X48031090Y-161956890D01*
X50032070Y-161956890D01*
X50032070Y-162408470D01*
X50032070Y-162408470D01*
G37*
G36*
X59878480Y-162393980D02*
X58696480Y-162393980D01*
X58696480Y-161691980D01*
X59878480Y-161691980D01*
X59878480Y-162393980D01*
X59878480Y-162393980D01*
G37*
G36*
X65198480Y-162393980D02*
X64016480Y-162393980D01*
X64016480Y-161691980D01*
X65198480Y-161691980D01*
X65198480Y-162393980D01*
X65198480Y-162393980D01*
G37*
G36*
X144140180Y-161751680D02*
X143888180Y-161751680D01*
X143888180Y-161149680D01*
X144140180Y-161149680D01*
X144140180Y-161751680D01*
X144140180Y-161751680D01*
G37*
G36*
X144640180Y-161751680D02*
X144388180Y-161751680D01*
X144388180Y-161149680D01*
X144640180Y-161149680D01*
X144640180Y-161751680D01*
X144640180Y-161751680D01*
G37*
G36*
X145140180Y-161751680D02*
X144888180Y-161751680D01*
X144888180Y-161149680D01*
X145140180Y-161149680D01*
X145140180Y-161751680D01*
X145140180Y-161751680D01*
G37*
G36*
X145640180Y-161751680D02*
X145388180Y-161751680D01*
X145388180Y-161149680D01*
X145640180Y-161149680D01*
X145640180Y-161751680D01*
X145640180Y-161751680D01*
G37*
G36*
X38015280Y-161707480D02*
X37213280Y-161707480D01*
X37213280Y-161005480D01*
X38015280Y-161005480D01*
X38015280Y-161707480D01*
X38015280Y-161707480D01*
G37*
G36*
X50032070Y-161621070D02*
X48031090Y-161621070D01*
X48031090Y-161169490D01*
X50032070Y-161169490D01*
X50032070Y-161621070D01*
X50032070Y-161621070D01*
G37*
G36*
X40466430Y-161613450D02*
X38465450Y-161613450D01*
X38465450Y-161161870D01*
X40466430Y-161161870D01*
X40466430Y-161613450D01*
X40466430Y-161613450D01*
G37*
G36*
X134147540Y-161602680D02*
X133345540Y-161602680D01*
X133345540Y-160900680D01*
X134147540Y-160900680D01*
X134147540Y-161602680D01*
X134147540Y-161602680D01*
G37*
G36*
X141558480Y-161466080D02*
X140856480Y-161466080D01*
X140856480Y-160664080D01*
X141558480Y-160664080D01*
X141558480Y-161466080D01*
X141558480Y-161466080D01*
G37*
G36*
X143058480Y-161466080D02*
X142356480Y-161466080D01*
X142356480Y-160664080D01*
X143058480Y-160664080D01*
X143058480Y-161466080D01*
X143058480Y-161466080D01*
G37*
G36*
X135346320Y-161451930D02*
X134546760Y-161451930D01*
X134546760Y-160751430D01*
X135346320Y-160751430D01*
X135346320Y-161451930D01*
X135346320Y-161451930D01*
G37*
G36*
X130489680Y-161173080D02*
X129387680Y-161173080D01*
X129387680Y-160571080D01*
X130489680Y-160571080D01*
X130489680Y-161173080D01*
X130489680Y-161173080D01*
G37*
G36*
X133089680Y-161173080D02*
X131987680Y-161173080D01*
X131987680Y-160571080D01*
X133089680Y-160571080D01*
X133089680Y-161173080D01*
X133089680Y-161173080D01*
G37*
G36*
X65198480Y-161123980D02*
X64016480Y-161123980D01*
X64016480Y-160421980D01*
X65198480Y-160421980D01*
X65198480Y-161123980D01*
X65198480Y-161123980D01*
G37*
G36*
X59878480Y-161123980D02*
X58696480Y-161123980D01*
X58696480Y-160421980D01*
X59878480Y-160421980D01*
X59878480Y-161123980D01*
X59878480Y-161123980D01*
G37*
G36*
X52028510Y-160831130D02*
X51531210Y-160831130D01*
X51531210Y-160333830D01*
X52028510Y-160333830D01*
X52028510Y-160831130D01*
X52028510Y-160831130D01*
G37*
G36*
X51129350Y-160831130D02*
X50632050Y-160831130D01*
X50632050Y-160333830D01*
X51129350Y-160333830D01*
X51129350Y-160831130D01*
X51129350Y-160831130D01*
G37*
G36*
X40466430Y-160813350D02*
X38465450Y-160813350D01*
X38465450Y-160361770D01*
X40466430Y-160361770D01*
X40466430Y-160813350D01*
X40466430Y-160813350D01*
G37*
G36*
X50032070Y-160808270D02*
X48031090Y-160808270D01*
X48031090Y-160356690D01*
X50032070Y-160356690D01*
X50032070Y-160808270D01*
X50032070Y-160808270D01*
G37*
G36*
X145965180Y-160776680D02*
X143563180Y-160776680D01*
X143563180Y-160524680D01*
X145965180Y-160524680D01*
X145965180Y-160776680D01*
X145965180Y-160776680D01*
G37*
G36*
X145965180Y-160276680D02*
X143563180Y-160276680D01*
X143563180Y-160024680D01*
X145965180Y-160024680D01*
X145965180Y-160276680D01*
X145965180Y-160276680D01*
G37*
G36*
X133089680Y-160223080D02*
X131987680Y-160223080D01*
X131987680Y-159621080D01*
X133089680Y-159621080D01*
X133089680Y-160223080D01*
X133089680Y-160223080D01*
G37*
G36*
X130489680Y-160223080D02*
X129387680Y-160223080D01*
X129387680Y-159621080D01*
X130489680Y-159621080D01*
X130489680Y-160223080D01*
X130489680Y-160223080D01*
G37*
G36*
X38015280Y-160159480D02*
X37213280Y-160159480D01*
X37213280Y-159457480D01*
X38015280Y-159457480D01*
X38015280Y-160159480D01*
X38015280Y-160159480D01*
G37*
G36*
X134147540Y-160102680D02*
X133345540Y-160102680D01*
X133345540Y-159400680D01*
X134147540Y-159400680D01*
X134147540Y-160102680D01*
X134147540Y-160102680D01*
G37*
G36*
X50032070Y-160020870D02*
X48031090Y-160020870D01*
X48031090Y-159569290D01*
X50032070Y-159569290D01*
X50032070Y-160020870D01*
X50032070Y-160020870D01*
G37*
G36*
X40466430Y-160013250D02*
X38465450Y-160013250D01*
X38465450Y-159561670D01*
X40466430Y-159561670D01*
X40466430Y-160013250D01*
X40466430Y-160013250D01*
G37*
G36*
X65198480Y-159853980D02*
X64016480Y-159853980D01*
X64016480Y-159151980D01*
X65198480Y-159151980D01*
X65198480Y-159853980D01*
X65198480Y-159853980D01*
G37*
G36*
X59878480Y-159853980D02*
X58696480Y-159853980D01*
X58696480Y-159151980D01*
X59878480Y-159151980D01*
X59878480Y-159853980D01*
X59878480Y-159853980D01*
G37*
G36*
X145965180Y-159776680D02*
X143563180Y-159776680D01*
X143563180Y-159524680D01*
X145965180Y-159524680D01*
X145965180Y-159776680D01*
X145965180Y-159776680D01*
G37*
G36*
X52596380Y-159370580D02*
X51894380Y-159370580D01*
X51894380Y-158568580D01*
X52596380Y-158568580D01*
X52596380Y-159370580D01*
X52596380Y-159370580D01*
G37*
G36*
X51096380Y-159370580D02*
X50394380Y-159370580D01*
X50394380Y-158568580D01*
X51096380Y-158568580D01*
X51096380Y-159370580D01*
X51096380Y-159370580D01*
G37*
G36*
X142734450Y-159331260D02*
X141332910Y-159331260D01*
X141332910Y-158430100D01*
X142734450Y-158430100D01*
X142734450Y-159331260D01*
X142734450Y-159331260D01*
G37*
G36*
X130489680Y-159273080D02*
X129387680Y-159273080D01*
X129387680Y-158671080D01*
X130489680Y-158671080D01*
X130489680Y-159273080D01*
X130489680Y-159273080D01*
G37*
G36*
X133089680Y-159273080D02*
X131987680Y-159273080D01*
X131987680Y-158671080D01*
X133089680Y-158671080D01*
X133089680Y-159273080D01*
X133089680Y-159273080D01*
G37*
G36*
X147979550Y-159267760D02*
X146578010Y-159267760D01*
X146578010Y-158366600D01*
X147979550Y-158366600D01*
X147979550Y-159267760D01*
X147979550Y-159267760D01*
G37*
G36*
X40466430Y-159213150D02*
X38465450Y-159213150D01*
X38465450Y-158761570D01*
X40466430Y-158761570D01*
X40466430Y-159213150D01*
X40466430Y-159213150D01*
G37*
G36*
X53643900Y-159212060D02*
X52841900Y-159212060D01*
X52841900Y-158510060D01*
X53643900Y-158510060D01*
X53643900Y-159212060D01*
X53643900Y-159212060D01*
G37*
G36*
X50032070Y-159208070D02*
X48031090Y-159208070D01*
X48031090Y-158756490D01*
X50032070Y-158756490D01*
X50032070Y-159208070D01*
X50032070Y-159208070D01*
G37*
G36*
X54715780Y-159206980D02*
X53913780Y-159206980D01*
X53913780Y-158504980D01*
X54715780Y-158504980D01*
X54715780Y-159206980D01*
X54715780Y-159206980D01*
G37*
G36*
X145640180Y-159151680D02*
X145388180Y-159151680D01*
X145388180Y-158549680D01*
X145640180Y-158549680D01*
X145640180Y-159151680D01*
X145640180Y-159151680D01*
G37*
G36*
X145140180Y-159151680D02*
X144888180Y-159151680D01*
X144888180Y-158549680D01*
X145140180Y-158549680D01*
X145140180Y-159151680D01*
X145140180Y-159151680D01*
G37*
G36*
X144640180Y-159151680D02*
X144388180Y-159151680D01*
X144388180Y-158549680D01*
X144640180Y-158549680D01*
X144640180Y-159151680D01*
X144640180Y-159151680D01*
G37*
G36*
X144140180Y-159151680D02*
X143888180Y-159151680D01*
X143888180Y-158549680D01*
X144140180Y-158549680D01*
X144140180Y-159151680D01*
X144140180Y-159151680D01*
G37*
G36*
X134145440Y-158934310D02*
X133345880Y-158934310D01*
X133345880Y-158233810D01*
X134145440Y-158233810D01*
X134145440Y-158934310D01*
X134145440Y-158934310D01*
G37*
G36*
X38015280Y-158659480D02*
X37213280Y-158659480D01*
X37213280Y-157957480D01*
X38015280Y-157957480D01*
X38015280Y-158659480D01*
X38015280Y-158659480D01*
G37*
G36*
X59878480Y-158583980D02*
X58696480Y-158583980D01*
X58696480Y-157881980D01*
X59878480Y-157881980D01*
X59878480Y-158583980D01*
X59878480Y-158583980D01*
G37*
G36*
X65198480Y-158583980D02*
X64016480Y-158583980D01*
X64016480Y-157881980D01*
X65198480Y-157881980D01*
X65198480Y-158583980D01*
X65198480Y-158583980D01*
G37*
G36*
X40466430Y-158413050D02*
X38465450Y-158413050D01*
X38465450Y-157961470D01*
X40466430Y-157961470D01*
X40466430Y-158413050D01*
X40466430Y-158413050D01*
G37*
G36*
X50032070Y-158395270D02*
X48031090Y-158395270D01*
X48031090Y-157943690D01*
X50032070Y-157943690D01*
X50032070Y-158395270D01*
X50032070Y-158395270D01*
G37*
G36*
X51083630Y-158194610D02*
X50586330Y-158194610D01*
X50586330Y-157697310D01*
X51083630Y-157697310D01*
X51083630Y-158194610D01*
X51083630Y-158194610D01*
G37*
G36*
X153285080Y-158149280D02*
X149883080Y-158149280D01*
X149883080Y-156297280D01*
X153285080Y-156297280D01*
X153285080Y-158149280D01*
X153285080Y-158149280D01*
G37*
G36*
X144147960Y-157981250D02*
X143246800Y-157981250D01*
X143246800Y-156579710D01*
X144147960Y-156579710D01*
X144147960Y-157981250D01*
X144147960Y-157981250D01*
G37*
G36*
X146052960Y-157981250D02*
X145151800Y-157981250D01*
X145151800Y-156579710D01*
X146052960Y-156579710D01*
X146052960Y-157981250D01*
X146052960Y-157981250D01*
G37*
G36*
X134145440Y-157734310D02*
X133345880Y-157734310D01*
X133345880Y-157033810D01*
X134145440Y-157033810D01*
X134145440Y-157734310D01*
X134145440Y-157734310D01*
G37*
G36*
X53643900Y-157712060D02*
X52841900Y-157712060D01*
X52841900Y-157010060D01*
X53643900Y-157010060D01*
X53643900Y-157712060D01*
X53643900Y-157712060D01*
G37*
G36*
X54715780Y-157706980D02*
X53913780Y-157706980D01*
X53913780Y-157004980D01*
X54715780Y-157004980D01*
X54715780Y-157706980D01*
X54715780Y-157706980D01*
G37*
G36*
X142734450Y-157426260D02*
X141332910Y-157426260D01*
X141332910Y-156525100D01*
X142734450Y-156525100D01*
X142734450Y-157426260D01*
X142734450Y-157426260D01*
G37*
G36*
X147979550Y-157362760D02*
X146578010Y-157362760D01*
X146578010Y-156461600D01*
X147979550Y-156461600D01*
X147979550Y-157362760D01*
X147979550Y-157362760D01*
G37*
G36*
X65198480Y-157313980D02*
X64016480Y-157313980D01*
X64016480Y-156611980D01*
X65198480Y-156611980D01*
X65198480Y-157313980D01*
X65198480Y-157313980D01*
G37*
G36*
X59878480Y-157313980D02*
X58696480Y-157313980D01*
X58696480Y-156611980D01*
X59878480Y-156611980D01*
X59878480Y-157313980D01*
X59878480Y-157313980D01*
G37*
G36*
X51083630Y-157295450D02*
X50586330Y-157295450D01*
X50586330Y-156798150D01*
X51083630Y-156798150D01*
X51083630Y-157295450D01*
X51083630Y-157295450D01*
G37*
G36*
X41688170Y-157188770D02*
X41236590Y-157188770D01*
X41236590Y-155187790D01*
X41688170Y-155187790D01*
X41688170Y-157188770D01*
X41688170Y-157188770D01*
G37*
G36*
X42475570Y-157188770D02*
X42023990Y-157188770D01*
X42023990Y-155187790D01*
X42475570Y-155187790D01*
X42475570Y-157188770D01*
X42475570Y-157188770D01*
G37*
G36*
X43288370Y-157188770D02*
X42836790Y-157188770D01*
X42836790Y-155187790D01*
X43288370Y-155187790D01*
X43288370Y-157188770D01*
X43288370Y-157188770D01*
G37*
G36*
X44075770Y-157188770D02*
X43624190Y-157188770D01*
X43624190Y-155187790D01*
X44075770Y-155187790D01*
X44075770Y-157188770D01*
X44075770Y-157188770D01*
G37*
G36*
X44863170Y-157188770D02*
X44411590Y-157188770D01*
X44411590Y-155187790D01*
X44863170Y-155187790D01*
X44863170Y-157188770D01*
X44863170Y-157188770D01*
G37*
G36*
X47301570Y-157188770D02*
X46849990Y-157188770D01*
X46849990Y-155187790D01*
X47301570Y-155187790D01*
X47301570Y-157188770D01*
X47301570Y-157188770D01*
G37*
G36*
X46488770Y-157188770D02*
X46037190Y-157188770D01*
X46037190Y-155187790D01*
X46488770Y-155187790D01*
X46488770Y-157188770D01*
X46488770Y-157188770D01*
G37*
G36*
X45675970Y-157188770D02*
X45224390Y-157188770D01*
X45224390Y-155187790D01*
X45675970Y-155187790D01*
X45675970Y-157188770D01*
X45675970Y-157188770D01*
G37*
G36*
X65198480Y-156043980D02*
X64016480Y-156043980D01*
X64016480Y-155341980D01*
X65198480Y-155341980D01*
X65198480Y-156043980D01*
X65198480Y-156043980D01*
G37*
G36*
X59878480Y-156043980D02*
X58696480Y-156043980D01*
X58696480Y-155341980D01*
X59878480Y-155341980D01*
X59878480Y-156043980D01*
X59878480Y-156043980D01*
G37*
G36*
X148899780Y-155963980D02*
X148197780Y-155963980D01*
X148197780Y-154911980D01*
X148899780Y-154911980D01*
X148899780Y-155963980D01*
X148899780Y-155963980D01*
G37*
G36*
X147578180Y-155892280D02*
X146776180Y-155892280D01*
X146776180Y-155190280D01*
X147578180Y-155190280D01*
X147578180Y-155892280D01*
X147578180Y-155892280D01*
G37*
G36*
X38175780Y-155287480D02*
X37573780Y-155287480D01*
X37573780Y-153685480D01*
X38175780Y-153685480D01*
X38175780Y-155287480D01*
X38175780Y-155287480D01*
G37*
G36*
X39375780Y-155287480D02*
X38773780Y-155287480D01*
X38773780Y-153685480D01*
X39375780Y-153685480D01*
X39375780Y-155287480D01*
X39375780Y-155287480D01*
G37*
G36*
X40575780Y-155287480D02*
X39973780Y-155287480D01*
X39973780Y-153685480D01*
X40575780Y-153685480D01*
X40575780Y-155287480D01*
X40575780Y-155287480D01*
G37*
G36*
X58238810Y-154862130D02*
X57741510Y-154862130D01*
X57741510Y-154364830D01*
X58238810Y-154364830D01*
X58238810Y-154862130D01*
X58238810Y-154862130D01*
G37*
G36*
X57339650Y-154862130D02*
X56842350Y-154862130D01*
X56842350Y-154364830D01*
X57339650Y-154364830D01*
X57339650Y-154862130D01*
X57339650Y-154862130D01*
G37*
G36*
X148899780Y-154728980D02*
X148197780Y-154728980D01*
X148197780Y-154206980D01*
X148899780Y-154206980D01*
X148899780Y-154728980D01*
X148899780Y-154728980D01*
G37*
G36*
X59549450Y-154620830D02*
X59052150Y-154620830D01*
X59052150Y-154123530D01*
X59549450Y-154123530D01*
X59549450Y-154620830D01*
X59549450Y-154620830D01*
G37*
G36*
X60448610Y-154620830D02*
X59951310Y-154620830D01*
X59951310Y-154123530D01*
X60448610Y-154123530D01*
X60448610Y-154620830D01*
X60448610Y-154620830D01*
G37*
G36*
X41775780Y-154615480D02*
X41423780Y-154615480D01*
X41423780Y-153763480D01*
X41775780Y-153763480D01*
X41775780Y-154615480D01*
X41775780Y-154615480D01*
G37*
G36*
X42425780Y-154615480D02*
X42073780Y-154615480D01*
X42073780Y-153763480D01*
X42425780Y-153763480D01*
X42425780Y-154615480D01*
X42425780Y-154615480D01*
G37*
G36*
X43075780Y-154615480D02*
X42723780Y-154615480D01*
X42723780Y-153763480D01*
X43075780Y-153763480D01*
X43075780Y-154615480D01*
X43075780Y-154615480D01*
G37*
G36*
X44461850Y-154481130D02*
X43964550Y-154481130D01*
X43964550Y-153983830D01*
X44461850Y-153983830D01*
X44461850Y-154481130D01*
X44461850Y-154481130D01*
G37*
G36*
X45361010Y-154481130D02*
X44863710Y-154481130D01*
X44863710Y-153983830D01*
X45361010Y-153983830D01*
X45361010Y-154481130D01*
X45361010Y-154481130D01*
G37*
G36*
X130116790Y-154461460D02*
X129416290Y-154461460D01*
X129416290Y-153661900D01*
X130116790Y-153661900D01*
X130116790Y-154461460D01*
X130116790Y-154461460D01*
G37*
G36*
X131316790Y-154461460D02*
X130616290Y-154461460D01*
X130616290Y-153661900D01*
X131316790Y-153661900D01*
X131316790Y-154461460D01*
X131316790Y-154461460D01*
G37*
G36*
X147578180Y-154392280D02*
X146776180Y-154392280D01*
X146776180Y-153690280D01*
X147578180Y-153690280D01*
X147578180Y-154392280D01*
X147578180Y-154392280D01*
G37*
G36*
X144937380Y-154325680D02*
X144235380Y-154325680D01*
X144235380Y-153273680D01*
X144937380Y-153273680D01*
X144937380Y-154325680D01*
X144937380Y-154325680D01*
G37*
G36*
X48919280Y-154232980D02*
X48067280Y-154232980D01*
X48067280Y-153880980D01*
X48919280Y-153880980D01*
X48919280Y-154232980D01*
X48919280Y-154232980D01*
G37*
G36*
X46719280Y-154232980D02*
X45867280Y-154232980D01*
X45867280Y-153880980D01*
X46719280Y-153880980D01*
X46719280Y-154232980D01*
X46719280Y-154232980D01*
G37*
G36*
X63937880Y-154107170D02*
X63138320Y-154107170D01*
X63138320Y-153406670D01*
X63937880Y-153406670D01*
X63937880Y-154107170D01*
X63937880Y-154107170D01*
G37*
G36*
X46719280Y-153582980D02*
X45867280Y-153582980D01*
X45867280Y-153230980D01*
X46719280Y-153230980D01*
X46719280Y-153582980D01*
X46719280Y-153582980D01*
G37*
G36*
X64990760Y-153408060D02*
X64288760Y-153408060D01*
X64288760Y-152606060D01*
X64990760Y-152606060D01*
X64990760Y-153408060D01*
X64990760Y-153408060D01*
G37*
G36*
X66490760Y-153408060D02*
X65788760Y-153408060D01*
X65788760Y-152606060D01*
X66490760Y-152606060D01*
X66490760Y-153408060D01*
X66490760Y-153408060D01*
G37*
G36*
X144937380Y-153090680D02*
X144235380Y-153090680D01*
X144235380Y-152568680D01*
X144937380Y-152568680D01*
X144937380Y-153090680D01*
X144937380Y-153090680D01*
G37*
G36*
X133297540Y-153082680D02*
X132195540Y-153082680D01*
X132195540Y-152480680D01*
X133297540Y-152480680D01*
X133297540Y-153082680D01*
X133297540Y-153082680D01*
G37*
G36*
X130697540Y-153082680D02*
X129595540Y-153082680D01*
X129595540Y-152480680D01*
X130697540Y-152480680D01*
X130697540Y-153082680D01*
X130697540Y-153082680D01*
G37*
G36*
X48919280Y-152932980D02*
X48067280Y-152932980D01*
X48067280Y-152580980D01*
X48919280Y-152580980D01*
X48919280Y-152932980D01*
X48919280Y-152932980D01*
G37*
G36*
X46719280Y-152932980D02*
X45867280Y-152932980D01*
X45867280Y-152580980D01*
X46719280Y-152580980D01*
X46719280Y-152932980D01*
X46719280Y-152932980D01*
G37*
G36*
X63937880Y-152907170D02*
X63138320Y-152907170D01*
X63138320Y-152206670D01*
X63937880Y-152206670D01*
X63937880Y-152907170D01*
X63937880Y-152907170D01*
G37*
G36*
X43075780Y-152415480D02*
X42723780Y-152415480D01*
X42723780Y-151563480D01*
X43075780Y-151563480D01*
X43075780Y-152415480D01*
X43075780Y-152415480D01*
G37*
G36*
X41775780Y-152415480D02*
X41423780Y-152415480D01*
X41423780Y-151563480D01*
X41775780Y-151563480D01*
X41775780Y-152415480D01*
X41775780Y-152415480D01*
G37*
G36*
X133297540Y-152132680D02*
X132195540Y-152132680D01*
X132195540Y-151530680D01*
X133297540Y-151530680D01*
X133297540Y-152132680D01*
X133297540Y-152132680D01*
G37*
G36*
X130697540Y-152132680D02*
X129595540Y-152132680D01*
X129595540Y-151530680D01*
X130697540Y-151530680D01*
X130697540Y-152132680D01*
X130697540Y-152132680D01*
G37*
G36*
X66704820Y-151789180D02*
X65602820Y-151789180D01*
X65602820Y-151187180D01*
X66704820Y-151187180D01*
X66704820Y-151789180D01*
X66704820Y-151789180D01*
G37*
G36*
X64104820Y-151789180D02*
X63002820Y-151789180D01*
X63002820Y-151187180D01*
X64104820Y-151187180D01*
X64104820Y-151789180D01*
X64104820Y-151789180D01*
G37*
G36*
X146529580Y-151548180D02*
X146007580Y-151548180D01*
X146007580Y-150846180D01*
X146529580Y-150846180D01*
X146529580Y-151548180D01*
X146529580Y-151548180D01*
G37*
G36*
X145824580Y-151548180D02*
X144772580Y-151548180D01*
X144772580Y-150846180D01*
X145824580Y-150846180D01*
X145824580Y-151548180D01*
X145824580Y-151548180D01*
G37*
G36*
X148170050Y-151445830D02*
X147672750Y-151445830D01*
X147672750Y-150948530D01*
X148170050Y-150948530D01*
X148170050Y-151445830D01*
X148170050Y-151445830D01*
G37*
G36*
X149069210Y-151445830D02*
X148571910Y-151445830D01*
X148571910Y-150948530D01*
X149069210Y-150948530D01*
X149069210Y-151445830D01*
X149069210Y-151445830D01*
G37*
G36*
X130697540Y-151182680D02*
X129595540Y-151182680D01*
X129595540Y-150580680D01*
X130697540Y-150580680D01*
X130697540Y-151182680D01*
X130697540Y-151182680D01*
G37*
G36*
X133297540Y-151182680D02*
X132195540Y-151182680D01*
X132195540Y-150580680D01*
X133297540Y-150580680D01*
X133297540Y-151182680D01*
X133297540Y-151182680D01*
G37*
G36*
X66704820Y-150839180D02*
X65602820Y-150839180D01*
X65602820Y-150237180D01*
X66704820Y-150237180D01*
X66704820Y-150839180D01*
X66704820Y-150839180D01*
G37*
G36*
X64104820Y-150839180D02*
X63002820Y-150839180D01*
X63002820Y-150237180D01*
X64104820Y-150237180D01*
X64104820Y-150839180D01*
X64104820Y-150839180D01*
G37*
G36*
X130527540Y-150292680D02*
X129725540Y-150292680D01*
X129725540Y-149590680D01*
X130527540Y-149590680D01*
X130527540Y-150292680D01*
X130527540Y-150292680D01*
G37*
G36*
X39201510Y-150226630D02*
X38704210Y-150226630D01*
X38704210Y-149729330D01*
X39201510Y-149729330D01*
X39201510Y-150226630D01*
X39201510Y-150226630D01*
G37*
G36*
X38302350Y-150226630D02*
X37805050Y-150226630D01*
X37805050Y-149729330D01*
X38302350Y-149729330D01*
X38302350Y-150226630D01*
X38302350Y-150226630D01*
G37*
G36*
X41171610Y-150221550D02*
X39698950Y-150221550D01*
X39698950Y-149800450D01*
X41171610Y-149800450D01*
X41171610Y-150221550D01*
X41171610Y-150221550D01*
G37*
G36*
X47721610Y-150221550D02*
X46248950Y-150221550D01*
X46248950Y-149800450D01*
X47721610Y-149800450D01*
X47721610Y-150221550D01*
X47721610Y-150221550D01*
G37*
G36*
X132906320Y-149961930D02*
X132106760Y-149961930D01*
X132106760Y-149261430D01*
X132906320Y-149261430D01*
X132906320Y-149961930D01*
X132906320Y-149961930D01*
G37*
G36*
X64104820Y-149889180D02*
X63002820Y-149889180D01*
X63002820Y-149287180D01*
X64104820Y-149287180D01*
X64104820Y-149889180D01*
X64104820Y-149889180D01*
G37*
G36*
X66704820Y-149889180D02*
X65602820Y-149889180D01*
X65602820Y-149287180D01*
X66704820Y-149287180D01*
X66704820Y-149889180D01*
X66704820Y-149889180D01*
G37*
G36*
X41171610Y-149571310D02*
X39698950Y-149571310D01*
X39698950Y-149150210D01*
X41171610Y-149150210D01*
X41171610Y-149571310D01*
X41171610Y-149571310D01*
G37*
G36*
X47721610Y-149571310D02*
X46248950Y-149571310D01*
X46248950Y-149150210D01*
X47721610Y-149150210D01*
X47721610Y-149571310D01*
X47721610Y-149571310D01*
G37*
G36*
X155710680Y-149245880D02*
X150708680Y-149245880D01*
X150708680Y-147243880D01*
X155710680Y-147243880D01*
X155710680Y-149245880D01*
X155710680Y-149245880D01*
G37*
G36*
X47721610Y-148923610D02*
X46248950Y-148923610D01*
X46248950Y-148502510D01*
X47721610Y-148502510D01*
X47721610Y-148923610D01*
X47721610Y-148923610D01*
G37*
G36*
X41171610Y-148923610D02*
X39698950Y-148923610D01*
X39698950Y-148502510D01*
X41171610Y-148502510D01*
X41171610Y-148923610D01*
X41171610Y-148923610D01*
G37*
G36*
X130527540Y-148792680D02*
X129725540Y-148792680D01*
X129725540Y-148090680D01*
X130527540Y-148090680D01*
X130527540Y-148792680D01*
X130527540Y-148792680D01*
G37*
G36*
X132906320Y-148761930D02*
X132106760Y-148761930D01*
X132106760Y-148061430D01*
X132906320Y-148061430D01*
X132906320Y-148761930D01*
X132906320Y-148761930D01*
G37*
G36*
X66579480Y-148628390D02*
X65779920Y-148628390D01*
X65779920Y-147927890D01*
X66579480Y-147927890D01*
X66579480Y-148628390D01*
X66579480Y-148628390D01*
G37*
G36*
X55508651Y-145461459D02*
X55754874Y-145512001D01*
X55796809Y-145520609D01*
X56044487Y-145624724D01*
X56067988Y-145634603D01*
X56311862Y-145799098D01*
X56519141Y-146007829D01*
X56681930Y-146252845D01*
X56710701Y-146322650D01*
X56794028Y-146524816D01*
X56834237Y-146727890D01*
X56851164Y-146813377D01*
X56846473Y-147149370D01*
X56781301Y-147436225D01*
X56661653Y-147704958D01*
X56492087Y-147945333D01*
X56279061Y-148148196D01*
X56077391Y-148276179D01*
X56030689Y-148305817D01*
X55756431Y-148412195D01*
X55572130Y-148444692D01*
X55466735Y-148463276D01*
X55189052Y-148457459D01*
X55172632Y-148457115D01*
X54957158Y-148409740D01*
X54885332Y-148393948D01*
X54615770Y-148276179D01*
X54374216Y-148108295D01*
X54169872Y-147896690D01*
X54010520Y-147649425D01*
X53902231Y-147375917D01*
X53849128Y-147086584D01*
X53853235Y-146792448D01*
X53866957Y-146727890D01*
X53914395Y-146504713D01*
X53937566Y-146450652D01*
X54030280Y-146234333D01*
X54196473Y-145991613D01*
X54406646Y-145785797D01*
X54406647Y-145785796D01*
X54637695Y-145634603D01*
X54652793Y-145624723D01*
X54925539Y-145514526D01*
X55214493Y-145459405D01*
X55508651Y-145461459D01*
X55508651Y-145461459D01*
G37*
G36*
X41171610Y-148273370D02*
X39698950Y-148273370D01*
X39698950Y-147852270D01*
X41171610Y-147852270D01*
X41171610Y-148273370D01*
X41171610Y-148273370D01*
G37*
G36*
X47721610Y-148263210D02*
X46248950Y-148263210D01*
X46248950Y-147842110D01*
X47721610Y-147842110D01*
X47721610Y-148263210D01*
X47721610Y-148263210D01*
G37*
G36*
X38302350Y-147686630D02*
X37805050Y-147686630D01*
X37805050Y-147189330D01*
X38302350Y-147189330D01*
X38302350Y-147686630D01*
X38302350Y-147686630D01*
G37*
G36*
X39201510Y-147686630D02*
X38704210Y-147686630D01*
X38704210Y-147189330D01*
X39201510Y-147189330D01*
X39201510Y-147686630D01*
X39201510Y-147686630D01*
G37*
G36*
X41171610Y-147623130D02*
X39698950Y-147623130D01*
X39698950Y-147202030D01*
X41171610Y-147202030D01*
X41171610Y-147623130D01*
X41171610Y-147623130D01*
G37*
G36*
X47721610Y-147623130D02*
X46248950Y-147623130D01*
X46248950Y-147202030D01*
X47721610Y-147202030D01*
X47721610Y-147623130D01*
X47721610Y-147623130D01*
G37*
G36*
X66579480Y-147428390D02*
X65779920Y-147428390D01*
X65779920Y-146727890D01*
X66579480Y-146727890D01*
X66579480Y-147428390D01*
X66579480Y-147428390D01*
G37*
G36*
X47721610Y-146972890D02*
X46248950Y-146972890D01*
X46248950Y-146551790D01*
X47721610Y-146551790D01*
X47721610Y-146972890D01*
X47721610Y-146972890D01*
G37*
G36*
X41171610Y-146972890D02*
X39698950Y-146972890D01*
X39698950Y-146551790D01*
X41171610Y-146551790D01*
X41171610Y-146972890D01*
X41171610Y-146972890D01*
G37*
G36*
X47721610Y-146322650D02*
X46248950Y-146322650D01*
X46248950Y-145901550D01*
X47721610Y-145901550D01*
X47721610Y-146322650D01*
X47721610Y-146322650D01*
G37*
G36*
X41171610Y-146322650D02*
X39698950Y-146322650D01*
X39698950Y-145901550D01*
X41171610Y-145901550D01*
X41171610Y-146322650D01*
X41171610Y-146322650D01*
G37*
G36*
X41171610Y-145672410D02*
X39698950Y-145672410D01*
X39698950Y-145251310D01*
X41171610Y-145251310D01*
X41171610Y-145672410D01*
X41171610Y-145672410D01*
G37*
G36*
X47721610Y-145672410D02*
X46248950Y-145672410D01*
X46248950Y-145251310D01*
X47721610Y-145251310D01*
X47721610Y-145672410D01*
X47721610Y-145672410D01*
G37*
G36*
X47721610Y-145022170D02*
X46248950Y-145022170D01*
X46248950Y-144601070D01*
X47721610Y-144601070D01*
X47721610Y-145022170D01*
X47721610Y-145022170D01*
G37*
G36*
X41171610Y-145022170D02*
X39698950Y-145022170D01*
X39698950Y-144601070D01*
X41171610Y-144601070D01*
X41171610Y-145022170D01*
X41171610Y-145022170D01*
G37*
G36*
X41171610Y-144371930D02*
X39698950Y-144371930D01*
X39698950Y-143950830D01*
X41171610Y-143950830D01*
X41171610Y-144371930D01*
X41171610Y-144371930D01*
G37*
G36*
X47721610Y-144371930D02*
X46248950Y-144371930D01*
X46248950Y-143950830D01*
X47721610Y-143950830D01*
X47721610Y-144371930D01*
X47721610Y-144371930D01*
G37*
G36*
X48784930Y-144008710D02*
X48287630Y-144008710D01*
X48287630Y-143511410D01*
X48784930Y-143511410D01*
X48784930Y-144008710D01*
X48784930Y-144008710D01*
G37*
G36*
X155710680Y-143745880D02*
X150708680Y-143745880D01*
X150708680Y-141743880D01*
X155710680Y-141743880D01*
X155710680Y-143745880D01*
X155710680Y-143745880D01*
G37*
G36*
X41171610Y-143721690D02*
X39698950Y-143721690D01*
X39698950Y-143300590D01*
X41171610Y-143300590D01*
X41171610Y-143721690D01*
X41171610Y-143721690D01*
G37*
G36*
X47721610Y-143721690D02*
X46248950Y-143721690D01*
X46248950Y-143300590D01*
X47721610Y-143300590D01*
X47721610Y-143721690D01*
X47721610Y-143721690D01*
G37*
G36*
X48784930Y-143109550D02*
X48287630Y-143109550D01*
X48287630Y-142612250D01*
X48784930Y-142612250D01*
X48784930Y-143109550D01*
X48784930Y-143109550D01*
G37*
G36*
X41171610Y-143071450D02*
X39698950Y-143071450D01*
X39698950Y-142650350D01*
X41171610Y-142650350D01*
X41171610Y-143071450D01*
X41171610Y-143071450D01*
G37*
G36*
X47721610Y-143071450D02*
X46248950Y-143071450D01*
X46248950Y-142650350D01*
X47721610Y-142650350D01*
X47721610Y-143071450D01*
X47721610Y-143071450D01*
G37*
G36*
X41171610Y-142423750D02*
X39698950Y-142423750D01*
X39698950Y-142002650D01*
X41171610Y-142002650D01*
X41171610Y-142423750D01*
X41171610Y-142423750D01*
G37*
G36*
X47721610Y-142423750D02*
X46248950Y-142423750D01*
X46248950Y-142002650D01*
X47721610Y-142002650D01*
X47721610Y-142423750D01*
X47721610Y-142423750D01*
G37*
G36*
X136340180Y-142149380D02*
X135638180Y-142149380D01*
X135638180Y-141347380D01*
X136340180Y-141347380D01*
X136340180Y-142149380D01*
X136340180Y-142149380D01*
G37*
G36*
X134840180Y-142149380D02*
X134138180Y-142149380D01*
X134138180Y-141347380D01*
X134840180Y-141347380D01*
X134840180Y-142149380D01*
X134840180Y-142149380D01*
G37*
G36*
X47721610Y-141773510D02*
X46248950Y-141773510D01*
X46248950Y-141352410D01*
X47721610Y-141352410D01*
X47721610Y-141773510D01*
X47721610Y-141773510D01*
G37*
G36*
X41171610Y-141773510D02*
X39698950Y-141773510D01*
X39698950Y-141352410D01*
X41171610Y-141352410D01*
X41171610Y-141773510D01*
X41171610Y-141773510D01*
G37*
G36*
X148550780Y-140196580D02*
X145498780Y-140196580D01*
X145498780Y-138044580D01*
X148550780Y-138044580D01*
X148550780Y-140196580D01*
X148550780Y-140196580D01*
G37*
G36*
X154209780Y-139951380D02*
X153107780Y-139951380D01*
X153107780Y-139349380D01*
X154209780Y-139349380D01*
X154209780Y-139951380D01*
X154209780Y-139951380D01*
G37*
G36*
X151609780Y-139951380D02*
X150507780Y-139951380D01*
X150507780Y-139349380D01*
X151609780Y-139349380D01*
X151609780Y-139951380D01*
X151609780Y-139951380D01*
G37*
G36*
X66603560Y-139683400D02*
X65801560Y-139683400D01*
X65801560Y-138981400D01*
X66603560Y-138981400D01*
X66603560Y-139683400D01*
X66603560Y-139683400D01*
G37*
G36*
X142498230Y-139068410D02*
X142000930Y-139068410D01*
X142000930Y-138571110D01*
X142498230Y-138571110D01*
X142498230Y-139068410D01*
X142498230Y-139068410D01*
G37*
G36*
X154209780Y-139001380D02*
X153107780Y-139001380D01*
X153107780Y-138399380D01*
X154209780Y-138399380D01*
X154209780Y-139001380D01*
X154209780Y-139001380D01*
G37*
G36*
X151609780Y-139001380D02*
X150507780Y-139001380D01*
X150507780Y-138399380D01*
X151609780Y-138399380D01*
X151609780Y-139001380D01*
X151609780Y-139001380D01*
G37*
G36*
X64036940Y-138486170D02*
X63237380Y-138486170D01*
X63237380Y-137785670D01*
X64036940Y-137785670D01*
X64036940Y-138486170D01*
X64036940Y-138486170D01*
G37*
G36*
X66603560Y-138183400D02*
X65801560Y-138183400D01*
X65801560Y-137481400D01*
X66603560Y-137481400D01*
X66603560Y-138183400D01*
X66603560Y-138183400D01*
G37*
G36*
X142498230Y-138169250D02*
X142000930Y-138169250D01*
X142000930Y-137671950D01*
X142498230Y-137671950D01*
X142498230Y-138169250D01*
X142498230Y-138169250D01*
G37*
G36*
X154209780Y-138051380D02*
X153107780Y-138051380D01*
X153107780Y-137449380D01*
X154209780Y-137449380D01*
X154209780Y-138051380D01*
X154209780Y-138051380D01*
G37*
G36*
X151609780Y-138051380D02*
X150507780Y-138051380D01*
X150507780Y-137449380D01*
X151609780Y-137449380D01*
X151609780Y-138051380D01*
X151609780Y-138051380D01*
G37*
G36*
X64036940Y-137286170D02*
X63237380Y-137286170D01*
X63237380Y-136585670D01*
X64036940Y-136585670D01*
X64036940Y-137286170D01*
X64036940Y-137286170D01*
G37*
G36*
X144900780Y-136896580D02*
X143248780Y-136896580D01*
X143248780Y-136044580D01*
X144900780Y-136044580D01*
X144900780Y-136896580D01*
X144900780Y-136896580D01*
G37*
G36*
X64125140Y-136104680D02*
X63023140Y-136104680D01*
X63023140Y-135502680D01*
X64125140Y-135502680D01*
X64125140Y-136104680D01*
X64125140Y-136104680D01*
G37*
G36*
X66725140Y-136104680D02*
X65623140Y-136104680D01*
X65623140Y-135502680D01*
X66725140Y-135502680D01*
X66725140Y-136104680D01*
X66725140Y-136104680D01*
G37*
G36*
X144900780Y-135646580D02*
X143248780Y-135646580D01*
X143248780Y-134794580D01*
X144900780Y-134794580D01*
X144900780Y-135646580D01*
X144900780Y-135646580D01*
G37*
G36*
X64125140Y-135154680D02*
X63023140Y-135154680D01*
X63023140Y-134552680D01*
X64125140Y-134552680D01*
X64125140Y-135154680D01*
X64125140Y-135154680D01*
G37*
G36*
X66725140Y-135154680D02*
X65623140Y-135154680D01*
X65623140Y-134552680D01*
X66725140Y-134552680D01*
X66725140Y-135154680D01*
X66725140Y-135154680D01*
G37*
G36*
X144900780Y-134396580D02*
X143248780Y-134396580D01*
X143248780Y-133544580D01*
X144900780Y-133544580D01*
X144900780Y-134396580D01*
X144900780Y-134396580D01*
G37*
G36*
X66725140Y-134204680D02*
X65623140Y-134204680D01*
X65623140Y-133602680D01*
X66725140Y-133602680D01*
X66725140Y-134204680D01*
X66725140Y-134204680D01*
G37*
G36*
X64125140Y-134204680D02*
X63023140Y-134204680D01*
X63023140Y-133602680D01*
X64125140Y-133602680D01*
X64125140Y-134204680D01*
X64125140Y-134204680D01*
G37*
G36*
X66569320Y-133081050D02*
X65769760Y-133081050D01*
X65769760Y-132380550D01*
X66569320Y-132380550D01*
X66569320Y-133081050D01*
X66569320Y-133081050D01*
G37*
G36*
X148550780Y-132396580D02*
X145498780Y-132396580D01*
X145498780Y-130244580D01*
X148550780Y-130244580D01*
X148550780Y-132396580D01*
X148550780Y-132396580D01*
G37*
G36*
X66569320Y-131881050D02*
X65769760Y-131881050D01*
X65769760Y-131180550D01*
X66569320Y-131180550D01*
X66569320Y-131881050D01*
X66569320Y-131881050D01*
G37*
G36*
X155723380Y-128224840D02*
X150721380Y-128224840D01*
X150721380Y-126222840D01*
X155723380Y-126222840D01*
X155723380Y-128224840D01*
X155723380Y-128224840D01*
G37*
G36*
X36825720Y-125183309D02*
X36826402Y-125183314D01*
X36842793Y-125186678D01*
X36922647Y-125203069D01*
X37013219Y-125241142D01*
X37036255Y-125256681D01*
X37094675Y-125296085D01*
X37158527Y-125360384D01*
X37163906Y-125365801D01*
X37218277Y-125447636D01*
X37255719Y-125538476D01*
X37274801Y-125634848D01*
X37274801Y-125634854D01*
X37273234Y-125747076D01*
X37251467Y-125842885D01*
X37251466Y-125842887D01*
X37211505Y-125932642D01*
X37154869Y-126012928D01*
X37083718Y-126080685D01*
X37000763Y-126133330D01*
X36909160Y-126168861D01*
X36812405Y-126185921D01*
X36714170Y-126183863D01*
X36618214Y-126162766D01*
X36528181Y-126123431D01*
X36447500Y-126067357D01*
X36379249Y-125996680D01*
X36326026Y-125914095D01*
X36289857Y-125822743D01*
X36272121Y-125726105D01*
X36273493Y-125627863D01*
X36293919Y-125531762D01*
X36332626Y-125441452D01*
X36388135Y-125360384D01*
X36458332Y-125291642D01*
X36540544Y-125237844D01*
X36586095Y-125219441D01*
X36631643Y-125201038D01*
X36658296Y-125195954D01*
X36728153Y-125182627D01*
X36825720Y-125183309D01*
X36825720Y-125183309D01*
G37*
G36*
X36808970Y-123969359D02*
X36809652Y-123969364D01*
X36826043Y-123972728D01*
X36905897Y-123989119D01*
X36996469Y-124027192D01*
X37019505Y-124042731D01*
X37077925Y-124082135D01*
X37141777Y-124146434D01*
X37147156Y-124151851D01*
X37201527Y-124233686D01*
X37238969Y-124324526D01*
X37258051Y-124420898D01*
X37258051Y-124420904D01*
X37256484Y-124533126D01*
X37234717Y-124628935D01*
X37234716Y-124628937D01*
X37194755Y-124718692D01*
X37138119Y-124798978D01*
X37066968Y-124866735D01*
X36984013Y-124919380D01*
X36892410Y-124954911D01*
X36795655Y-124971971D01*
X36697420Y-124969913D01*
X36601464Y-124948816D01*
X36511431Y-124909481D01*
X36430750Y-124853407D01*
X36362499Y-124782730D01*
X36309276Y-124700145D01*
X36273107Y-124608793D01*
X36255371Y-124512155D01*
X36256743Y-124413913D01*
X36277169Y-124317812D01*
X36315876Y-124227502D01*
X36371385Y-124146434D01*
X36441582Y-124077692D01*
X36523794Y-124023894D01*
X36569345Y-124005491D01*
X36614893Y-123987088D01*
X36641546Y-123982004D01*
X36711403Y-123968677D01*
X36808970Y-123969359D01*
X36808970Y-123969359D01*
G37*
G36*
X36825720Y-122783309D02*
X36826402Y-122783314D01*
X36842793Y-122786678D01*
X36922647Y-122803069D01*
X37013219Y-122841142D01*
X37036255Y-122856681D01*
X37094675Y-122896085D01*
X37158527Y-122960384D01*
X37163906Y-122965801D01*
X37218277Y-123047636D01*
X37255719Y-123138476D01*
X37274801Y-123234848D01*
X37274801Y-123234854D01*
X37273234Y-123347076D01*
X37251467Y-123442885D01*
X37251466Y-123442887D01*
X37211505Y-123532642D01*
X37154869Y-123612928D01*
X37083718Y-123680685D01*
X37000763Y-123733330D01*
X36909160Y-123768861D01*
X36812405Y-123785921D01*
X36714170Y-123783863D01*
X36618214Y-123762766D01*
X36528181Y-123723431D01*
X36447500Y-123667357D01*
X36379249Y-123596680D01*
X36326026Y-123514095D01*
X36289857Y-123422743D01*
X36272121Y-123326105D01*
X36273493Y-123227863D01*
X36293919Y-123131762D01*
X36332626Y-123041452D01*
X36388135Y-122960384D01*
X36458332Y-122891642D01*
X36540544Y-122837844D01*
X36586094Y-122819441D01*
X36631643Y-122801038D01*
X36658296Y-122795954D01*
X36728153Y-122782627D01*
X36825720Y-122783309D01*
X36825720Y-122783309D01*
G37*
G36*
X155723380Y-122724840D02*
X150721380Y-122724840D01*
X150721380Y-120722840D01*
X155723380Y-120722840D01*
X155723380Y-122724840D01*
X155723380Y-122724840D01*
G37*
G36*
X36825720Y-121583309D02*
X36826402Y-121583314D01*
X36842793Y-121586678D01*
X36922647Y-121603069D01*
X37013219Y-121641142D01*
X37036255Y-121656681D01*
X37094675Y-121696085D01*
X37158527Y-121760384D01*
X37163906Y-121765801D01*
X37218277Y-121847636D01*
X37255719Y-121938476D01*
X37274801Y-122034848D01*
X37274801Y-122034854D01*
X37273234Y-122147076D01*
X37251467Y-122242885D01*
X37251466Y-122242887D01*
X37211505Y-122332642D01*
X37154869Y-122412928D01*
X37083718Y-122480685D01*
X37000763Y-122533330D01*
X36909160Y-122568861D01*
X36812405Y-122585921D01*
X36714170Y-122583863D01*
X36618214Y-122562766D01*
X36528181Y-122523431D01*
X36447500Y-122467357D01*
X36379249Y-122396680D01*
X36326026Y-122314095D01*
X36289857Y-122222743D01*
X36272121Y-122126105D01*
X36273493Y-122027863D01*
X36293919Y-121931762D01*
X36332626Y-121841452D01*
X36388135Y-121760384D01*
X36458332Y-121691642D01*
X36540544Y-121637844D01*
X36586094Y-121619441D01*
X36631643Y-121601038D01*
X36658296Y-121595954D01*
X36728153Y-121582627D01*
X36825720Y-121583309D01*
X36825720Y-121583309D01*
G37*
G36*
X47578280Y-121052980D02*
X47076280Y-121052980D01*
X47076280Y-120450980D01*
X47578280Y-120450980D01*
X47578280Y-121052980D01*
X47578280Y-121052980D01*
G37*
G36*
X45678280Y-121052980D02*
X45176280Y-121052980D01*
X45176280Y-120450980D01*
X45678280Y-120450980D01*
X45678280Y-121052980D01*
X45678280Y-121052980D01*
G37*
G36*
X44173560Y-121015360D02*
X43374000Y-121015360D01*
X43374000Y-120215800D01*
X44173560Y-120215800D01*
X44173560Y-121015360D01*
X44173560Y-121015360D01*
G37*
G36*
X138205630Y-120335910D02*
X137708330Y-120335910D01*
X137708330Y-119838610D01*
X138205630Y-119838610D01*
X138205630Y-120335910D01*
X138205630Y-120335910D01*
G37*
G36*
X138205630Y-119436750D02*
X137708330Y-119436750D01*
X137708330Y-118939450D01*
X138205630Y-118939450D01*
X138205630Y-119436750D01*
X138205630Y-119436750D01*
G37*
G36*
X44173560Y-119415160D02*
X43374000Y-119415160D01*
X43374000Y-118615600D01*
X44173560Y-118615600D01*
X44173560Y-119415160D01*
X44173560Y-119415160D01*
G37*
G36*
X46628280Y-119052980D02*
X46126280Y-119052980D01*
X46126280Y-118450980D01*
X46628280Y-118450980D01*
X46628280Y-119052980D01*
X46628280Y-119052980D01*
G37*
G36*
X137867880Y-118401180D02*
X136685880Y-118401180D01*
X136685880Y-117699180D01*
X137867880Y-117699180D01*
X137867880Y-118401180D01*
X137867880Y-118401180D01*
G37*
G36*
X132547880Y-118401180D02*
X131365880Y-118401180D01*
X131365880Y-117699180D01*
X132547880Y-117699180D01*
X132547880Y-118401180D01*
X132547880Y-118401180D01*
G37*
G36*
X48176780Y-118120980D02*
X47474780Y-118120980D01*
X47474780Y-117318980D01*
X48176780Y-117318980D01*
X48176780Y-118120980D01*
X48176780Y-118120980D01*
G37*
G36*
X46676780Y-118120980D02*
X45974780Y-118120980D01*
X45974780Y-117318980D01*
X46676780Y-117318980D01*
X46676780Y-118120980D01*
X46676780Y-118120980D01*
G37*
G36*
X45382780Y-118057480D02*
X44680780Y-118057480D01*
X44680780Y-117255480D01*
X45382780Y-117255480D01*
X45382780Y-118057480D01*
X45382780Y-118057480D01*
G37*
G36*
X43882780Y-118057480D02*
X43180780Y-118057480D01*
X43180780Y-117255480D01*
X43882780Y-117255480D01*
X43882780Y-118057480D01*
X43882780Y-118057480D01*
G37*
G36*
X149429890Y-117583820D02*
X148028350Y-117583820D01*
X148028350Y-116682660D01*
X149429890Y-116682660D01*
X149429890Y-117583820D01*
X149429890Y-117583820D01*
G37*
G36*
X147562990Y-117558420D02*
X146161450Y-117558420D01*
X146161450Y-116657260D01*
X147562990Y-116657260D01*
X147562990Y-117558420D01*
X147562990Y-117558420D01*
G37*
G36*
X132547880Y-117131180D02*
X131365880Y-117131180D01*
X131365880Y-116429180D01*
X132547880Y-116429180D01*
X132547880Y-117131180D01*
X132547880Y-117131180D01*
G37*
G36*
X137867880Y-117131180D02*
X136685880Y-117131180D01*
X136685880Y-116429180D01*
X137867880Y-116429180D01*
X137867880Y-117131180D01*
X137867880Y-117131180D01*
G37*
G36*
X145723980Y-116989640D02*
X144921980Y-116989640D01*
X144921980Y-116287640D01*
X145723980Y-116287640D01*
X145723980Y-116989640D01*
X145723980Y-116989640D01*
G37*
G36*
X48081350Y-116698630D02*
X47584050Y-116698630D01*
X47584050Y-116201330D01*
X48081350Y-116201330D01*
X48081350Y-116698630D01*
X48081350Y-116698630D01*
G37*
G36*
X48980510Y-116698630D02*
X48483210Y-116698630D01*
X48483210Y-116201330D01*
X48980510Y-116201330D01*
X48980510Y-116698630D01*
X48980510Y-116698630D01*
G37*
G36*
X42244280Y-116480980D02*
X41742280Y-116480980D01*
X41742280Y-115878980D01*
X42244280Y-115878980D01*
X42244280Y-116480980D01*
X42244280Y-116480980D01*
G37*
G36*
X40344280Y-116480980D02*
X39842280Y-116480980D01*
X39842280Y-115878980D01*
X40344280Y-115878980D01*
X40344280Y-116480980D01*
X40344280Y-116480980D01*
G37*
G36*
X155733540Y-116109040D02*
X150731540Y-116109040D01*
X150731540Y-114107040D01*
X155733540Y-114107040D01*
X155733540Y-116109040D01*
X155733540Y-116109040D01*
G37*
G36*
X38903060Y-116062360D02*
X38103500Y-116062360D01*
X38103500Y-115262800D01*
X38903060Y-115262800D01*
X38903060Y-116062360D01*
X38903060Y-116062360D01*
G37*
G36*
X143910420Y-115884740D02*
X143108420Y-115884740D01*
X143108420Y-115182740D01*
X143910420Y-115182740D01*
X143910420Y-115884740D01*
X143910420Y-115884740D01*
G37*
G36*
X132547880Y-115861180D02*
X131365880Y-115861180D01*
X131365880Y-115159180D01*
X132547880Y-115159180D01*
X132547880Y-115861180D01*
X132547880Y-115861180D01*
G37*
G36*
X137867880Y-115861180D02*
X136685880Y-115861180D01*
X136685880Y-115159180D01*
X137867880Y-115159180D01*
X137867880Y-115861180D01*
X137867880Y-115861180D01*
G37*
G36*
X149429890Y-115678820D02*
X148028350Y-115678820D01*
X148028350Y-114777660D01*
X149429890Y-114777660D01*
X149429890Y-115678820D01*
X149429890Y-115678820D01*
G37*
G36*
X147562990Y-115653420D02*
X146161450Y-115653420D01*
X146161450Y-114752260D01*
X147562990Y-114752260D01*
X147562990Y-115653420D01*
X147562990Y-115653420D01*
G37*
G36*
X145723980Y-115489640D02*
X144921980Y-115489640D01*
X144921980Y-114787640D01*
X145723980Y-114787640D01*
X145723980Y-115489640D01*
X145723980Y-115489640D01*
G37*
G36*
X137867880Y-114591180D02*
X136685880Y-114591180D01*
X136685880Y-113889180D01*
X137867880Y-113889180D01*
X137867880Y-114591180D01*
X137867880Y-114591180D01*
G37*
G36*
X132547880Y-114591180D02*
X131365880Y-114591180D01*
X131365880Y-113889180D01*
X132547880Y-113889180D01*
X132547880Y-114591180D01*
X132547880Y-114591180D01*
G37*
G36*
X41294280Y-114480980D02*
X40792280Y-114480980D01*
X40792280Y-113878980D01*
X41294280Y-113878980D01*
X41294280Y-114480980D01*
X41294280Y-114480980D01*
G37*
G36*
X38903060Y-114462160D02*
X38103500Y-114462160D01*
X38103500Y-113662600D01*
X38903060Y-113662600D01*
X38903060Y-114462160D01*
X38903060Y-114462160D01*
G37*
G36*
X147441120Y-114448140D02*
X146739120Y-114448140D01*
X146739120Y-113646140D01*
X147441120Y-113646140D01*
X147441120Y-114448140D01*
X147441120Y-114448140D01*
G37*
G36*
X148941120Y-114448140D02*
X148239120Y-114448140D01*
X148239120Y-113646140D01*
X148941120Y-113646140D01*
X148941120Y-114448140D01*
X148941120Y-114448140D01*
G37*
G36*
X144913820Y-114435440D02*
X144211820Y-114435440D01*
X144211820Y-113633440D01*
X144913820Y-113633440D01*
X144913820Y-114435440D01*
X144913820Y-114435440D01*
G37*
G36*
X146413820Y-114435440D02*
X145711820Y-114435440D01*
X145711820Y-113633440D01*
X146413820Y-113633440D01*
X146413820Y-114435440D01*
X146413820Y-114435440D01*
G37*
G36*
X143910420Y-114384740D02*
X143108420Y-114384740D01*
X143108420Y-113682740D01*
X143910420Y-113682740D01*
X143910420Y-114384740D01*
X143910420Y-114384740D01*
G37*
G36*
X144926520Y-113343240D02*
X144224520Y-113343240D01*
X144224520Y-112541240D01*
X144926520Y-112541240D01*
X144926520Y-113343240D01*
X144926520Y-113343240D01*
G37*
G36*
X146426520Y-113343240D02*
X145724520Y-113343240D01*
X145724520Y-112541240D01*
X146426520Y-112541240D01*
X146426520Y-113343240D01*
X146426520Y-113343240D01*
G37*
G36*
X132547880Y-113321180D02*
X131365880Y-113321180D01*
X131365880Y-112619180D01*
X132547880Y-112619180D01*
X132547880Y-113321180D01*
X132547880Y-113321180D01*
G37*
G36*
X137867880Y-113321180D02*
X136685880Y-113321180D01*
X136685880Y-112619180D01*
X137867880Y-112619180D01*
X137867880Y-113321180D01*
X137867880Y-113321180D01*
G37*
G36*
X142889390Y-113216290D02*
X142392090Y-113216290D01*
X142392090Y-112718990D01*
X142889390Y-112718990D01*
X142889390Y-113216290D01*
X142889390Y-113216290D01*
G37*
G36*
X143788550Y-113216290D02*
X143291250Y-113216290D01*
X143291250Y-112718990D01*
X143788550Y-112718990D01*
X143788550Y-113216290D01*
X143788550Y-113216290D01*
G37*
G36*
X41507780Y-113105980D02*
X40705780Y-113105980D01*
X40705780Y-112403980D01*
X41507780Y-112403980D01*
X41507780Y-113105980D01*
X41507780Y-113105980D01*
G37*
G36*
X40366280Y-113104480D02*
X39664280Y-113104480D01*
X39664280Y-112302480D01*
X40366280Y-112302480D01*
X40366280Y-113104480D01*
X40366280Y-113104480D01*
G37*
G36*
X38866280Y-113104480D02*
X38164280Y-113104480D01*
X38164280Y-112302480D01*
X38866280Y-112302480D01*
X38866280Y-113104480D01*
X38866280Y-113104480D01*
G37*
G36*
X45678280Y-112289980D02*
X45176280Y-112289980D01*
X45176280Y-111687980D01*
X45678280Y-111687980D01*
X45678280Y-112289980D01*
X45678280Y-112289980D01*
G37*
G36*
X47578280Y-112289980D02*
X47076280Y-112289980D01*
X47076280Y-111687980D01*
X47578280Y-111687980D01*
X47578280Y-112289980D01*
X47578280Y-112289980D01*
G37*
G36*
X132547880Y-112051180D02*
X131365880Y-112051180D01*
X131365880Y-111349180D01*
X132547880Y-111349180D01*
X132547880Y-112051180D01*
X132547880Y-112051180D01*
G37*
G36*
X137867880Y-112051180D02*
X136685880Y-112051180D01*
X136685880Y-111349180D01*
X137867880Y-111349180D01*
X137867880Y-112051180D01*
X137867880Y-112051180D01*
G37*
G36*
X44237060Y-111807860D02*
X43437500Y-111807860D01*
X43437500Y-111008300D01*
X44237060Y-111008300D01*
X44237060Y-111807860D01*
X44237060Y-111807860D01*
G37*
G36*
X41507780Y-111605980D02*
X40705780Y-111605980D01*
X40705780Y-110903980D01*
X41507780Y-110903980D01*
X41507780Y-111605980D01*
X41507780Y-111605980D01*
G37*
G36*
X40281010Y-111555130D02*
X39783710Y-111555130D01*
X39783710Y-111057830D01*
X40281010Y-111057830D01*
X40281010Y-111555130D01*
X40281010Y-111555130D01*
G37*
G36*
X39381850Y-111555130D02*
X38884550Y-111555130D01*
X38884550Y-111057830D01*
X39381850Y-111057830D01*
X39381850Y-111555130D01*
X39381850Y-111555130D01*
G37*
G36*
X132547880Y-110781180D02*
X131365880Y-110781180D01*
X131365880Y-110079180D01*
X132547880Y-110079180D01*
X132547880Y-110781180D01*
X132547880Y-110781180D01*
G37*
G36*
X137867880Y-110781180D02*
X136685880Y-110781180D01*
X136685880Y-110079180D01*
X137867880Y-110079180D01*
X137867880Y-110781180D01*
X137867880Y-110781180D01*
G37*
G36*
X155733540Y-110609040D02*
X150731540Y-110609040D01*
X150731540Y-108607040D01*
X155733540Y-108607040D01*
X155733540Y-110609040D01*
X155733540Y-110609040D01*
G37*
G36*
X46628280Y-110289980D02*
X46126280Y-110289980D01*
X46126280Y-109687980D01*
X46628280Y-109687980D01*
X46628280Y-110289980D01*
X46628280Y-110289980D01*
G37*
G36*
X44237060Y-110207660D02*
X43437500Y-110207660D01*
X43437500Y-109408100D01*
X44237060Y-109408100D01*
X44237060Y-110207660D01*
X44237060Y-110207660D01*
G37*
G36*
X149165730Y-110076850D02*
X148668430Y-110076850D01*
X148668430Y-109579550D01*
X149165730Y-109579550D01*
X149165730Y-110076850D01*
X149165730Y-110076850D01*
G37*
G36*
X150064890Y-110076850D02*
X149567590Y-110076850D01*
X149567590Y-109579550D01*
X150064890Y-109579550D01*
X150064890Y-110076850D01*
X150064890Y-110076850D01*
G37*
G36*
X46676780Y-109167480D02*
X45974780Y-109167480D01*
X45974780Y-108365480D01*
X46676780Y-108365480D01*
X46676780Y-109167480D01*
X46676780Y-109167480D01*
G37*
G36*
X48176780Y-109167480D02*
X47474780Y-109167480D01*
X47474780Y-108365480D01*
X48176780Y-108365480D01*
X48176780Y-109167480D01*
X48176780Y-109167480D01*
G37*
G36*
X45571780Y-109105480D02*
X44769780Y-109105480D01*
X44769780Y-108403480D01*
X45571780Y-108403480D01*
X45571780Y-109105480D01*
X45571780Y-109105480D01*
G37*
G36*
X148428140Y-108907120D02*
X147826140Y-108907120D01*
X147826140Y-108005120D01*
X148428140Y-108005120D01*
X148428140Y-108907120D01*
X148428140Y-108907120D01*
G37*
G36*
X147478140Y-108907120D02*
X146876140Y-108907120D01*
X146876140Y-108005120D01*
X147478140Y-108005120D01*
X147478140Y-108907120D01*
X147478140Y-108907120D01*
G37*
G36*
X149378140Y-108907120D02*
X148776140Y-108907120D01*
X148776140Y-108005120D01*
X149378140Y-108005120D01*
X149378140Y-108907120D01*
X149378140Y-108907120D01*
G37*
G36*
X48086430Y-107940710D02*
X47589130Y-107940710D01*
X47589130Y-107443410D01*
X48086430Y-107443410D01*
X48086430Y-107940710D01*
X48086430Y-107940710D01*
G37*
G36*
X54298100Y-107758580D02*
X53116100Y-107758580D01*
X53116100Y-107056580D01*
X54298100Y-107056580D01*
X54298100Y-107758580D01*
X54298100Y-107758580D01*
G37*
G36*
X59618100Y-107758580D02*
X58436100Y-107758580D01*
X58436100Y-107056580D01*
X59618100Y-107056580D01*
X59618100Y-107758580D01*
X59618100Y-107758580D01*
G37*
G36*
X45571780Y-107605480D02*
X44769780Y-107605480D01*
X44769780Y-106903480D01*
X45571780Y-106903480D01*
X45571780Y-107605480D01*
X45571780Y-107605480D01*
G37*
G36*
X42561780Y-107527480D02*
X42059780Y-107527480D01*
X42059780Y-106925480D01*
X42561780Y-106925480D01*
X42561780Y-107527480D01*
X42561780Y-107527480D01*
G37*
G36*
X40661780Y-107527480D02*
X40159780Y-107527480D01*
X40159780Y-106925480D01*
X40661780Y-106925480D01*
X40661780Y-107527480D01*
X40661780Y-107527480D01*
G37*
G36*
X153507300Y-107505840D02*
X153205300Y-107505840D01*
X153205300Y-106903840D01*
X153507300Y-106903840D01*
X153507300Y-107505840D01*
X153507300Y-107505840D01*
G37*
G36*
X154007300Y-107505840D02*
X153705300Y-107505840D01*
X153705300Y-106903840D01*
X154007300Y-106903840D01*
X154007300Y-107505840D01*
X154007300Y-107505840D01*
G37*
G36*
X154507300Y-107505840D02*
X154205300Y-107505840D01*
X154205300Y-106903840D01*
X154507300Y-106903840D01*
X154507300Y-107505840D01*
X154507300Y-107505840D01*
G37*
G36*
X155007300Y-107505840D02*
X154705300Y-107505840D01*
X154705300Y-106903840D01*
X155007300Y-106903840D01*
X155007300Y-107505840D01*
X155007300Y-107505840D01*
G37*
G36*
X39220560Y-107426360D02*
X38421000Y-107426360D01*
X38421000Y-106626800D01*
X39220560Y-106626800D01*
X39220560Y-107426360D01*
X39220560Y-107426360D01*
G37*
G36*
X146394540Y-107327480D02*
X145592540Y-107327480D01*
X145592540Y-106625480D01*
X146394540Y-106625480D01*
X146394540Y-107327480D01*
X146394540Y-107327480D01*
G37*
G36*
X48086430Y-107041550D02*
X47589130Y-107041550D01*
X47589130Y-106544250D01*
X48086430Y-106544250D01*
X48086430Y-107041550D01*
X48086430Y-107041550D01*
G37*
G36*
X143204300Y-107007440D02*
X142402300Y-107007440D01*
X142402300Y-106305440D01*
X143204300Y-106305440D01*
X143204300Y-107007440D01*
X143204300Y-107007440D01*
G37*
G36*
X151718380Y-106809320D02*
X150916380Y-106809320D01*
X150916380Y-106107320D01*
X151718380Y-106107320D01*
X151718380Y-106809320D01*
X151718380Y-106809320D01*
G37*
G36*
X155757300Y-106705840D02*
X155255300Y-106705840D01*
X155255300Y-106403840D01*
X155757300Y-106403840D01*
X155757300Y-106705840D01*
X155757300Y-106705840D01*
G37*
G36*
X152957300Y-106705840D02*
X152455300Y-106705840D01*
X152455300Y-106403840D01*
X152957300Y-106403840D01*
X152957300Y-106705840D01*
X152957300Y-106705840D01*
G37*
G36*
X154982300Y-106680840D02*
X153230300Y-106680840D01*
X153230300Y-104928840D01*
X154982300Y-104928840D01*
X154982300Y-106680840D01*
X154982300Y-106680840D01*
G37*
G36*
X54298100Y-106488580D02*
X53116100Y-106488580D01*
X53116100Y-105786580D01*
X54298100Y-105786580D01*
X54298100Y-106488580D01*
X54298100Y-106488580D01*
G37*
G36*
X59618100Y-106488580D02*
X58436100Y-106488580D01*
X58436100Y-105786580D01*
X59618100Y-105786580D01*
X59618100Y-106488580D01*
X59618100Y-106488580D01*
G37*
G36*
X147478140Y-106307120D02*
X146876140Y-106307120D01*
X146876140Y-105405120D01*
X147478140Y-105405120D01*
X147478140Y-106307120D01*
X147478140Y-106307120D01*
G37*
G36*
X148428140Y-106307120D02*
X147826140Y-106307120D01*
X147826140Y-105405120D01*
X148428140Y-105405120D01*
X148428140Y-106307120D01*
X148428140Y-106307120D01*
G37*
G36*
X149378140Y-106307120D02*
X148776140Y-106307120D01*
X148776140Y-105405120D01*
X149378140Y-105405120D01*
X149378140Y-106307120D01*
X149378140Y-106307120D01*
G37*
G36*
X152957300Y-106205840D02*
X152455300Y-106205840D01*
X152455300Y-105903840D01*
X152957300Y-105903840D01*
X152957300Y-106205840D01*
X152957300Y-106205840D01*
G37*
G36*
X155757300Y-106205840D02*
X155255300Y-106205840D01*
X155255300Y-105903840D01*
X155757300Y-105903840D01*
X155757300Y-106205840D01*
X155757300Y-106205840D01*
G37*
G36*
X146394540Y-105827480D02*
X145592540Y-105827480D01*
X145592540Y-105125480D01*
X146394540Y-105125480D01*
X146394540Y-105827480D01*
X146394540Y-105827480D01*
G37*
G36*
X39220560Y-105826160D02*
X38421000Y-105826160D01*
X38421000Y-105026600D01*
X39220560Y-105026600D01*
X39220560Y-105826160D01*
X39220560Y-105826160D01*
G37*
G36*
X152957300Y-105705840D02*
X152455300Y-105705840D01*
X152455300Y-105403840D01*
X152957300Y-105403840D01*
X152957300Y-105705840D01*
X152957300Y-105705840D01*
G37*
G36*
X155757300Y-105705840D02*
X155255300Y-105705840D01*
X155255300Y-105403840D01*
X155757300Y-105403840D01*
X155757300Y-105705840D01*
X155757300Y-105705840D01*
G37*
G36*
X41611780Y-105527480D02*
X41109780Y-105527480D01*
X41109780Y-104925480D01*
X41611780Y-104925480D01*
X41611780Y-105527480D01*
X41611780Y-105527480D01*
G37*
G36*
X143204300Y-105507440D02*
X142402300Y-105507440D01*
X142402300Y-104805440D01*
X143204300Y-104805440D01*
X143204300Y-105507440D01*
X143204300Y-105507440D01*
G37*
G36*
X61230930Y-105492150D02*
X60733630Y-105492150D01*
X60733630Y-104994850D01*
X61230930Y-104994850D01*
X61230930Y-105492150D01*
X61230930Y-105492150D01*
G37*
G36*
X60331770Y-105492150D02*
X59834470Y-105492150D01*
X59834470Y-104994850D01*
X60331770Y-104994850D01*
X60331770Y-105492150D01*
X60331770Y-105492150D01*
G37*
G36*
X151718380Y-105309320D02*
X150916380Y-105309320D01*
X150916380Y-104607320D01*
X151718380Y-104607320D01*
X151718380Y-105309320D01*
X151718380Y-105309320D01*
G37*
G36*
X59618100Y-105218580D02*
X58436100Y-105218580D01*
X58436100Y-104516580D01*
X59618100Y-104516580D01*
X59618100Y-105218580D01*
X59618100Y-105218580D01*
G37*
G36*
X54298100Y-105218580D02*
X53116100Y-105218580D01*
X53116100Y-104516580D01*
X54298100Y-104516580D01*
X54298100Y-105218580D01*
X54298100Y-105218580D01*
G37*
G36*
X155757300Y-105205840D02*
X155255300Y-105205840D01*
X155255300Y-104903840D01*
X155757300Y-104903840D01*
X155757300Y-105205840D01*
X155757300Y-105205840D01*
G37*
G36*
X152957300Y-105205840D02*
X152455300Y-105205840D01*
X152455300Y-104903840D01*
X152957300Y-104903840D01*
X152957300Y-105205840D01*
X152957300Y-105205840D01*
G37*
G36*
X144810340Y-104834560D02*
X144508340Y-104834560D01*
X144508340Y-104332560D01*
X144810340Y-104332560D01*
X144810340Y-104834560D01*
X144810340Y-104834560D01*
G37*
G36*
X145310340Y-104834560D02*
X145008340Y-104834560D01*
X145008340Y-104332560D01*
X145310340Y-104332560D01*
X145310340Y-104834560D01*
X145310340Y-104834560D01*
G37*
G36*
X146310340Y-104834560D02*
X146008340Y-104834560D01*
X146008340Y-104332560D01*
X146310340Y-104332560D01*
X146310340Y-104834560D01*
X146310340Y-104834560D01*
G37*
G36*
X145810340Y-104834560D02*
X145508340Y-104834560D01*
X145508340Y-104332560D01*
X145810340Y-104332560D01*
X145810340Y-104834560D01*
X145810340Y-104834560D01*
G37*
G36*
X153507300Y-104705840D02*
X153205300Y-104705840D01*
X153205300Y-104103840D01*
X153507300Y-104103840D01*
X153507300Y-104705840D01*
X153507300Y-104705840D01*
G37*
G36*
X154007300Y-104705840D02*
X153705300Y-104705840D01*
X153705300Y-104103840D01*
X154007300Y-104103840D01*
X154007300Y-104705840D01*
X154007300Y-104705840D01*
G37*
G36*
X154507300Y-104705840D02*
X154205300Y-104705840D01*
X154205300Y-104103840D01*
X154507300Y-104103840D01*
X154507300Y-104705840D01*
X154507300Y-104705840D01*
G37*
G36*
X155007300Y-104705840D02*
X154705300Y-104705840D01*
X154705300Y-104103840D01*
X155007300Y-104103840D01*
X155007300Y-104705840D01*
X155007300Y-104705840D01*
G37*
G36*
X60336850Y-104532030D02*
X59839550Y-104532030D01*
X59839550Y-104034730D01*
X60336850Y-104034730D01*
X60336850Y-104532030D01*
X60336850Y-104532030D01*
G37*
G36*
X61236010Y-104532030D02*
X60738710Y-104532030D01*
X60738710Y-104034730D01*
X61236010Y-104034730D01*
X61236010Y-104532030D01*
X61236010Y-104532030D01*
G37*
G36*
X40620280Y-104468480D02*
X39918280Y-104468480D01*
X39918280Y-103666480D01*
X40620280Y-103666480D01*
X40620280Y-104468480D01*
X40620280Y-104468480D01*
G37*
G36*
X39120280Y-104468480D02*
X38418280Y-104468480D01*
X38418280Y-103666480D01*
X39120280Y-103666480D01*
X39120280Y-104468480D01*
X39120280Y-104468480D01*
G37*
G36*
X41660280Y-104468480D02*
X40958280Y-104468480D01*
X40958280Y-103666480D01*
X41660280Y-103666480D01*
X41660280Y-104468480D01*
X41660280Y-104468480D01*
G37*
G36*
X43160280Y-104468480D02*
X42458280Y-104468480D01*
X42458280Y-103666480D01*
X43160280Y-103666480D01*
X43160280Y-104468480D01*
X43160280Y-104468480D01*
G37*
G36*
X143062110Y-104445670D02*
X142564810Y-104445670D01*
X142564810Y-103948370D01*
X143062110Y-103948370D01*
X143062110Y-104445670D01*
X143062110Y-104445670D01*
G37*
G36*
X45043510Y-104316130D02*
X44546210Y-104316130D01*
X44546210Y-103818830D01*
X45043510Y-103818830D01*
X45043510Y-104316130D01*
X45043510Y-104316130D01*
G37*
G36*
X44144350Y-104316130D02*
X43647050Y-104316130D01*
X43647050Y-103818830D01*
X44144350Y-103818830D01*
X44144350Y-104316130D01*
X44144350Y-104316130D01*
G37*
G36*
X147110340Y-104084560D02*
X146508340Y-104084560D01*
X146508340Y-103782560D01*
X147110340Y-103782560D01*
X147110340Y-104084560D01*
X147110340Y-104084560D01*
G37*
G36*
X144310340Y-104084560D02*
X143708340Y-104084560D01*
X143708340Y-103782560D01*
X144310340Y-103782560D01*
X144310340Y-104084560D01*
X144310340Y-104084560D01*
G37*
G36*
X146285340Y-104059560D02*
X144533340Y-104059560D01*
X144533340Y-102307560D01*
X146285340Y-102307560D01*
X146285340Y-104059560D01*
X146285340Y-104059560D01*
G37*
G36*
X54298100Y-103948580D02*
X53116100Y-103948580D01*
X53116100Y-103246580D01*
X54298100Y-103246580D01*
X54298100Y-103948580D01*
X54298100Y-103948580D01*
G37*
G36*
X59618100Y-103948580D02*
X58436100Y-103948580D01*
X58436100Y-103246580D01*
X59618100Y-103246580D01*
X59618100Y-103948580D01*
X59618100Y-103948580D01*
G37*
G36*
X150583100Y-103797920D02*
X149881100Y-103797920D01*
X149881100Y-102995920D01*
X150583100Y-102995920D01*
X150583100Y-103797920D01*
X150583100Y-103797920D01*
G37*
G36*
X152083100Y-103797920D02*
X151381100Y-103797920D01*
X151381100Y-102995920D01*
X152083100Y-102995920D01*
X152083100Y-103797920D01*
X152083100Y-103797920D01*
G37*
G36*
X155637650Y-103645570D02*
X155140350Y-103645570D01*
X155140350Y-103148270D01*
X155637650Y-103148270D01*
X155637650Y-103645570D01*
X155637650Y-103645570D01*
G37*
G36*
X154738490Y-103645570D02*
X154241190Y-103645570D01*
X154241190Y-103148270D01*
X154738490Y-103148270D01*
X154738490Y-103645570D01*
X154738490Y-103645570D01*
G37*
G36*
X152940170Y-103640490D02*
X152442870Y-103640490D01*
X152442870Y-103143190D01*
X152940170Y-103143190D01*
X152940170Y-103640490D01*
X152940170Y-103640490D01*
G37*
G36*
X153839330Y-103640490D02*
X153342030Y-103640490D01*
X153342030Y-103143190D01*
X153839330Y-103143190D01*
X153839330Y-103640490D01*
X153839330Y-103640490D01*
G37*
G36*
X60336850Y-103587150D02*
X59839550Y-103587150D01*
X59839550Y-103089850D01*
X60336850Y-103089850D01*
X60336850Y-103587150D01*
X60336850Y-103587150D01*
G37*
G36*
X61236010Y-103587150D02*
X60738710Y-103587150D01*
X60738710Y-103089850D01*
X61236010Y-103089850D01*
X61236010Y-103587150D01*
X61236010Y-103587150D01*
G37*
G36*
X147110340Y-103584560D02*
X146508340Y-103584560D01*
X146508340Y-103282560D01*
X147110340Y-103282560D01*
X147110340Y-103584560D01*
X147110340Y-103584560D01*
G37*
G36*
X144310340Y-103584560D02*
X143708340Y-103584560D01*
X143708340Y-103282560D01*
X144310340Y-103282560D01*
X144310340Y-103584560D01*
X144310340Y-103584560D01*
G37*
G36*
X143062110Y-103546510D02*
X142564810Y-103546510D01*
X142564810Y-103049210D01*
X143062110Y-103049210D01*
X143062110Y-103546510D01*
X143062110Y-103546510D01*
G37*
G36*
X144310340Y-103084560D02*
X143708340Y-103084560D01*
X143708340Y-102782560D01*
X144310340Y-102782560D01*
X144310340Y-103084560D01*
X144310340Y-103084560D01*
G37*
G36*
X147110340Y-103084560D02*
X146508340Y-103084560D01*
X146508340Y-102782560D01*
X147110340Y-102782560D01*
X147110340Y-103084560D01*
X147110340Y-103084560D01*
G37*
G36*
X133671730Y-103068990D02*
X133174430Y-103068990D01*
X133174430Y-102571690D01*
X133671730Y-102571690D01*
X133671730Y-103068990D01*
X133671730Y-103068990D01*
G37*
G36*
X132772570Y-103068990D02*
X132275270Y-103068990D01*
X132275270Y-102571690D01*
X132772570Y-102571690D01*
X132772570Y-103068990D01*
X132772570Y-103068990D01*
G37*
G36*
X59618100Y-102678580D02*
X58436100Y-102678580D01*
X58436100Y-101976580D01*
X59618100Y-101976580D01*
X59618100Y-102678580D01*
X59618100Y-102678580D01*
G37*
G36*
X54298100Y-102678580D02*
X53116100Y-102678580D01*
X53116100Y-101976580D01*
X54298100Y-101976580D01*
X54298100Y-102678580D01*
X54298100Y-102678580D01*
G37*
G36*
X61246170Y-102621950D02*
X60748870Y-102621950D01*
X60748870Y-102124650D01*
X61246170Y-102124650D01*
X61246170Y-102621950D01*
X61246170Y-102621950D01*
G37*
G36*
X60347010Y-102621950D02*
X59849710Y-102621950D01*
X59849710Y-102124650D01*
X60347010Y-102124650D01*
X60347010Y-102621950D01*
X60347010Y-102621950D01*
G37*
G36*
X155743700Y-102621640D02*
X150741700Y-102621640D01*
X150741700Y-100619640D01*
X155743700Y-100619640D01*
X155743700Y-102621640D01*
X155743700Y-102621640D01*
G37*
G36*
X147110340Y-102584560D02*
X146508340Y-102584560D01*
X146508340Y-102282560D01*
X147110340Y-102282560D01*
X147110340Y-102584560D01*
X147110340Y-102584560D01*
G37*
G36*
X144310340Y-102584560D02*
X143708340Y-102584560D01*
X143708340Y-102282560D01*
X144310340Y-102282560D01*
X144310340Y-102584560D01*
X144310340Y-102584560D01*
G37*
G36*
X143072270Y-102581310D02*
X142574970Y-102581310D01*
X142574970Y-102084010D01*
X143072270Y-102084010D01*
X143072270Y-102581310D01*
X143072270Y-102581310D01*
G37*
G36*
X146310340Y-102034560D02*
X146008340Y-102034560D01*
X146008340Y-101532560D01*
X146310340Y-101532560D01*
X146310340Y-102034560D01*
X146310340Y-102034560D01*
G37*
G36*
X145310340Y-102034560D02*
X145008340Y-102034560D01*
X145008340Y-101532560D01*
X145310340Y-101532560D01*
X145310340Y-102034560D01*
X145310340Y-102034560D01*
G37*
G36*
X145810340Y-102034560D02*
X145508340Y-102034560D01*
X145508340Y-101532560D01*
X145810340Y-101532560D01*
X145810340Y-102034560D01*
X145810340Y-102034560D01*
G37*
G36*
X144810340Y-102034560D02*
X144508340Y-102034560D01*
X144508340Y-101532560D01*
X144810340Y-101532560D01*
X144810340Y-102034560D01*
X144810340Y-102034560D01*
G37*
G36*
X143072270Y-101682150D02*
X142574970Y-101682150D01*
X142574970Y-101184850D01*
X143072270Y-101184850D01*
X143072270Y-101682150D01*
X143072270Y-101682150D01*
G37*
G36*
X132872700Y-101673580D02*
X131920700Y-101673580D01*
X131920700Y-101071580D01*
X132872700Y-101071580D01*
X132872700Y-101673580D01*
X132872700Y-101673580D01*
G37*
G36*
X130622700Y-101673580D02*
X129670700Y-101673580D01*
X129670700Y-101071580D01*
X130622700Y-101071580D01*
X130622700Y-101673580D01*
X130622700Y-101673580D01*
G37*
G36*
X60357170Y-101656750D02*
X59859870Y-101656750D01*
X59859870Y-101159450D01*
X60357170Y-101159450D01*
X60357170Y-101656750D01*
X60357170Y-101656750D01*
G37*
G36*
X61256330Y-101656750D02*
X60759030Y-101656750D01*
X60759030Y-101159450D01*
X61256330Y-101159450D01*
X61256330Y-101656750D01*
X61256330Y-101656750D01*
G37*
G36*
X54298100Y-101408580D02*
X53116100Y-101408580D01*
X53116100Y-100706580D01*
X54298100Y-100706580D01*
X54298100Y-101408580D01*
X54298100Y-101408580D01*
G37*
G36*
X59618100Y-101408580D02*
X58436100Y-101408580D01*
X58436100Y-100706580D01*
X59618100Y-100706580D01*
X59618100Y-101408580D01*
X59618100Y-101408580D01*
G37*
G36*
X149909950Y-101274480D02*
X148508410Y-101274480D01*
X148508410Y-100373320D01*
X149909950Y-100373320D01*
X149909950Y-101274480D01*
X149909950Y-101274480D01*
G37*
G36*
X148020190Y-101244000D02*
X146618650Y-101244000D01*
X146618650Y-100342840D01*
X148020190Y-100342840D01*
X148020190Y-101244000D01*
X148020190Y-101244000D01*
G37*
G36*
X146201500Y-100794600D02*
X145399500Y-100794600D01*
X145399500Y-100092600D01*
X146201500Y-100092600D01*
X146201500Y-100794600D01*
X146201500Y-100794600D01*
G37*
G36*
X130622700Y-100723580D02*
X129670700Y-100723580D01*
X129670700Y-100121580D01*
X130622700Y-100121580D01*
X130622700Y-100723580D01*
X130622700Y-100723580D01*
G37*
G36*
X132872700Y-100723580D02*
X131920700Y-100723580D01*
X131920700Y-100121580D01*
X132872700Y-100121580D01*
X132872700Y-100723580D01*
X132872700Y-100723580D01*
G37*
G36*
X59618100Y-100138580D02*
X58436100Y-100138580D01*
X58436100Y-99436580D01*
X59618100Y-99436580D01*
X59618100Y-100138580D01*
X59618100Y-100138580D01*
G37*
G36*
X54298100Y-100138580D02*
X53116100Y-100138580D01*
X53116100Y-99436580D01*
X54298100Y-99436580D01*
X54298100Y-100138580D01*
X54298100Y-100138580D01*
G37*
G36*
X132872700Y-99773580D02*
X131920700Y-99773580D01*
X131920700Y-99171580D01*
X132872700Y-99171580D01*
X132872700Y-99773580D01*
X132872700Y-99773580D01*
G37*
G36*
X130622700Y-99773580D02*
X129670700Y-99773580D01*
X129670700Y-99171580D01*
X130622700Y-99171580D01*
X130622700Y-99773580D01*
X130622700Y-99773580D01*
G37*
G36*
X149909950Y-99369480D02*
X148508410Y-99369480D01*
X148508410Y-98468320D01*
X149909950Y-98468320D01*
X149909950Y-99369480D01*
X149909950Y-99369480D01*
G37*
G36*
X148020190Y-99339000D02*
X146618650Y-99339000D01*
X146618650Y-98437840D01*
X148020190Y-98437840D01*
X148020190Y-99339000D01*
X148020190Y-99339000D01*
G37*
G36*
X146201500Y-99294600D02*
X145399500Y-99294600D01*
X145399500Y-98592600D01*
X146201500Y-98592600D01*
X146201500Y-99294600D01*
X146201500Y-99294600D01*
G37*
G36*
X149626920Y-97849240D02*
X148924920Y-97849240D01*
X148924920Y-97047240D01*
X149626920Y-97047240D01*
X149626920Y-97849240D01*
X149626920Y-97849240D01*
G37*
G36*
X148126920Y-97849240D02*
X147424920Y-97849240D01*
X147424920Y-97047240D01*
X148126920Y-97047240D01*
X148126920Y-97849240D01*
X148126920Y-97849240D01*
G37*
G36*
X147099620Y-97823840D02*
X146397620Y-97823840D01*
X146397620Y-97021840D01*
X147099620Y-97021840D01*
X147099620Y-97823840D01*
X147099620Y-97823840D01*
G37*
G36*
X145599620Y-97823840D02*
X144897620Y-97823840D01*
X144897620Y-97021840D01*
X145599620Y-97021840D01*
X145599620Y-97823840D01*
X145599620Y-97823840D01*
G37*
G36*
X155743700Y-97121640D02*
X150741700Y-97121640D01*
X150741700Y-95119640D01*
X155743700Y-95119640D01*
X155743700Y-97121640D01*
X155743700Y-97121640D01*
G37*
G36*
X143491370Y-96711370D02*
X142994070Y-96711370D01*
X142994070Y-96214070D01*
X143491370Y-96214070D01*
X143491370Y-96711370D01*
X143491370Y-96711370D01*
G37*
G36*
X144390530Y-96711370D02*
X143893230Y-96711370D01*
X143893230Y-96214070D01*
X144390530Y-96214070D01*
X144390530Y-96711370D01*
X144390530Y-96711370D01*
G37*
G36*
X148241120Y-96707740D02*
X147439120Y-96707740D01*
X147439120Y-96005740D01*
X148241120Y-96005740D01*
X148241120Y-96707740D01*
X148241120Y-96707740D01*
G37*
G36*
X149620340Y-96689960D02*
X148818340Y-96689960D01*
X148818340Y-95987960D01*
X149620340Y-95987960D01*
X149620340Y-96689960D01*
X149620340Y-96689960D01*
G37*
G36*
X146741620Y-95871840D02*
X146139620Y-95871840D01*
X146139620Y-94969840D01*
X146741620Y-94969840D01*
X146741620Y-95871840D01*
X146741620Y-95871840D01*
G37*
G36*
X145791620Y-95871840D02*
X145189620Y-95871840D01*
X145189620Y-94969840D01*
X145791620Y-94969840D01*
X145791620Y-95871840D01*
X145791620Y-95871840D01*
G37*
G36*
X144841620Y-95871840D02*
X144239620Y-95871840D01*
X144239620Y-94969840D01*
X144841620Y-94969840D01*
X144841620Y-95871840D01*
X144841620Y-95871840D01*
G37*
G36*
X148241120Y-95207740D02*
X147439120Y-95207740D01*
X147439120Y-94505740D01*
X148241120Y-94505740D01*
X148241120Y-95207740D01*
X148241120Y-95207740D01*
G37*
G36*
X149620340Y-95189960D02*
X148818340Y-95189960D01*
X148818340Y-94487960D01*
X149620340Y-94487960D01*
X149620340Y-95189960D01*
X149620340Y-95189960D01*
G37*
G36*
X148101470Y-93993570D02*
X147604170Y-93993570D01*
X147604170Y-93496270D01*
X148101470Y-93496270D01*
X148101470Y-93993570D01*
X148101470Y-93993570D01*
G37*
G36*
X156075720Y-92933309D02*
X156076402Y-92933314D01*
X156092793Y-92936678D01*
X156172647Y-92953069D01*
X156263219Y-92991142D01*
X156286255Y-93006681D01*
X156344675Y-93046085D01*
X156392664Y-93094410D01*
X156413906Y-93115801D01*
X156468277Y-93197636D01*
X156505719Y-93288476D01*
X156524801Y-93384848D01*
X156524801Y-93384854D01*
X156523234Y-93497076D01*
X156501467Y-93592885D01*
X156501466Y-93592887D01*
X156461505Y-93682642D01*
X156404869Y-93762928D01*
X156333718Y-93830685D01*
X156250763Y-93883330D01*
X156159160Y-93918861D01*
X156062405Y-93935921D01*
X155964170Y-93933863D01*
X155868214Y-93912766D01*
X155778181Y-93873431D01*
X155697500Y-93817357D01*
X155629249Y-93746680D01*
X155576026Y-93664095D01*
X155539857Y-93572743D01*
X155522121Y-93476105D01*
X155523493Y-93377863D01*
X155543919Y-93281762D01*
X155582626Y-93191452D01*
X155638135Y-93110384D01*
X155708332Y-93041642D01*
X155790544Y-92987844D01*
X155836094Y-92969441D01*
X155881643Y-92951038D01*
X155908296Y-92945954D01*
X155978153Y-92932627D01*
X156075720Y-92933309D01*
X156075720Y-92933309D01*
G37*
G36*
X154028740Y-93617600D02*
X153326740Y-93617600D01*
X153326740Y-92815600D01*
X154028740Y-92815600D01*
X154028740Y-93617600D01*
X154028740Y-93617600D01*
G37*
G36*
X152528740Y-93617600D02*
X151826740Y-93617600D01*
X151826740Y-92815600D01*
X152528740Y-92815600D01*
X152528740Y-93617600D01*
X152528740Y-93617600D01*
G37*
G36*
X151352620Y-93570840D02*
X150550620Y-93570840D01*
X150550620Y-92868840D01*
X151352620Y-92868840D01*
X151352620Y-93570840D01*
X151352620Y-93570840D01*
G37*
G36*
X146741620Y-93271840D02*
X146139620Y-93271840D01*
X146139620Y-92369840D01*
X146741620Y-92369840D01*
X146741620Y-93271840D01*
X146741620Y-93271840D01*
G37*
G36*
X145791620Y-93271840D02*
X145189620Y-93271840D01*
X145189620Y-92369840D01*
X145791620Y-92369840D01*
X145791620Y-93271840D01*
X145791620Y-93271840D01*
G37*
G36*
X144841620Y-93271840D02*
X144239620Y-93271840D01*
X144239620Y-92369840D01*
X144841620Y-92369840D01*
X144841620Y-93271840D01*
X144841620Y-93271840D01*
G37*
G36*
X148101470Y-93094410D02*
X147604170Y-93094410D01*
X147604170Y-92597110D01*
X148101470Y-92597110D01*
X148101470Y-93094410D01*
X148101470Y-93094410D01*
G37*
G36*
X156025720Y-91733309D02*
X156026402Y-91733314D01*
X156042793Y-91736678D01*
X156122647Y-91753069D01*
X156213219Y-91791142D01*
X156236255Y-91806681D01*
X156294675Y-91846085D01*
X156358527Y-91910384D01*
X156363906Y-91915801D01*
X156418277Y-91997636D01*
X156455719Y-92088476D01*
X156474801Y-92184848D01*
X156474801Y-92184854D01*
X156473234Y-92297076D01*
X156451467Y-92392885D01*
X156451466Y-92392887D01*
X156411505Y-92482642D01*
X156354869Y-92562928D01*
X156283718Y-92630685D01*
X156200763Y-92683330D01*
X156109160Y-92718861D01*
X156012405Y-92735921D01*
X155914170Y-92733863D01*
X155818214Y-92712766D01*
X155728181Y-92673431D01*
X155647500Y-92617357D01*
X155579249Y-92546680D01*
X155526026Y-92464095D01*
X155489857Y-92372743D01*
X155472121Y-92276105D01*
X155473493Y-92177863D01*
X155493919Y-92081762D01*
X155532626Y-91991452D01*
X155588135Y-91910384D01*
X155658332Y-91841642D01*
X155740544Y-91787844D01*
X155786095Y-91769441D01*
X155831643Y-91751038D01*
X155858296Y-91745954D01*
X155928153Y-91732627D01*
X156025720Y-91733309D01*
X156025720Y-91733309D01*
G37*
G36*
X154003340Y-92124080D02*
X153301340Y-92124080D01*
X153301340Y-91322080D01*
X154003340Y-91322080D01*
X154003340Y-92124080D01*
X154003340Y-92124080D01*
G37*
G36*
X152503340Y-92124080D02*
X151801340Y-92124080D01*
X151801340Y-91322080D01*
X152503340Y-91322080D01*
X152503340Y-92124080D01*
X152503340Y-92124080D01*
G37*
G36*
X151352620Y-92070840D02*
X150550620Y-92070840D01*
X150550620Y-91368840D01*
X151352620Y-91368840D01*
X151352620Y-92070840D01*
X151352620Y-92070840D01*
G37*
G36*
X146379350Y-91626290D02*
X145882050Y-91626290D01*
X145882050Y-91128990D01*
X146379350Y-91128990D01*
X146379350Y-91626290D01*
X146379350Y-91626290D01*
G37*
G36*
X145480190Y-91626290D02*
X144982890Y-91626290D01*
X144982890Y-91128990D01*
X145480190Y-91128990D01*
X145480190Y-91626290D01*
X145480190Y-91626290D01*
G37*
G36*
X156049270Y-90542959D02*
X156049952Y-90542964D01*
X156066343Y-90546328D01*
X156146197Y-90562719D01*
X156236769Y-90600792D01*
X156259805Y-90616331D01*
X156318225Y-90655735D01*
X156382077Y-90720034D01*
X156387456Y-90725451D01*
X156441827Y-90807286D01*
X156479269Y-90898126D01*
X156498351Y-90994498D01*
X156498351Y-90994504D01*
X156496784Y-91106726D01*
X156475017Y-91202535D01*
X156475016Y-91202537D01*
X156435055Y-91292292D01*
X156378419Y-91372578D01*
X156307268Y-91440335D01*
X156224313Y-91492980D01*
X156132710Y-91528511D01*
X156035955Y-91545571D01*
X155937720Y-91543513D01*
X155841764Y-91522416D01*
X155751731Y-91483081D01*
X155671050Y-91427007D01*
X155602799Y-91356330D01*
X155549576Y-91273745D01*
X155513407Y-91182393D01*
X155495671Y-91085755D01*
X155497043Y-90987513D01*
X155517469Y-90891412D01*
X155556176Y-90801102D01*
X155611685Y-90720034D01*
X155681882Y-90651292D01*
X155764094Y-90597494D01*
X155809645Y-90579091D01*
X155855193Y-90560688D01*
X155881846Y-90555604D01*
X155951703Y-90542277D01*
X156049270Y-90542959D01*
X156049270Y-90542959D01*
G37*
G36*
X135442451Y-88189539D02*
X135688674Y-88240081D01*
X135730609Y-88248689D01*
X135978287Y-88352804D01*
X136001788Y-88362683D01*
X136245662Y-88527178D01*
X136452941Y-88735909D01*
X136615730Y-88980925D01*
X136686328Y-89152209D01*
X136727828Y-89252896D01*
X136778812Y-89510385D01*
X136784964Y-89541457D01*
X136780273Y-89877450D01*
X136715101Y-90164305D01*
X136595453Y-90433038D01*
X136425887Y-90673413D01*
X136212861Y-90876276D01*
X136011191Y-91004259D01*
X135964489Y-91033897D01*
X135690231Y-91140275D01*
X135505930Y-91172772D01*
X135400535Y-91191356D01*
X135122852Y-91185539D01*
X135106432Y-91185195D01*
X134890958Y-91137820D01*
X134819132Y-91122028D01*
X134549570Y-91004259D01*
X134308016Y-90836375D01*
X134103672Y-90624770D01*
X133944320Y-90377505D01*
X133836031Y-90103997D01*
X133782928Y-89814664D01*
X133787035Y-89520528D01*
X133802858Y-89446088D01*
X133848195Y-89232793D01*
X133956146Y-88980925D01*
X133964080Y-88962413D01*
X134130273Y-88719693D01*
X134340446Y-88513877D01*
X134340447Y-88513876D01*
X134571495Y-88362683D01*
X134586593Y-88352803D01*
X134859339Y-88242606D01*
X135148293Y-88187485D01*
X135442451Y-88189539D01*
X135442451Y-88189539D01*
G37*
G36*
X152488100Y-90798200D02*
X151786100Y-90798200D01*
X151786100Y-89996200D01*
X152488100Y-89996200D01*
X152488100Y-90798200D01*
X152488100Y-90798200D01*
G37*
G36*
X153988100Y-90798200D02*
X153286100Y-90798200D01*
X153286100Y-89996200D01*
X153988100Y-89996200D01*
X153988100Y-90798200D01*
X153988100Y-90798200D01*
G37*
G36*
X151280460Y-90793120D02*
X150578460Y-90793120D01*
X150578460Y-89991120D01*
X151280460Y-89991120D01*
X151280460Y-90793120D01*
X151280460Y-90793120D01*
G37*
G36*
X149780460Y-90793120D02*
X149078460Y-90793120D01*
X149078460Y-89991120D01*
X149780460Y-89991120D01*
X149780460Y-90793120D01*
X149780460Y-90793120D01*
G37*
G36*
X156075720Y-89333309D02*
X156076402Y-89333314D01*
X156092793Y-89336678D01*
X156172647Y-89353069D01*
X156263219Y-89391142D01*
X156286255Y-89406681D01*
X156344675Y-89446085D01*
X156408527Y-89510384D01*
X156413906Y-89515801D01*
X156468277Y-89597636D01*
X156505719Y-89688476D01*
X156524801Y-89784848D01*
X156524801Y-89784854D01*
X156523234Y-89897076D01*
X156501467Y-89992885D01*
X156501466Y-89992887D01*
X156461505Y-90082642D01*
X156404869Y-90162928D01*
X156333718Y-90230685D01*
X156250763Y-90283330D01*
X156159160Y-90318861D01*
X156062405Y-90335921D01*
X155964170Y-90333863D01*
X155868214Y-90312766D01*
X155778181Y-90273431D01*
X155697500Y-90217357D01*
X155629249Y-90146680D01*
X155576026Y-90064095D01*
X155539857Y-89972743D01*
X155522121Y-89876105D01*
X155523493Y-89777863D01*
X155543919Y-89681762D01*
X155582626Y-89591452D01*
X155638135Y-89510384D01*
X155708332Y-89441642D01*
X155790544Y-89387844D01*
X155836095Y-89369441D01*
X155881643Y-89351038D01*
X155908296Y-89345954D01*
X155978153Y-89332627D01*
X156075720Y-89333309D01*
X156075720Y-89333309D01*
G37*
G36*
X151275380Y-89599320D02*
X150573380Y-89599320D01*
X150573380Y-88797320D01*
X151275380Y-88797320D01*
X151275380Y-89599320D01*
X151275380Y-89599320D01*
G37*
G36*
X149775380Y-89599320D02*
X149073380Y-89599320D01*
X149073380Y-88797320D01*
X149775380Y-88797320D01*
X149775380Y-89599320D01*
X149775380Y-89599320D01*
G37*
G36*
X42083780Y-87942980D02*
X37081780Y-87942980D01*
X37081780Y-85940980D01*
X42083780Y-85940980D01*
X42083780Y-87942980D01*
X42083780Y-87942980D01*
G37*
G36*
X42083780Y-82442980D02*
X37081780Y-82442980D01*
X37081780Y-80440980D01*
X42083780Y-80440980D01*
X42083780Y-82442980D01*
X42083780Y-82442980D01*
G37*
G36*
X55319180Y-73798780D02*
X54137180Y-73798780D01*
X54137180Y-73096780D01*
X55319180Y-73096780D01*
X55319180Y-73798780D01*
X55319180Y-73798780D01*
G37*
G36*
X60639180Y-73798780D02*
X59457180Y-73798780D01*
X59457180Y-73096780D01*
X60639180Y-73096780D01*
X60639180Y-73798780D01*
X60639180Y-73798780D01*
G37*
G36*
X62417110Y-73721830D02*
X61919810Y-73721830D01*
X61919810Y-73224530D01*
X62417110Y-73224530D01*
X62417110Y-73721830D01*
X62417110Y-73721830D01*
G37*
G36*
X61517950Y-73721830D02*
X61020650Y-73721830D01*
X61020650Y-73224530D01*
X61517950Y-73224530D01*
X61517950Y-73721830D01*
X61517950Y-73721830D01*
G37*
G36*
X42083780Y-72829980D02*
X37081780Y-72829980D01*
X37081780Y-70827980D01*
X42083780Y-70827980D01*
X42083780Y-72829980D01*
X42083780Y-72829980D01*
G37*
G36*
X55319180Y-72528780D02*
X54137180Y-72528780D01*
X54137180Y-71826780D01*
X55319180Y-71826780D01*
X55319180Y-72528780D01*
X55319180Y-72528780D01*
G37*
G36*
X60639180Y-72528780D02*
X59457180Y-72528780D01*
X59457180Y-71826780D01*
X60639180Y-71826780D01*
X60639180Y-72528780D01*
X60639180Y-72528780D01*
G37*
G36*
X137564000Y-72096000D02*
X137362000Y-72096000D01*
X137362000Y-71814000D01*
X137564000Y-71814000D01*
X137564000Y-72096000D01*
X137564000Y-72096000D01*
G37*
G36*
X137114000Y-72096000D02*
X136912000Y-72096000D01*
X136912000Y-71814000D01*
X137114000Y-71814000D01*
X137114000Y-72096000D01*
X137114000Y-72096000D01*
G37*
G36*
X136664000Y-72096000D02*
X136462000Y-72096000D01*
X136462000Y-71814000D01*
X136664000Y-71814000D01*
X136664000Y-72096000D01*
X136664000Y-72096000D01*
G37*
G36*
X138014000Y-72096000D02*
X137812000Y-72096000D01*
X137812000Y-71814000D01*
X138014000Y-71814000D01*
X138014000Y-72096000D01*
X138014000Y-72096000D01*
G37*
G36*
X136484000Y-71561000D02*
X136202000Y-71561000D01*
X136202000Y-71359000D01*
X136484000Y-71359000D01*
X136484000Y-71561000D01*
X136484000Y-71561000D01*
G37*
G36*
X137739000Y-71561000D02*
X136737000Y-71561000D01*
X136737000Y-70559000D01*
X137739000Y-70559000D01*
X137739000Y-71561000D01*
X137739000Y-71561000D01*
G37*
G36*
X138274000Y-71561000D02*
X137992000Y-71561000D01*
X137992000Y-71359000D01*
X138274000Y-71359000D01*
X138274000Y-71561000D01*
X138274000Y-71561000D01*
G37*
G36*
X155809000Y-71291000D02*
X150807000Y-71291000D01*
X150807000Y-69289000D01*
X155809000Y-69289000D01*
X155809000Y-71291000D01*
X155809000Y-71291000D01*
G37*
G36*
X60639180Y-71258780D02*
X59457180Y-71258780D01*
X59457180Y-70556780D01*
X60639180Y-70556780D01*
X60639180Y-71258780D01*
X60639180Y-71258780D01*
G37*
G36*
X55319180Y-71258780D02*
X54137180Y-71258780D01*
X54137180Y-70556780D01*
X55319180Y-70556780D01*
X55319180Y-71258780D01*
X55319180Y-71258780D01*
G37*
G36*
X138274000Y-71161000D02*
X137992000Y-71161000D01*
X137992000Y-70959000D01*
X138274000Y-70959000D01*
X138274000Y-71161000D01*
X138274000Y-71161000D01*
G37*
G36*
X136484000Y-71161000D02*
X136202000Y-71161000D01*
X136202000Y-70959000D01*
X136484000Y-70959000D01*
X136484000Y-71161000D01*
X136484000Y-71161000D01*
G37*
G36*
X138274000Y-70761000D02*
X137992000Y-70761000D01*
X137992000Y-70559000D01*
X138274000Y-70559000D01*
X138274000Y-70761000D01*
X138274000Y-70761000D01*
G37*
G36*
X136484000Y-70761000D02*
X136202000Y-70761000D01*
X136202000Y-70559000D01*
X136484000Y-70559000D01*
X136484000Y-70761000D01*
X136484000Y-70761000D01*
G37*
G36*
X136664000Y-70306000D02*
X136462000Y-70306000D01*
X136462000Y-70024000D01*
X136664000Y-70024000D01*
X136664000Y-70306000D01*
X136664000Y-70306000D01*
G37*
G36*
X137114000Y-70306000D02*
X136912000Y-70306000D01*
X136912000Y-70024000D01*
X137114000Y-70024000D01*
X137114000Y-70306000D01*
X137114000Y-70306000D01*
G37*
G36*
X137564000Y-70306000D02*
X137362000Y-70306000D01*
X137362000Y-70024000D01*
X137564000Y-70024000D01*
X137564000Y-70306000D01*
X137564000Y-70306000D01*
G37*
G36*
X138014000Y-70306000D02*
X137812000Y-70306000D01*
X137812000Y-70024000D01*
X138014000Y-70024000D01*
X138014000Y-70306000D01*
X138014000Y-70306000D01*
G37*
G36*
X60639180Y-69988780D02*
X59457180Y-69988780D01*
X59457180Y-69286780D01*
X60639180Y-69286780D01*
X60639180Y-69988780D01*
X60639180Y-69988780D01*
G37*
G36*
X55319180Y-69988780D02*
X54137180Y-69988780D01*
X54137180Y-69286780D01*
X55319180Y-69286780D01*
X55319180Y-69988780D01*
X55319180Y-69988780D01*
G37*
G36*
X140326530Y-69497810D02*
X139829230Y-69497810D01*
X139829230Y-69000510D01*
X140326530Y-69000510D01*
X140326530Y-69497810D01*
X140326530Y-69497810D01*
G37*
G36*
X139348630Y-69485110D02*
X138851330Y-69485110D01*
X138851330Y-68987810D01*
X139348630Y-68987810D01*
X139348630Y-69485110D01*
X139348630Y-69485110D01*
G37*
G36*
X143564980Y-69163980D02*
X142762980Y-69163980D01*
X142762980Y-68461980D01*
X143564980Y-68461980D01*
X143564980Y-69163980D01*
X143564980Y-69163980D01*
G37*
G36*
X55319180Y-68718780D02*
X54137180Y-68718780D01*
X54137180Y-68016780D01*
X55319180Y-68016780D01*
X55319180Y-68718780D01*
X55319180Y-68718780D01*
G37*
G36*
X60639180Y-68718780D02*
X59457180Y-68718780D01*
X59457180Y-68016780D01*
X60639180Y-68016780D01*
X60639180Y-68718780D01*
X60639180Y-68718780D01*
G37*
G36*
X140326530Y-68598650D02*
X139829230Y-68598650D01*
X139829230Y-68101350D01*
X140326530Y-68101350D01*
X140326530Y-68598650D01*
X140326530Y-68598650D01*
G37*
G36*
X139348630Y-68585950D02*
X138851330Y-68585950D01*
X138851330Y-68088650D01*
X139348630Y-68088650D01*
X139348630Y-68585950D01*
X139348630Y-68585950D01*
G37*
G36*
X53491280Y-67923780D02*
X52639280Y-67923780D01*
X52639280Y-67571780D01*
X53491280Y-67571780D01*
X53491280Y-67923780D01*
X53491280Y-67923780D01*
G37*
G36*
X51291280Y-67923780D02*
X50439280Y-67923780D01*
X50439280Y-67571780D01*
X51291280Y-67571780D01*
X51291280Y-67923780D01*
X51291280Y-67923780D01*
G37*
G36*
X143564980Y-67663980D02*
X142762980Y-67663980D01*
X142762980Y-66961980D01*
X143564980Y-66961980D01*
X143564980Y-67663980D01*
X143564980Y-67663980D01*
G37*
G36*
X55319180Y-67448780D02*
X54137180Y-67448780D01*
X54137180Y-66746780D01*
X55319180Y-66746780D01*
X55319180Y-67448780D01*
X55319180Y-67448780D01*
G37*
G36*
X60639180Y-67448780D02*
X59457180Y-67448780D01*
X59457180Y-66746780D01*
X60639180Y-66746780D01*
X60639180Y-67448780D01*
X60639180Y-67448780D01*
G37*
G36*
X42083780Y-67329980D02*
X37081780Y-67329980D01*
X37081780Y-65327980D01*
X42083780Y-65327980D01*
X42083780Y-67329980D01*
X42083780Y-67329980D01*
G37*
G36*
X53491280Y-67273780D02*
X52639280Y-67273780D01*
X52639280Y-66921780D01*
X53491280Y-66921780D01*
X53491280Y-67273780D01*
X53491280Y-67273780D01*
G37*
G36*
X149191080Y-66738280D02*
X148389080Y-66738280D01*
X148389080Y-66036280D01*
X149191080Y-66036280D01*
X149191080Y-66738280D01*
X149191080Y-66738280D01*
G37*
G36*
X53491280Y-66623780D02*
X52639280Y-66623780D01*
X52639280Y-66271780D01*
X53491280Y-66271780D01*
X53491280Y-66623780D01*
X53491280Y-66623780D01*
G37*
G36*
X51291280Y-66623780D02*
X50439280Y-66623780D01*
X50439280Y-66271780D01*
X51291280Y-66271780D01*
X51291280Y-66623780D01*
X51291280Y-66623780D01*
G37*
G36*
X144581030Y-66208510D02*
X144083730Y-66208510D01*
X144083730Y-65711210D01*
X144581030Y-65711210D01*
X144581030Y-66208510D01*
X144581030Y-66208510D01*
G37*
G36*
X55319180Y-66178780D02*
X54137180Y-66178780D01*
X54137180Y-65476780D01*
X55319180Y-65476780D01*
X55319180Y-66178780D01*
X55319180Y-66178780D01*
G37*
G36*
X60639180Y-66178780D02*
X59457180Y-66178780D01*
X59457180Y-65476780D01*
X60639180Y-65476780D01*
X60639180Y-66178780D01*
X60639180Y-66178780D01*
G37*
G36*
X155809000Y-65791000D02*
X150807000Y-65791000D01*
X150807000Y-63789000D01*
X155809000Y-63789000D01*
X155809000Y-65791000D01*
X155809000Y-65791000D01*
G37*
G36*
X144581030Y-65309350D02*
X144083730Y-65309350D01*
X144083730Y-64812050D01*
X144581030Y-64812050D01*
X144581030Y-65309350D01*
X144581030Y-65309350D01*
G37*
G36*
X149191080Y-65238280D02*
X148389080Y-65238280D01*
X148389080Y-64536280D01*
X149191080Y-64536280D01*
X149191080Y-65238280D01*
X149191080Y-65238280D01*
G37*
G36*
X147136650Y-65208230D02*
X146639350Y-65208230D01*
X146639350Y-64710930D01*
X147136650Y-64710930D01*
X147136650Y-65208230D01*
X147136650Y-65208230D01*
G37*
G36*
X147136650Y-64309070D02*
X146639350Y-64309070D01*
X146639350Y-63811770D01*
X147136650Y-63811770D01*
X147136650Y-64309070D01*
X147136650Y-64309070D01*
G37*
G36*
X149089000Y-63261000D02*
X148487000Y-63261000D01*
X148487000Y-62359000D01*
X149089000Y-62359000D01*
X149089000Y-63261000D01*
X149089000Y-63261000D01*
G37*
G36*
X148139000Y-63261000D02*
X147537000Y-63261000D01*
X147537000Y-62359000D01*
X148139000Y-62359000D01*
X148139000Y-63261000D01*
X148139000Y-63261000D01*
G37*
G36*
X147189000Y-63261000D02*
X146587000Y-63261000D01*
X146587000Y-62359000D01*
X147189000Y-62359000D01*
X147189000Y-63261000D01*
X147189000Y-63261000D01*
G37*
G36*
X151045280Y-63004480D02*
X150243280Y-63004480D01*
X150243280Y-62302480D01*
X151045280Y-62302480D01*
X151045280Y-63004480D01*
X151045280Y-63004480D01*
G37*
G36*
X59967380Y-62267180D02*
X58785380Y-62267180D01*
X58785380Y-61565180D01*
X59967380Y-61565180D01*
X59967380Y-62267180D01*
X59967380Y-62267180D01*
G37*
G36*
X65287380Y-62267180D02*
X64105380Y-62267180D01*
X64105380Y-61565180D01*
X65287380Y-61565180D01*
X65287380Y-62267180D01*
X65287380Y-62267180D01*
G37*
G36*
X154773780Y-61909980D02*
X153921780Y-61909980D01*
X153921780Y-61557980D01*
X154773780Y-61557980D01*
X154773780Y-61909980D01*
X154773780Y-61909980D01*
G37*
G36*
X152573780Y-61903980D02*
X151721780Y-61903980D01*
X151721780Y-61551980D01*
X152573780Y-61551980D01*
X152573780Y-61903980D01*
X152573780Y-61903980D01*
G37*
G36*
X151045280Y-61504480D02*
X150243280Y-61504480D01*
X150243280Y-60802480D01*
X151045280Y-60802480D01*
X151045280Y-61504480D01*
X151045280Y-61504480D01*
G37*
G36*
X152573780Y-61253980D02*
X151721780Y-61253980D01*
X151721780Y-60901980D01*
X152573780Y-60901980D01*
X152573780Y-61253980D01*
X152573780Y-61253980D01*
G37*
G36*
X154773780Y-61253980D02*
X153921780Y-61253980D01*
X153921780Y-60901980D01*
X154773780Y-60901980D01*
X154773780Y-61253980D01*
X154773780Y-61253980D01*
G37*
G36*
X65287380Y-60997180D02*
X64105380Y-60997180D01*
X64105380Y-60295180D01*
X65287380Y-60295180D01*
X65287380Y-60997180D01*
X65287380Y-60997180D01*
G37*
G36*
X59967380Y-60997180D02*
X58785380Y-60997180D01*
X58785380Y-60295180D01*
X59967380Y-60295180D01*
X59967380Y-60997180D01*
X59967380Y-60997180D01*
G37*
G36*
X49920380Y-60920980D02*
X48738380Y-60920980D01*
X48738380Y-60218980D01*
X49920380Y-60218980D01*
X49920380Y-60920980D01*
X49920380Y-60920980D01*
G37*
G36*
X44600380Y-60920980D02*
X43418380Y-60920980D01*
X43418380Y-60218980D01*
X44600380Y-60218980D01*
X44600380Y-60920980D01*
X44600380Y-60920980D01*
G37*
G36*
X148139000Y-60661000D02*
X147537000Y-60661000D01*
X147537000Y-59759000D01*
X148139000Y-59759000D01*
X148139000Y-60661000D01*
X148139000Y-60661000D01*
G37*
G36*
X147189000Y-60661000D02*
X146587000Y-60661000D01*
X146587000Y-59759000D01*
X147189000Y-59759000D01*
X147189000Y-60661000D01*
X147189000Y-60661000D01*
G37*
G36*
X149089000Y-60661000D02*
X148487000Y-60661000D01*
X148487000Y-59759000D01*
X149089000Y-59759000D01*
X149089000Y-60661000D01*
X149089000Y-60661000D01*
G37*
G36*
X154773780Y-60603980D02*
X153921780Y-60603980D01*
X153921780Y-60251980D01*
X154773780Y-60251980D01*
X154773780Y-60603980D01*
X154773780Y-60603980D01*
G37*
G36*
X152573780Y-60603980D02*
X151721780Y-60603980D01*
X151721780Y-60251980D01*
X152573780Y-60251980D01*
X152573780Y-60603980D01*
X152573780Y-60603980D01*
G37*
G36*
X59967380Y-59727180D02*
X58785380Y-59727180D01*
X58785380Y-59025180D01*
X59967380Y-59025180D01*
X59967380Y-59727180D01*
X59967380Y-59727180D01*
G37*
G36*
X65287380Y-59727180D02*
X64105380Y-59727180D01*
X64105380Y-59025180D01*
X65287380Y-59025180D01*
X65287380Y-59727180D01*
X65287380Y-59727180D01*
G37*
G36*
X44600380Y-59650980D02*
X43418380Y-59650980D01*
X43418380Y-58948980D01*
X44600380Y-58948980D01*
X44600380Y-59650980D01*
X44600380Y-59650980D01*
G37*
G36*
X49920380Y-59650980D02*
X48738380Y-59650980D01*
X48738380Y-58948980D01*
X49920380Y-58948980D01*
X49920380Y-59650980D01*
X49920380Y-59650980D01*
G37*
G36*
X150981780Y-59194480D02*
X150179780Y-59194480D01*
X150179780Y-58492480D01*
X150981780Y-58492480D01*
X150981780Y-59194480D01*
X150981780Y-59194480D01*
G37*
G36*
X148213854Y-58512255D02*
X147646755Y-59079354D01*
X147150366Y-58582965D01*
X147717465Y-58015866D01*
X148213854Y-58512255D01*
X148213854Y-58512255D01*
G37*
G36*
X81194060Y-58629150D02*
X80292900Y-58629150D01*
X80292900Y-57227610D01*
X81194060Y-57227610D01*
X81194060Y-58629150D01*
X81194060Y-58629150D01*
G37*
G36*
X79289060Y-58629150D02*
X78387900Y-58629150D01*
X78387900Y-57227610D01*
X79289060Y-57227610D01*
X79289060Y-58629150D01*
X79289060Y-58629150D01*
G37*
G36*
X73078770Y-58623080D02*
X71677230Y-58623080D01*
X71677230Y-57721920D01*
X73078770Y-57721920D01*
X73078770Y-58623080D01*
X73078770Y-58623080D01*
G37*
G36*
X82489460Y-58603750D02*
X81588300Y-58603750D01*
X81588300Y-57202210D01*
X82489460Y-57202210D01*
X82489460Y-58603750D01*
X82489460Y-58603750D01*
G37*
G36*
X84394460Y-58603750D02*
X83493300Y-58603750D01*
X83493300Y-57202210D01*
X84394460Y-57202210D01*
X84394460Y-58603750D01*
X84394460Y-58603750D01*
G37*
G36*
X76037860Y-58578350D02*
X75136700Y-58578350D01*
X75136700Y-57176810D01*
X76037860Y-57176810D01*
X76037860Y-58578350D01*
X76037860Y-58578350D01*
G37*
G36*
X77942860Y-58578350D02*
X77041700Y-58578350D01*
X77041700Y-57176810D01*
X77942860Y-57176810D01*
X77942860Y-58578350D01*
X77942860Y-58578350D01*
G37*
G36*
X59967380Y-58457180D02*
X58785380Y-58457180D01*
X58785380Y-57755180D01*
X59967380Y-57755180D01*
X59967380Y-58457180D01*
X59967380Y-58457180D01*
G37*
G36*
X65287380Y-58457180D02*
X64105380Y-58457180D01*
X64105380Y-57755180D01*
X65287380Y-57755180D01*
X65287380Y-58457180D01*
X65287380Y-58457180D01*
G37*
G36*
X69877070Y-58398650D02*
X69379770Y-58398650D01*
X69379770Y-57901350D01*
X69877070Y-57901350D01*
X69877070Y-58398650D01*
X69877070Y-58398650D01*
G37*
G36*
X70776230Y-58398650D02*
X70278930Y-58398650D01*
X70278930Y-57901350D01*
X70776230Y-57901350D01*
X70776230Y-58398650D01*
X70776230Y-58398650D01*
G37*
G36*
X44600380Y-58380980D02*
X43418380Y-58380980D01*
X43418380Y-57678980D01*
X44600380Y-57678980D01*
X44600380Y-58380980D01*
X44600380Y-58380980D01*
G37*
G36*
X49920380Y-58380980D02*
X48738380Y-58380980D01*
X48738380Y-57678980D01*
X49920380Y-57678980D01*
X49920380Y-58380980D01*
X49920380Y-58380980D01*
G37*
G36*
X74286650Y-58128230D02*
X73789350Y-58128230D01*
X73789350Y-57630930D01*
X74286650Y-57630930D01*
X74286650Y-58128230D01*
X74286650Y-58128230D01*
G37*
G36*
X147153194Y-57451595D02*
X146586095Y-58018694D01*
X146089706Y-57522305D01*
X146656805Y-56955206D01*
X147153194Y-57451595D01*
X147153194Y-57451595D01*
G37*
G36*
X154773780Y-57909480D02*
X153921780Y-57909480D01*
X153921780Y-57557480D01*
X154773780Y-57557480D01*
X154773780Y-57909480D01*
X154773780Y-57909480D01*
G37*
G36*
X152573780Y-57903480D02*
X151721780Y-57903480D01*
X151721780Y-57551480D01*
X152573780Y-57551480D01*
X152573780Y-57903480D01*
X152573780Y-57903480D01*
G37*
G36*
X125559000Y-57871000D02*
X124887000Y-57871000D01*
X124887000Y-57569000D01*
X125559000Y-57569000D01*
X125559000Y-57871000D01*
X125559000Y-57871000D01*
G37*
G36*
X123789000Y-57871000D02*
X123117000Y-57871000D01*
X123117000Y-57569000D01*
X123789000Y-57569000D01*
X123789000Y-57871000D01*
X123789000Y-57871000D01*
G37*
G36*
X112449180Y-57815580D02*
X111547180Y-57815580D01*
X111547180Y-56313580D01*
X112449180Y-56313580D01*
X112449180Y-57815580D01*
X112449180Y-57815580D01*
G37*
G36*
X124689000Y-57771000D02*
X123987000Y-57771000D01*
X123987000Y-56169000D01*
X124689000Y-56169000D01*
X124689000Y-57771000D01*
X124689000Y-57771000D01*
G37*
G36*
X150981780Y-57694480D02*
X150179780Y-57694480D01*
X150179780Y-56992480D01*
X150981780Y-56992480D01*
X150981780Y-57694480D01*
X150981780Y-57694480D01*
G37*
G36*
X123789000Y-57371000D02*
X123117000Y-57371000D01*
X123117000Y-57069000D01*
X123789000Y-57069000D01*
X123789000Y-57371000D01*
X123789000Y-57371000D01*
G37*
G36*
X125559000Y-57371000D02*
X124887000Y-57371000D01*
X124887000Y-57069000D01*
X125559000Y-57069000D01*
X125559000Y-57371000D01*
X125559000Y-57371000D01*
G37*
G36*
X154773780Y-57253480D02*
X153921780Y-57253480D01*
X153921780Y-56901480D01*
X154773780Y-56901480D01*
X154773780Y-57253480D01*
X154773780Y-57253480D01*
G37*
G36*
X152573780Y-57253480D02*
X151721780Y-57253480D01*
X151721780Y-56901480D01*
X152573780Y-56901480D01*
X152573780Y-57253480D01*
X152573780Y-57253480D01*
G37*
G36*
X74286650Y-57229070D02*
X73789350Y-57229070D01*
X73789350Y-56731770D01*
X74286650Y-56731770D01*
X74286650Y-57229070D01*
X74286650Y-57229070D01*
G37*
G36*
X59967380Y-57187180D02*
X58785380Y-57187180D01*
X58785380Y-56485180D01*
X59967380Y-56485180D01*
X59967380Y-57187180D01*
X59967380Y-57187180D01*
G37*
G36*
X65287380Y-57187180D02*
X64105380Y-57187180D01*
X64105380Y-56485180D01*
X65287380Y-56485180D01*
X65287380Y-57187180D01*
X65287380Y-57187180D01*
G37*
G36*
X121918770Y-57123080D02*
X120517230Y-57123080D01*
X120517230Y-56221920D01*
X121918770Y-56221920D01*
X121918770Y-57123080D01*
X121918770Y-57123080D01*
G37*
G36*
X44600380Y-57110980D02*
X43418380Y-57110980D01*
X43418380Y-56408980D01*
X44600380Y-56408980D01*
X44600380Y-57110980D01*
X44600380Y-57110980D01*
G37*
G36*
X49920380Y-57110980D02*
X48738380Y-57110980D01*
X48738380Y-56408980D01*
X49920380Y-56408980D01*
X49920380Y-57110980D01*
X49920380Y-57110980D01*
G37*
G36*
X76037860Y-56978150D02*
X75136700Y-56978150D01*
X75136700Y-55576610D01*
X76037860Y-55576610D01*
X76037860Y-56978150D01*
X76037860Y-56978150D01*
G37*
G36*
X77942860Y-56978150D02*
X77041700Y-56978150D01*
X77041700Y-55576610D01*
X77942860Y-55576610D01*
X77942860Y-56978150D01*
X77942860Y-56978150D01*
G37*
G36*
X126837070Y-56968650D02*
X126339770Y-56968650D01*
X126339770Y-56471350D01*
X126837070Y-56471350D01*
X126837070Y-56968650D01*
X126837070Y-56968650D01*
G37*
G36*
X127736230Y-56968650D02*
X127238930Y-56968650D01*
X127238930Y-56471350D01*
X127736230Y-56471350D01*
X127736230Y-56968650D01*
X127736230Y-56968650D01*
G37*
G36*
X118327070Y-56958650D02*
X117829770Y-56958650D01*
X117829770Y-56461350D01*
X118327070Y-56461350D01*
X118327070Y-56958650D01*
X118327070Y-56958650D01*
G37*
G36*
X119226230Y-56958650D02*
X118728930Y-56958650D01*
X118728930Y-56461350D01*
X119226230Y-56461350D01*
X119226230Y-56958650D01*
X119226230Y-56958650D01*
G37*
G36*
X70806230Y-56878650D02*
X70308930Y-56878650D01*
X70308930Y-56381350D01*
X70806230Y-56381350D01*
X70806230Y-56878650D01*
X70806230Y-56878650D01*
G37*
G36*
X69907070Y-56878650D02*
X69409770Y-56878650D01*
X69409770Y-56381350D01*
X69907070Y-56381350D01*
X69907070Y-56878650D01*
X69907070Y-56878650D01*
G37*
G36*
X123789000Y-56871000D02*
X123117000Y-56871000D01*
X123117000Y-56569000D01*
X123789000Y-56569000D01*
X123789000Y-56871000D01*
X123789000Y-56871000D01*
G37*
G36*
X125559000Y-56871000D02*
X124887000Y-56871000D01*
X124887000Y-56569000D01*
X125559000Y-56569000D01*
X125559000Y-56871000D01*
X125559000Y-56871000D01*
G37*
G36*
X86509010Y-56805430D02*
X86011710Y-56805430D01*
X86011710Y-56308130D01*
X86509010Y-56308130D01*
X86509010Y-56805430D01*
X86509010Y-56805430D01*
G37*
G36*
X85609850Y-56805430D02*
X85112550Y-56805430D01*
X85112550Y-56308130D01*
X85609850Y-56308130D01*
X85609850Y-56805430D01*
X85609850Y-56805430D01*
G37*
G36*
X73078770Y-56718080D02*
X71677230Y-56718080D01*
X71677230Y-55816920D01*
X73078770Y-55816920D01*
X73078770Y-56718080D01*
X73078770Y-56718080D01*
G37*
G36*
X154773780Y-56603480D02*
X153921780Y-56603480D01*
X153921780Y-56251480D01*
X154773780Y-56251480D01*
X154773780Y-56603480D01*
X154773780Y-56603480D01*
G37*
G36*
X152573780Y-56603480D02*
X151721780Y-56603480D01*
X151721780Y-56251480D01*
X152573780Y-56251480D01*
X152573780Y-56603480D01*
X152573780Y-56603480D01*
G37*
G36*
X79285250Y-56576830D02*
X78787950Y-56576830D01*
X78787950Y-56079530D01*
X79285250Y-56079530D01*
X79285250Y-56576830D01*
X79285250Y-56576830D01*
G37*
G36*
X80184410Y-56576830D02*
X79687110Y-56576830D01*
X79687110Y-56079530D01*
X80184410Y-56079530D01*
X80184410Y-56576830D01*
X80184410Y-56576830D01*
G37*
G36*
X82409450Y-56526030D02*
X81912150Y-56526030D01*
X81912150Y-56028730D01*
X82409450Y-56028730D01*
X82409450Y-56526030D01*
X82409450Y-56526030D01*
G37*
G36*
X83308610Y-56526030D02*
X82811310Y-56526030D01*
X82811310Y-56028730D01*
X83308610Y-56028730D01*
X83308610Y-56526030D01*
X83308610Y-56526030D01*
G37*
G36*
X123789000Y-56371000D02*
X123117000Y-56371000D01*
X123117000Y-56069000D01*
X123789000Y-56069000D01*
X123789000Y-56371000D01*
X123789000Y-56371000D01*
G37*
G36*
X125559000Y-56371000D02*
X124887000Y-56371000D01*
X124887000Y-56069000D01*
X125559000Y-56069000D01*
X125559000Y-56371000D01*
X125559000Y-56371000D01*
G37*
G36*
X112449180Y-56015580D02*
X111547180Y-56015580D01*
X111547180Y-54913580D01*
X112449180Y-54913580D01*
X112449180Y-56015580D01*
X112449180Y-56015580D01*
G37*
G36*
X65287380Y-55917180D02*
X64105380Y-55917180D01*
X64105380Y-55215180D01*
X65287380Y-55215180D01*
X65287380Y-55917180D01*
X65287380Y-55917180D01*
G37*
G36*
X59967380Y-55917180D02*
X58785380Y-55917180D01*
X58785380Y-55215180D01*
X59967380Y-55215180D01*
X59967380Y-55917180D01*
X59967380Y-55917180D01*
G37*
G36*
X49920380Y-55840980D02*
X48738380Y-55840980D01*
X48738380Y-55138980D01*
X49920380Y-55138980D01*
X49920380Y-55840980D01*
X49920380Y-55840980D01*
G37*
G36*
X44600380Y-55840980D02*
X43418380Y-55840980D01*
X43418380Y-55138980D01*
X44600380Y-55138980D01*
X44600380Y-55840980D01*
X44600380Y-55840980D01*
G37*
G36*
X36825720Y-54583309D02*
X36826402Y-54583314D01*
X36842793Y-54586678D01*
X36922647Y-54603069D01*
X37013219Y-54641142D01*
X37022170Y-54647180D01*
X37094675Y-54696085D01*
X37127361Y-54729000D01*
X37163906Y-54765801D01*
X37218277Y-54847636D01*
X37255719Y-54938476D01*
X37274801Y-55034848D01*
X37274801Y-55034854D01*
X37273234Y-55147076D01*
X37251467Y-55242885D01*
X37251466Y-55242887D01*
X37211505Y-55332642D01*
X37154869Y-55412928D01*
X37083718Y-55480685D01*
X37000763Y-55533330D01*
X36909160Y-55568861D01*
X36812405Y-55585921D01*
X36714170Y-55583863D01*
X36618214Y-55562766D01*
X36528181Y-55523431D01*
X36447500Y-55467357D01*
X36379249Y-55396680D01*
X36326026Y-55314095D01*
X36289857Y-55222743D01*
X36272121Y-55126105D01*
X36273493Y-55027863D01*
X36293919Y-54931762D01*
X36332626Y-54841452D01*
X36388135Y-54760384D01*
X36458332Y-54691642D01*
X36540544Y-54637844D01*
X36595651Y-54615580D01*
X36631643Y-54601038D01*
X36658296Y-54595954D01*
X36728153Y-54582627D01*
X36825720Y-54583309D01*
X36825720Y-54583309D01*
G37*
G36*
X102464000Y-55481000D02*
X102212000Y-55481000D01*
X102212000Y-55179000D01*
X102464000Y-55179000D01*
X102464000Y-55481000D01*
X102464000Y-55481000D01*
G37*
G36*
X94724000Y-55461000D02*
X94472000Y-55461000D01*
X94472000Y-55159000D01*
X94724000Y-55159000D01*
X94724000Y-55461000D01*
X94724000Y-55461000D01*
G37*
G36*
X66514130Y-55375410D02*
X66016830Y-55375410D01*
X66016830Y-54878110D01*
X66514130Y-54878110D01*
X66514130Y-55375410D01*
X66514130Y-55375410D01*
G37*
G36*
X82264000Y-55351000D02*
X81962000Y-55351000D01*
X81962000Y-54399000D01*
X82264000Y-54399000D01*
X82264000Y-55351000D01*
X82264000Y-55351000D01*
G37*
G36*
X81614000Y-55351000D02*
X81312000Y-55351000D01*
X81312000Y-54399000D01*
X81614000Y-54399000D01*
X81614000Y-55351000D01*
X81614000Y-55351000D01*
G37*
G36*
X80964000Y-55351000D02*
X80662000Y-55351000D01*
X80662000Y-54399000D01*
X80964000Y-54399000D01*
X80964000Y-55351000D01*
X80964000Y-55351000D01*
G37*
G36*
X80314000Y-55351000D02*
X80012000Y-55351000D01*
X80012000Y-54399000D01*
X80314000Y-54399000D01*
X80314000Y-55351000D01*
X80314000Y-55351000D01*
G37*
G36*
X71424000Y-55351000D02*
X71122000Y-55351000D01*
X71122000Y-54399000D01*
X71424000Y-54399000D01*
X71424000Y-55351000D01*
X71424000Y-55351000D01*
G37*
G36*
X70124000Y-55351000D02*
X69822000Y-55351000D01*
X69822000Y-54399000D01*
X70124000Y-54399000D01*
X70124000Y-55351000D01*
X70124000Y-55351000D01*
G37*
G36*
X70774000Y-55351000D02*
X70472000Y-55351000D01*
X70472000Y-54399000D01*
X70774000Y-54399000D01*
X70774000Y-55351000D01*
X70774000Y-55351000D01*
G37*
G36*
X69474000Y-55351000D02*
X69172000Y-55351000D01*
X69172000Y-54399000D01*
X69474000Y-54399000D01*
X69474000Y-55351000D01*
X69474000Y-55351000D01*
G37*
G36*
X107479000Y-55341000D02*
X106777000Y-55341000D01*
X106777000Y-54539000D01*
X107479000Y-54539000D01*
X107479000Y-55341000D01*
X107479000Y-55341000D01*
G37*
G36*
X105979000Y-55341000D02*
X105277000Y-55341000D01*
X105277000Y-54539000D01*
X105979000Y-54539000D01*
X105979000Y-55341000D01*
X105979000Y-55341000D01*
G37*
G36*
X109828005Y-54893481D02*
X109476361Y-55245125D01*
X109124717Y-54893481D01*
X109476361Y-54541837D01*
X109828005Y-54893481D01*
X109828005Y-54893481D01*
G37*
G36*
X121918770Y-55218080D02*
X120517230Y-55218080D01*
X120517230Y-54316920D01*
X121918770Y-54316920D01*
X121918770Y-55218080D01*
X121918770Y-55218080D01*
G37*
G36*
X101214000Y-55131000D02*
X100812000Y-55131000D01*
X100812000Y-54729000D01*
X101214000Y-54729000D01*
X101214000Y-55131000D01*
X101214000Y-55131000D01*
G37*
G36*
X103864000Y-55131000D02*
X103462000Y-55131000D01*
X103462000Y-54729000D01*
X103864000Y-54729000D01*
X103864000Y-55131000D01*
X103864000Y-55131000D01*
G37*
G36*
X96124000Y-55111000D02*
X95722000Y-55111000D01*
X95722000Y-54709000D01*
X96124000Y-54709000D01*
X96124000Y-55111000D01*
X96124000Y-55111000D01*
G37*
G36*
X93474000Y-55111000D02*
X93072000Y-55111000D01*
X93072000Y-54709000D01*
X93474000Y-54709000D01*
X93474000Y-55111000D01*
X93474000Y-55111000D01*
G37*
G36*
X76246230Y-55108650D02*
X75748930Y-55108650D01*
X75748930Y-54611350D01*
X76246230Y-54611350D01*
X76246230Y-55108650D01*
X76246230Y-55108650D01*
G37*
G36*
X75347070Y-55108650D02*
X74849770Y-55108650D01*
X74849770Y-54611350D01*
X75347070Y-54611350D01*
X75347070Y-55108650D01*
X75347070Y-55108650D01*
G37*
G36*
X119016650Y-54898230D02*
X118519350Y-54898230D01*
X118519350Y-54400930D01*
X119016650Y-54400930D01*
X119016650Y-54898230D01*
X119016650Y-54898230D01*
G37*
G36*
X120046650Y-54888230D02*
X119549350Y-54888230D01*
X119549350Y-54390930D01*
X120046650Y-54390930D01*
X120046650Y-54888230D01*
X120046650Y-54888230D01*
G37*
G36*
X126666410Y-54773430D02*
X126169110Y-54773430D01*
X126169110Y-54276130D01*
X126666410Y-54276130D01*
X126666410Y-54773430D01*
X126666410Y-54773430D01*
G37*
G36*
X125767250Y-54773430D02*
X125269950Y-54773430D01*
X125269950Y-54276130D01*
X125767250Y-54276130D01*
X125767250Y-54773430D01*
X125767250Y-54773430D01*
G37*
G36*
X123938450Y-54773430D02*
X123441150Y-54773430D01*
X123441150Y-54276130D01*
X123938450Y-54276130D01*
X123938450Y-54773430D01*
X123938450Y-54773430D01*
G37*
G36*
X124837610Y-54773430D02*
X124340310Y-54773430D01*
X124340310Y-54276130D01*
X124837610Y-54276130D01*
X124837610Y-54773430D01*
X124837610Y-54773430D01*
G37*
G36*
X59967380Y-54647180D02*
X58785380Y-54647180D01*
X58785380Y-53945180D01*
X59967380Y-53945180D01*
X59967380Y-54647180D01*
X59967380Y-54647180D01*
G37*
G36*
X65287380Y-54647180D02*
X64105380Y-54647180D01*
X64105380Y-53945180D01*
X65287380Y-53945180D01*
X65287380Y-54647180D01*
X65287380Y-54647180D01*
G37*
G36*
X112449180Y-54615580D02*
X111547180Y-54615580D01*
X111547180Y-53113580D01*
X112449180Y-53113580D01*
X112449180Y-54615580D01*
X112449180Y-54615580D01*
G37*
G36*
X109192203Y-54257679D02*
X108840559Y-54609323D01*
X108488915Y-54257679D01*
X108840559Y-53906035D01*
X109192203Y-54257679D01*
X109192203Y-54257679D01*
G37*
G36*
X98620421Y-54107901D02*
X98130099Y-54598223D01*
X97639777Y-54107901D01*
X98130099Y-53617579D01*
X98620421Y-54107901D01*
X98620421Y-54107901D01*
G37*
G36*
X49920380Y-54570980D02*
X48738380Y-54570980D01*
X48738380Y-53868980D01*
X49920380Y-53868980D01*
X49920380Y-54570980D01*
X49920380Y-54570980D01*
G37*
G36*
X44600380Y-54570980D02*
X43418380Y-54570980D01*
X43418380Y-53868980D01*
X44600380Y-53868980D01*
X44600380Y-54570980D01*
X44600380Y-54570980D01*
G37*
G36*
X66514130Y-54476250D02*
X66016830Y-54476250D01*
X66016830Y-53978950D01*
X66514130Y-53978950D01*
X66514130Y-54476250D01*
X66514130Y-54476250D01*
G37*
G36*
X102909000Y-54441000D02*
X101397000Y-54441000D01*
X101397000Y-53519000D01*
X102909000Y-53519000D01*
X102909000Y-54441000D01*
X102909000Y-54441000D01*
G37*
G36*
X95539000Y-54421000D02*
X94027000Y-54421000D01*
X94027000Y-53499000D01*
X95539000Y-53499000D01*
X95539000Y-54421000D01*
X95539000Y-54421000D01*
G37*
G36*
X36808970Y-53370059D02*
X36809652Y-53370064D01*
X36826043Y-53373428D01*
X36905897Y-53389819D01*
X36996469Y-53427892D01*
X37019505Y-53443431D01*
X37077925Y-53482835D01*
X37117965Y-53523156D01*
X37147156Y-53552551D01*
X37201527Y-53634386D01*
X37238969Y-53725226D01*
X37258051Y-53821598D01*
X37256484Y-53933827D01*
X37250085Y-53961993D01*
X37234717Y-54029635D01*
X37234716Y-54029637D01*
X37194755Y-54119392D01*
X37138119Y-54199678D01*
X37066968Y-54267435D01*
X36984013Y-54320080D01*
X36892410Y-54355611D01*
X36795655Y-54372671D01*
X36697420Y-54370613D01*
X36601464Y-54349516D01*
X36511431Y-54310181D01*
X36430750Y-54254107D01*
X36362499Y-54183430D01*
X36309276Y-54100845D01*
X36273107Y-54009493D01*
X36255371Y-53912855D01*
X36256743Y-53814613D01*
X36277169Y-53718512D01*
X36315876Y-53628202D01*
X36371385Y-53547134D01*
X36441582Y-53478392D01*
X36523794Y-53424594D01*
X36569344Y-53406191D01*
X36614893Y-53387788D01*
X36641546Y-53382704D01*
X36711403Y-53369377D01*
X36808970Y-53370059D01*
X36808970Y-53370059D01*
G37*
G36*
X101214000Y-54181000D02*
X100812000Y-54181000D01*
X100812000Y-53779000D01*
X101214000Y-53779000D01*
X101214000Y-54181000D01*
X101214000Y-54181000D01*
G37*
G36*
X103864000Y-54181000D02*
X103462000Y-54181000D01*
X103462000Y-53779000D01*
X103864000Y-53779000D01*
X103864000Y-54181000D01*
X103864000Y-54181000D01*
G37*
G36*
X93474000Y-54161000D02*
X93072000Y-54161000D01*
X93072000Y-53759000D01*
X93474000Y-53759000D01*
X93474000Y-54161000D01*
X93474000Y-54161000D01*
G37*
G36*
X96124000Y-54161000D02*
X95722000Y-54161000D01*
X95722000Y-53759000D01*
X96124000Y-53759000D01*
X96124000Y-54161000D01*
X96124000Y-54161000D01*
G37*
G36*
X68849000Y-54076000D02*
X67897000Y-54076000D01*
X67897000Y-53774000D01*
X68849000Y-53774000D01*
X68849000Y-54076000D01*
X68849000Y-54076000D01*
G37*
G36*
X72699000Y-54076000D02*
X71747000Y-54076000D01*
X71747000Y-53774000D01*
X72699000Y-53774000D01*
X72699000Y-54076000D01*
X72699000Y-54076000D01*
G37*
G36*
X79689000Y-54076000D02*
X78737000Y-54076000D01*
X78737000Y-53774000D01*
X79689000Y-53774000D01*
X79689000Y-54076000D01*
X79689000Y-54076000D01*
G37*
G36*
X83539000Y-54076000D02*
X82587000Y-54076000D01*
X82587000Y-53774000D01*
X83539000Y-53774000D01*
X83539000Y-54076000D01*
X83539000Y-54076000D01*
G37*
G36*
X71374000Y-54026000D02*
X69222000Y-54026000D01*
X69222000Y-51874000D01*
X71374000Y-51874000D01*
X71374000Y-54026000D01*
X71374000Y-54026000D01*
G37*
G36*
X82214000Y-54026000D02*
X80062000Y-54026000D01*
X80062000Y-51874000D01*
X82214000Y-51874000D01*
X82214000Y-54026000D01*
X82214000Y-54026000D01*
G37*
G36*
X119016650Y-53999070D02*
X118519350Y-53999070D01*
X118519350Y-53501770D01*
X119016650Y-53501770D01*
X119016650Y-53999070D01*
X119016650Y-53999070D01*
G37*
G36*
X120046650Y-53989070D02*
X119549350Y-53989070D01*
X119549350Y-53491770D01*
X120046650Y-53491770D01*
X120046650Y-53989070D01*
X120046650Y-53989070D01*
G37*
G36*
X99256223Y-53472099D02*
X98765901Y-53962421D01*
X98275579Y-53472099D01*
X98765901Y-52981777D01*
X99256223Y-53472099D01*
X99256223Y-53472099D01*
G37*
G36*
X110419414Y-53265685D02*
X109923025Y-53762074D01*
X109355926Y-53194975D01*
X109852315Y-52698586D01*
X110419414Y-53265685D01*
X110419414Y-53265685D01*
G37*
G36*
X40675051Y-50521339D02*
X40921274Y-50571881D01*
X40963209Y-50580489D01*
X41210887Y-50684604D01*
X41234388Y-50694483D01*
X41478262Y-50858978D01*
X41685541Y-51067709D01*
X41848330Y-51312725D01*
X41878059Y-51384854D01*
X41960428Y-51584696D01*
X42013420Y-51852327D01*
X42017564Y-51873257D01*
X42012873Y-52209250D01*
X41947701Y-52496105D01*
X41828053Y-52764838D01*
X41658487Y-53005213D01*
X41445461Y-53208076D01*
X41440853Y-53211000D01*
X41197089Y-53365697D01*
X40922831Y-53472075D01*
X40754420Y-53501770D01*
X40633135Y-53523156D01*
X40355452Y-53517339D01*
X40339032Y-53516995D01*
X40123558Y-53469620D01*
X40051732Y-53453828D01*
X39782170Y-53336059D01*
X39540616Y-53168175D01*
X39336272Y-52956570D01*
X39176920Y-52709305D01*
X39068631Y-52435797D01*
X39015528Y-52146464D01*
X39019635Y-51852328D01*
X39024235Y-51830685D01*
X39080795Y-51564593D01*
X39108051Y-51501000D01*
X39196680Y-51294213D01*
X39362873Y-51051493D01*
X39573046Y-50845677D01*
X39573047Y-50845676D01*
X39698931Y-50763300D01*
X39819193Y-50684603D01*
X40091939Y-50574406D01*
X40380893Y-50519285D01*
X40675051Y-50521339D01*
X40675051Y-50521339D01*
G37*
G36*
X83539000Y-53426000D02*
X82587000Y-53426000D01*
X82587000Y-53124000D01*
X83539000Y-53124000D01*
X83539000Y-53426000D01*
X83539000Y-53426000D01*
G37*
G36*
X79689000Y-53426000D02*
X78737000Y-53426000D01*
X78737000Y-53124000D01*
X79689000Y-53124000D01*
X79689000Y-53426000D01*
X79689000Y-53426000D01*
G37*
G36*
X72699000Y-53426000D02*
X71747000Y-53426000D01*
X71747000Y-53124000D01*
X72699000Y-53124000D01*
X72699000Y-53426000D01*
X72699000Y-53426000D01*
G37*
G36*
X68849000Y-53426000D02*
X67897000Y-53426000D01*
X67897000Y-53124000D01*
X68849000Y-53124000D01*
X68849000Y-53426000D01*
X68849000Y-53426000D01*
G37*
G36*
X44600380Y-53300980D02*
X43418380Y-53300980D01*
X43418380Y-52598980D01*
X44600380Y-52598980D01*
X44600380Y-53300980D01*
X44600380Y-53300980D01*
G37*
G36*
X49920380Y-53300980D02*
X48738380Y-53300980D01*
X48738380Y-52598980D01*
X49920380Y-52598980D01*
X49920380Y-53300980D01*
X49920380Y-53300980D01*
G37*
G36*
X91357070Y-53248650D02*
X90859770Y-53248650D01*
X90859770Y-52751350D01*
X91357070Y-52751350D01*
X91357070Y-53248650D01*
X91357070Y-53248650D01*
G37*
G36*
X92256230Y-53248650D02*
X91758930Y-53248650D01*
X91758930Y-52751350D01*
X92256230Y-52751350D01*
X92256230Y-53248650D01*
X92256230Y-53248650D01*
G37*
G36*
X103864000Y-53231000D02*
X103462000Y-53231000D01*
X103462000Y-52829000D01*
X103864000Y-52829000D01*
X103864000Y-53231000D01*
X103864000Y-53231000D01*
G37*
G36*
X101214000Y-53231000D02*
X100812000Y-53231000D01*
X100812000Y-52829000D01*
X101214000Y-52829000D01*
X101214000Y-53231000D01*
X101214000Y-53231000D01*
G37*
G36*
X96124000Y-53211000D02*
X95722000Y-53211000D01*
X95722000Y-52809000D01*
X96124000Y-52809000D01*
X96124000Y-53211000D01*
X96124000Y-53211000D01*
G37*
G36*
X93474000Y-53211000D02*
X93072000Y-53211000D01*
X93072000Y-52809000D01*
X93474000Y-52809000D01*
X93474000Y-53211000D01*
X93474000Y-53211000D01*
G37*
G36*
X36825720Y-52133309D02*
X36826402Y-52133314D01*
X36842793Y-52136678D01*
X36922647Y-52153069D01*
X37013219Y-52191142D01*
X37033801Y-52205025D01*
X37094675Y-52246085D01*
X37158527Y-52310384D01*
X37163906Y-52315801D01*
X37218277Y-52397636D01*
X37255719Y-52488476D01*
X37274801Y-52584848D01*
X37273234Y-52697077D01*
X37270456Y-52709305D01*
X37251467Y-52792885D01*
X37251466Y-52792887D01*
X37211505Y-52882642D01*
X37154869Y-52962928D01*
X37083718Y-53030685D01*
X37000763Y-53083330D01*
X36909160Y-53118861D01*
X36812405Y-53135921D01*
X36714170Y-53133863D01*
X36618214Y-53112766D01*
X36528181Y-53073431D01*
X36447500Y-53017357D01*
X36379249Y-52946680D01*
X36326026Y-52864095D01*
X36289857Y-52772743D01*
X36272121Y-52676105D01*
X36273493Y-52577863D01*
X36293919Y-52481762D01*
X36332626Y-52391452D01*
X36388135Y-52310384D01*
X36458332Y-52241642D01*
X36540544Y-52187844D01*
X36586094Y-52169441D01*
X36631643Y-52151038D01*
X36658296Y-52145954D01*
X36728153Y-52132627D01*
X36825720Y-52133309D01*
X36825720Y-52133309D01*
G37*
G36*
X149680180Y-53046980D02*
X148498180Y-53046980D01*
X148498180Y-52344980D01*
X149680180Y-52344980D01*
X149680180Y-53046980D01*
X149680180Y-53046980D01*
G37*
G36*
X155000180Y-53046980D02*
X153818180Y-53046980D01*
X153818180Y-52344980D01*
X155000180Y-52344980D01*
X155000180Y-53046980D01*
X155000180Y-53046980D01*
G37*
G36*
X146988950Y-52957330D02*
X146491650Y-52957330D01*
X146491650Y-52460030D01*
X146988950Y-52460030D01*
X146988950Y-52957330D01*
X146988950Y-52957330D01*
G37*
G36*
X147888110Y-52957330D02*
X147390810Y-52957330D01*
X147390810Y-52460030D01*
X147888110Y-52460030D01*
X147888110Y-52957330D01*
X147888110Y-52957330D01*
G37*
G36*
X102464000Y-52781000D02*
X102212000Y-52781000D01*
X102212000Y-52479000D01*
X102464000Y-52479000D01*
X102464000Y-52781000D01*
X102464000Y-52781000D01*
G37*
G36*
X79689000Y-52776000D02*
X78737000Y-52776000D01*
X78737000Y-52474000D01*
X79689000Y-52474000D01*
X79689000Y-52776000D01*
X79689000Y-52776000D01*
G37*
G36*
X83539000Y-52776000D02*
X82587000Y-52776000D01*
X82587000Y-52474000D01*
X83539000Y-52474000D01*
X83539000Y-52776000D01*
X83539000Y-52776000D01*
G37*
G36*
X72699000Y-52776000D02*
X71747000Y-52776000D01*
X71747000Y-52474000D01*
X72699000Y-52474000D01*
X72699000Y-52776000D01*
X72699000Y-52776000D01*
G37*
G36*
X68849000Y-52776000D02*
X67897000Y-52776000D01*
X67897000Y-52474000D01*
X68849000Y-52474000D01*
X68849000Y-52776000D01*
X68849000Y-52776000D01*
G37*
G36*
X94724000Y-52761000D02*
X94472000Y-52761000D01*
X94472000Y-52459000D01*
X94724000Y-52459000D01*
X94724000Y-52761000D01*
X94724000Y-52761000D01*
G37*
G36*
X111480074Y-52205025D02*
X110983685Y-52701414D01*
X110416586Y-52134315D01*
X110912975Y-51637926D01*
X111480074Y-52205025D01*
X111480074Y-52205025D01*
G37*
G36*
X116186000Y-52681000D02*
X115472800Y-52681000D01*
X115472800Y-51180400D01*
X116186000Y-51180400D01*
X116186000Y-52681000D01*
X116186000Y-52681000D01*
G37*
G36*
X117786200Y-47345379D02*
X117786220Y-47345518D01*
X117786278Y-47345647D01*
X117786342Y-47345728D01*
X118280771Y-47840157D01*
X118280880Y-47840238D01*
X118281012Y-47840288D01*
X118281121Y-47840300D01*
X118281500Y-47840300D01*
X118281500Y-47840679D01*
X118281520Y-47840818D01*
X118281578Y-47840947D01*
X118281642Y-47841028D01*
X118282914Y-47842300D01*
X118282000Y-47842300D01*
X118281861Y-47842320D01*
X118281732Y-47842378D01*
X118281625Y-47842469D01*
X118281548Y-47842586D01*
X118281506Y-47842721D01*
X118281500Y-47842800D01*
X118281500Y-50265500D01*
X118281520Y-50265639D01*
X118281578Y-50265768D01*
X118281669Y-50265875D01*
X118281786Y-50265952D01*
X118281921Y-50265994D01*
X118282000Y-50266000D01*
X118282914Y-50266000D01*
X118281643Y-50267271D01*
X118281562Y-50267380D01*
X118281512Y-50267512D01*
X118281500Y-50267621D01*
X118281500Y-50268000D01*
X118281121Y-50268000D01*
X118280982Y-50268020D01*
X118280853Y-50268078D01*
X118280772Y-50268142D01*
X117786343Y-50762571D01*
X117786262Y-50762680D01*
X117786212Y-50762812D01*
X117786200Y-50762921D01*
X117786200Y-52681000D01*
X116869800Y-52681000D01*
X116869800Y-50762921D01*
X116869780Y-50762782D01*
X116869722Y-50762653D01*
X116869658Y-50762572D01*
X116375229Y-50268143D01*
X116375120Y-50268062D01*
X116374988Y-50268012D01*
X116374879Y-50268000D01*
X116374500Y-50268000D01*
X116374500Y-50267621D01*
X116374480Y-50267482D01*
X116374422Y-50267353D01*
X116374358Y-50267272D01*
X116373086Y-50266000D01*
X116374000Y-50266000D01*
X116374139Y-50265980D01*
X116374268Y-50265922D01*
X116374375Y-50265831D01*
X116374452Y-50265714D01*
X116374494Y-50265579D01*
X116374500Y-50265500D01*
X116374500Y-47842800D01*
X116374480Y-47842661D01*
X116374422Y-47842532D01*
X116374331Y-47842425D01*
X116374214Y-47842348D01*
X116374079Y-47842306D01*
X116374000Y-47842300D01*
X116373086Y-47842300D01*
X116374357Y-47841029D01*
X116374438Y-47840920D01*
X116374488Y-47840788D01*
X116374500Y-47840679D01*
X116374500Y-47840300D01*
X116374879Y-47840300D01*
X116375018Y-47840280D01*
X116375147Y-47840222D01*
X116375228Y-47840158D01*
X116869657Y-47345729D01*
X116869738Y-47345620D01*
X116869788Y-47345488D01*
X116869800Y-47345379D01*
X116869800Y-47345000D01*
X117786200Y-47345000D01*
X117786200Y-47345379D01*
X117786200Y-47345379D01*
G37*
G36*
X119183200Y-52681000D02*
X118470000Y-52681000D01*
X118470000Y-51180400D01*
X119183200Y-51180400D01*
X119183200Y-52681000D01*
X119183200Y-52681000D01*
G37*
G36*
X114273750Y-52397260D02*
X112872210Y-52397260D01*
X112872210Y-51496100D01*
X114273750Y-51496100D01*
X114273750Y-52397260D01*
X114273750Y-52397260D01*
G37*
G36*
X126409000Y-52391000D02*
X125707000Y-52391000D01*
X125707000Y-51589000D01*
X126409000Y-51589000D01*
X126409000Y-52391000D01*
X126409000Y-52391000D01*
G37*
G36*
X124909000Y-52391000D02*
X124207000Y-52391000D01*
X124207000Y-51589000D01*
X124909000Y-51589000D01*
X124909000Y-52391000D01*
X124909000Y-52391000D01*
G37*
G36*
X120659000Y-52381000D02*
X119957000Y-52381000D01*
X119957000Y-51579000D01*
X120659000Y-51579000D01*
X120659000Y-52381000D01*
X120659000Y-52381000D01*
G37*
G36*
X122159000Y-52381000D02*
X121457000Y-52381000D01*
X121457000Y-51579000D01*
X122159000Y-51579000D01*
X122159000Y-52381000D01*
X122159000Y-52381000D01*
G37*
G36*
X66627545Y-51967901D02*
X66275901Y-52319545D01*
X65924257Y-51967901D01*
X66275901Y-51616257D01*
X66627545Y-51967901D01*
X66627545Y-51967901D01*
G37*
G36*
X123607780Y-52250250D02*
X122808220Y-52250250D01*
X122808220Y-51549750D01*
X123607780Y-51549750D01*
X123607780Y-52250250D01*
X123607780Y-52250250D01*
G37*
G36*
X83539000Y-52126000D02*
X82587000Y-52126000D01*
X82587000Y-51824000D01*
X83539000Y-51824000D01*
X83539000Y-52126000D01*
X83539000Y-52126000D01*
G37*
G36*
X68849000Y-52126000D02*
X67897000Y-52126000D01*
X67897000Y-51824000D01*
X68849000Y-51824000D01*
X68849000Y-52126000D01*
X68849000Y-52126000D01*
G37*
G36*
X72699000Y-52126000D02*
X71747000Y-52126000D01*
X71747000Y-51824000D01*
X72699000Y-51824000D01*
X72699000Y-52126000D01*
X72699000Y-52126000D01*
G37*
G36*
X79689000Y-52126000D02*
X78737000Y-52126000D01*
X78737000Y-51824000D01*
X79689000Y-51824000D01*
X79689000Y-52126000D01*
X79689000Y-52126000D01*
G37*
G36*
X36825720Y-50933309D02*
X36826402Y-50933314D01*
X36842793Y-50936678D01*
X36922647Y-50953069D01*
X37013219Y-50991142D01*
X37036255Y-51006681D01*
X37094675Y-51046085D01*
X37158527Y-51110384D01*
X37163906Y-51115801D01*
X37218277Y-51197636D01*
X37255719Y-51288476D01*
X37274801Y-51384848D01*
X37274801Y-51384854D01*
X37273234Y-51497076D01*
X37251467Y-51592885D01*
X37251466Y-51592887D01*
X37211505Y-51682642D01*
X37154869Y-51762928D01*
X37083718Y-51830685D01*
X37000763Y-51883330D01*
X36909160Y-51918861D01*
X36812405Y-51935921D01*
X36714170Y-51933863D01*
X36618214Y-51912766D01*
X36528181Y-51873431D01*
X36447500Y-51817357D01*
X36379249Y-51746680D01*
X36326026Y-51664095D01*
X36289857Y-51572743D01*
X36272121Y-51476105D01*
X36273493Y-51377863D01*
X36293919Y-51281762D01*
X36332626Y-51191452D01*
X36388135Y-51110384D01*
X36458332Y-51041642D01*
X36540544Y-50987844D01*
X36586094Y-50969441D01*
X36631643Y-50951038D01*
X36658296Y-50945954D01*
X36728153Y-50932627D01*
X36825720Y-50933309D01*
X36825720Y-50933309D01*
G37*
G36*
X44187530Y-51857510D02*
X43690230Y-51857510D01*
X43690230Y-51360210D01*
X44187530Y-51360210D01*
X44187530Y-51857510D01*
X44187530Y-51857510D01*
G37*
G36*
X155000180Y-51776980D02*
X153818180Y-51776980D01*
X153818180Y-51074980D01*
X155000180Y-51074980D01*
X155000180Y-51776980D01*
X155000180Y-51776980D01*
G37*
G36*
X149680180Y-51776980D02*
X148498180Y-51776980D01*
X148498180Y-51074980D01*
X149680180Y-51074980D01*
X149680180Y-51776980D01*
X149680180Y-51776980D01*
G37*
G36*
X65991743Y-51332099D02*
X65640099Y-51683743D01*
X65288455Y-51332099D01*
X65640099Y-50980455D01*
X65991743Y-51332099D01*
X65991743Y-51332099D01*
G37*
G36*
X82264000Y-51501000D02*
X81962000Y-51501000D01*
X81962000Y-50549000D01*
X82264000Y-50549000D01*
X82264000Y-51501000D01*
X82264000Y-51501000D01*
G37*
G36*
X69474000Y-51501000D02*
X69172000Y-51501000D01*
X69172000Y-50549000D01*
X69474000Y-50549000D01*
X69474000Y-51501000D01*
X69474000Y-51501000D01*
G37*
G36*
X70124000Y-51501000D02*
X69822000Y-51501000D01*
X69822000Y-50549000D01*
X70124000Y-50549000D01*
X70124000Y-51501000D01*
X70124000Y-51501000D01*
G37*
G36*
X71424000Y-51501000D02*
X71122000Y-51501000D01*
X71122000Y-50549000D01*
X71424000Y-50549000D01*
X71424000Y-51501000D01*
X71424000Y-51501000D01*
G37*
G36*
X70774000Y-51501000D02*
X70472000Y-51501000D01*
X70472000Y-50549000D01*
X70774000Y-50549000D01*
X70774000Y-51501000D01*
X70774000Y-51501000D01*
G37*
G36*
X80314000Y-51501000D02*
X80012000Y-51501000D01*
X80012000Y-50549000D01*
X80314000Y-50549000D01*
X80314000Y-51501000D01*
X80314000Y-51501000D01*
G37*
G36*
X80964000Y-51501000D02*
X80662000Y-51501000D01*
X80662000Y-50549000D01*
X80964000Y-50549000D01*
X80964000Y-51501000D01*
X80964000Y-51501000D01*
G37*
G36*
X81614000Y-51501000D02*
X81312000Y-51501000D01*
X81312000Y-50549000D01*
X81614000Y-50549000D01*
X81614000Y-51501000D01*
X81614000Y-51501000D01*
G37*
G36*
X146728780Y-51471380D02*
X146026780Y-51471380D01*
X146026780Y-50669380D01*
X146728780Y-50669380D01*
X146728780Y-51471380D01*
X146728780Y-51471380D01*
G37*
G36*
X145228780Y-51471380D02*
X144526780Y-51471380D01*
X144526780Y-50669380D01*
X145228780Y-50669380D01*
X145228780Y-51471380D01*
X145228780Y-51471380D01*
G37*
G36*
X96529000Y-51201000D02*
X95577000Y-51201000D01*
X95577000Y-50599000D01*
X96529000Y-50599000D01*
X96529000Y-51201000D01*
X96529000Y-51201000D01*
G37*
G36*
X94279000Y-51201000D02*
X93327000Y-51201000D01*
X93327000Y-50599000D01*
X94279000Y-50599000D01*
X94279000Y-51201000D01*
X94279000Y-51201000D01*
G37*
G36*
X99818610Y-51065030D02*
X99321310Y-51065030D01*
X99321310Y-50567730D01*
X99818610Y-50567730D01*
X99818610Y-51065030D01*
X99818610Y-51065030D01*
G37*
G36*
X98919450Y-51065030D02*
X98422150Y-51065030D01*
X98422150Y-50567730D01*
X98919450Y-50567730D01*
X98919450Y-51065030D01*
X98919450Y-51065030D01*
G37*
G36*
X123607780Y-51050250D02*
X122808220Y-51050250D01*
X122808220Y-50349750D01*
X123607780Y-50349750D01*
X123607780Y-51050250D01*
X123607780Y-51050250D01*
G37*
G36*
X44187530Y-50958350D02*
X43690230Y-50958350D01*
X43690230Y-50461050D01*
X44187530Y-50461050D01*
X44187530Y-50958350D01*
X44187530Y-50958350D01*
G37*
G36*
X149680180Y-50506980D02*
X148498180Y-50506980D01*
X148498180Y-49804980D01*
X149680180Y-49804980D01*
X149680180Y-50506980D01*
X149680180Y-50506980D01*
G37*
G36*
X155000180Y-50506980D02*
X153818180Y-50506980D01*
X153818180Y-49804980D01*
X155000180Y-49804980D01*
X155000180Y-50506980D01*
X155000180Y-50506980D01*
G37*
G36*
X114273750Y-50492260D02*
X112872210Y-50492260D01*
X112872210Y-49591100D01*
X114273750Y-49591100D01*
X114273750Y-50492260D01*
X114273750Y-50492260D01*
G37*
G36*
X90827380Y-50358380D02*
X90425380Y-50358380D01*
X90425380Y-49656380D01*
X90827380Y-49656380D01*
X90827380Y-50358380D01*
X90827380Y-50358380D01*
G37*
G36*
X89527380Y-50358380D02*
X89125380Y-50358380D01*
X89125380Y-49656380D01*
X89527380Y-49656380D01*
X89527380Y-50358380D01*
X89527380Y-50358380D01*
G37*
G36*
X94279000Y-50251000D02*
X93327000Y-50251000D01*
X93327000Y-49649000D01*
X94279000Y-49649000D01*
X94279000Y-50251000D01*
X94279000Y-50251000D01*
G37*
G36*
X96529000Y-50251000D02*
X95577000Y-50251000D01*
X95577000Y-49649000D01*
X96529000Y-49649000D01*
X96529000Y-50251000D01*
X96529000Y-50251000D01*
G37*
G36*
X145228780Y-50226780D02*
X144526780Y-50226780D01*
X144526780Y-49424780D01*
X145228780Y-49424780D01*
X145228780Y-50226780D01*
X145228780Y-50226780D01*
G37*
G36*
X146728780Y-50226780D02*
X146026780Y-50226780D01*
X146026780Y-49424780D01*
X146728780Y-49424780D01*
X146728780Y-50226780D01*
X146728780Y-50226780D01*
G37*
G36*
X139911780Y-50159980D02*
X138389780Y-50159980D01*
X138389780Y-47997980D01*
X139911780Y-47997980D01*
X139911780Y-50159980D01*
X139911780Y-50159980D01*
G37*
G36*
X137371780Y-50159980D02*
X135849780Y-50159980D01*
X135849780Y-47997980D01*
X137371780Y-47997980D01*
X137371780Y-50159980D01*
X137371780Y-50159980D01*
G37*
G36*
X134831780Y-50159980D02*
X133309780Y-50159980D01*
X133309780Y-47997980D01*
X134831780Y-47997980D01*
X134831780Y-50159980D01*
X134831780Y-50159980D01*
G37*
G36*
X142451780Y-50159980D02*
X140929780Y-50159980D01*
X140929780Y-47997980D01*
X142451780Y-47997980D01*
X142451780Y-50159980D01*
X142451780Y-50159980D01*
G37*
G36*
X101131080Y-50100770D02*
X100229920Y-50100770D01*
X100229920Y-48699230D01*
X101131080Y-48699230D01*
X101131080Y-50100770D01*
X101131080Y-50100770D01*
G37*
G36*
X99226080Y-50100770D02*
X98324920Y-50100770D01*
X98324920Y-48699230D01*
X99226080Y-48699230D01*
X99226080Y-50100770D01*
X99226080Y-50100770D01*
G37*
G36*
X109642060Y-49916950D02*
X108740900Y-49916950D01*
X108740900Y-48515410D01*
X109642060Y-48515410D01*
X109642060Y-49916950D01*
X109642060Y-49916950D01*
G37*
G36*
X111547060Y-49916950D02*
X110645900Y-49916950D01*
X110645900Y-48515410D01*
X111547060Y-48515410D01*
X111547060Y-49916950D01*
X111547060Y-49916950D01*
G37*
G36*
X106289000Y-49791000D02*
X105587000Y-49791000D01*
X105587000Y-48989000D01*
X106289000Y-48989000D01*
X106289000Y-49791000D01*
X106289000Y-49791000D01*
G37*
G36*
X104789000Y-49791000D02*
X104087000Y-49791000D01*
X104087000Y-48989000D01*
X104789000Y-48989000D01*
X104789000Y-49791000D01*
X104789000Y-49791000D01*
G37*
G36*
X102457780Y-49750250D02*
X101658220Y-49750250D01*
X101658220Y-49049750D01*
X102457780Y-49049750D01*
X102457780Y-49750250D01*
X102457780Y-49750250D01*
G37*
G36*
X103627780Y-49750250D02*
X102828220Y-49750250D01*
X102828220Y-49049750D01*
X103627780Y-49049750D01*
X103627780Y-49750250D01*
X103627780Y-49750250D01*
G37*
G36*
X108356650Y-49498230D02*
X107859350Y-49498230D01*
X107859350Y-49000930D01*
X108356650Y-49000930D01*
X108356650Y-49498230D01*
X108356650Y-49498230D01*
G37*
G36*
X107326650Y-49488230D02*
X106829350Y-49488230D01*
X106829350Y-48990930D01*
X107326650Y-48990930D01*
X107326650Y-49488230D01*
X107326650Y-49488230D01*
G37*
G36*
X94279000Y-49301000D02*
X93327000Y-49301000D01*
X93327000Y-48699000D01*
X94279000Y-48699000D01*
X94279000Y-49301000D01*
X94279000Y-49301000D01*
G37*
G36*
X96529000Y-49301000D02*
X95577000Y-49301000D01*
X95577000Y-48699000D01*
X96529000Y-48699000D01*
X96529000Y-49301000D01*
X96529000Y-49301000D01*
G37*
G36*
X149680180Y-49236980D02*
X148498180Y-49236980D01*
X148498180Y-48534980D01*
X149680180Y-48534980D01*
X149680180Y-49236980D01*
X149680180Y-49236980D01*
G37*
G36*
X155000180Y-49236980D02*
X153818180Y-49236980D01*
X153818180Y-48534980D01*
X155000180Y-48534980D01*
X155000180Y-49236980D01*
X155000180Y-49236980D01*
G37*
G36*
X146754180Y-49007580D02*
X146052180Y-49007580D01*
X146052180Y-48205580D01*
X146754180Y-48205580D01*
X146754180Y-49007580D01*
X146754180Y-49007580D01*
G37*
G36*
X145254180Y-49007580D02*
X144552180Y-49007580D01*
X144552180Y-48205580D01*
X145254180Y-48205580D01*
X145254180Y-49007580D01*
X145254180Y-49007580D01*
G37*
G36*
X108356650Y-48599070D02*
X107859350Y-48599070D01*
X107859350Y-48101770D01*
X108356650Y-48101770D01*
X108356650Y-48599070D01*
X108356650Y-48599070D01*
G37*
G36*
X107326650Y-48589070D02*
X106829350Y-48589070D01*
X106829350Y-48091770D01*
X107326650Y-48091770D01*
X107326650Y-48589070D01*
X107326650Y-48589070D01*
G37*
G36*
X129009980Y-48569980D02*
X128107980Y-48569980D01*
X128107980Y-47067980D01*
X129009980Y-47067980D01*
X129009980Y-48569980D01*
X129009980Y-48569980D01*
G37*
G36*
X102457780Y-48550250D02*
X101658220Y-48550250D01*
X101658220Y-47849750D01*
X102457780Y-47849750D01*
X102457780Y-48550250D01*
X102457780Y-48550250D01*
G37*
G36*
X103627780Y-48550250D02*
X102828220Y-48550250D01*
X102828220Y-47849750D01*
X103627780Y-47849750D01*
X103627780Y-48550250D01*
X103627780Y-48550250D01*
G37*
G36*
X155000180Y-47966980D02*
X153818180Y-47966980D01*
X153818180Y-47264980D01*
X155000180Y-47264980D01*
X155000180Y-47966980D01*
X155000180Y-47966980D01*
G37*
G36*
X149680180Y-47966980D02*
X148498180Y-47966980D01*
X148498180Y-47264980D01*
X149680180Y-47264980D01*
X149680180Y-47966980D01*
X149680180Y-47966980D01*
G37*
G36*
X90827380Y-47658380D02*
X90425380Y-47658380D01*
X90425380Y-46956380D01*
X90827380Y-46956380D01*
X90827380Y-47658380D01*
X90827380Y-47658380D01*
G37*
G36*
X90177380Y-47658380D02*
X89775380Y-47658380D01*
X89775380Y-46956380D01*
X90177380Y-46956380D01*
X90177380Y-47658380D01*
X90177380Y-47658380D01*
G37*
G36*
X89527380Y-47658380D02*
X89125380Y-47658380D01*
X89125380Y-46956380D01*
X89527380Y-46956380D01*
X89527380Y-47658380D01*
X89527380Y-47658380D01*
G37*
G36*
X110440890Y-47270270D02*
X109943590Y-47270270D01*
X109943590Y-46772970D01*
X110440890Y-46772970D01*
X110440890Y-47270270D01*
X110440890Y-47270270D01*
G37*
G36*
X111340050Y-47270270D02*
X110842750Y-47270270D01*
X110842750Y-46772970D01*
X111340050Y-46772970D01*
X111340050Y-47270270D01*
X111340050Y-47270270D01*
G37*
G36*
X88566410Y-47128030D02*
X88069110Y-47128030D01*
X88069110Y-46630730D01*
X88566410Y-46630730D01*
X88566410Y-47128030D01*
X88566410Y-47128030D01*
G37*
G36*
X87667250Y-47128030D02*
X87169950Y-47128030D01*
X87169950Y-46630730D01*
X87667250Y-46630730D01*
X87667250Y-47128030D01*
X87667250Y-47128030D01*
G37*
G36*
X92732010Y-46975630D02*
X92234710Y-46975630D01*
X92234710Y-46478330D01*
X92732010Y-46478330D01*
X92732010Y-46975630D01*
X92732010Y-46975630D01*
G37*
G36*
X91832850Y-46975630D02*
X91335550Y-46975630D01*
X91335550Y-46478330D01*
X91832850Y-46478330D01*
X91832850Y-46975630D01*
X91832850Y-46975630D01*
G37*
G36*
X129009980Y-46769980D02*
X128107980Y-46769980D01*
X128107980Y-45667980D01*
X129009980Y-45667980D01*
X129009980Y-46769980D01*
X129009980Y-46769980D01*
G37*
G36*
X149680180Y-46696980D02*
X148498180Y-46696980D01*
X148498180Y-45994980D01*
X149680180Y-45994980D01*
X149680180Y-46696980D01*
X149680180Y-46696980D01*
G37*
G36*
X155000180Y-46696980D02*
X153818180Y-46696980D01*
X153818180Y-45994980D01*
X155000180Y-45994980D01*
X155000180Y-46696980D01*
X155000180Y-46696980D01*
G37*
G36*
X112499180Y-46166980D02*
X111497180Y-46166980D01*
X111497180Y-45364980D01*
X112499180Y-45364980D01*
X112499180Y-46166980D01*
X112499180Y-46166980D01*
G37*
G36*
X149680180Y-45426980D02*
X148498180Y-45426980D01*
X148498180Y-44724980D01*
X149680180Y-44724980D01*
X149680180Y-45426980D01*
X149680180Y-45426980D01*
G37*
G36*
X155000180Y-45426980D02*
X153818180Y-45426980D01*
X153818180Y-44724980D01*
X155000180Y-44724980D01*
X155000180Y-45426980D01*
X155000180Y-45426980D01*
G37*
G36*
X129009980Y-45369980D02*
X128107980Y-45369980D01*
X128107980Y-43867980D01*
X129009980Y-43867980D01*
X129009980Y-45369980D01*
X129009980Y-45369980D01*
G37*
G36*
X145228780Y-45095980D02*
X144526780Y-45095980D01*
X144526780Y-44293980D01*
X145228780Y-44293980D01*
X145228780Y-45095980D01*
X145228780Y-45095980D01*
G37*
G36*
X146728780Y-45095980D02*
X146026780Y-45095980D01*
X146026780Y-44293980D01*
X146728780Y-44293980D01*
X146728780Y-45095980D01*
X146728780Y-45095980D01*
G37*
G36*
X51526036Y-41848779D02*
X51784737Y-41901883D01*
X51814386Y-41907969D01*
X52062229Y-42012153D01*
X52085746Y-42022039D01*
X52329783Y-42186643D01*
X52537200Y-42395514D01*
X52700097Y-42640693D01*
X52812270Y-42912844D01*
X52869445Y-43201599D01*
X52864750Y-43537815D01*
X52799535Y-43824862D01*
X52679807Y-44093774D01*
X52510128Y-44334310D01*
X52350303Y-44486508D01*
X52296958Y-44537308D01*
X52048422Y-44695034D01*
X51773981Y-44801483D01*
X51589557Y-44834001D01*
X51484092Y-44852598D01*
X51206223Y-44846777D01*
X51189793Y-44846433D01*
X50902302Y-44783224D01*
X50768988Y-44724980D01*
X50632559Y-44665376D01*
X50390845Y-44497380D01*
X50186364Y-44285634D01*
X50026906Y-44038204D01*
X49918545Y-43764514D01*
X49865407Y-43474988D01*
X49869517Y-43180656D01*
X49875863Y-43150799D01*
X49930717Y-42892729D01*
X50039083Y-42639893D01*
X50046679Y-42622169D01*
X50212984Y-42379287D01*
X50423297Y-42173333D01*
X50654499Y-42022039D01*
X50669606Y-42012153D01*
X50671586Y-42011353D01*
X50942535Y-41901882D01*
X51231682Y-41846724D01*
X51526036Y-41848779D01*
X51526036Y-41848779D01*
G37*
G36*
X46446036Y-41848779D02*
X46704737Y-41901883D01*
X46734386Y-41907969D01*
X46982229Y-42012153D01*
X47005746Y-42022039D01*
X47249783Y-42186643D01*
X47457200Y-42395514D01*
X47620097Y-42640693D01*
X47732270Y-42912844D01*
X47789445Y-43201599D01*
X47784750Y-43537815D01*
X47719535Y-43824862D01*
X47599807Y-44093774D01*
X47430128Y-44334310D01*
X47270303Y-44486508D01*
X47216958Y-44537308D01*
X46968422Y-44695034D01*
X46693981Y-44801483D01*
X46509557Y-44834001D01*
X46404092Y-44852598D01*
X46126223Y-44846777D01*
X46109793Y-44846433D01*
X45822302Y-44783224D01*
X45688988Y-44724980D01*
X45552559Y-44665376D01*
X45310845Y-44497380D01*
X45106364Y-44285634D01*
X44946906Y-44038204D01*
X44838545Y-43764514D01*
X44785407Y-43474988D01*
X44789517Y-43180656D01*
X44795863Y-43150799D01*
X44850717Y-42892729D01*
X44959083Y-42639893D01*
X44966679Y-42622169D01*
X45132984Y-42379287D01*
X45343297Y-42173333D01*
X45574499Y-42022039D01*
X45589606Y-42012153D01*
X45591586Y-42011353D01*
X45862535Y-41901882D01*
X46151682Y-41846724D01*
X46446036Y-41848779D01*
X46446036Y-41848779D01*
G37*
G36*
X89854636Y-41847979D02*
X90142986Y-41907169D01*
X90392732Y-42012153D01*
X90414346Y-42021239D01*
X90658383Y-42185843D01*
X90865800Y-42394714D01*
X91028697Y-42639893D01*
X91140870Y-42912044D01*
X91198045Y-43200799D01*
X91193350Y-43537015D01*
X91128135Y-43824062D01*
X91008407Y-44092974D01*
X90838728Y-44333510D01*
X90635730Y-44526821D01*
X90625558Y-44536508D01*
X90377022Y-44694234D01*
X90102581Y-44800683D01*
X89918157Y-44833201D01*
X89812692Y-44851798D01*
X89534823Y-44845977D01*
X89518393Y-44845633D01*
X89230902Y-44782424D01*
X89125191Y-44736240D01*
X88961159Y-44664576D01*
X88719445Y-44496580D01*
X88514964Y-44284834D01*
X88355506Y-44037404D01*
X88247145Y-43763714D01*
X88194007Y-43474188D01*
X88195504Y-43366980D01*
X88198117Y-43179855D01*
X88259317Y-42891929D01*
X88282503Y-42837832D01*
X88375279Y-42621369D01*
X88541584Y-42378487D01*
X88751897Y-42172533D01*
X88828305Y-42122533D01*
X88998206Y-42011353D01*
X89006678Y-42007930D01*
X89271135Y-41901082D01*
X89560282Y-41845924D01*
X89854636Y-41847979D01*
X89854636Y-41847979D01*
G37*
G36*
X41996780Y-44822980D02*
X39962780Y-44822980D01*
X39962780Y-43296980D01*
X41996780Y-43296980D01*
X41996780Y-44822980D01*
X41996780Y-44822980D01*
G37*
G36*
X39266280Y-44822980D02*
X37232280Y-44822980D01*
X37232280Y-43296980D01*
X39266280Y-43296980D01*
X39266280Y-44822980D01*
X39266280Y-44822980D01*
G37*
G36*
X94934636Y-41797979D02*
X95193337Y-41851083D01*
X95222986Y-41857169D01*
X95470829Y-41961353D01*
X95494346Y-41971239D01*
X95738383Y-42135843D01*
X95945800Y-42344714D01*
X96108697Y-42589893D01*
X96220870Y-42862044D01*
X96278045Y-43150799D01*
X96273350Y-43487015D01*
X96208135Y-43774062D01*
X96088407Y-44042974D01*
X95918728Y-44283510D01*
X95865382Y-44334310D01*
X95705558Y-44486508D01*
X95457022Y-44644234D01*
X95182581Y-44750683D01*
X95002572Y-44782423D01*
X94892692Y-44801798D01*
X94614823Y-44795977D01*
X94598393Y-44795633D01*
X94310902Y-44732424D01*
X94205191Y-44686240D01*
X94041159Y-44614576D01*
X93799445Y-44446580D01*
X93594964Y-44234834D01*
X93435506Y-43987404D01*
X93327145Y-43713714D01*
X93274007Y-43424188D01*
X93278117Y-43129856D01*
X93278117Y-43129855D01*
X93339317Y-42841929D01*
X93425910Y-42639893D01*
X93455279Y-42571369D01*
X93621584Y-42328487D01*
X93831897Y-42122533D01*
X93986692Y-42021238D01*
X94078206Y-41961353D01*
X94078208Y-41961352D01*
X94351135Y-41851082D01*
X94640282Y-41795924D01*
X94934636Y-41797979D01*
X94934636Y-41797979D01*
G37*
G36*
X84774636Y-41797979D02*
X85033337Y-41851083D01*
X85062986Y-41857169D01*
X85310829Y-41961353D01*
X85334346Y-41971239D01*
X85578383Y-42135843D01*
X85785800Y-42344714D01*
X85948697Y-42589893D01*
X86060870Y-42862044D01*
X86118045Y-43150799D01*
X86113350Y-43487015D01*
X86048135Y-43774062D01*
X85928407Y-44042974D01*
X85758728Y-44283510D01*
X85705382Y-44334310D01*
X85545558Y-44486508D01*
X85297022Y-44644234D01*
X85022581Y-44750683D01*
X84842572Y-44782423D01*
X84732692Y-44801798D01*
X84454823Y-44795977D01*
X84438393Y-44795633D01*
X84150902Y-44732424D01*
X84045191Y-44686240D01*
X83881159Y-44614576D01*
X83639445Y-44446580D01*
X83434964Y-44234834D01*
X83275506Y-43987404D01*
X83167145Y-43713714D01*
X83114007Y-43424188D01*
X83118117Y-43129856D01*
X83118117Y-43129855D01*
X83179317Y-42841929D01*
X83265910Y-42639893D01*
X83295279Y-42571369D01*
X83461584Y-42328487D01*
X83671897Y-42122533D01*
X83826692Y-42021238D01*
X83918206Y-41961353D01*
X83918208Y-41961352D01*
X84191135Y-41851082D01*
X84480282Y-41795924D01*
X84774636Y-41797979D01*
X84774636Y-41797979D01*
G37*
G36*
X74614636Y-41797979D02*
X74873337Y-41851083D01*
X74902986Y-41857169D01*
X75150829Y-41961353D01*
X75174346Y-41971239D01*
X75418383Y-42135843D01*
X75625800Y-42344714D01*
X75788697Y-42589893D01*
X75900870Y-42862044D01*
X75958045Y-43150799D01*
X75953350Y-43487015D01*
X75888135Y-43774062D01*
X75768407Y-44042974D01*
X75598728Y-44283510D01*
X75545382Y-44334310D01*
X75385558Y-44486508D01*
X75137022Y-44644234D01*
X74862581Y-44750683D01*
X74682572Y-44782423D01*
X74572692Y-44801798D01*
X74294823Y-44795977D01*
X74278393Y-44795633D01*
X73990902Y-44732424D01*
X73885191Y-44686240D01*
X73721159Y-44614576D01*
X73479445Y-44446580D01*
X73274964Y-44234834D01*
X73115506Y-43987404D01*
X73007145Y-43713714D01*
X72954007Y-43424188D01*
X72958117Y-43129856D01*
X72958117Y-43129855D01*
X73019317Y-42841929D01*
X73105910Y-42639893D01*
X73135279Y-42571369D01*
X73301584Y-42328487D01*
X73511897Y-42122533D01*
X73666692Y-42021238D01*
X73758206Y-41961353D01*
X73758208Y-41961352D01*
X74031135Y-41851082D01*
X74320282Y-41795924D01*
X74614636Y-41797979D01*
X74614636Y-41797979D01*
G37*
G36*
X64454636Y-41797979D02*
X64713337Y-41851083D01*
X64742986Y-41857169D01*
X64990829Y-41961353D01*
X65014346Y-41971239D01*
X65258383Y-42135843D01*
X65465800Y-42344714D01*
X65628697Y-42589893D01*
X65740870Y-42862044D01*
X65798045Y-43150799D01*
X65793350Y-43487015D01*
X65728135Y-43774062D01*
X65608407Y-44042974D01*
X65438728Y-44283510D01*
X65385382Y-44334310D01*
X65225558Y-44486508D01*
X64977022Y-44644234D01*
X64702581Y-44750683D01*
X64522572Y-44782423D01*
X64412692Y-44801798D01*
X64134823Y-44795977D01*
X64118393Y-44795633D01*
X63830902Y-44732424D01*
X63725191Y-44686240D01*
X63561159Y-44614576D01*
X63319445Y-44446580D01*
X63114964Y-44234834D01*
X62955506Y-43987404D01*
X62847145Y-43713714D01*
X62794007Y-43424188D01*
X62798117Y-43129856D01*
X62798117Y-43129855D01*
X62859317Y-42841929D01*
X62945910Y-42639893D01*
X62975279Y-42571369D01*
X63141584Y-42328487D01*
X63351897Y-42122533D01*
X63506692Y-42021238D01*
X63598206Y-41961353D01*
X63598208Y-41961352D01*
X63871135Y-41851082D01*
X64160282Y-41795924D01*
X64454636Y-41797979D01*
X64454636Y-41797979D01*
G37*
G36*
X59374636Y-41797979D02*
X59633337Y-41851083D01*
X59662986Y-41857169D01*
X59910829Y-41961353D01*
X59934346Y-41971239D01*
X60178383Y-42135843D01*
X60385800Y-42344714D01*
X60548697Y-42589893D01*
X60660870Y-42862044D01*
X60718045Y-43150799D01*
X60713350Y-43487015D01*
X60648135Y-43774062D01*
X60528407Y-44042974D01*
X60358728Y-44283510D01*
X60305382Y-44334310D01*
X60145558Y-44486508D01*
X59897022Y-44644234D01*
X59622581Y-44750683D01*
X59442572Y-44782423D01*
X59332692Y-44801798D01*
X59054823Y-44795977D01*
X59038393Y-44795633D01*
X58750902Y-44732424D01*
X58645191Y-44686240D01*
X58481159Y-44614576D01*
X58239445Y-44446580D01*
X58034964Y-44234834D01*
X57875506Y-43987404D01*
X57767145Y-43713714D01*
X57714007Y-43424188D01*
X57718117Y-43129856D01*
X57718117Y-43129855D01*
X57779317Y-42841929D01*
X57865910Y-42639893D01*
X57895279Y-42571369D01*
X58061584Y-42328487D01*
X58271897Y-42122533D01*
X58426692Y-42021238D01*
X58518206Y-41961353D01*
X58518208Y-41961352D01*
X58791135Y-41851082D01*
X59080282Y-41795924D01*
X59374636Y-41797979D01*
X59374636Y-41797979D01*
G37*
G36*
X69534636Y-41797979D02*
X69793337Y-41851083D01*
X69822986Y-41857169D01*
X70070829Y-41961353D01*
X70094346Y-41971239D01*
X70338383Y-42135843D01*
X70545800Y-42344714D01*
X70708697Y-42589893D01*
X70820870Y-42862044D01*
X70878045Y-43150799D01*
X70873350Y-43487015D01*
X70808135Y-43774062D01*
X70688407Y-44042974D01*
X70518728Y-44283510D01*
X70465382Y-44334310D01*
X70305558Y-44486508D01*
X70057022Y-44644234D01*
X69782581Y-44750683D01*
X69602572Y-44782423D01*
X69492692Y-44801798D01*
X69214823Y-44795977D01*
X69198393Y-44795633D01*
X68910902Y-44732424D01*
X68805191Y-44686240D01*
X68641159Y-44614576D01*
X68399445Y-44446580D01*
X68194964Y-44234834D01*
X68035506Y-43987404D01*
X67927145Y-43713714D01*
X67874007Y-43424188D01*
X67878117Y-43129856D01*
X67878117Y-43129855D01*
X67939317Y-42841929D01*
X68025910Y-42639893D01*
X68055279Y-42571369D01*
X68221584Y-42328487D01*
X68431897Y-42122533D01*
X68586692Y-42021238D01*
X68678206Y-41961353D01*
X68678208Y-41961352D01*
X68951135Y-41851082D01*
X69240282Y-41795924D01*
X69534636Y-41797979D01*
X69534636Y-41797979D01*
G37*
G36*
X79694636Y-41797979D02*
X79953337Y-41851083D01*
X79982986Y-41857169D01*
X80230829Y-41961353D01*
X80254346Y-41971239D01*
X80498383Y-42135843D01*
X80705800Y-42344714D01*
X80868697Y-42589893D01*
X80980870Y-42862044D01*
X81038045Y-43150799D01*
X81033350Y-43487015D01*
X80968135Y-43774062D01*
X80848407Y-44042974D01*
X80678728Y-44283510D01*
X80625382Y-44334310D01*
X80465558Y-44486508D01*
X80217022Y-44644234D01*
X79942581Y-44750683D01*
X79762572Y-44782423D01*
X79652692Y-44801798D01*
X79374823Y-44795977D01*
X79358393Y-44795633D01*
X79070902Y-44732424D01*
X78965191Y-44686240D01*
X78801159Y-44614576D01*
X78559445Y-44446580D01*
X78354964Y-44234834D01*
X78195506Y-43987404D01*
X78087145Y-43713714D01*
X78034007Y-43424188D01*
X78038117Y-43129856D01*
X78038117Y-43129855D01*
X78099317Y-42841929D01*
X78185910Y-42639893D01*
X78215279Y-42571369D01*
X78381584Y-42328487D01*
X78591897Y-42122533D01*
X78746692Y-42021238D01*
X78838206Y-41961353D01*
X78838208Y-41961352D01*
X79111135Y-41851082D01*
X79400282Y-41795924D01*
X79694636Y-41797979D01*
X79694636Y-41797979D01*
G37*
G36*
X100924780Y-44251480D02*
X99398780Y-44251480D01*
X99398780Y-42217480D01*
X100924780Y-42217480D01*
X100924780Y-44251480D01*
X100924780Y-44251480D01*
G37*
G36*
X104226780Y-44251480D02*
X102700780Y-44251480D01*
X102700780Y-42217480D01*
X104226780Y-42217480D01*
X104226780Y-44251480D01*
X104226780Y-44251480D01*
G37*
G36*
X112498451Y-41264837D02*
X112498560Y-41264918D01*
X112498692Y-41264968D01*
X112498801Y-41264980D01*
X113599180Y-41264980D01*
X113599180Y-42266980D01*
X112598801Y-42266980D01*
X112598662Y-42267000D01*
X112598533Y-42267058D01*
X112598452Y-42267122D01*
X112499323Y-42366251D01*
X112499242Y-42366360D01*
X112499192Y-42366492D01*
X112499180Y-42366601D01*
X112499180Y-43366980D01*
X111497180Y-43366980D01*
X111497180Y-41264980D01*
X112496680Y-41264980D01*
X112496819Y-41264960D01*
X112496948Y-41264902D01*
X112497055Y-41264811D01*
X112497132Y-41264694D01*
X112497174Y-41264559D01*
X112497180Y-41264480D01*
X112497180Y-41263566D01*
X112498451Y-41264837D01*
X112498451Y-41264837D01*
G37*
G36*
X151698180Y-42709180D02*
X150516180Y-42709180D01*
X150516180Y-42007180D01*
X151698180Y-42007180D01*
X151698180Y-42709180D01*
X151698180Y-42709180D01*
G37*
G36*
X146378180Y-42709180D02*
X145196180Y-42709180D01*
X145196180Y-42007180D01*
X146378180Y-42007180D01*
X146378180Y-42709180D01*
X146378180Y-42709180D01*
G37*
G36*
X155292210Y-42505230D02*
X154794910Y-42505230D01*
X154794910Y-42007930D01*
X155292210Y-42007930D01*
X155292210Y-42505230D01*
X155292210Y-42505230D01*
G37*
G36*
X154393050Y-42505230D02*
X153895750Y-42505230D01*
X153895750Y-42007930D01*
X154393050Y-42007930D01*
X154393050Y-42505230D01*
X154393050Y-42505230D01*
G37*
G36*
X116399180Y-42266980D02*
X115597180Y-42266980D01*
X115597180Y-41264980D01*
X116399180Y-41264980D01*
X116399180Y-42266980D01*
X116399180Y-42266980D01*
G37*
G36*
X142451780Y-41899980D02*
X140929780Y-41899980D01*
X140929780Y-39737980D01*
X142451780Y-39737980D01*
X142451780Y-41899980D01*
X142451780Y-41899980D01*
G37*
G36*
X139911780Y-41899980D02*
X138389780Y-41899980D01*
X138389780Y-39737980D01*
X139911780Y-39737980D01*
X139911780Y-41899980D01*
X139911780Y-41899980D01*
G37*
G36*
X137371780Y-41899980D02*
X135849780Y-41899980D01*
X135849780Y-39737980D01*
X137371780Y-39737980D01*
X137371780Y-41899980D01*
X137371780Y-41899980D01*
G37*
G36*
X134831780Y-41899980D02*
X133309780Y-41899980D01*
X133309780Y-39737980D01*
X134831780Y-39737980D01*
X134831780Y-41899980D01*
X134831780Y-41899980D01*
G37*
G36*
X41996780Y-41520980D02*
X39962780Y-41520980D01*
X39962780Y-39994980D01*
X41996780Y-39994980D01*
X41996780Y-41520980D01*
X41996780Y-41520980D01*
G37*
G36*
X39266280Y-41520980D02*
X37232280Y-41520980D01*
X37232280Y-39994980D01*
X39266280Y-39994980D01*
X39266280Y-41520980D01*
X39266280Y-41520980D01*
G37*
G36*
X146378180Y-41439180D02*
X145196180Y-41439180D01*
X145196180Y-40737180D01*
X146378180Y-40737180D01*
X146378180Y-41439180D01*
X146378180Y-41439180D01*
G37*
G36*
X151698180Y-41439180D02*
X150516180Y-41439180D01*
X150516180Y-40737180D01*
X151698180Y-40737180D01*
X151698180Y-41439180D01*
X151698180Y-41439180D01*
G37*
G36*
X153713180Y-40807980D02*
X153311180Y-40807980D01*
X153311180Y-40105980D01*
X153713180Y-40105980D01*
X153713180Y-40807980D01*
X153713180Y-40807980D01*
G37*
G36*
X154363180Y-40807980D02*
X153961180Y-40807980D01*
X153961180Y-40105980D01*
X154363180Y-40105980D01*
X154363180Y-40807980D01*
X154363180Y-40807980D01*
G37*
G36*
X155013180Y-40807980D02*
X154611180Y-40807980D01*
X154611180Y-40105980D01*
X155013180Y-40105980D01*
X155013180Y-40807980D01*
X155013180Y-40807980D01*
G37*
G36*
X151698180Y-40169180D02*
X150516180Y-40169180D01*
X150516180Y-39467180D01*
X151698180Y-39467180D01*
X151698180Y-40169180D01*
X151698180Y-40169180D01*
G37*
G36*
X146378180Y-40169180D02*
X145196180Y-40169180D01*
X145196180Y-39467180D01*
X146378180Y-39467180D01*
X146378180Y-40169180D01*
X146378180Y-40169180D01*
G37*
G36*
X151698180Y-38899180D02*
X150516180Y-38899180D01*
X150516180Y-38197180D01*
X151698180Y-38197180D01*
X151698180Y-38899180D01*
X151698180Y-38899180D01*
G37*
G36*
X146378180Y-38899180D02*
X145196180Y-38899180D01*
X145196180Y-38197180D01*
X146378180Y-38197180D01*
X146378180Y-38899180D01*
X146378180Y-38899180D01*
G37*
G36*
X39809715Y-33439599D02*
X39816471Y-33439646D01*
X39929892Y-33462928D01*
X40296925Y-33538268D01*
X40749070Y-33728333D01*
X40749072Y-33728334D01*
X41155691Y-34002602D01*
X41326671Y-34174780D01*
X41501295Y-34350627D01*
X41772717Y-34759149D01*
X41959622Y-35212616D01*
X42054887Y-35693738D01*
X42054887Y-35693744D01*
X42051828Y-35912766D01*
X42047064Y-36253956D01*
X41938401Y-36732240D01*
X41851608Y-36927180D01*
X41738909Y-37180306D01*
X41617714Y-37352110D01*
X41456185Y-37581093D01*
X41100999Y-37919332D01*
X40686882Y-38182139D01*
X40229602Y-38359506D01*
X39746585Y-38444675D01*
X39256216Y-38434403D01*
X38777190Y-38329082D01*
X38327741Y-38132722D01*
X38327739Y-38132721D01*
X38045816Y-37936780D01*
X37924988Y-37852803D01*
X37584278Y-37499987D01*
X37318586Y-37087714D01*
X37138032Y-36631685D01*
X37097434Y-36410480D01*
X37049493Y-36149271D01*
X37051647Y-35994980D01*
X37056340Y-35658846D01*
X37158314Y-35179096D01*
X37351533Y-34728283D01*
X37628633Y-34323588D01*
X37979061Y-33980424D01*
X38389468Y-33711861D01*
X38619772Y-33618813D01*
X38844227Y-33528127D01*
X38979580Y-33502307D01*
X39326011Y-33436221D01*
X39809715Y-33439599D01*
X39809715Y-33439599D01*
G37*
G36*
X109209715Y-33439599D02*
X109216471Y-33439646D01*
X109329892Y-33462928D01*
X109696925Y-33538268D01*
X110149070Y-33728333D01*
X110149072Y-33728334D01*
X110555691Y-34002602D01*
X110726671Y-34174780D01*
X110901295Y-34350627D01*
X111172717Y-34759149D01*
X111359622Y-35212616D01*
X111454887Y-35693738D01*
X111454887Y-35693744D01*
X111451828Y-35912766D01*
X111447064Y-36253956D01*
X111338401Y-36732240D01*
X111251608Y-36927180D01*
X111138909Y-37180306D01*
X111017714Y-37352110D01*
X110856185Y-37581093D01*
X110500999Y-37919332D01*
X110086882Y-38182139D01*
X109629602Y-38359506D01*
X109146585Y-38444675D01*
X108656216Y-38434403D01*
X108177190Y-38329082D01*
X107727741Y-38132722D01*
X107727739Y-38132721D01*
X107445816Y-37936780D01*
X107324988Y-37852803D01*
X106984278Y-37499987D01*
X106718586Y-37087714D01*
X106538032Y-36631685D01*
X106497434Y-36410480D01*
X106449493Y-36149271D01*
X106451647Y-35994980D01*
X106456340Y-35658846D01*
X106558314Y-35179096D01*
X106751533Y-34728283D01*
X107028633Y-34323588D01*
X107379061Y-33980424D01*
X107789468Y-33711861D01*
X108019772Y-33618813D01*
X108244227Y-33528127D01*
X108379580Y-33502307D01*
X108726011Y-33436221D01*
X109209715Y-33439599D01*
X109209715Y-33439599D01*
G37*
G36*
X138345280Y-38366480D02*
X137543280Y-38366480D01*
X137543280Y-37664480D01*
X138345280Y-37664480D01*
X138345280Y-38366480D01*
X138345280Y-38366480D01*
G37*
G36*
X156075720Y-37333309D02*
X156076402Y-37333314D01*
X156092793Y-37336678D01*
X156172647Y-37353069D01*
X156263219Y-37391142D01*
X156285216Y-37405980D01*
X156344675Y-37446085D01*
X156398202Y-37499987D01*
X156413906Y-37515801D01*
X156468277Y-37597636D01*
X156505719Y-37688476D01*
X156524801Y-37784848D01*
X156524801Y-37784854D01*
X156523234Y-37897076D01*
X156501467Y-37992885D01*
X156501466Y-37992887D01*
X156461505Y-38082642D01*
X156404869Y-38162928D01*
X156333718Y-38230685D01*
X156250763Y-38283330D01*
X156159160Y-38318861D01*
X156062405Y-38335921D01*
X155964170Y-38333863D01*
X155868214Y-38312766D01*
X155778181Y-38273431D01*
X155697500Y-38217357D01*
X155629249Y-38146680D01*
X155576026Y-38064095D01*
X155539857Y-37972743D01*
X155522121Y-37876105D01*
X155523493Y-37777863D01*
X155543919Y-37681762D01*
X155582626Y-37591452D01*
X155638135Y-37510384D01*
X155708332Y-37441642D01*
X155790544Y-37387844D01*
X155836095Y-37369441D01*
X155881643Y-37351038D01*
X155908296Y-37345954D01*
X155978153Y-37332627D01*
X156075720Y-37333309D01*
X156075720Y-37333309D01*
G37*
G36*
X135741780Y-38175980D02*
X134939780Y-38175980D01*
X134939780Y-37473980D01*
X135741780Y-37473980D01*
X135741780Y-38175980D01*
X135741780Y-38175980D01*
G37*
G36*
X130407780Y-38175980D02*
X129605780Y-38175980D01*
X129605780Y-37473980D01*
X130407780Y-37473980D01*
X130407780Y-38175980D01*
X130407780Y-38175980D01*
G37*
G36*
X153713180Y-38107980D02*
X153311180Y-38107980D01*
X153311180Y-37405980D01*
X153713180Y-37405980D01*
X153713180Y-38107980D01*
X153713180Y-38107980D01*
G37*
G36*
X155013180Y-38107980D02*
X154611180Y-38107980D01*
X154611180Y-37405980D01*
X155013180Y-37405980D01*
X155013180Y-38107980D01*
X155013180Y-38107980D01*
G37*
G36*
X143806280Y-38048980D02*
X143004280Y-38048980D01*
X143004280Y-37346980D01*
X143806280Y-37346980D01*
X143806280Y-38048980D01*
X143806280Y-38048980D01*
G37*
G36*
X120126780Y-37936780D02*
X118649780Y-37936780D01*
X118649780Y-35834780D01*
X120126780Y-35834780D01*
X120126780Y-37936780D01*
X120126780Y-37936780D01*
G37*
G36*
X115201780Y-37936780D02*
X113724780Y-37936780D01*
X113724780Y-35834780D01*
X115201780Y-35834780D01*
X115201780Y-37936780D01*
X115201780Y-37936780D01*
G37*
G36*
X118451780Y-37936780D02*
X117999780Y-37936780D01*
X117999780Y-36554780D01*
X118451780Y-36554780D01*
X118451780Y-37936780D01*
X118451780Y-37936780D01*
G37*
G36*
X117801780Y-37936780D02*
X117349780Y-37936780D01*
X117349780Y-36554780D01*
X117801780Y-36554780D01*
X117801780Y-37936780D01*
X117801780Y-37936780D01*
G37*
G36*
X115851780Y-37936780D02*
X115399780Y-37936780D01*
X115399780Y-36554780D01*
X115851780Y-36554780D01*
X115851780Y-37936780D01*
X115851780Y-37936780D01*
G37*
G36*
X116501780Y-37936780D02*
X116049780Y-37936780D01*
X116049780Y-36554780D01*
X116501780Y-36554780D01*
X116501780Y-37936780D01*
X116501780Y-37936780D01*
G37*
G36*
X117151780Y-37936780D02*
X116699780Y-37936780D01*
X116699780Y-36554780D01*
X117151780Y-36554780D01*
X117151780Y-37936780D01*
X117151780Y-37936780D01*
G37*
G36*
X122368730Y-37849410D02*
X121871430Y-37849410D01*
X121871430Y-37352110D01*
X122368730Y-37352110D01*
X122368730Y-37849410D01*
X122368730Y-37849410D01*
G37*
G36*
X123321230Y-37849410D02*
X122823930Y-37849410D01*
X122823930Y-37352110D01*
X123321230Y-37352110D01*
X123321230Y-37849410D01*
X123321230Y-37849410D01*
G37*
G36*
X134199780Y-37716480D02*
X133347780Y-37716480D01*
X133347780Y-37364480D01*
X134199780Y-37364480D01*
X134199780Y-37716480D01*
X134199780Y-37716480D01*
G37*
G36*
X131999780Y-37710480D02*
X131147780Y-37710480D01*
X131147780Y-37358480D01*
X131999780Y-37358480D01*
X131999780Y-37710480D01*
X131999780Y-37710480D01*
G37*
G36*
X142200780Y-37652980D02*
X141348780Y-37652980D01*
X141348780Y-37300980D01*
X142200780Y-37300980D01*
X142200780Y-37652980D01*
X142200780Y-37652980D01*
G37*
G36*
X140000780Y-37646980D02*
X139148780Y-37646980D01*
X139148780Y-37294980D01*
X140000780Y-37294980D01*
X140000780Y-37646980D01*
X140000780Y-37646980D01*
G37*
G36*
X146378180Y-37629180D02*
X145196180Y-37629180D01*
X145196180Y-36927180D01*
X146378180Y-36927180D01*
X146378180Y-37629180D01*
X146378180Y-37629180D01*
G37*
G36*
X151698180Y-37629180D02*
X150516180Y-37629180D01*
X150516180Y-36927180D01*
X151698180Y-36927180D01*
X151698180Y-37629180D01*
X151698180Y-37629180D01*
G37*
G36*
X156075720Y-36133309D02*
X156076402Y-36133314D01*
X156092793Y-36136678D01*
X156172647Y-36153069D01*
X156263219Y-36191142D01*
X156286255Y-36206681D01*
X156344675Y-36246085D01*
X156408527Y-36310384D01*
X156413906Y-36315801D01*
X156468277Y-36397636D01*
X156505719Y-36488476D01*
X156524801Y-36584848D01*
X156524801Y-36584854D01*
X156523234Y-36697076D01*
X156501467Y-36792885D01*
X156501466Y-36792887D01*
X156461505Y-36882642D01*
X156404869Y-36962928D01*
X156333718Y-37030685D01*
X156250763Y-37083330D01*
X156159160Y-37118861D01*
X156062405Y-37135921D01*
X155964170Y-37133863D01*
X155868214Y-37112766D01*
X155778181Y-37073431D01*
X155697500Y-37017357D01*
X155629249Y-36946680D01*
X155576026Y-36864095D01*
X155539857Y-36772743D01*
X155522121Y-36676105D01*
X155523493Y-36577863D01*
X155543919Y-36481762D01*
X155582626Y-36391452D01*
X155638135Y-36310384D01*
X155708332Y-36241642D01*
X155790544Y-36187844D01*
X155836095Y-36169441D01*
X155881643Y-36151038D01*
X155908296Y-36145954D01*
X155978153Y-36132627D01*
X156075720Y-36133309D01*
X156075720Y-36133309D01*
G37*
G36*
X134199780Y-37060480D02*
X133347780Y-37060480D01*
X133347780Y-36708480D01*
X134199780Y-36708480D01*
X134199780Y-37060480D01*
X134199780Y-37060480D01*
G37*
G36*
X131999780Y-37060480D02*
X131147780Y-37060480D01*
X131147780Y-36708480D01*
X131999780Y-36708480D01*
X131999780Y-37060480D01*
X131999780Y-37060480D01*
G37*
G36*
X140000780Y-36996980D02*
X139148780Y-36996980D01*
X139148780Y-36644980D01*
X140000780Y-36644980D01*
X140000780Y-36996980D01*
X140000780Y-36996980D01*
G37*
G36*
X142200780Y-36996980D02*
X141348780Y-36996980D01*
X141348780Y-36644980D01*
X142200780Y-36644980D01*
X142200780Y-36996980D01*
X142200780Y-36996980D01*
G37*
G36*
X123321230Y-36950250D02*
X122823930Y-36950250D01*
X122823930Y-36452950D01*
X123321230Y-36452950D01*
X123321230Y-36950250D01*
X123321230Y-36950250D01*
G37*
G36*
X122368730Y-36950250D02*
X121871430Y-36950250D01*
X121871430Y-36452950D01*
X122368730Y-36452950D01*
X122368730Y-36950250D01*
X122368730Y-36950250D01*
G37*
G36*
X138345280Y-36866480D02*
X137543280Y-36866480D01*
X137543280Y-36164480D01*
X138345280Y-36164480D01*
X138345280Y-36866480D01*
X138345280Y-36866480D01*
G37*
G36*
X135741780Y-36675980D02*
X134939780Y-36675980D01*
X134939780Y-35973980D01*
X135741780Y-35973980D01*
X135741780Y-36675980D01*
X135741780Y-36675980D01*
G37*
G36*
X130407780Y-36675980D02*
X129605780Y-36675980D01*
X129605780Y-35973980D01*
X130407780Y-35973980D01*
X130407780Y-36675980D01*
X130407780Y-36675980D01*
G37*
G36*
X127155360Y-36632750D02*
X126254200Y-36632750D01*
X126254200Y-35231210D01*
X127155360Y-35231210D01*
X127155360Y-36632750D01*
X127155360Y-36632750D01*
G37*
G36*
X129060360Y-36632750D02*
X128159200Y-36632750D01*
X128159200Y-35231210D01*
X129060360Y-35231210D01*
X129060360Y-36632750D01*
X129060360Y-36632750D01*
G37*
G36*
X143806280Y-36548980D02*
X143004280Y-36548980D01*
X143004280Y-35846980D01*
X143806280Y-35846980D01*
X143806280Y-36548980D01*
X143806280Y-36548980D01*
G37*
G36*
X134199780Y-36410480D02*
X133347780Y-36410480D01*
X133347780Y-36058480D01*
X134199780Y-36058480D01*
X134199780Y-36410480D01*
X134199780Y-36410480D01*
G37*
G36*
X131999780Y-36410480D02*
X131147780Y-36410480D01*
X131147780Y-36058480D01*
X131999780Y-36058480D01*
X131999780Y-36410480D01*
X131999780Y-36410480D01*
G37*
G36*
X151698180Y-36359180D02*
X150516180Y-36359180D01*
X150516180Y-35657180D01*
X151698180Y-35657180D01*
X151698180Y-36359180D01*
X151698180Y-36359180D01*
G37*
G36*
X146378180Y-36359180D02*
X145196180Y-36359180D01*
X145196180Y-35657180D01*
X146378180Y-35657180D01*
X146378180Y-36359180D01*
X146378180Y-36359180D01*
G37*
G36*
X142200780Y-36346980D02*
X141348780Y-36346980D01*
X141348780Y-35994980D01*
X142200780Y-35994980D01*
X142200780Y-36346980D01*
X142200780Y-36346980D01*
G37*
G36*
X140000780Y-36346980D02*
X139148780Y-36346980D01*
X139148780Y-35994980D01*
X140000780Y-35994980D01*
X140000780Y-36346980D01*
X140000780Y-36346980D01*
G37*
G36*
X124916350Y-36180630D02*
X124419050Y-36180630D01*
X124419050Y-35683330D01*
X124916350Y-35683330D01*
X124916350Y-36180630D01*
X124916350Y-36180630D01*
G37*
G36*
X125815510Y-36180630D02*
X125318210Y-36180630D01*
X125318210Y-35683330D01*
X125815510Y-35683330D01*
X125815510Y-36180630D01*
X125815510Y-36180630D01*
G37*
G36*
X156075720Y-34933309D02*
X156076402Y-34933314D01*
X156092793Y-34936678D01*
X156172647Y-34953069D01*
X156263219Y-34991142D01*
X156286255Y-35006681D01*
X156344675Y-35046085D01*
X156387470Y-35089180D01*
X156413906Y-35115801D01*
X156468277Y-35197636D01*
X156505719Y-35288476D01*
X156524801Y-35384848D01*
X156524801Y-35384854D01*
X156523234Y-35497076D01*
X156501467Y-35592885D01*
X156501466Y-35592887D01*
X156461505Y-35682642D01*
X156404869Y-35762928D01*
X156333718Y-35830685D01*
X156250763Y-35883330D01*
X156159160Y-35918861D01*
X156062405Y-35935921D01*
X155964170Y-35933863D01*
X155868214Y-35912766D01*
X155778181Y-35873431D01*
X155697500Y-35817357D01*
X155629249Y-35746680D01*
X155576026Y-35664095D01*
X155539857Y-35572743D01*
X155522121Y-35476105D01*
X155523493Y-35377863D01*
X155543919Y-35281762D01*
X155582626Y-35191452D01*
X155638135Y-35110384D01*
X155708332Y-35041642D01*
X155790544Y-34987844D01*
X155836095Y-34969441D01*
X155881643Y-34951038D01*
X155908296Y-34945954D01*
X155978153Y-34932627D01*
X156075720Y-34933309D01*
X156075720Y-34933309D01*
G37*
G36*
X118354280Y-35536780D02*
X117177280Y-35536780D01*
X117177280Y-33634780D01*
X118354280Y-33634780D01*
X118354280Y-35536780D01*
X118354280Y-35536780D01*
G37*
G36*
X116674280Y-35536780D02*
X115497280Y-35536780D01*
X115497280Y-33634780D01*
X116674280Y-33634780D01*
X116674280Y-35536780D01*
X116674280Y-35536780D01*
G37*
G36*
X121024280Y-35536780D02*
X118647280Y-35536780D01*
X118647280Y-33634780D01*
X121024280Y-33634780D01*
X121024280Y-35536780D01*
X121024280Y-35536780D01*
G37*
G36*
X115204280Y-35536780D02*
X112827280Y-35536780D01*
X112827280Y-33634780D01*
X115204280Y-33634780D01*
X115204280Y-35536780D01*
X115204280Y-35536780D01*
G37*
G36*
X125815510Y-35228130D02*
X125318210Y-35228130D01*
X125318210Y-34730830D01*
X125815510Y-34730830D01*
X125815510Y-35228130D01*
X125815510Y-35228130D01*
G37*
G36*
X124916350Y-35228130D02*
X124419050Y-35228130D01*
X124419050Y-34730830D01*
X124916350Y-34730830D01*
X124916350Y-35228130D01*
X124916350Y-35228130D01*
G37*
G36*
X146378180Y-35089180D02*
X145196180Y-35089180D01*
X145196180Y-34387180D01*
X146378180Y-34387180D01*
X146378180Y-35089180D01*
X146378180Y-35089180D01*
G37*
G36*
X151698180Y-35089180D02*
X150516180Y-35089180D01*
X150516180Y-34387180D01*
X151698180Y-34387180D01*
X151698180Y-35089180D01*
X151698180Y-35089180D01*
G37*
G36*
X156087370Y-33735859D02*
X156088052Y-33735864D01*
X156104443Y-33739228D01*
X156184297Y-33755619D01*
X156274869Y-33793692D01*
X156297905Y-33809231D01*
X156356325Y-33848635D01*
X156420177Y-33912934D01*
X156425556Y-33918351D01*
X156479927Y-34000186D01*
X156517369Y-34091026D01*
X156536451Y-34187398D01*
X156536451Y-34187404D01*
X156534884Y-34299626D01*
X156513117Y-34395435D01*
X156513116Y-34395437D01*
X156473155Y-34485192D01*
X156416519Y-34565478D01*
X156345368Y-34633235D01*
X156262413Y-34685880D01*
X156170810Y-34721411D01*
X156074055Y-34738471D01*
X155975820Y-34736413D01*
X155879864Y-34715316D01*
X155789831Y-34675981D01*
X155709150Y-34619907D01*
X155640899Y-34549230D01*
X155587676Y-34466645D01*
X155551507Y-34375293D01*
X155533771Y-34278655D01*
X155535143Y-34180413D01*
X155555569Y-34084312D01*
X155594276Y-33994002D01*
X155649785Y-33912934D01*
X155719982Y-33844192D01*
X155802194Y-33790394D01*
X155847744Y-33771991D01*
X155893293Y-33753588D01*
X155919946Y-33748504D01*
X155989803Y-33735177D01*
X156087370Y-33735859D01*
X156087370Y-33735859D01*
G37*
G36*
X124781780Y-34364480D02*
X124079780Y-34364480D01*
X124079780Y-33562480D01*
X124781780Y-33562480D01*
X124781780Y-34364480D01*
X124781780Y-34364480D01*
G37*
G36*
X126281780Y-34364480D02*
X125579780Y-34364480D01*
X125579780Y-33562480D01*
X126281780Y-33562480D01*
X126281780Y-34364480D01*
X126281780Y-34364480D01*
G37*
G36*
X153590410Y-34072430D02*
X153093110Y-34072430D01*
X153093110Y-33575130D01*
X153590410Y-33575130D01*
X153590410Y-34072430D01*
X153590410Y-34072430D01*
G37*
G36*
X152691250Y-34072430D02*
X152193950Y-34072430D01*
X152193950Y-33575130D01*
X152691250Y-33575130D01*
X152691250Y-34072430D01*
X152691250Y-34072430D01*
G37*
G36*
X85475720Y-32633309D02*
X85476402Y-32633314D01*
X85489429Y-32635988D01*
X85572647Y-32653069D01*
X85663219Y-32691142D01*
X85686255Y-32706681D01*
X85744675Y-32746085D01*
X85808527Y-32810384D01*
X85813906Y-32815801D01*
X85868277Y-32897636D01*
X85905719Y-32988476D01*
X85924801Y-33084848D01*
X85924801Y-33084854D01*
X85923234Y-33197076D01*
X85901467Y-33292885D01*
X85901466Y-33292887D01*
X85861505Y-33382642D01*
X85804869Y-33462928D01*
X85733718Y-33530685D01*
X85650763Y-33583330D01*
X85559160Y-33618861D01*
X85462405Y-33635921D01*
X85364170Y-33633863D01*
X85268214Y-33612766D01*
X85178181Y-33573431D01*
X85097500Y-33517357D01*
X85029249Y-33446680D01*
X84976026Y-33364095D01*
X84939857Y-33272743D01*
X84922121Y-33176105D01*
X84923493Y-33077863D01*
X84943919Y-32981762D01*
X84982626Y-32891452D01*
X85038135Y-32810384D01*
X85108332Y-32741642D01*
X85190544Y-32687844D01*
X85236094Y-32669441D01*
X85281643Y-32651038D01*
X85308296Y-32645954D01*
X85378153Y-32632627D01*
X85475720Y-32633309D01*
X85475720Y-32633309D01*
G37*
G36*
X83075720Y-32633309D02*
X83076402Y-32633314D01*
X83089429Y-32635988D01*
X83172647Y-32653069D01*
X83263219Y-32691142D01*
X83286255Y-32706681D01*
X83344675Y-32746085D01*
X83408527Y-32810384D01*
X83413906Y-32815801D01*
X83468277Y-32897636D01*
X83505719Y-32988476D01*
X83524801Y-33084848D01*
X83524801Y-33084854D01*
X83523234Y-33197076D01*
X83501467Y-33292885D01*
X83501466Y-33292887D01*
X83461505Y-33382642D01*
X83404869Y-33462928D01*
X83333718Y-33530685D01*
X83250763Y-33583330D01*
X83159160Y-33618861D01*
X83062405Y-33635921D01*
X82964170Y-33633863D01*
X82868214Y-33612766D01*
X82778181Y-33573431D01*
X82697500Y-33517357D01*
X82629249Y-33446680D01*
X82576026Y-33364095D01*
X82539857Y-33272743D01*
X82522121Y-33176105D01*
X82523493Y-33077863D01*
X82543919Y-32981762D01*
X82582626Y-32891452D01*
X82638135Y-32810384D01*
X82708332Y-32741642D01*
X82790544Y-32687844D01*
X82836094Y-32669441D01*
X82881643Y-32651038D01*
X82908296Y-32645954D01*
X82978153Y-32632627D01*
X83075720Y-32633309D01*
X83075720Y-32633309D01*
G37*
G36*
X86675720Y-32633309D02*
X86676402Y-32633314D01*
X86689429Y-32635988D01*
X86772647Y-32653069D01*
X86863219Y-32691142D01*
X86886255Y-32706681D01*
X86944675Y-32746085D01*
X87008527Y-32810384D01*
X87013906Y-32815801D01*
X87068277Y-32897636D01*
X87105719Y-32988476D01*
X87124801Y-33084848D01*
X87124801Y-33084854D01*
X87123234Y-33197076D01*
X87101467Y-33292885D01*
X87101466Y-33292887D01*
X87061505Y-33382642D01*
X87004869Y-33462928D01*
X86933718Y-33530685D01*
X86850763Y-33583330D01*
X86759160Y-33618861D01*
X86662405Y-33635921D01*
X86564170Y-33633863D01*
X86468214Y-33612766D01*
X86378181Y-33573431D01*
X86297500Y-33517357D01*
X86229249Y-33446680D01*
X86176026Y-33364095D01*
X86139857Y-33272743D01*
X86122121Y-33176105D01*
X86123493Y-33077863D01*
X86143919Y-32981762D01*
X86182626Y-32891452D01*
X86238135Y-32810384D01*
X86308332Y-32741642D01*
X86390544Y-32687844D01*
X86436094Y-32669441D01*
X86481643Y-32651038D01*
X86508296Y-32645954D01*
X86578153Y-32632627D01*
X86675720Y-32633309D01*
X86675720Y-32633309D01*
G37*
G36*
X84268870Y-32618259D02*
X84269552Y-32618264D01*
X84285943Y-32621628D01*
X84365797Y-32638019D01*
X84456369Y-32676092D01*
X84473791Y-32687844D01*
X84537825Y-32731035D01*
X84552770Y-32746085D01*
X84607056Y-32800751D01*
X84661427Y-32882586D01*
X84698869Y-32973426D01*
X84717951Y-33069798D01*
X84717951Y-33069804D01*
X84716384Y-33182026D01*
X84694617Y-33277835D01*
X84694616Y-33277837D01*
X84654655Y-33367592D01*
X84598019Y-33447878D01*
X84526868Y-33515635D01*
X84443913Y-33568280D01*
X84352310Y-33603811D01*
X84255555Y-33620871D01*
X84157320Y-33618813D01*
X84061364Y-33597716D01*
X83971331Y-33558381D01*
X83890650Y-33502307D01*
X83822399Y-33431630D01*
X83769176Y-33349045D01*
X83733007Y-33257693D01*
X83715271Y-33161055D01*
X83716643Y-33062813D01*
X83737069Y-32966712D01*
X83775776Y-32876402D01*
X83831285Y-32795334D01*
X83901482Y-32726592D01*
X83983694Y-32672794D01*
X84032517Y-32653069D01*
X84074793Y-32635988D01*
X84101446Y-32630904D01*
X84171303Y-32617577D01*
X84268870Y-32618259D01*
X84268870Y-32618259D01*
G37*
G36*
X161481331Y-26184979D02*
X161727554Y-26235521D01*
X161769489Y-26244129D01*
X162017167Y-26348244D01*
X162040668Y-26358123D01*
X162284542Y-26522618D01*
X162491821Y-26731349D01*
X162654610Y-26976365D01*
X162725208Y-27147649D01*
X162766708Y-27248336D01*
X162818539Y-27510103D01*
X162823844Y-27536897D01*
X162819153Y-27872890D01*
X162753981Y-28159745D01*
X162634333Y-28428478D01*
X162464767Y-28668853D01*
X162251741Y-28871716D01*
X162050071Y-28999699D01*
X162003369Y-29029337D01*
X161729111Y-29135715D01*
X161544810Y-29168212D01*
X161439415Y-29186796D01*
X161161732Y-29180979D01*
X161145312Y-29180635D01*
X160929838Y-29133260D01*
X160858012Y-29117468D01*
X160588450Y-28999699D01*
X160346896Y-28831815D01*
X160142552Y-28620210D01*
X159983200Y-28372945D01*
X159874911Y-28099437D01*
X159821808Y-27810104D01*
X159825915Y-27515968D01*
X159827161Y-27510104D01*
X159887075Y-27228233D01*
X159995026Y-26976365D01*
X160002960Y-26957853D01*
X160169153Y-26715133D01*
X160379326Y-26509317D01*
X160379327Y-26509316D01*
X160610375Y-26358123D01*
X160625473Y-26348243D01*
X160898219Y-26238046D01*
X161187173Y-26182925D01*
X161481331Y-26184979D01*
X161481331Y-26184979D01*
G37*
G36*
X31681331Y-25884979D02*
X31927554Y-25935521D01*
X31969489Y-25944129D01*
X32217167Y-26048244D01*
X32240668Y-26058123D01*
X32484542Y-26222618D01*
X32691821Y-26431349D01*
X32854610Y-26676365D01*
X32925208Y-26847649D01*
X32966708Y-26948336D01*
X33023843Y-27236891D01*
X33023844Y-27236897D01*
X33019153Y-27572890D01*
X32953981Y-27859745D01*
X32834333Y-28128478D01*
X32664767Y-28368853D01*
X32451741Y-28571716D01*
X32375326Y-28620210D01*
X32203369Y-28729337D01*
X31929111Y-28835715D01*
X31744810Y-28868212D01*
X31639415Y-28886796D01*
X31361732Y-28880979D01*
X31345312Y-28880635D01*
X31123262Y-28831814D01*
X31058012Y-28817468D01*
X30788450Y-28699699D01*
X30546896Y-28531815D01*
X30342552Y-28320210D01*
X30183200Y-28072945D01*
X30074911Y-27799437D01*
X30021808Y-27510104D01*
X30025915Y-27215968D01*
X30025915Y-27215967D01*
X30087075Y-26928233D01*
X30195026Y-26676365D01*
X30202960Y-26657853D01*
X30369153Y-26415133D01*
X30579326Y-26209317D01*
X30579327Y-26209316D01*
X30810375Y-26058123D01*
X30825473Y-26048243D01*
X31098219Y-25938046D01*
X31387173Y-25882925D01*
X31681331Y-25884979D01*
X31681331Y-25884979D01*
G37*
M02*
