M48
;DRILL file {KiCad 4.0.7} date Tue Jun  4 16:27:18 2019
;FORMAT={-:-/ absolute / inch / decimal}
FMAT,2
INCH,TZ
T1C0.008
T2C0.012
T3C0.020
T4C0.039
T5C0.049
T6C0.055
T7C0.118
%
G90
G05
M72
T1
X5.0886Y-3.8927
T2
X1.4784Y-6.2021
X1.4894Y-2.9636
X1.4909Y-1.5346
X1.4914Y-3.9446
X1.5309Y-5.8596
X1.5314Y-5.6276
X1.5334Y-1.5476
X1.5344Y-5.5736
X1.5344Y-5.5996
X1.5359Y-5.7596
X1.5359Y-6.6121
X1.5384Y-6.0471
X1.5634Y-1.5486
X1.5659Y-5.9621
X1.5659Y-6.6371
X1.5714Y-4.3526
X1.5714Y-4.4706
X1.5737Y-3.4898
X1.5744Y-3.5316
X1.5767Y-3.1055
X1.5767Y-3.1449
X1.5784Y-3.8696
X1.5787Y-2.5075
X1.5787Y-2.5469
X1.5787Y-2.8935
X1.5787Y-2.9329
X1.5794Y-5.0996
X1.5924Y-6.5176
X1.6014Y-6.4806
X1.6059Y-6.3521
X1.6064Y-6.4176
X1.6154Y-5.9826
X1.6159Y-6.5596
X1.6184Y-6.1496
X1.6214Y-6.2826
X1.6274Y-5.2756
X1.6339Y-5.7531
X1.6384Y-6.0471
X1.6394Y-6.3146
X1.6409Y-5.8296
X1.6414Y-6.2666
X1.6424Y-6.3562
X1.6424Y-6.3956
X1.6454Y-3.7826
X1.6474Y-4.8406
X1.6484Y-5.9246
X1.6564Y-4.3816
X1.6684Y-2.2846
X1.6754Y-1.5376
X1.6809Y-6.2231
X1.6809Y-6.3921
X1.6894Y-6.0146
X1.6904Y-2.8456
X1.6914Y-2.1846
X1.6944Y-3.9986
X1.6944Y-5.1676
X1.6954Y-3.6466
X1.6974Y-5.2266
X1.7004Y-2.1356
X1.7014Y-3.6946
X1.7034Y-2.9926
X1.7034Y-3.4146
X1.7109Y-5.9346
X1.7117Y-2.6666
X1.7119Y-2.7761
X1.7134Y-4.9346
X1.7174Y-1.4236
X1.7259Y-6.6221
X1.7327Y-2.2346
X1.7334Y-4.9936
X1.7334Y-6.2126
X1.7364Y-2.4321
X1.7394Y-6.3546
X1.7469Y-5.2771
X1.7484Y-6.2721
X1.7509Y-6.6671
X1.7574Y-4.2226
X1.7584Y-6.5871
X1.7594Y-4.6006
X1.7634Y-4.1426
X1.7654Y-5.9966
X1.7744Y-2.1276
X1.7754Y-6.0826
X1.7784Y-1.6046
X1.7833Y-2.7755
X1.7834Y-2.3846
X1.7834Y-3.6886
X1.7834Y-3.8716
X1.7854Y-2.8206
X1.7854Y-3.2246
X1.7859Y-6.4696
X1.7867Y-2.0405
X1.7867Y-2.1586
X1.7867Y-2.1979
X1.7867Y-2.2373
X1.7867Y-2.2767
X1.7867Y-2.3161
X1.7867Y-2.4735
X1.7867Y-2.5129
X1.7867Y-2.5479
X1.7867Y-2.5918
X1.7867Y-2.6312
X1.7889Y-6.6366
X1.7894Y-6.1946
X1.7909Y-5.7521
X1.7909Y-5.8346
X1.7954Y-4.3706
X1.7959Y-5.7021
X1.8024Y-2.1246
X1.8064Y-5.5726
X1.8064Y-5.5996
X1.8074Y-4.4536
X1.8094Y-2.4166
X1.8112Y-1.95
X1.8134Y-5.1776
X1.8154Y-6.4666
X1.8194Y-5.3466
X1.8214Y-6.0946
X1.8279Y-6.4266
X1.8484Y-3.5736
X1.8494Y-3.7966
X1.8534Y-1.4226
X1.8534Y-6.5826
X1.8614Y-6.2806
X1.8634Y-4.5896
X1.8714Y-6.4026
X1.8784Y-1.5571
X1.8794Y-5.0586
X1.8794Y-5.1646
X1.8809Y-3.3152
X1.8814Y-6.0886
X1.8824Y-4.2586
X1.8834Y-5.4726
X1.8834Y-6.1446
X1.8859Y-5.3096
X1.8859Y-6.6761
X1.8934Y-1.3396
X1.8944Y-2.9681
X1.8952Y-1.8685
X1.8967Y-2.024
X1.8969Y-2.0562
X1.8969Y-2.135
X1.8969Y-2.1743
X1.8969Y-2.2137
X1.8969Y-2.2531
X1.8969Y-2.2924
X1.8969Y-2.3318
X1.8969Y-2.4499
X1.8969Y-2.4893
X1.8969Y-2.5287
X1.8969Y-2.5682
X1.8969Y-2.6076
X1.8969Y-2.647
X1.8969Y-2.6863
X1.9024Y-1.6046
X1.9054Y-6.1026
X1.9114Y-6.1626
X1.9134Y-5.4586
X1.9174Y-6.1946
X1.9194Y-3.0696
X1.9194Y-3.4876
X1.9204Y-2.7846
X1.9309Y-6.4696
X1.9324Y-6.8856
X1.9424Y-2.1346
X1.9424Y-2.5316
X1.9464Y-1.9866
X1.9469Y-6.071
X1.9469Y-6.1104
X1.9514Y-1.7806
X1.9514Y-6.2106
X1.9514Y-6.5006
X1.9534Y-1.5186
X1.9594Y-3.4262
X1.9594Y-3.4656
X1.9594Y-3.5055
X1.9594Y-3.5448
X1.9594Y-3.5842
X1.9604Y-3.7033
X1.9604Y-3.7427
X1.9604Y-3.782
X1.9604Y-3.8214
X1.9614Y-3.8997
X1.9614Y-3.9786
X1.9614Y-4.018
X1.9614Y-4.0573
X1.9614Y-4.0967
X1.9614Y-4.1361
X1.9614Y-4.1756
X1.9614Y-4.215
X1.9614Y-4.2543
X1.9614Y-4.2937
X1.9614Y-4.3331
X1.9614Y-4.3724
X1.9614Y-4.4118
X1.9614Y-4.4905
X1.9614Y-4.5299
X1.9614Y-4.5693
X1.9614Y-4.6087
X1.9614Y-4.6482
X1.9614Y-4.6876
X1.9614Y-4.727
X1.9614Y-4.7663
X1.9614Y-4.8057
X1.9614Y-4.8451
X1.9614Y-4.8847
X1.9614Y-4.9242
X1.9614Y-4.9636
X1.9614Y-5.003
X1.9614Y-5.0423
X1.9614Y-5.0817
X1.9614Y-5.1211
X1.9614Y-5.1606
X1.9614Y-5.2
X1.9614Y-5.2393
X1.9614Y-5.2787
X1.9614Y-5.3574
X1.9614Y-5.3968
X1.9614Y-5.4362
X1.9614Y-5.4755
X1.9614Y-5.5149
X1.9614Y-5.5592
X1.9614Y-5.6381
X1.9614Y-5.6775
X1.9614Y-5.7168
X1.9614Y-5.7562
X1.9614Y-5.7956
X1.9614Y-5.8349
X1.9614Y-5.8743
X1.9614Y-5.9137
X1.9614Y-5.953
X1.9614Y-5.9886
X1.9649Y-6.7511
X1.9664Y-1.4236
X1.9754Y-1.8476
X1.9754Y-2.1846
X2.0074Y-6.6796
X2.0074Y-6.8216
X2.0094Y-1.8526
X2.0099Y-6.6291
X2.0124Y-6.4975
X2.0249Y-6.3506
X2.0294Y-6.5276
X2.0304Y-1.8276
X2.0364Y-2.7356
X2.0384Y-2.6356
X2.0414Y-6.2106
X2.0447Y-3.7903
X2.0447Y-3.8297
X2.0449Y-5.2726
X2.0459Y-5.4366
X2.0459Y-5.4761
X2.0459Y-5.5136
X2.0459Y-5.5586
X2.0459Y-3.7525
X2.0459Y-4.8865
X2.0459Y-4.9258
X2.0459Y-4.9652
X2.0459Y-5.0046
X2.0459Y-5.0441
X2.0459Y-5.0835
X2.0459Y-5.1228
X2.0459Y-5.1622
X2.0459Y-5.2016
X2.0459Y-5.2409
X2.0459Y-5.359
X2.0459Y-5.3969
X2.0459Y-5.6372
X2.0459Y-5.6766
X2.0459Y-5.7159
X2.0459Y-5.7553
X2.0459Y-5.7947
X2.0459Y-5.834
X2.0459Y-5.8734
X2.0459Y-5.9122
X2.0459Y-5.9515
X2.0463Y-5.9901
X2.0464Y-3.6971
X2.0476Y-3.4346
X2.0476Y-3.474
X2.0476Y-3.5139
X2.0476Y-3.5532
X2.0476Y-3.5926
X2.0477Y-3.9867
X2.0477Y-4.0261
X2.0477Y-4.0654
X2.0477Y-4.1048
X2.0477Y-4.1442
X2.0477Y-4.1835
X2.0477Y-4.2579
X2.0481Y-3.6254
X2.0509Y-2.6616
X2.0514Y-2.6146
X2.0584Y-3.8996
X2.0587Y-3.1649
X2.0587Y-3.1999
X2.0587Y-3.2438
X2.0587Y-3.3226
X2.0599Y-3.7256
X2.0604Y-4.3176
X2.0614Y-2.0206
X2.0614Y-2.2326
X2.0682Y-3.8118
X2.0682Y-3.8512
X2.0694Y-3.774
X2.0697Y-4.0454
X2.0697Y-4.0854
X2.0697Y-4.1248
X2.0697Y-4.1642
X2.0697Y-4.2035
X2.0698Y-1.9422
X2.0704Y-2.3496
X2.0708Y-1.8572
X2.0709Y-6.2796
X2.0711Y-3.4561
X2.0711Y-3.4955
X2.0711Y-3.5354
X2.0711Y-3.5747
X2.0714Y-3.6781
X2.0719Y-3.6081
X2.0734Y-4.0076
X2.0784Y-4.4166
X2.0808Y-3.1266
X2.0834Y-2.0426
X2.0834Y-2.2836
X2.0834Y-4.2286
X2.0854Y-1.7566
X2.0884Y-4.3036
X2.0964Y-4.8296
X2.0974Y-3.0696
X2.0994Y-6.5046
X2.1014Y-5.8916
X2.1024Y-2.5556
X2.1034Y-6.8126
X2.1044Y-2.3876
X2.1049Y-6.7301
X2.1054Y-6.6541
X2.1054Y-6.7816
X2.1059Y-6.4321
X2.1064Y-2.5116
X2.1164Y-3.2777
X2.1224Y-4.3366
X2.1294Y-6.7986
X2.1314Y-6.7361
X2.1434Y-6.3916
X2.1437Y-3.0615
X2.1474Y-5.1906
X2.1494Y-4.3636
X2.1524Y-1.4286
X2.1534Y-3.9826
X2.1534Y-5.3206
X2.1584Y-3.3777
X2.1584Y-3.4171
X2.1584Y-3.4566
X2.1584Y-3.496
X2.1584Y-3.5353
X2.1584Y-3.5747
X2.1584Y-3.6924
X2.1584Y-3.7278
X2.1584Y-3.7672
X2.1584Y-3.8066
X2.1594Y-4.9326
X2.1634Y-6.0446
X2.1654Y-5.4926
X2.1689Y-3.2202
X2.1689Y-3.8853
X2.1689Y-3.9641
X2.1689Y-4.0034
X2.1689Y-4.0428
X2.1689Y-4.0822
X2.1689Y-4.1215
X2.1689Y-4.1609
X2.1689Y-4.2003
X2.1689Y-4.2397
X2.1724Y-2.1586
X2.1724Y-6.0826
X2.1734Y-1.7416
X2.1734Y-6.3066
X2.1744Y-6.4736
X2.1794Y-5.5506
X2.1834Y-4.5906
X2.1914Y-2.0806
X2.1914Y-2.9926
X2.1924Y-3.6216
X2.1954Y-2.7326
X2.1974Y-2.6746
X2.1974Y-6.1486
X2.2004Y-6.5056
X2.2009Y-3.4906
X2.2014Y-2.1026
X2.2024Y-6.1846
X2.2034Y-3.2686
X2.2034Y-6.0146
X2.2068Y-1.9522
X2.208Y-4.4096
X2.2104Y-2.2876
X2.2114Y-5.0866
X2.2134Y-2.8406
X2.2139Y-6.7301
X2.2144Y-3.9176
X2.2144Y-6.7996
X2.2149Y-6.6231
X2.2154Y-6.7566
X2.2174Y-2.7686
X2.2174Y-2.7926
X2.2174Y-3.8646
X2.2194Y-4.2686
X2.2204Y-2.7366
X2.2234Y-6.3106
X2.2264Y-1.7466
X2.2274Y-2.1026
X2.2324Y-6.6786
X2.2344Y-5.3096
X2.2354Y-1.4266
X2.2354Y-6.6026
X2.2394Y-6.8706
X2.2404Y-3.6596
X2.2439Y-6.6531
X2.2464Y-4.5976
X2.2473Y-4.4096
X2.249Y-1.9522
X2.2509Y-6.7056
X2.2594Y-4.9066
X2.2624Y-3.9896
X2.2664Y-5.9166
X2.2694Y-6.8706
X2.2789Y-3.2966
X2.2859Y-6.1821
X2.2866Y-4.0284
X2.2867Y-4.4096
X2.2874Y-2.8106
X2.2878Y-4.0784
X2.2893Y-3.0257
X2.2893Y-3.0657
X2.2893Y-3.1051
X2.2894Y-2.1876
X2.2908Y-4.1286
X2.2918Y-4.1784
X2.2924Y-2.3371
X2.2934Y-1.3286
X2.2934Y-2.4136
X2.2964Y-2.8691
X2.3008Y-1.5372
X2.3009Y-1.4271
X2.3034Y-5.8306
X2.3043Y-3.1457
X2.3043Y-3.1851
X2.3049Y-6.0057
X2.3049Y-6.0357
X2.3114Y-3.4121
X2.3114Y-5.0886
X2.3204Y-4.2826
X2.3243Y-3.0257
X2.3243Y-3.0657
X2.3243Y-3.1051
X2.3261Y-4.4096
X2.3374Y-1.3256
X2.3377Y-2.4734
X2.3384Y-1.6206
X2.3404Y-6.7561
X2.3424Y-6.8921
X2.3444Y-6.8076
X2.3474Y-6.5276
X2.3599Y-5.2894
X2.3599Y-5.3288
X2.3599Y-5.3682
X2.3599Y-5.4075
X2.3599Y-5.4469
X2.3599Y-5.4863
X2.3599Y-5.5257
X2.3599Y-5.565
X2.3599Y-5.6438
X2.3599Y-5.6831
X2.3599Y-5.7225
X2.3599Y-5.7619
X2.3599Y-5.8012
X2.3599Y-5.8406
X2.3599Y-5.9206
X2.3599Y-5.96
X2.3654Y-4.4096
X2.3664Y-6.3316
X2.3694Y-6.6106
X2.3744Y-6.8246
X2.3754Y-2.0756
X2.3769Y-3.5836
X2.3774Y-3.5466
X2.3804Y-2.4376
X2.3824Y-2.3876
X2.3844Y-6.9056
X2.3874Y-6.3131
X2.3874Y-6.3525
X2.3874Y-6.3931
X2.3874Y-6.4325
X2.3874Y-6.4719
X2.3874Y-6.5112
X2.3874Y-6.5506
X2.3874Y-6.59
X2.3874Y-6.6356
X2.3874Y-6.675
X2.3884Y-1.7576
X2.3894Y-6.7446
X2.3914Y-6.2711
X2.3924Y-1.4336
X2.3934Y-2.1826
X2.3936Y-4.032
X2.3959Y-3.9371
X2.3974Y-2.8416
X2.3974Y-4.1372
X2.3976Y-3.9976
X2.3994Y-2.5326
X2.4012Y-4.1002
X2.4014Y-4.0672
X2.4024Y-2.2646
X2.4033Y-4.4096
X2.4044Y-2.2066
X2.4073Y-1.9621
X2.4074Y-2.1376
X2.4084Y-4.3166
X2.4124Y-6.7256
X2.4154Y-2.6886
X2.4174Y-1.4196
X2.4184Y-2.5116
X2.4184Y-3.5876
X2.4184Y-3.6396
X2.4194Y-2.6426
X2.4319Y-6.1745
X2.4319Y-6.2145
X2.4404Y-2.5556
X2.441Y-4.4096
X2.4414Y-2.5856
X2.4414Y-2.7416
X2.443Y-4.2511
X2.4444Y-3.1111
X2.4454Y-2.0406
X2.4524Y-4.2826
X2.4534Y-1.4271
X2.4534Y-3.6216
X2.4594Y-2.2076
X2.4594Y-2.5346
X2.4604Y-4.3256
X2.4643Y-5.0156
X2.4651Y-6.0592
X2.4664Y-3.2831
X2.4664Y-3.3276
X2.4697Y-5.9275
X2.4701Y-5.3091
X2.4701Y-5.3879
X2.4701Y-5.4272
X2.4701Y-5.4666
X2.4701Y-5.506
X2.4701Y-5.5453
X2.4701Y-5.6635
X2.4701Y-5.7028
X2.4701Y-5.7422
X2.4701Y-5.7816
X2.4701Y-5.8209
X2.4701Y-5.8603
X2.4744Y-6.1745
X2.4744Y-6.2145
X2.4749Y-4.5007
X2.476Y-5.1416
X2.4774Y-4.7957
X2.4789Y-3.0386
X2.4803Y-4.4096
X2.4804Y-3.3831
X2.481Y-1.828
X2.481Y-1.9657
X2.4814Y-2.8076
X2.4834Y-3.9966
X2.4897Y-6.7701
X2.4904Y-3.1196
X2.4924Y-6.3156
X2.4924Y-6.355
X2.4924Y-6.3956
X2.4924Y-6.435
X2.4924Y-6.4744
X2.4924Y-6.5137
X2.4924Y-6.5531
X2.4924Y-6.5925
X2.4924Y-6.6381
X2.4949Y-2.2151
X2.4964Y-3.1966
X2.4984Y-2.2876
X2.4994Y-4.0146
X2.5004Y-4.3256
X2.5024Y-3.9786
X2.5037Y-5.0156
X2.5049Y-4.5007
X2.5049Y-5.3682
X2.5084Y-2.9741
X2.5094Y-2.1936
X2.5134Y-3.4181
X2.5164Y-3.4906
X2.5174Y-4.7957
X2.5194Y-4.1171
X2.5197Y-4.4096
X2.5199Y-4.0916
X2.5204Y-4.0661
X2.5226Y-6.6142
X2.5259Y-5.2096
X2.5291Y-6.7701
X2.5326Y-6.6642
X2.5351Y-3.9242
X2.5409Y-4.3256
X2.5431Y-5.0156
X2.5459Y-4.7511
X2.5474Y-5.1216
X2.5529Y-3.4531
X2.5539Y-3.1666
X2.5549Y-6.6132
X2.5554Y-4.8396
X2.5591Y-4.4096
X2.5604Y-4.2886
X2.5654Y-3.0396
X2.5674Y-5.9641
X2.5685Y-6.7701
X2.5724Y-2.6956
X2.5724Y-2.7306
X2.5751Y-6.6642
X2.5783Y-6.0798
X2.5784Y-6.1606
X2.5824Y-4.0182
X2.583Y-5.0156
X2.5864Y-2.2056
X2.5884Y-6.2076
X2.5905Y-5.1221
X2.5928Y-1.8102
X2.5949Y-3.1316
X2.5949Y-3.7257
X2.5974Y-4.5832
X2.5974Y-4.6157
X2.5984Y-2.2666
X2.5984Y-4.4096
X2.6051Y-5.7591
X2.6054Y-2.4386
X2.6056Y-5.1467
X2.6061Y-4.8752
X2.6061Y-5.3772
X2.6064Y-2.9371
X2.6064Y-3.3696
X2.6069Y-6.3245
X2.6074Y-4.0432
X2.6077Y-6.1535
X2.6089Y-2.1906
X2.6101Y-6.7667
X2.6119Y-3.1726
X2.6134Y-4.9066
X2.6139Y-3.1021
X2.6174Y-3.1986
X2.6176Y-6.5667
X2.6184Y-4.3266
X2.6199Y-6.1816
X2.6199Y-3.6982
X2.6201Y-3.9242
X2.6201Y-4.1442
X2.6223Y-5.0156
X2.6224Y-1.9156
X2.6234Y-2.3876
X2.6249Y-3.2831
X2.6254Y-1.7626
X2.6264Y-2.3536
X2.6284Y-3.1531
X2.6298Y-5.1221
X2.6304Y-2.7816
X2.6314Y-2.9026
X2.635Y-1.8102
X2.6354Y-2.3176
X2.6411Y-4.8327
X2.6514Y-2.2681
X2.6545Y-6.6642
X2.6574Y-1.9161
X2.6614Y-2.9371
X2.6617Y-5.0156
X2.6674Y-5.1976
X2.6681Y-5.2342
X2.6684Y-2.2286
X2.6767Y-1.8102
X2.6784Y-2.2906
X2.6794Y-2.1976
X2.6939Y-6.6642
X2.6941Y-3.9751
X2.6947Y-6.7701
X2.6957Y-4.3266
X2.6964Y-1.9161
X2.7083Y-1.5372
X2.7104Y-2.0086
X2.7145Y-6.0964
X2.7151Y-4.4096
X2.7164Y-2.9371
X2.7164Y-3.0236
X2.7164Y-3.1101
X2.7164Y-3.1966
X2.7164Y-3.2831
X2.7164Y-3.3696
X2.7164Y-3.4561
X2.719Y-6.2153
X2.7247Y-1.8102
X2.725Y-6.3245
X2.7262Y-5.1214
X2.734Y-3.9751
X2.7341Y-6.7701
X2.7345Y-6.6642
X2.7351Y-4.3266
X2.7381Y-1.9161
X2.755Y-4.4096
X2.7584Y-6.2153
X2.7601Y-5.666
X2.7601Y-5.7053
X2.7644Y-6.3245
X2.7684Y-1.3446
X2.7684Y-2.378
X2.77Y-1.8102
X2.7714Y-2.9371
X2.7714Y-3.0236
X2.7714Y-3.1101
X2.7714Y-3.1966
X2.7714Y-3.2831
X2.7714Y-3.3696
X2.7714Y-3.4561
X2.7733Y-3.9751
X2.7735Y-6.7701
X2.7739Y-5.0151
X2.7739Y-6.6642
X2.775Y-4.3266
X2.7787Y-4.1351
X2.7861Y-1.9161
X2.7943Y-4.4096
X2.7978Y-6.2153
X2.8038Y-6.3245
X2.8109Y-5.0156
X2.8109Y-2.3791
X2.8127Y-3.9751
X2.8129Y-6.7701
X2.8132Y-6.6642
X2.8143Y-4.3266
X2.8165Y-1.8098
X2.8181Y-4.1351
X2.8221Y-5.1962
X2.8264Y-2.9371
X2.8264Y-3.0236
X2.8264Y-3.1101
X2.8264Y-3.1966
X2.8264Y-3.2831
X2.8264Y-3.3696
X2.8264Y-3.4561
X2.8337Y-4.4096
X2.8371Y-6.2153
X2.8401Y-4.9632
X2.8417Y-5.9364
X2.8423Y-5.9682
X2.8431Y-6.3245
X2.8522Y-6.7701
X2.8526Y-6.6642
X2.8537Y-4.3266
X2.8571Y-5.1962
X2.8582Y-1.811
X2.8625Y-2.3799
X2.8681Y-4.1151
X2.8731Y-4.4096
X2.8765Y-6.2153
X2.8775Y-5.0161
X2.8798Y-3.5371
X2.8798Y-1.9169
X2.8801Y-5.3132
X2.8814Y-2.9371
X2.8814Y-3.0236
X2.8814Y-3.1101
X2.8814Y-3.1966
X2.8814Y-3.2831
X2.8814Y-3.3696
X2.8814Y-3.4561
X2.8825Y-6.3245
X2.8854Y-2.0024
X2.8854Y-2.0563
X2.8854Y-2.1063
X2.8857Y-1.9626
X2.8916Y-6.7701
X2.892Y-6.6642
X2.8931Y-4.3266
X2.8964Y-1.8098
X2.9034Y-6.9121
X2.911Y-6.3422
X2.9124Y-4.4096
X2.9137Y-2.3811
X2.9168Y-5.0161
X2.922Y-1.9169
X2.9273Y-3.8761
X2.931Y-6.7701
X2.9314Y-6.6642
X2.9324Y-4.3266
X2.9341Y-6.2153
X2.9348Y-3.5371
X2.9364Y-2.9371
X2.9364Y-3.0236
X2.9364Y-3.1101
X2.9364Y-3.1966
X2.9364Y-3.2831
X2.9364Y-3.3696
X2.9364Y-3.4561
X2.9385Y-1.8098
X2.9414Y-2.2616
X2.9484Y-6.344
X2.9503Y-4.4096
X2.9562Y-5.0161
X2.9578Y-2.3815
X2.9579Y-5.1216
X2.9629Y-5.1922
X2.9637Y-1.9169
X2.9641Y-5.1612
X2.966Y-3.8765
X2.9703Y-4.3266
X2.9703Y-6.7701
X2.9707Y-6.6642
X2.9751Y-2.1004
X2.9802Y-1.8098
X2.9822Y-2.0693
X2.9824Y-2.0416
X2.9835Y-4.1814
X2.9894Y-1.5806
X2.9897Y-4.4096
X2.9898Y-3.5371
X2.9911Y-6.344
X2.9914Y-2.9371
X2.9914Y-3.0236
X2.9914Y-3.1101
X2.9914Y-3.1966
X2.9914Y-3.2831
X2.9914Y-3.3696
X2.9914Y-3.4561
X2.9921Y-5.2092
X2.9941Y-5.2392
X2.9947Y-6.2155
X3.0035Y-2.3823
X3.0097Y-4.3266
X3.0097Y-6.7701
X3.0101Y-6.6642
X3.0117Y-1.9169
X3.0129Y-2.1075
X3.0229Y-4.1814
X3.0283Y-1.8098
X3.0291Y-4.4096
X3.0448Y-3.5371
X3.0464Y-2.9371
X3.0464Y-3.0236
X3.0464Y-3.1101
X3.0464Y-3.1966
X3.0464Y-3.2831
X3.0464Y-3.3696
X3.0464Y-3.4561
X3.0491Y-4.3266
X3.0491Y-6.7701
X3.0495Y-6.6642
X3.0515Y-2.3823
X3.057Y-1.9169
X3.0583Y-5.889
X3.0623Y-4.1814
X3.069Y-4.4096
X3.0735Y-6.2155
X3.0735Y-1.8098
X3.0748Y-5.9432
X3.0748Y-5.9832
X3.0748Y-6.0226
X3.0778Y-3.8129
X3.0796Y-5.4891
X3.0864Y-1.5986
X3.089Y-4.3266
X3.0898Y-6.0632
X3.0898Y-6.1026
X3.0913Y-4.2386
X3.0924Y-6.9087
X3.0968Y-6.3408
X3.0982Y-5.5188
X3.0995Y-2.3795
X3.0998Y-3.5371
X3.1014Y-2.9371
X3.1014Y-3.0236
X3.1014Y-3.1101
X3.1014Y-3.1966
X3.1014Y-3.2831
X3.1014Y-3.3696
X3.1014Y-3.4561
X3.1022Y-4.1814
X3.1083Y-4.4096
X3.1098Y-5.9432
X3.1098Y-5.9832
X3.1098Y-6.0226
X3.1128Y-6.2155
X3.1137Y-1.9157
X3.1176Y-6.519
X3.1184Y-4.1271
X3.1189Y-5.4903
X3.12Y-1.8094
X3.1283Y-4.3266
X3.1307Y-4.2386
X3.1348Y-4.9382
X3.1348Y-4.9782
X3.1348Y-5.0176
X3.1362Y-6.3408
X3.1393Y-2.3791
X3.1415Y-4.1814
X3.1477Y-4.4096
X3.1498Y-5.0582
X3.1498Y-5.0976
X3.1522Y-6.2155
X3.1529Y-2.8316
X3.1548Y-3.5371
X3.1558Y-1.9157
X3.1564Y-2.9371
X3.1564Y-3.0236
X3.1564Y-3.1101
X3.1564Y-3.1966
X3.1564Y-3.2831
X3.1564Y-3.3696
X3.1564Y-3.4561
X3.157Y-6.519
X3.1614Y-3.9806
X3.1624Y-4.0596
X3.1629Y-1.8083
X3.1669Y-4.1256
X3.1677Y-4.3266
X3.1684Y-1.4221
X3.1698Y-4.9382
X3.1698Y-4.9782
X3.1698Y-5.0176
X3.1701Y-4.2386
X3.1798Y-6.5607
X3.1798Y-6.6007
X3.1798Y-6.6401
X3.1814Y-2.8316
X3.1849Y-2.105
X3.1871Y-4.4096
X3.1874Y-6.2145
X3.1924Y-2.065
X3.1948Y-6.6807
X3.1948Y-6.7201
X3.1963Y-6.519
X3.1976Y-1.9157
X3.2053Y-6.4044
X3.2071Y-4.3266
X3.209Y-1.8102
X3.2098Y-3.5371
X3.21Y-4.2386
X3.2114Y-2.9371
X3.2114Y-3.0236
X3.2114Y-3.1101
X3.2114Y-3.1966
X3.2114Y-3.2831
X3.2114Y-3.3696
X3.2114Y-3.4561
X3.2114Y-4.1256
X3.2148Y-6.5607
X3.2148Y-6.6007
X3.2148Y-6.6401
X3.2149Y-6.3408
X3.2151Y-3.7642
X3.2264Y-4.4096
X3.2267Y-6.2145
X3.2301Y-4.1818
X3.2357Y-6.519
X3.2456Y-1.9157
X3.2464Y-4.3266
X3.2493Y-4.2386
X3.2511Y-1.8102
X3.2543Y-6.3408
X3.2549Y-2.7581
X3.2609Y-2.3854
X3.2616Y-3.7369
X3.2643Y-4.4096
X3.2648Y-3.5371
X3.2661Y-6.2145
X3.2664Y-2.9371
X3.2664Y-3.0236
X3.2664Y-3.1101
X3.2664Y-3.1966
X3.2664Y-3.2831
X3.2664Y-3.3696
X3.2664Y-3.4556
X3.2664Y-3.4561
X3.27Y-4.1818
X3.2751Y-6.519
X3.2843Y-4.3266
X3.2909Y-1.9157
X3.2928Y-1.8102
X3.2976Y-2.8651
X3.3037Y-4.4096
X3.3056Y-6.2147
X3.3093Y-4.1818
X3.3198Y-3.5371
X3.3214Y-2.9371
X3.3214Y-3.0236
X3.3214Y-3.1101
X3.3214Y-3.1966
X3.3214Y-3.2831
X3.3214Y-3.3696
X3.3214Y-3.4561
X3.3216Y-2.385
X3.3237Y-4.3266
X3.3341Y-4.7892
X3.3393Y-1.9165
X3.3409Y-1.8102
X3.3431Y-4.4096
X3.3449Y-6.2147
X3.3454Y-2.1896
X3.3526Y-2.8651
X3.3573Y-6.6682
X3.3631Y-4.3266
X3.3748Y-3.5371
X3.3764Y-2.9371
X3.3764Y-3.0236
X3.3764Y-3.1101
X3.3764Y-3.1966
X3.3764Y-3.2831
X3.3764Y-3.3696
X3.3764Y-3.4561
X3.3784Y-1.7746
X3.3798Y-2.3862
X3.3814Y-1.9165
X3.383Y-4.4096
X3.3843Y-6.2147
X3.3861Y-1.8102
X3.3931Y-4.5057
X3.3936Y-4.5394
X3.395Y-4.5762
X3.3974Y-1.9466
X3.3984Y-2.0911
X3.4044Y-1.4986
X3.4076Y-2.8651
X3.4094Y-2.0654
X3.4132Y-4.851
X3.4223Y-4.4211
X3.4237Y-6.2147
X3.4255Y-2.272
X3.4298Y-3.5366
X3.4298Y-3.5371
X3.4314Y-2.9371
X3.4314Y-3.0236
X3.4314Y-3.1101
X3.4314Y-3.1966
X3.4314Y-3.2831
X3.4314Y-3.3696
X3.4314Y-3.4561
X3.4318Y-1.8091
X3.4464Y-1.9406
X3.4579Y-2.7216
X3.4617Y-4.4211
X3.4626Y-2.8651
X3.4631Y-6.2147
X3.4648Y-4.2157
X3.4648Y-4.2557
X3.4648Y-4.2951
X3.4712Y-1.9165
X3.4771Y-1.8079
X3.4773Y-3.7861
X3.4783Y-2.2717
X3.4798Y-4.3357
X3.4798Y-4.3751
X3.4814Y-2.1976
X3.4848Y-3.5371
X3.4864Y-2.9371
X3.4864Y-3.0236
X3.4864Y-3.1101
X3.4864Y-3.1966
X3.4864Y-3.2831
X3.4864Y-3.3696
X3.4864Y-3.4561
X3.4874Y-2.6301
X3.4901Y-2.3882
X3.4998Y-4.2157
X3.4998Y-4.2557
X3.4998Y-4.2951
X3.5011Y-4.4211
X3.5129Y-2.8441
X3.5137Y-1.8047
X3.516Y-3.7865
X3.5165Y-1.9165
X3.5221Y-4.632
X3.5273Y-6.1982
X3.5273Y-6.2382
X3.5273Y-6.2776
X3.5274Y-6.4036
X3.531Y-2.2713
X3.5319Y-2.6436
X3.5373Y-6.6182
X3.5373Y-6.6582
X3.5373Y-6.6976
X3.5398Y-3.5371
X3.5404Y-4.4211
X3.5414Y-2.8441
X3.5414Y-2.9371
X3.5414Y-3.0236
X3.5414Y-3.1101
X3.5414Y-3.1966
X3.5414Y-3.2831
X3.5414Y-3.3696
X3.5414Y-3.4561
X3.5423Y-6.3182
X3.5423Y-6.3576
X3.5523Y-6.7382
X3.5523Y-6.7776
X3.5554Y-2.3831
X3.5558Y-1.8047
X3.5589Y-6.4036
X3.5597Y-4.2594
X3.5601Y-6.5142
X3.562Y-4.632
X3.5621Y-4.2098
X3.5623Y-6.1982
X3.5623Y-6.2382
X3.5623Y-6.2776
X3.5624Y-1.9896
X3.5637Y-1.9173
X3.5723Y-6.6182
X3.5723Y-6.6582
X3.5723Y-6.6976
X3.5818Y-2.272
X3.5819Y-2.7021
X3.5881Y-2.185
X3.5906Y-4.4216
X3.5938Y-3.8887
X3.5948Y-3.5371
X3.5964Y-2.9371
X3.5964Y-3.0236
X3.5964Y-3.1101
X3.5964Y-3.1966
X3.5964Y-3.2831
X3.5964Y-3.3696
X3.5964Y-3.4561
X3.5976Y-1.8047
X3.5996Y-4.2594
X3.6009Y-2.5086
X3.6013Y-4.632
X3.6014Y-6.5036
X3.602Y-4.2098
X3.6024Y-4.3136
X3.6053Y-5.0206
X3.6058Y-1.9173
X3.6071Y-5.2235
X3.6071Y-5.2629
X3.6151Y-3.9142
X3.6192Y-2.3831
X3.6299Y-4.4216
X3.6322Y-2.2728
X3.6325Y-3.8891
X3.6376Y-6.4067
X3.6389Y-4.2594
X3.6401Y-1.9665
X3.6413Y-4.2098
X3.6452Y-5.0206
X3.6456Y-1.8047
X3.6476Y-1.9173
X3.6498Y-3.5371
X3.6514Y-2.9371
X3.6514Y-3.0236
X3.6514Y-3.1101
X3.6514Y-3.1966
X3.6514Y-3.2831
X3.6514Y-3.3696
X3.6514Y-3.4561
X3.6558Y-2.1862
X3.6584Y-4.3146
X3.6729Y-6.8166
X3.6787Y-2.2736
X3.6845Y-5.0206
X3.6887Y-4.5554
X3.6909Y-1.8047
X3.6934Y-2.0276
X3.6948Y-4.2601
X3.6999Y-6.4066
X3.7048Y-3.5371
X3.7064Y-2.9371
X3.7064Y-3.0236
X3.7064Y-3.1101
X3.7064Y-3.1966
X3.7064Y-3.2831
X3.7064Y-3.3696
X3.7064Y-3.4561
X3.7119Y-4.7527
X3.7164Y-1.3446
X3.7164Y-1.5756
X3.7164Y-6.8055
X3.7235Y-2.2736
X3.7286Y-4.5554
X3.7294Y-2.0931
X3.7318Y-2.3839
X3.7373Y-1.8043
X3.7419Y-1.9751
X3.7467Y-4.8582
X3.7479Y-2.0686
X3.7558Y-6.8055
X3.7598Y-3.5371
X3.7603Y-4.5202
X3.7609Y-4.3245
X3.7614Y-3.0236
X3.7614Y-3.1101
X3.7614Y-3.1966
X3.7614Y-3.2831
X3.7614Y-3.3696
X3.7614Y-3.4561
X3.7622Y-5.9993
X3.7624Y-4.4172
X3.7679Y-4.5554
X3.7692Y-2.2736
X3.7791Y-1.8055
X3.7799Y-2.9426
X3.7816Y-6.7227
X3.7844Y-1.5776
X3.7866Y-4.8582
X3.7934Y-4.0546
X3.7934Y-4.2501
X3.7939Y-4.2061
X3.7944Y-4.1011
X3.7944Y-4.1506
X3.7951Y-6.8055
X3.7984Y-4.324
X3.8002Y-4.5202
X3.8003Y-2.3815
X3.8003Y-2.4693
X3.8009Y-4.4152
X3.8022Y-5.9993
X3.8034Y-1.4136
X3.8125Y-2.2728
X3.8148Y-3.5371
X3.8164Y-3.0236
X3.8164Y-3.1101
X3.8164Y-3.2831
X3.8164Y-3.3696
X3.8164Y-3.4561
X3.8231Y-3.7306
X3.8251Y-1.8075
X3.8259Y-4.8582
X3.8266Y-6.7227
X3.8284Y-1.5426
X3.8345Y-6.8055
X3.835Y-1.9724
X3.8394Y-4.3235
X3.8395Y-4.5202
X3.84Y-2.8779
X3.8414Y-3.9126
X3.8419Y-4.4147
X3.8444Y-3.1986
X3.8454Y-1.7756
X3.8534Y-1.4116
X3.8594Y-2.3831
X3.8598Y-2.2732
X3.8624Y-3.7306
X3.866Y-6.7227
X3.8668Y-2.8499
X3.8672Y-1.8075
X3.8698Y-3.5371
X3.87Y-2.9674
X3.8714Y-3.1101
X3.8714Y-3.2831
X3.8714Y-3.3696
X3.8714Y-3.4561
X3.8739Y-2.6441
X3.8739Y-6.8055
X3.8759Y-2.9971
X3.8774Y-3.8776
X3.8778Y-6.439
X3.8939Y-4.1461
X3.8939Y-2.8235
X3.8953Y-4.1034
X3.8953Y-4.2216
X3.8968Y-2.9394
X3.9018Y-3.7309
X3.9019Y-2.9716
X3.9034Y-1.6186
X3.9054Y-6.7227
X3.9059Y-3.2516
X3.9086Y-2.2732
X3.909Y-1.8075
X3.9132Y-6.8055
X3.9168Y-6.228
X3.921Y-2.9154
X3.9239Y-3.9806
X3.9248Y-3.5371
X3.9251Y-6.439
X3.9254Y-1.9436
X3.9264Y-3.1101
X3.9264Y-3.3696
X3.9264Y-3.4561
X3.9265Y-2.9464
X3.9284Y-1.3436
X3.9309Y-5.0082
X3.9348Y-4.3701
X3.9354Y-3.2241
X3.9364Y-1.6396
X3.9439Y-3.0631
X3.9447Y-6.2068
X3.9447Y-6.7227
X3.9449Y-3.2631
X3.9468Y-2.0291
X3.9478Y-2.8874
X3.9526Y-6.8055
X3.9533Y-2.9184
X3.9534Y-1.4146
X3.9535Y-2.2744
X3.9569Y-2.7796
X3.957Y-1.8075
X3.9594Y-2.4717
X3.9649Y-3.1936
X3.9684Y-2.3839
X3.9723Y-6.439
X3.9724Y-1.4776
X3.9769Y-3.9321
X3.9783Y-4.9984
X3.9784Y-3.2271
X3.9798Y-3.5371
X3.9804Y-2.892
X3.9814Y-3.0236
X3.9814Y-3.1101
X3.9814Y-3.3696
X3.9814Y-3.4561
X3.9819Y-4.5237
X3.9841Y-6.7227
X3.9874Y-4.1966
X3.992Y-6.8055
X3.9954Y-1.6846
X3.9978Y-4.0256
X3.998Y-2.274
X4.0014Y-3.3276
X4.0023Y-1.8075
X4.0034Y-1.5296
X4.0049Y-2.865
X4.0079Y-3.1936
X4.0102Y-2.0323
X4.0119Y-2.7796
X4.0195Y-6.439
X4.0213Y-4.5237
X4.0224Y-6.0095
X4.0228Y-2.1264
X4.0235Y-6.7227
X4.0259Y-2.9831
X4.0303Y-4.1346
X4.0314Y-6.8055
X4.0346Y-2.3831
X4.0348Y-3.5371
X4.0364Y-3.1101
X4.0364Y-3.3696
X4.0364Y-3.4561
X4.0369Y-2.2744
X4.0372Y-4.0256
X4.0384Y-3.2911
X4.0424Y-5.977
X4.0424Y-6.037
X4.0424Y-2.011
X4.0487Y-6.5111
X4.0487Y-1.8071
X4.0491Y-6.4721
X4.0504Y-1.5396
X4.0605Y-4.9639
X4.0606Y-4.5237
X4.0609Y-4.797
X4.0617Y-6.0095
X4.0629Y-6.7227
X4.0654Y-1.9856
X4.0665Y-3.7446
X4.0665Y-3.7843
X4.0665Y-3.9026
X4.0665Y-3.9423
X4.0668Y-6.439
X4.0669Y-2.7796
X4.0669Y-3.7052
X4.0669Y-3.8632
X4.0675Y-6.6404
X4.0679Y-2.9411
X4.0697Y-4.1346
X4.0707Y-6.8055
X4.0744Y-3.2841
X4.0749Y-3.3426
X4.0766Y-4.0256
X4.0813Y-6.5127
X4.0817Y-5.977
X4.0817Y-6.037
X4.0854Y-2.5221
X4.0892Y-5.8253
X4.0898Y-3.5371
X4.0901Y-2.3831
X4.0904Y-2.0236
X4.0905Y-1.8083
X4.0914Y-3.1101
X4.0914Y-3.4561
X4.0924Y-4.4091
X4.0999Y-4.5237
X4.1011Y-6.0095
X4.1022Y-6.7227
X4.1051Y-5.0342
X4.1084Y-1.5916
X4.1091Y-4.1346
X4.1101Y-6.8055
X4.1122Y-2.7161
X4.1145Y-3.7446
X4.1145Y-3.7843
X4.1145Y-3.9026
X4.1145Y-3.9423
X4.1149Y-3.7052
X4.1149Y-3.8632
X4.1153Y-1.6815
X4.1154Y-3.8246
X4.1157Y-1.7591
X4.1159Y-4.0256
X4.1176Y-1.7937
X4.12Y-5.5218
X4.1211Y-5.977
X4.1211Y-6.037
X4.1284Y-2.1286
X4.1338Y-1.6161
X4.1393Y-4.5237
X4.1405Y-2.2776
X4.1406Y-6.0097
X4.1428Y-4.6715
X4.1448Y-3.5371
X4.1484Y-4.1346
X4.1495Y-6.8055
X4.1514Y-3.8246
X4.1524Y-2.8296
X4.1525Y-3.7446
X4.1525Y-3.7843
X4.1525Y-3.9026
X4.1525Y-3.9423
X4.1525Y-3.1623
X4.1529Y-3.7052
X4.1529Y-3.8632
X4.1553Y-4.0259
X4.1589Y-3.4411
X4.1594Y-1.5506
X4.1594Y-3.2911
X4.1594Y-3.3421
X4.1594Y-5.5218
X4.1599Y-3.3956
X4.1606Y-5.9772
X4.1606Y-6.0372
X4.1672Y-6.5375
X4.1677Y-2.6631
X4.1779Y-1.8602
X4.1785Y-4.5237
X4.1798Y-1.5748
X4.1799Y-6.0097
X4.181Y-6.7217
X4.1851Y-4.9592
X4.1869Y-2.7631
X4.1873Y-2.0528
X4.1874Y-3.8246
X4.1878Y-4.1349
X4.1885Y-3.7446
X4.1885Y-3.7843
X4.1885Y-3.9026
X4.1885Y-3.9423
X4.1888Y-6.8055
X4.1889Y-3.7052
X4.1889Y-3.8632
X4.1947Y-4.0259
X4.1949Y-2.2546
X4.198Y-2.6379
X4.1988Y-5.5218
X4.1998Y-3.5371
X4.1999Y-4.7501
X4.1999Y-5.9772
X4.1999Y-6.0372
X4.2014Y-5.6579
X4.2023Y-2.2236
X4.2114Y-2.2916
X4.2178Y-4.5237
X4.2192Y-2.0866
X4.2193Y-6.0097
X4.2203Y-6.7217
X4.2248Y-2.6099
X4.2269Y-3.2291
X4.2269Y-3.3156
X4.2272Y-4.1349
X4.2282Y-6.8055
X4.2336Y-4.0262
X4.2354Y-2.2676
X4.2365Y-3.7446
X4.2365Y-3.7843
X4.2365Y-3.9026
X4.2365Y-3.9423
X4.2369Y-3.7052
X4.2369Y-3.8632
X4.2377Y-1.8831
X4.2381Y-1.8315
X4.2381Y-5.5218
X4.2393Y-5.9772
X4.2393Y-6.0372
X4.24Y-6.4981
X4.24Y-6.5335
X4.2444Y-1.7086
X4.2444Y-2.1114
X4.245Y-2.7129
X4.2452Y-1.5535
X4.2454Y-1.6786
X4.2479Y-6.3682
X4.2483Y-1.8594
X4.2519Y-2.5835
X4.2524Y-2.3036
X4.2571Y-4.5237
X4.2587Y-6.0097
X4.2597Y-6.7217
X4.2661Y-4.1352
X4.2676Y-6.8055
X4.2718Y-2.6849
X4.2729Y-4.0262
X4.2731Y-3.4078
X4.2755Y-6.5335
X4.2778Y-4.9658
X4.2787Y-5.9772
X4.2787Y-6.0372
X4.2819Y-3.2291
X4.2819Y-3.3156
X4.2869Y-1.8823
X4.2873Y-1.5535
X4.2877Y-2.0028
X4.2881Y-1.8201
X4.2884Y-1.6796
X4.2884Y-1.7096
X4.2895Y-4.3605
X4.2931Y-5.8973
X4.2939Y-2.2991
X4.2976Y-6.0092
X4.2983Y-5.6579
X4.2989Y-2.6585
X4.2991Y-6.7217
X4.3006Y-4.5228
X4.3054Y-4.1352
X4.306Y-3.5406
X4.3066Y-2.1778
X4.307Y-6.8055
X4.3084Y-1.7956
X4.3129Y-2.5252
X4.3145Y-2.028
X4.3171Y-4.9658
X4.3294Y-1.7116
X4.3298Y-1.8201
X4.3298Y-1.8524
X4.3304Y-1.6766
X4.331Y-1.5547
X4.3324Y-2.2866
X4.3342Y-3.9103
X4.3369Y-3.2291
X4.3369Y-3.3156
X4.3373Y-2.1776
X4.3381Y-5.7481
X4.3381Y-5.7808
X4.3384Y-6.7217
X4.3406Y-3.4058
X4.3463Y-6.8055
X4.3464Y-1.8816
X4.3483Y-6.5621
X4.3487Y-4.1349
X4.3577Y-2.5236
X4.3608Y-3.0106
X4.3661Y-2.2866
X4.3707Y-5.7627
X4.3723Y-4.7507
X4.3723Y-4.7907
X4.3723Y-4.8301
X4.3724Y-2.139
X4.3736Y-3.9103
X4.3778Y-6.7217
X4.3779Y-1.8201
X4.3791Y-2.1776
X4.3838Y-1.702
X4.3857Y-6.8055
X4.3873Y-4.8707
X4.3873Y-4.9101
X4.3876Y-4.1352
X4.3919Y-3.2291
X4.3919Y-3.3156
X4.3956Y-3.4058
X4.3965Y-2.6093
X4.3974Y-4.0266
X4.4034Y-2.5236
X4.405Y-3.5476
X4.4064Y-1.897
X4.4073Y-4.7507
X4.4073Y-4.7907
X4.4073Y-4.8301
X4.4098Y-3.0106
X4.4109Y-2.0036
X4.4134Y-1.3376
X4.4152Y-5.9607
X4.4162Y-5.9971
X4.4172Y-6.7217
X4.4192Y-2.1386
X4.4231Y-1.8201
X4.4231Y-1.8524
X4.4239Y-2.2972
X4.4244Y-1.4436
X4.4248Y-4.3107
X4.4248Y-4.3507
X4.4248Y-4.3901
X4.4251Y-6.8055
X4.4269Y-4.1352
X4.4271Y-2.1776
X4.428Y-6.5749
X4.4302Y-1.7016
X4.4346Y-2.6097
X4.4384Y-4.0261
X4.4398Y-4.4307
X4.4398Y-4.4701
X4.4459Y-2.5236
X4.4459Y-2.5236
X4.4498Y-1.897
X4.4554Y-3.2291
X4.4554Y-3.1783
X4.4557Y-3.4046
X4.4562Y-3.1465
X4.4566Y-6.7217
X4.4576Y-5.6717
X4.458Y-5.5206
X4.4594Y-3.3136
X4.4598Y-4.3107
X4.4598Y-4.3507
X4.4598Y-4.3901
X4.4612Y-2.8457
X4.4644Y-6.8055
X4.4659Y-2.0036
X4.4674Y-4.1366
X4.4696Y-1.8197
X4.4724Y-1.5516
X4.4724Y-2.1776
X4.4724Y-1.6846
X4.4724Y-2.6097
X4.4731Y-2.137
X4.4744Y-1.7146
X4.4764Y-4.0261
X4.4829Y-6.2657
X4.4829Y-6.3051
X4.4829Y-6.3444
X4.4831Y-6.1081
X4.4831Y-6.1475
X4.4831Y-6.1869
X4.4831Y-6.2262
X4.4926Y-5.9877
X4.4951Y-6.3867
X4.4974Y-5.5206
X4.4986Y-2.1162
X4.5029Y-1.897
X4.5038Y-6.8055
X4.5079Y-3.2286
X4.5113Y-1.8209
X4.5138Y-2.7617
X4.5144Y-3.3136
X4.5151Y-6.0892
X4.5154Y-6.2857
X4.5154Y-6.3251
X4.5156Y-6.1281
X4.5156Y-6.1675
X4.5156Y-6.2069
X4.5156Y-6.2462
X4.5161Y-1.5516
X4.5162Y-2.8457
X4.5164Y-1.7166
X4.5173Y-3.7428
X4.5173Y-3.8278
X4.5184Y-1.6866
X4.5188Y-2.1772
X4.5194Y-1.5146
X4.5199Y-4.5179
X4.5209Y-2.0036
X4.5209Y-2.6101
X4.5216Y-2.1366
X4.5232Y-3.4026
X4.5318Y-4.5869
X4.532Y-5.9877
X4.5368Y-5.5206
X4.5403Y-1.8143
X4.5404Y-1.5706
X4.5414Y-2.2656
X4.5423Y-4.1336
X4.5429Y-6.2657
X4.5429Y-6.3051
X4.5429Y-6.3444
X4.5431Y-6.1081
X4.5431Y-6.1475
X4.5431Y-6.1869
X4.5431Y-6.2262
X4.5432Y-6.8055
X4.5515Y-2.4823
X4.5531Y-2.4406
X4.5567Y-3.7428
X4.5567Y-3.8278
X4.5578Y-1.5516
X4.5594Y-1.5136
X4.5606Y-2.1783
X4.5612Y-2.1028
X4.562Y-1.8576
X4.5628Y-4.5539
X4.5629Y-4.9351
X4.5639Y-1.8301
X4.5664Y-1.6866
X4.5682Y-4.0276
X4.5684Y-1.7176
X4.5688Y-2.7617
X4.5696Y-2.6106
X4.5712Y-2.8457
X4.5713Y-5.9877
X4.5747Y-6.7107
X4.5761Y-5.5206
X4.577Y-4.2795
X4.5782Y-3.4026
X4.5817Y-4.1336
X4.5825Y-6.8055
X4.5902Y-3.5828
X4.5954Y-4.8177
X4.5956Y-1.5516
X4.6036Y-2.1032
X4.6136Y-3.8353
X4.614Y-6.7107
X4.6145Y-2.4406
X4.6145Y-2.4803
X4.6145Y-2.5986
X4.6145Y-2.6383
X4.6145Y-3.1506
X4.6145Y-3.1903
X4.6145Y-3.3086
X4.6145Y-3.3483
X4.6149Y-2.4012
X4.6149Y-2.5592
X4.6149Y-3.1112
X4.6149Y-3.2692
X4.6154Y-1.4226
X4.6184Y-2.0256
X4.6184Y-2.0644
X4.6191Y-4.2798
X4.6192Y-5.6635
X4.6211Y-4.1336
X4.6219Y-6.8055
X4.6224Y-1.8584
X4.6238Y-2.7617
X4.6262Y-2.8457
X4.6279Y-1.5677
X4.6292Y-3.7303
X4.6348Y-4.8177
X4.6361Y-4.4177
X4.6424Y-2.103
X4.6427Y-4.0261
X4.6434Y-2.2656
X4.6458Y-4.5047
X4.6525Y-3.8356
X4.6534Y-4.9351
X4.6534Y-6.7107
X4.6543Y-1.5949
X4.6544Y-1.4196
X4.6564Y-2.3006
X4.6584Y-4.2798
X4.6604Y-4.1336
X4.6613Y-6.8055
X4.6625Y-2.4406
X4.6625Y-2.4803
X4.6625Y-2.5986
X4.6625Y-2.6383
X4.6625Y-3.1506
X4.6625Y-3.1903
X4.6625Y-3.3086
X4.6625Y-3.3483
X4.6629Y-2.4012
X4.6629Y-2.5592
X4.6629Y-3.1112
X4.6629Y-3.2692
X4.6634Y-2.5206
X4.6634Y-3.2306
X4.6686Y-3.7303
X4.6707Y-5.665
X4.6742Y-4.8177
X4.6754Y-4.4177
X4.6782Y-2.8446
X4.6788Y-2.7617
X4.6859Y-2.0901
X4.6864Y-1.9596
X4.6866Y-1.9914
X4.6888Y-4.8997
X4.6904Y-1.5086
X4.6904Y-1.5676
X4.6918Y-3.8356
X4.6928Y-6.7107
X4.6941Y-4.0266
X4.6944Y-1.7114
X4.6964Y-1.6421
X4.6972Y-1.9206
X4.6978Y-4.2798
X4.6994Y-2.5206
X4.6994Y-3.2306
X4.6998Y-4.1339
X4.7005Y-2.4406
X4.7005Y-2.4803
X4.7005Y-2.5986
X4.7005Y-2.6383
X4.7005Y-3.1506
X4.7005Y-3.1903
X4.7005Y-3.3086
X4.7005Y-3.3483
X4.7007Y-6.8055
X4.7009Y-2.4012
X4.7009Y-2.5592
X4.7009Y-3.1112
X4.7009Y-3.2692
X4.7075Y-3.7306
X4.7104Y-4.8202
X4.7148Y-4.4177
X4.7251Y-5.8115
X4.7262Y-2.8434
X4.7268Y-2.7605
X4.7312Y-3.8356
X4.7321Y-6.7107
X4.7354Y-2.5206
X4.7354Y-3.2306
X4.7356Y-2.0024
X4.7365Y-2.4406
X4.7365Y-2.4803
X4.7365Y-2.5986
X4.7365Y-2.6383
X4.7365Y-3.1506
X4.7365Y-3.1903
X4.7365Y-3.3086
X4.7365Y-3.3483
X4.7368Y-2.0898
X4.7369Y-2.4012
X4.7369Y-2.5592
X4.7369Y-3.1112
X4.7369Y-3.2692
X4.7371Y-6.4607
X4.7372Y-4.2798
X4.7376Y-5.5367
X4.7386Y-1.9364
X4.7392Y-4.1339
X4.74Y-6.8055
X4.7423Y-3.9257
X4.7423Y-3.9657
X4.7423Y-4.0051
X4.7468Y-3.7306
X4.7498Y-4.8202
X4.7499Y-6.3301
X4.7511Y-2.3295
X4.7542Y-4.4177
X4.7554Y-1.8131
X4.7554Y-1.8996
X4.7573Y-4.0457
X4.7573Y-4.0851
X4.7593Y-5.7662
X4.7706Y-3.8356
X4.7715Y-6.7107
X4.7734Y-2.1206
X4.7759Y-1.6145
X4.7763Y-4.5362
X4.7773Y-3.9257
X4.7773Y-3.9657
X4.7773Y-4.0051
X4.7781Y-4.1342
X4.7794Y-6.8055
X4.7845Y-2.4406
X4.7845Y-2.4803
X4.7845Y-2.5986
X4.7845Y-2.6383
X4.7845Y-3.1506
X4.7845Y-3.1903
X4.7845Y-3.3086
X4.7845Y-3.3483
X4.7849Y-2.4012
X4.7849Y-2.5592
X4.7849Y-3.1112
X4.7849Y-3.2692
X4.7862Y-3.7306
X4.7892Y-4.8202
X4.7897Y-2.2744
X4.7934Y-1.3916
X4.7935Y-4.4177
X4.8086Y-2.0022
X4.809Y-2.0904
X4.8099Y-3.8356
X4.8109Y-6.7107
X4.8148Y-1.5771
X4.8174Y-4.1342
X4.8188Y-6.8055
X4.8254Y-2.1666
X4.8256Y-3.7306
X4.8294Y-2.1106
X4.833Y-1.7106
X4.8372Y-4.8193
X4.8384Y-6.2561
X4.8388Y-5.756
X4.8394Y-1.4086
X4.8452Y-2.5665
X4.8467Y-4.4202
X4.8489Y-2.1806
X4.8492Y-4.5052
X4.8493Y-3.8359
X4.8503Y-6.7107
X4.8504Y-1.8136
X4.8504Y-1.9001
X4.8507Y-2.6075
X4.8507Y-2.6484
X4.8509Y-2.0036
X4.8509Y-2.0901
X4.8534Y-1.5393
X4.8554Y-1.6876
X4.8581Y-6.8055
X4.8607Y-4.1339
X4.8644Y-1.3396
X4.8649Y-3.7306
X4.8654Y-1.9401
X4.8751Y-5.6617
X4.8846Y-2.428
X4.8851Y-3.1085
X4.8855Y-3.1471
X4.886Y-4.4202
X4.8885Y-4.5052
X4.8887Y-3.8359
X4.8896Y-6.7107
X4.8954Y-2.2306
X4.896Y-2.2028
X4.896Y-4.8253
X4.8975Y-6.8055
X4.8996Y-4.1342
X4.9004Y-5.0641
X4.9009Y-5.1377
X4.9043Y-3.7309
X4.9054Y-1.8136
X4.9054Y-1.9001
X4.9059Y-2.0036
X4.9059Y-2.0901
X4.9064Y-1.4456
X4.9084Y-1.5326
X4.9276Y-3.8362
X4.9276Y-3.1274
X4.929Y-6.7107
X4.9339Y-1.9391
X4.9342Y-2.4264
X4.9369Y-6.8055
X4.9384Y-1.5868
X4.9437Y-3.7309
X4.9478Y-1.7086
X4.9504Y-1.4536
X4.9526Y-4.0262
X4.9531Y-2.6122
X4.9539Y-2.5413
X4.9543Y-2.574
X4.9604Y-1.8136
X4.9604Y-1.9001
X4.9609Y-2.0036
X4.9609Y-2.0901
X4.9669Y-3.8362
X4.9684Y-6.7107
X4.9695Y-3.1453
X4.9705Y-3.1071
X4.9762Y-6.8055
X4.9794Y-5.0666
X4.9826Y-3.7312
X4.9841Y-6.1477
X4.9869Y-1.9756
X4.9889Y-1.9391
X4.9902Y-1.5854
X4.9919Y-4.0262
X4.9986Y-1.7086
X5.0019Y-2.1776
X5.0026Y-2.273
X5.0035Y-2.5398
X5.0044Y-6.2466
X5.0063Y-3.8362
X5.0066Y-4.1184
X5.0077Y-6.7107
X5.0154Y-1.8136
X5.0154Y-1.9001
X5.0156Y-6.8055
X5.0159Y-2.0036
X5.0159Y-2.0901
X5.0169Y-4.5816
X5.0219Y-3.7312
X5.0232Y-2.2938
X5.0254Y-1.4546
X5.026Y-4.8207
X5.0313Y-4.0262
X5.0314Y-2.8541
X5.0344Y-2.8196
X5.0352Y-2.1956
X5.0366Y-4.1434
X5.041Y-1.5854
X5.0416Y-2.1098
X5.0424Y-1.9741
X5.0457Y-3.8362
X5.0463Y-4.5483
X5.0463Y-4.5876
X5.0463Y-4.627
X5.0463Y-4.6664
X5.0471Y-6.7107
X5.0483Y-2.5398
X5.0502Y-2.3282
X5.0531Y-2.3909
X5.0535Y-2.4244
X5.055Y-6.8055
X5.0612Y-5.6321
X5.0613Y-3.7312
X5.0634Y-1.4616
X5.0704Y-1.8136
X5.0704Y-1.9001
X5.0707Y-4.0262
X5.0709Y-2.0036
X5.0709Y-2.0901
X5.0744Y-2.8641
X5.077Y-2.352
X5.0774Y-2.8316
X5.0779Y-2.8981
X5.0779Y-4.1437
X5.0794Y-2.7741
X5.0824Y-4.1841
X5.0849Y-4.3355
X5.085Y-3.8362
X5.0869Y-2.426
X5.0899Y-4.3657
X5.0899Y-4.3932
X5.0901Y-5.9167
X5.0901Y-5.9392
X5.0909Y-4.2996
X5.0928Y-1.5844
X5.094Y-2.2422
X5.094Y-2.5398
X5.094Y-3.0744
X5.0948Y-3.476
X5.0948Y-3.5098
X5.0951Y-4.2217
X5.0954Y-3.5446
X5.0959Y-6.6271
X5.1007Y-3.7312
X5.1026Y-4.7317
X5.1026Y-4.7842
X5.1026Y-4.8217
X5.1037Y-3.6812
X5.1051Y-6.4492
X5.1051Y-6.4767
X5.1074Y-3.8586
X5.1084Y-1.9501
X5.1097Y-5.7481
X5.1097Y-5.7875
X5.1098Y-2.763
X5.1104Y-5.2736
X5.1109Y-4.1761
X5.1132Y-2.3862
X5.1141Y-3.0386
X5.1163Y-3.9739
X5.118Y-5.5808
X5.1204Y-4.2036
X5.1249Y-6.6271
X5.1254Y-1.8136
X5.1254Y-1.9001
X5.1254Y-4.9406
X5.1259Y-2.0036
X5.1259Y-2.0901
X5.127Y-2.2715
X5.1288Y-4.0392
X5.1301Y-3.8392
X5.1326Y-6.1992
X5.133Y-2.5838
X5.1334Y-2.6116
X5.1354Y-2.4308
X5.136Y-5.6329
X5.1364Y-4.8181
X5.1365Y-2.5398
X5.1365Y-2.5398
X5.1374Y-4.7936
X5.1384Y-3.8156
X5.1384Y-4.5976
X5.1392Y-5.6855
X5.1395Y-5.7131
X5.14Y-3.7312
X5.1404Y-4.4956
X5.1414Y-4.8451
X5.1436Y-1.5844
X5.1455Y-6.2973
X5.1489Y-3.5766
X5.1499Y-3.0071
X5.1528Y-4.0632
X5.1535Y-4.2199
X5.1535Y-4.2592
X5.1535Y-4.2986
X5.1535Y-4.338
X5.1535Y-4.4299
X5.1535Y-4.4692
X5.1544Y-4.5231
X5.1544Y-6.5156
X5.1549Y-4.5721
X5.1549Y-4.6236
X5.1564Y-1.9346
X5.1574Y-2.3018
X5.1604Y-2.7456
X5.1637Y-5.6265
X5.1639Y-5.6576
X5.1649Y-4.9541
X5.1649Y-4.9846
X5.1651Y-6.7087
X5.1652Y-5.9794
X5.1654Y-5.0221
X5.1654Y-5.0615
X5.1654Y-5.1009
X5.1654Y-5.1402
X5.1654Y-5.1796
X5.1654Y-5.219
X5.1654Y-5.2583
X5.1654Y-5.2977
X5.1654Y-5.3371
X5.1654Y-5.3764
X5.1654Y-5.4158
X5.1654Y-5.4546
X5.1654Y-5.4939
X5.1654Y-5.5333
X5.1692Y-5.7855
X5.1695Y-5.8131
X5.1701Y-4.0342
X5.1724Y-1.3716
X5.1731Y-6.817
X5.1744Y-4.0872
X5.1763Y-2.5417
X5.1764Y-2.8991
X5.1791Y-2.8587
X5.1804Y-1.8136
X5.1804Y-1.9001
X5.1809Y-2.0036
X5.1809Y-2.0901
X5.1846Y-2.574
X5.185Y-2.6118
X5.1852Y-5.9644
X5.1854Y-2.6831
X5.1861Y-2.648
X5.1865Y-2.7228
X5.1877Y-2.7661
X5.1901Y-3.8892
X5.1944Y-1.5836
X5.197Y-2.3384
X5.1976Y-4.8092
X5.2002Y-3.1482
X5.2003Y-2.9377
X5.2003Y-2.9377
X5.2003Y-3.0188
X5.2003Y-3.0585
X5.2007Y-2.9794
X5.2009Y-3.1027
X5.2044Y-1.9106
X5.2046Y-6.7082
X5.2094Y-1.4516
X5.2125Y-6.817
X5.2149Y-4.0382
X5.2149Y-4.0632
X5.2156Y-2.3874
X5.2188Y-3.7692
X5.2189Y-2.1781
X5.2189Y-2.3171
X5.2212Y-3.9148
X5.2224Y-3.7216
X5.2234Y-6.6776
X5.2243Y-6.5512
X5.2264Y-1.9546
X5.2294Y-3.6816
X5.2344Y-1.4366
X5.2354Y-1.4636
X5.2354Y-1.8136
X5.2354Y-1.9001
X5.2359Y-2.0036
X5.2359Y-2.0901
X5.2378Y-2.4344
X5.2401Y-4.1492
X5.2444Y-6.6066
X5.246Y-2.8587
X5.2464Y-1.3671
X5.2476Y-3.7967
X5.2482Y-4.9587
X5.2482Y-4.9981
X5.2482Y-5.0375
X5.2482Y-5.0768
X5.2482Y-5.1162
X5.2482Y-5.1556
X5.2482Y-5.1949
X5.2482Y-5.2343
X5.2482Y-5.2737
X5.2482Y-5.3131
X5.2482Y-5.3524
X5.2482Y-5.3918
X5.2482Y-5.4312
X5.2482Y-5.4705
X5.2482Y-5.5099
X5.2482Y-5.628
X5.2482Y-5.6674
X5.2482Y-5.7068
X5.2482Y-5.7461
X5.2482Y-5.7855
X5.2518Y-6.817
X5.2578Y-4.0482
X5.2589Y-5.9761
X5.2597Y-5.8249
X5.2597Y-5.8642
X5.2598Y-4.2121
X5.2598Y-4.2515
X5.2598Y-4.2908
X5.2598Y-4.3271
X5.2598Y-4.4452
X5.2598Y-4.5239
X5.2598Y-4.5633
X5.2598Y-4.6027
X5.2599Y-4.6471
X5.2614Y-6.5156
X5.2619Y-6.5516
X5.2624Y-6.6756
X5.2656Y-6.028
X5.2659Y-2.0141
X5.266Y-3.9632
X5.2662Y-4.0842
X5.2668Y-4.1228
X5.2684Y-3.3741
X5.2686Y-3.621
X5.2688Y-2.4689
X5.2689Y-5.8941
X5.2727Y-4.9767
X5.2727Y-5.0161
X5.2727Y-5.0555
X5.2727Y-5.0948
X5.2727Y-5.1342
X5.2727Y-5.1736
X5.2727Y-5.2129
X5.2727Y-5.2523
X5.2727Y-5.2917
X5.2727Y-5.3311
X5.2727Y-5.3704
X5.2727Y-5.4098
X5.2727Y-5.4492
X5.2727Y-5.4885
X5.2727Y-5.6475
X5.2727Y-5.6869
X5.2727Y-5.7263
X5.2727Y-5.7656
X5.2732Y-5.527
X5.2751Y-3.8217
X5.2859Y-1.5231
X5.287Y-2.3126
X5.2904Y-1.8136
X5.2904Y-1.9001
X5.2904Y-6.8176
X5.2909Y-2.0036
X5.2909Y-2.0901
X5.2914Y-3.2266
X5.2932Y-2.939
X5.2932Y-3.0157
X5.2932Y-3.0551
X5.2934Y-2.6846
X5.2942Y-2.9755
X5.295Y-2.579
X5.295Y-2.6457
X5.2954Y-2.611
X5.3066Y-2.878
X5.3074Y-3.6396
X5.3148Y-6.2698
X5.3148Y-6.3012
X5.3154Y-3.4206
X5.3168Y-2.6684
X5.318Y-2.702
X5.3182Y-1.7682
X5.3184Y-2.6295
X5.3188Y-2.5948
X5.3212Y-3.3916
X5.322Y-2.4002
X5.3224Y-2.3126
X5.3226Y-2.4326
X5.323Y-1.5386
X5.3234Y-4.756
X5.3259Y-6.8186
X5.3264Y-2.8306
X5.3274Y-1.4546
X5.3279Y-1.3691
X5.3294Y-2.1526
X5.3314Y-1.5886
X5.3334Y-4.9061
X5.3434Y-4.4156
X5.3454Y-1.8136
X5.3454Y-1.9001
X5.3459Y-2.0036
X5.3459Y-2.0901
X5.3459Y-2.1826
X5.3502Y-3.3038
X5.351Y-3.433
X5.3514Y-6.6521
X5.3564Y-1.4616
X5.3569Y-5.6643
X5.3569Y-5.7036
X5.3569Y-5.743
X5.3569Y-5.7824
X5.3569Y-5.8217
X5.3569Y-5.8611
X5.3569Y-5.9005
X5.3572Y-3.6356
X5.3574Y-5.98
X5.3579Y-4.943
X5.3579Y-4.9784
X5.3579Y-5.0138
X5.3579Y-5.0532
X5.3579Y-5.0926
X5.3579Y-5.132
X5.3579Y-5.1713
X5.3579Y-5.2107
X5.3579Y-5.2501
X5.3579Y-5.2894
X5.3579Y-5.3288
X5.3579Y-5.3682
X5.3579Y-5.4075
X5.3579Y-5.4469
X5.3579Y-5.4863
X5.3579Y-5.5257
X5.3601Y-6.8192
X5.3628Y-4.756
X5.3634Y-1.6886
X5.3644Y-4.5976
X5.3654Y-4.4731
X5.3654Y-4.5221
X5.3654Y-4.6231
X5.3659Y-4.3721
X5.3659Y-4.4231
X5.3674Y-4.6696
X5.3752Y-3.329
X5.3764Y-6.6385
X5.3794Y-1.7146
X5.3802Y-3.0063
X5.3802Y-3.0449
X5.3814Y-3.0799
X5.3814Y-5.6443
X5.3814Y-5.6836
X5.3814Y-5.723
X5.3814Y-5.7624
X5.3814Y-5.8017
X5.3814Y-5.8411
X5.3814Y-5.8805
X5.3816Y-3.8376
X5.3816Y-3.8726
X5.3818Y-3.1142
X5.3819Y-3.4484
X5.3819Y-4.9579
X5.3819Y-4.9933
X5.3819Y-5.0327
X5.3819Y-5.0721
X5.3819Y-5.1115
X5.3819Y-5.1508
X5.3819Y-5.1902
X5.3819Y-5.2296
X5.3819Y-5.2689
X5.3819Y-5.3083
X5.3819Y-5.3477
X5.3819Y-5.387
X5.3819Y-5.4264
X5.3819Y-5.4658
X5.3819Y-5.5052
X5.3824Y-1.4036
X5.3824Y-5.9186
X5.3824Y-5.9981
X5.3824Y-6.0375
X5.3824Y-6.0768
X5.3824Y-6.1162
X5.3824Y-6.1556
X5.3824Y-6.1949
X5.3824Y-6.2343
X5.3824Y-6.2737
X5.3824Y-6.3131
X5.3824Y-6.3524
X5.3824Y-6.5532
X5.3824Y-6.5926
X5.3824Y-6.6713
X5.3826Y-3.7136
X5.3826Y-3.7486
X5.3826Y-3.784
X5.3826Y-3.908
X5.3826Y-3.943
X5.3826Y-3.9784
X5.3826Y-4.0138
X5.3826Y-4.0532
X5.3826Y-4.0926
X5.3826Y-4.132
X5.3826Y-4.1713
X5.3826Y-4.2107
X5.3826Y-4.2501
X5.3827Y-6.3925
X5.3827Y-6.4319
X5.3827Y-6.4712
X5.3827Y-6.5106
X5.3874Y-6.8316
X5.3924Y-3.6256
X5.3982Y-4.2786
X5.4004Y-1.8136
X5.4004Y-1.9001
X5.4009Y-2.0036
X5.4009Y-2.0901
X5.4021Y-4.756
X5.4022Y-2.4005
X5.4028Y-2.2904
X5.4029Y-2.7974
X5.4034Y-4.3106
X5.4034Y-4.7026
X5.4036Y-2.3299
X5.4044Y-4.6721
X5.4054Y-4.3756
X5.4069Y-3.4734
X5.4094Y-6.8466
X5.4196Y-3.1902
X5.4228Y-2.4252
X5.4243Y-2.2646
X5.4251Y-2.5449
X5.4284Y-1.6106
X5.4303Y-4.8623
X5.4304Y-1.4526
X5.4319Y-3.4984
X5.4334Y-3.3868
X5.4354Y-6.8476
X5.4396Y-4.7565
X5.4404Y-1.3996
X5.4459Y-2.5764
X5.4479Y-2.0036
X5.4497Y-2.1188
X5.4519Y-2.822
X5.4537Y-4.8931
X5.4543Y-2.774
X5.4554Y-1.8136
X5.4554Y-1.9001
X5.4558Y-4.5843
X5.4558Y-4.6237
X5.4558Y-4.663
X5.4564Y-4.3479
X5.4564Y-4.4267
X5.4564Y-4.466
X5.4564Y-4.5054
X5.4564Y-4.5448
X5.4569Y-3.5234
X5.459Y-2.7976
X5.4594Y-3.413
X5.4644Y-6.8456
X5.4658Y-3.0427
X5.4662Y-3.006
X5.4662Y-4.9563
X5.4662Y-4.9956
X5.4662Y-5.035
X5.4662Y-5.0803
X5.4662Y-5.1196
X5.4662Y-5.159
X5.4662Y-5.1984
X5.4662Y-5.3119
X5.4662Y-5.3559
X5.4662Y-5.3952
X5.4662Y-5.4346
X5.4662Y-5.474
X5.4662Y-5.5133
X5.4669Y-3.8401
X5.4672Y-3.705
X5.4674Y-3.8761
X5.4674Y-3.9116
X5.4679Y-3.9496
X5.4679Y-6.0236
X5.4682Y-5.6315
X5.4682Y-5.6708
X5.4682Y-5.7102
X5.4682Y-5.7496
X5.4682Y-5.907
X5.4682Y-5.9858
X5.4682Y-6.1044
X5.4682Y-6.1438
X5.4682Y-6.1831
X5.4682Y-6.422
X5.4682Y-6.4614
X5.4682Y-6.5007
X5.4682Y-6.5409
X5.4682Y-6.5803
X5.4682Y-6.659
X5.4684Y-6.6226
X5.4686Y-4.0299
X5.4686Y-4.0692
X5.4686Y-4.1086
X5.4686Y-4.1441
X5.4686Y-4.1795
X5.4689Y-3.9891
X5.4692Y-6.2914
X5.4692Y-6.3308
X5.4692Y-6.3701
X5.4694Y-2.2641
X5.47Y-4.2165
X5.4704Y-3.2417
X5.4728Y-3.1894
X5.4735Y-3.2154
X5.4744Y-1.4536
X5.4754Y-6.0661
X5.4779Y-5.8646
X5.4784Y-2.1426
X5.4796Y-3.3254
X5.4808Y-5.5807
X5.4809Y-5.7921
X5.4814Y-2.6539
X5.4854Y-2.8465
X5.4873Y-3.4415
X5.4877Y-2.8701
X5.4889Y-2.822
X5.4891Y-3.8588
X5.4891Y-3.8943
X5.4891Y-3.9297
X5.4891Y-3.9691
X5.4891Y-4.0085
X5.4891Y-4.0501
X5.4891Y-4.0895
X5.4897Y-4.9753
X5.4897Y-5.0146
X5.4897Y-5.054
X5.4897Y-5.0993
X5.4897Y-5.1386
X5.4897Y-5.178
X5.4902Y-5.2924
X5.4902Y-5.3364
X5.4902Y-5.3757
X5.4902Y-5.4151
X5.4902Y-5.4545
X5.4902Y-5.4938
X5.4909Y-4.2416
X5.4939Y-6.2401
X5.494Y-2.7969
X5.4948Y-2.0478
X5.4959Y-6.1636
X5.4964Y-2.4807
X5.4984Y-3.5907
X5.4987Y-4.8106
X5.5004Y-3.7996
X5.5004Y-6.0436
X5.5036Y-3.3522
X5.5076Y-4.1235
X5.509Y-3.0788
X5.5104Y-1.8136
X5.5104Y-1.9001
X5.5154Y-4.2701
X5.523Y-2.1866
X5.5244Y-1.4526
X5.5284Y-1.5876
X5.5289Y-6.2401
X5.529Y-1.5062
X5.535Y-3.3794
X5.5354Y-2.3396
X5.5357Y-6.4405
X5.5382Y-2.0856
X5.5403Y-4.5733
X5.5403Y-4.6127
X5.5403Y-4.652
X5.5409Y-2.8469
X5.5409Y-4.2971
X5.5409Y-4.3369
X5.5409Y-4.455
X5.5409Y-4.4944
X5.5409Y-4.5338
X5.5416Y-4.155
X5.5419Y-4.7046
X5.5444Y-6.0401
X5.5457Y-3.4789
X5.5504Y-1.4326
X5.5504Y-1.4616
X5.5504Y-1.9878
X5.5508Y-2.03
X5.5524Y-3.7481
X5.5535Y-2.4717
X5.5535Y-2.5831
X5.5535Y-2.6232
X5.5539Y-2.6681
X5.5539Y-2.7246
X5.5544Y-2.2486
X5.5604Y-2.5011
X5.5639Y-2.3051
X5.5654Y-1.8136
X5.5654Y-1.9001
X5.5659Y-3.3945
X5.5664Y-4.8186
X5.5694Y-5.8286
X5.5737Y-6.4424
X5.5741Y-3.8709
X5.5741Y-3.9063
X5.5741Y-3.9417
X5.5741Y-3.9811
X5.5741Y-4.0205
X5.5746Y-4.0605
X5.5764Y-4.3176
X5.5774Y-1.5566
X5.5774Y-3.7221
X5.5796Y-2.0912
X5.5806Y-2.0512
X5.5822Y-2.4011
X5.5864Y-4.7316
X5.5864Y-4.9556
X5.5866Y-4.9933
X5.5876Y-2.136
X5.5889Y-5.0686
X5.5899Y-4.8036
X5.5906Y-3.1472
X5.591Y-3.1079
X5.5914Y-3.0295
X5.5914Y-3.0685
X5.5914Y-2.9891
X5.5939Y-2.3036
X5.5948Y-3.4951
X5.6004Y-5.4976
X5.6026Y-1.5434
X5.6034Y-5.2546
X5.6034Y-5.2866
X5.6074Y-2.2832
X5.6077Y-3.6898
X5.6101Y-4.8466
X5.6124Y-6.0456
X5.6136Y-3.1282
X5.6139Y-3.1686
X5.614Y-3.0889
X5.6144Y-3.0105
X5.6144Y-3.0495
X5.6204Y-1.8136
X5.6204Y-1.9001
X5.6219Y-4.9568
X5.6294Y-1.3366
X5.6294Y-5.9516
X5.6304Y-2.1661
X5.6327Y-3.6648
X5.6342Y-6.3255
X5.6344Y-6.3531
X5.6464Y-2.0416
X5.6466Y-2.0846
X5.648Y-2.7462
X5.6484Y-6.0066
X5.6495Y-4.8466
X5.6554Y-1.6186
X5.6569Y-2.9266
X5.6574Y-2.177
X5.6576Y-1.6516
X5.6576Y-2.1386
X5.6577Y-3.6398
X5.6612Y-3.8611
X5.6613Y-4.9568
X5.6676Y-2.476
X5.6696Y-4.0169
X5.6724Y-1.9001
X5.6743Y-2.6874
X5.6744Y-2.7286
X5.6755Y-2.6413
X5.6796Y-2.3058
X5.6804Y-1.4346
X5.6824Y-2.847
X5.6826Y-1.5226
X5.6854Y-5.1006
X5.6854Y-5.1406
X5.6854Y-5.1726
X5.6859Y-1.4901
X5.6864Y-5.2126
X5.6906Y-3.7249
X5.6908Y-4.8466
X5.692Y-4.4177
X5.6946Y-1.6886
X5.6948Y-3.3787
X5.6954Y-1.8096
X5.6974Y-5.7537
X5.6979Y-6.8061
X5.6984Y-3.2781
X5.6985Y-3.1099
X5.6989Y-2.9971
X5.6989Y-3.0315
X5.6989Y-3.0705
X5.6992Y-3.1484
X5.7007Y-4.9568
X5.7014Y-2.6976
X5.7032Y-4.3761
X5.7044Y-1.9056
X5.7066Y-2.6591
X5.707Y-2.6276
X5.7074Y-1.4666
X5.7074Y-2.5976
X5.7079Y-2.941
X5.7084Y-1.5176
X5.7094Y-3.9809
X5.7114Y-5.4996
X5.7122Y-4.2117
X5.713Y-4.1637
X5.7164Y-2.1812
X5.717Y-2.1474
X5.7204Y-1.8166
X5.7208Y-2.8466
X5.7224Y-3.2961
X5.7225Y-3.1279
X5.7229Y-3.0151
X5.7229Y-3.0495
X5.7229Y-3.0885
X5.7234Y-6.1226
X5.7239Y-6.8061
X5.7244Y-3.1652
X5.725Y-2.2226
X5.7252Y-4.0621
X5.7254Y-1.9626
X5.7273Y-3.6268
X5.7286Y-2.802
X5.7296Y-1.7246
X5.7301Y-4.8466
X5.7319Y-6.5506
X5.7334Y-1.7916
X5.7419Y-4.9568
X5.7434Y-5.2986
X5.7444Y-2.3705
X5.7482Y-2.3026
X5.7554Y-6.0366
X5.7594Y-2.1456
X5.7604Y-2.1786
X5.7635Y-2.6583
X5.7654Y-3.7867
X5.766Y-3.5112
X5.7695Y-4.8466
X5.7756Y-2.3276
X5.7764Y-5.2486
X5.7813Y-4.9568
X5.7824Y-1.4366
X5.7854Y-5.3466
X5.7854Y-5.3846
X5.7854Y-5.4226
X5.7866Y-1.6266
X5.7868Y-4.0161
X5.7884Y-1.7926
X5.79Y-4.3439
X5.7904Y-1.7596
X5.7914Y-1.5146
X5.7929Y-1.3396
X5.7959Y-2.1455
X5.7969Y-2.1785
X5.7972Y-3.4956
X5.7974Y-2.0092
X5.7984Y-6.1776
X5.8Y-3.9399
X5.8034Y-1.9626
X5.8048Y-3.278
X5.8052Y-3.1752
X5.8056Y-3.0426
X5.8056Y-3.345
X5.8061Y-2.9731
X5.8067Y-3.1227
X5.8071Y-3.0815
X5.8074Y-3.4098
X5.8074Y-4.2095
X5.8074Y-5.3026
X5.8074Y-4.309
X5.8089Y-4.8466
X5.8104Y-4.0027
X5.8104Y-4.1173
X5.8106Y-1.8086
X5.8159Y-1.9186
X5.8164Y-1.7806
X5.8174Y-2.8465
X5.8184Y-3.5166
X5.8194Y-2.4906
X5.8196Y-1.6596
X5.8196Y-2.0266
X5.8196Y-2.7094
X5.8204Y-2.5504
X5.8207Y-4.9568
X5.8212Y-4.0933
X5.8228Y-2.239
X5.8229Y-1.9841
X5.8234Y-2.6162
X5.8296Y-2.7564
X5.8354Y-1.5571
X5.8409Y-3.1021
X5.8449Y-2.1625
X5.8466Y-3.41
X5.8474Y-6.0346
X5.8482Y-4.8466
X5.8494Y-5.0626
X5.8506Y-1.6926
X5.8516Y-2.7944
X5.8528Y-4.4413
X5.854Y-3.6889
X5.8554Y-1.3676
X5.8554Y-1.4406
X5.8554Y-5.0026
X5.8594Y-5.9986
X5.86Y-4.9568
X5.8632Y-4.3427
X5.8692Y-4.2699
X5.8716Y-4.2265
X5.8736Y-4.0095
X5.8756Y-2.8662
X5.8814Y-6.0346
X5.8829Y-2.1635
X5.8846Y-4.0701
X5.8849Y-1.3396
X5.8864Y-1.4446
X5.8876Y-4.8466
X5.8892Y-3.4088
X5.8894Y-5.4466
X5.8914Y-5.2726
X5.8924Y-3.6891
X5.8934Y-2.4056
X5.8984Y-4.3039
X5.8984Y-5.0826
X5.8994Y-4.9568
X5.8996Y-2.6226
X5.9Y-2.5828
X5.9008Y-2.541
X5.9014Y-2.6996
X5.9044Y-1.6166
X5.9054Y-2.4846
X5.9098Y-3.8395
X5.9124Y-4.7086
X5.9124Y-4.7386
X5.9134Y-1.9021
X5.9144Y-2.3706
X5.9154Y-3.0531
X5.9174Y-3.0216
X5.9174Y-3.2016
X5.9224Y-3.1526
X5.9254Y-2.0736
X5.9276Y-1.8226
X5.9276Y-1.8756
X5.9282Y-3.8947
X5.9302Y-3.4098
X5.9314Y-2.3486
X5.9334Y-2.1646
X5.9336Y-2.9046
X5.9344Y-2.1986
X5.9364Y-2.1326
X5.9374Y-5.8946
X5.9384Y-3.9996
X5.9394Y-1.9242
X5.9434Y-3.7826
X5.9444Y-4.7326
X5.9464Y-5.0696
X5.9464Y-5.5586
X5.9474Y-5.5196
X5.9478Y-2.7416
X5.9488Y-2.7854
X5.9494Y-4.1026
X5.9499Y-4.5881
X5.9524Y-3.0656
X5.9544Y-2.5726
X5.9548Y-4.1673
X5.9554Y-5.4606
X5.9592Y-4.0701
X5.9599Y-3.8061
X5.9629Y-4.0261
X5.9639Y-4.5176
X5.9644Y-3.7026
X5.965Y-4.2387
X5.9664Y-5.1226
X5.9674Y-2.2846
X5.9694Y-5.2566
X5.9714Y-2.8208
X5.9719Y-2.5656
X5.9724Y-3.1986
X5.9724Y-3.3026
X5.9734Y-5.3486
X5.9747Y-3.4088
X5.9754Y-5.8956
X5.9756Y-2.9052
X5.9764Y-4.0006
X5.9794Y-3.4928
X5.9814Y-3.7836
X5.9822Y-2.4046
X5.9824Y-4.7336
X5.9844Y-5.0706
X5.9844Y-5.5596
X5.9874Y-5.3786
X5.9879Y-4.5891
X5.989Y-4.2051
X5.9914Y-1.4176
X5.9944Y-3.1526
X5.9974Y-5.4226
X5.9979Y-3.8071
X5.9992Y-4.1755
X6.0009Y-1.8925
X6.0009Y-4.0271
X6.0019Y-4.5186
X6.0027Y-1.6669
X6.0034Y-5.3486
X6.0039Y-2.5666
X6.0069Y-4.2876
X6.0084Y-1.5966
X6.0104Y-3.2516
X6.0134Y-2.8214
X6.0136Y-4.0941
X6.0157Y-3.4098
X6.0164Y-3.1026
X6.0176Y-1.4823
X6.0189Y-3.7046
X6.0194Y-5.8946
X6.0204Y-3.9996
X6.0214Y-3.6116
X6.0236Y-2.9056
X6.0238Y-3.4922
X6.0254Y-3.7826
X6.0254Y-5.2346
X6.0264Y-2.4866
X6.0264Y-4.7326
X6.0284Y-5.0696
X6.0284Y-5.5586
X6.0342Y-1.4214
X6.0361Y-3.1242
X6.0365Y-3.0849
X6.0369Y-3.0065
X6.0369Y-3.0455
X6.0374Y-5.4226
X6.0379Y-6.5356
X6.0449Y-4.2886
X6.0454Y-5.2106
X6.0474Y-2.9276
X6.0494Y-5.5246
X6.0554Y-5.2406
X6.0556Y-1.4484
X6.0569Y-3.7056
X6.0574Y-5.8956
X6.0584Y-4.0006
X6.0614Y-2.8218
X6.0634Y-3.7836
X6.0644Y-4.7336
X6.0656Y-1.4094
X6.0658Y-4.1649
X6.0664Y-5.0706
X6.0664Y-5.5596
X6.0679Y-2.3156
X6.0682Y-1.3314
X6.0684Y-2.3446
X6.0684Y-3.4882
X6.0759Y-2.5466
X6.0806Y-3.5611
X6.0812Y-3.6109
X6.0812Y-3.6703
X6.0844Y-1.9556
X6.0894Y-2.4876
X6.0914Y-1.6356
X6.0914Y-1.8596
X6.0919Y-1.9056
X6.0964Y-1.5211
X6.0999Y-1.3531
X6.1009Y-3.7046
X6.1014Y-2.0246
X6.1022Y-3.4556
X6.1044Y-1.7156
X6.1074Y-2.1376
X6.1144Y-4.1101
X6.1194Y-1.8011
X6.125Y-4.2151
X6.1254Y-1.7746
T3
X2.5842Y-1.9866
X2.755Y-1.9665
X2.8169Y-1.9685
X3.1452Y-1.9744
X3.2436Y-1.9693
X3.835Y-2.0728
X3.9897Y-2.1972
X4.4826Y-2.2327
X5.3669Y-2.3226
X5.4212Y-2.6201
X5.5031Y-3.0413
X5.5983Y-3.2843
X5.7027Y-3.4409
X5.783Y-2.5839
T6
X1.8224Y-1.7066
X2.0224Y-1.7066
X2.3314Y-1.7046
X2.5314Y-1.7046
X2.7314Y-1.7046
X2.9314Y-1.7046
X3.1314Y-1.7046
X3.3314Y-1.7046
X3.5314Y-1.7066
X3.7314Y-1.7046
T7
X1.5572Y-1.4149
X1.5572Y-6.8244
X2.8081Y-2.8359
X2.8081Y-4.6359
X2.8081Y-6.4359
X4.2895Y-1.4149
X4.9081Y-2.8359
X4.9081Y-4.6359
X4.9081Y-6.4359
T4
X5.8682Y-6.5612G85X5.9666Y-6.5612
G05
X6.0454Y-6.7994G85X6.0454Y-6.7009
G05
T5
X5.7993Y-6.7994G85X5.7993Y-6.7009
G05
T0
M30
