M48
;DRILL file {KiCad 4.0.7} date Tue Jun  4 16:27:18 2019
;FORMAT={-:-/ absolute / inch / decimal}
FMAT,2
INCH,TZ
T1C0.039
%
G90
G05
M72
T1
X1.4471Y-2.1209
X1.4471Y-4.9004
X1.4478Y-2.025
X1.4478Y-2.0722
X1.4478Y-2.1687
X1.4478Y-4.8065
X1.4478Y-4.8537
X1.4478Y-4.9482
X2.4557Y-6.9324
X2.5029Y-6.9324
X2.5496Y-6.9329
X2.5954Y-6.9324
X3.2687Y-1.3045
X3.3156Y-1.3039
X3.3631Y-1.3045
X3.4104Y-1.3045
X4.6564Y-6.9324
X4.7037Y-6.9324
X4.7501Y-6.9329
X4.7962Y-6.9324
X6.1407Y-3.6313
X6.1416Y-3.5844
X6.1427Y-1.395
X6.1427Y-1.4423
X6.1427Y-1.4895
X6.1427Y-3.5368
X6.1427Y-3.6785
X6.1431Y-1.3479
T0
M30
