%FSLAX45Y45*%
G04 Gerber Fmt 4.5, Leading zero omitted, Abs format (unit mm)*
G04 Created by KiCad (PCBNEW 4.0.7) date Fri Sep 20 17:05:37 2019*
%MOMM*%
%LPD*%
G01*
G04 APERTURE LIST*
%ADD10C,0.127000*%
%ADD11C,0.150000*%
%ADD12C,0.200000*%
%ADD13C,0.300000*%
G04 APERTURE END LIST*
D10*
D11*
X14805000Y-18640398D02*
X16433378Y-18640398D01*
D12*
X21295048Y-4258678D02*
X7185348Y-4258678D01*
X21295048Y-22109798D02*
X21295048Y-4258678D01*
X7185348Y-22109798D02*
X21295048Y-22109798D01*
X7185348Y-4259948D02*
X7185348Y-22109798D01*
X7186618Y-4259948D02*
X7185348Y-4259948D01*
X7684458Y-4759058D02*
X7684458Y-10923638D01*
X12380918Y-4759058D02*
X7684458Y-4759058D01*
X7684458Y-16496398D02*
X7684458Y-11284318D01*
X7684458Y-21609418D02*
X9429438Y-21609418D01*
X7684458Y-16857078D02*
X7684458Y-21609418D01*
X18890938Y-21609418D02*
X9792658Y-21609418D01*
X20795938Y-21609418D02*
X20795938Y-15274658D01*
X19254158Y-21609418D02*
X20795938Y-21609418D01*
X20795938Y-7354938D02*
X20795938Y-14913978D01*
X20795938Y-4759058D02*
X20795938Y-6994258D01*
X18735998Y-4759058D02*
X20795938Y-4759058D01*
X12744138Y-4759058D02*
X18375318Y-4759058D01*
X7986718Y-16857078D02*
X7684458Y-16857078D01*
X7979098Y-16496398D02*
X7684458Y-16496398D01*
X7984178Y-11284318D02*
X7684458Y-11284318D01*
X7984178Y-10923638D02*
X7684458Y-10923638D01*
X12744138Y-5058778D02*
X12744138Y-4759058D01*
X12380918Y-5058778D02*
X12380918Y-4759058D01*
X18375318Y-5053698D02*
X18375318Y-4759058D01*
X18735998Y-5056238D02*
X18735998Y-4759058D01*
X20496218Y-6994258D02*
X20795938Y-6994258D01*
X20496218Y-7354938D02*
X20795938Y-7354938D01*
X20496218Y-14913978D02*
X20795938Y-14913978D01*
X20496218Y-15274658D02*
X20795938Y-15274658D01*
X19254158Y-21309698D02*
X19254158Y-21609418D01*
X18890938Y-21307158D02*
X18890938Y-21609418D01*
X9792658Y-21307158D02*
X9792658Y-21609418D01*
X9429438Y-21307158D02*
X9429438Y-21609418D01*
X8319458Y-21309698D02*
X9431978Y-21309698D01*
X18893478Y-21309698D02*
X9790118Y-21309698D01*
X20163478Y-21309698D02*
X19251618Y-21309698D01*
X20496218Y-15277198D02*
X20496218Y-20974418D01*
X20496218Y-7354938D02*
X20496218Y-14913978D01*
X20496218Y-6994258D02*
X20498758Y-6994258D01*
X20496218Y-5394058D02*
X20496218Y-6994258D01*
X18735998Y-5058778D02*
X20160938Y-5058778D01*
X18375318Y-5058778D02*
X18375318Y-5056238D01*
X12744138Y-5058778D02*
X18375318Y-5058778D01*
X12383458Y-5058778D02*
X12383458Y-5056238D01*
X8266118Y-5058778D02*
X12383458Y-5058778D01*
X7984178Y-10923638D02*
X7984178Y-5335638D01*
X7984178Y-16496398D02*
X7984178Y-11284318D01*
X7984178Y-20971878D02*
X7984178Y-16851998D01*
X7984178Y-20974418D02*
G75*
G03X8319458Y-21309698I335280J0D01*
G01*
X8263578Y-5058778D02*
G75*
G03X7984178Y-5338178I0J-279400D01*
G01*
D11*
X7984178Y-5338178D02*
X7984178Y-5335638D01*
D12*
X20160938Y-21309698D02*
G75*
G03X20496218Y-20974418I0J335280D01*
G01*
X20496218Y-5394058D02*
G75*
G03X20160938Y-5058778I-335280J0D01*
G01*
D11*
X14805000Y-19622398D02*
X14805000Y-18641398D01*
X16433378Y-19622398D02*
X14805000Y-19622398D01*
X16433378Y-18640398D02*
X16433378Y-19622398D01*
D12*
X7933928Y-11114558D02*
X8033928Y-11214558D01*
X8033928Y-11114558D02*
X7933928Y-11214558D01*
X7933928Y-11234558D02*
X8033928Y-11334558D01*
X8033928Y-11234558D02*
X7933928Y-11334558D01*
X7935198Y-16687318D02*
X8035198Y-16787318D01*
X8035198Y-16687318D02*
X7935198Y-16787318D01*
X7935198Y-16807318D02*
X8035198Y-16907318D01*
X8035198Y-16807318D02*
X7935198Y-16907318D01*
X7935448Y-10873638D02*
X8035448Y-10973638D01*
X8035448Y-10873638D02*
X7935448Y-10973638D01*
X7935448Y-10994288D02*
X8035448Y-11094288D01*
X8035448Y-10994288D02*
X7935448Y-11094288D01*
X7936718Y-16446398D02*
X8036718Y-16546398D01*
X8036718Y-16446398D02*
X7936718Y-16546398D01*
X7936718Y-16567048D02*
X8036718Y-16667048D01*
X8036718Y-16567048D02*
X7936718Y-16667048D01*
X9380468Y-21256908D02*
X9480468Y-21356908D01*
X9480468Y-21256908D02*
X9380468Y-21356908D01*
X9500468Y-21256908D02*
X9600468Y-21356908D01*
X9600468Y-21256908D02*
X9500468Y-21356908D01*
X9620738Y-21258428D02*
X9720738Y-21358428D01*
X9720738Y-21258428D02*
X9620738Y-21358428D01*
X9741388Y-21258428D02*
X9841388Y-21358428D01*
X9841388Y-21258428D02*
X9741388Y-21358428D01*
X12331948Y-5007258D02*
X12431948Y-5107258D01*
X12431948Y-5007258D02*
X12331948Y-5107258D01*
X12451948Y-5007258D02*
X12551948Y-5107258D01*
X12551948Y-5007258D02*
X12451948Y-5107258D01*
X12572218Y-5008778D02*
X12672218Y-5108778D01*
X12672218Y-5008778D02*
X12572218Y-5108778D01*
X12692868Y-5008778D02*
X12792868Y-5108778D01*
X12792868Y-5008778D02*
X12692868Y-5108778D01*
X18325078Y-5004718D02*
X18425078Y-5104718D01*
X18425078Y-5004718D02*
X18325078Y-5104718D01*
X18445078Y-5004718D02*
X18545078Y-5104718D01*
X18545078Y-5004718D02*
X18445078Y-5104718D01*
X18565348Y-5006238D02*
X18665348Y-5106238D01*
X18665348Y-5006238D02*
X18565348Y-5106238D01*
X18685998Y-5006238D02*
X18785998Y-5106238D01*
X18785998Y-5006238D02*
X18685998Y-5106238D01*
X18841968Y-21258178D02*
X18941968Y-21358178D01*
X18941968Y-21258178D02*
X18841968Y-21358178D01*
X18961968Y-21258178D02*
X19061968Y-21358178D01*
X19061968Y-21258178D02*
X18961968Y-21358178D01*
X19082238Y-21259698D02*
X19182238Y-21359698D01*
X19182238Y-21259698D02*
X19082238Y-21359698D01*
X19202888Y-21259698D02*
X19302888Y-21359698D01*
X19302888Y-21259698D02*
X19202888Y-21359698D01*
X20445968Y-7185178D02*
X20545968Y-7285178D01*
X20545968Y-7185178D02*
X20445968Y-7285178D01*
X20445968Y-7305178D02*
X20545968Y-7405178D01*
X20545968Y-7305178D02*
X20445968Y-7405178D01*
X20445968Y-15104898D02*
X20545968Y-15204898D01*
X20545968Y-15104898D02*
X20445968Y-15204898D01*
X20445968Y-15224898D02*
X20545968Y-15324898D01*
X20545968Y-15224898D02*
X20445968Y-15324898D01*
X20447488Y-6944258D02*
X20547488Y-7044258D01*
X20547488Y-6944258D02*
X20447488Y-7044258D01*
X20447488Y-7064908D02*
X20547488Y-7164908D01*
X20547488Y-7064908D02*
X20447488Y-7164908D01*
X20447488Y-14863978D02*
X20547488Y-14963978D01*
X20547488Y-14863978D02*
X20447488Y-14963978D01*
X20447488Y-14984628D02*
X20547488Y-15084628D01*
X20547488Y-14984628D02*
X20447488Y-15084628D01*
D13*
X7446776Y-22585512D02*
X7446776Y-22285512D01*
X7518205Y-22285512D01*
X7561062Y-22299798D01*
X7589634Y-22328370D01*
X7603919Y-22356941D01*
X7618205Y-22414084D01*
X7618205Y-22456941D01*
X7603919Y-22514084D01*
X7589634Y-22542655D01*
X7561062Y-22571227D01*
X7518205Y-22585512D01*
X7446776Y-22585512D01*
X7746776Y-22585512D02*
X7746776Y-22385512D01*
X7746776Y-22442655D02*
X7761062Y-22414084D01*
X7775348Y-22399798D01*
X7803919Y-22385512D01*
X7832491Y-22385512D01*
X7932491Y-22585512D02*
X7932491Y-22385512D01*
X7932491Y-22285512D02*
X7918205Y-22299798D01*
X7932491Y-22314084D01*
X7946776Y-22299798D01*
X7932491Y-22285512D01*
X7932491Y-22314084D01*
X8118205Y-22585512D02*
X8089634Y-22571227D01*
X8075348Y-22542655D01*
X8075348Y-22285512D01*
X8275348Y-22585512D02*
X8246776Y-22571227D01*
X8232491Y-22542655D01*
X8232491Y-22285512D01*
X8618205Y-22585512D02*
X8618205Y-22285512D01*
X8718205Y-22499798D01*
X8818205Y-22285512D01*
X8818205Y-22585512D01*
X9089634Y-22585512D02*
X9089634Y-22428369D01*
X9075348Y-22399798D01*
X9046777Y-22385512D01*
X8989634Y-22385512D01*
X8961062Y-22399798D01*
X9089634Y-22571227D02*
X9061062Y-22585512D01*
X8989634Y-22585512D01*
X8961062Y-22571227D01*
X8946777Y-22542655D01*
X8946777Y-22514084D01*
X8961062Y-22485512D01*
X8989634Y-22471227D01*
X9061062Y-22471227D01*
X9089634Y-22456941D01*
X9232491Y-22385512D02*
X9232491Y-22685512D01*
X9232491Y-22399798D02*
X9261062Y-22385512D01*
X9318205Y-22385512D01*
X9346777Y-22399798D01*
X9361062Y-22414084D01*
X9375348Y-22442655D01*
X9375348Y-22528369D01*
X9361062Y-22556941D01*
X9346777Y-22571227D01*
X9318205Y-22585512D01*
X9261062Y-22585512D01*
X9232491Y-22571227D01*
X9503919Y-22556941D02*
X9518205Y-22571227D01*
X9503919Y-22585512D01*
X9489634Y-22571227D01*
X9503919Y-22556941D01*
X9503919Y-22585512D01*
X9503919Y-22399798D02*
X9518205Y-22414084D01*
X9503919Y-22428369D01*
X9489634Y-22414084D01*
X9503919Y-22399798D01*
X9503919Y-22428369D01*
X7075348Y-23029798D02*
X7175348Y-23129798D01*
X7175348Y-23029798D02*
X7075348Y-23129798D01*
X7603919Y-23215512D02*
X7432491Y-23215512D01*
X7518205Y-23215512D02*
X7518205Y-22915512D01*
X7489634Y-22958369D01*
X7461062Y-22986941D01*
X7432491Y-23001227D01*
X7732491Y-23186941D02*
X7746776Y-23201227D01*
X7732491Y-23215512D01*
X7718205Y-23201227D01*
X7732491Y-23186941D01*
X7732491Y-23215512D01*
X7932491Y-22915512D02*
X7961062Y-22915512D01*
X7989634Y-22929798D01*
X8003919Y-22944084D01*
X8018205Y-22972655D01*
X8032491Y-23029798D01*
X8032491Y-23101227D01*
X8018205Y-23158369D01*
X8003919Y-23186941D01*
X7989634Y-23201227D01*
X7961062Y-23215512D01*
X7932491Y-23215512D01*
X7903919Y-23201227D01*
X7889634Y-23186941D01*
X7875348Y-23158369D01*
X7861062Y-23101227D01*
X7861062Y-23029798D01*
X7875348Y-22972655D01*
X7889634Y-22944084D01*
X7903919Y-22929798D01*
X7932491Y-22915512D01*
X8218205Y-22915512D02*
X8246776Y-22915512D01*
X8275348Y-22929798D01*
X8289634Y-22944084D01*
X8303919Y-22972655D01*
X8318205Y-23029798D01*
X8318205Y-23101227D01*
X8303919Y-23158369D01*
X8289634Y-23186941D01*
X8275348Y-23201227D01*
X8246776Y-23215512D01*
X8218205Y-23215512D01*
X8189634Y-23201227D01*
X8175348Y-23186941D01*
X8161062Y-23158369D01*
X8146776Y-23101227D01*
X8146776Y-23029798D01*
X8161062Y-22972655D01*
X8175348Y-22944084D01*
X8189634Y-22929798D01*
X8218205Y-22915512D01*
X8446777Y-23215512D02*
X8446777Y-23015512D01*
X8446777Y-23044084D02*
X8461062Y-23029798D01*
X8489634Y-23015512D01*
X8532491Y-23015512D01*
X8561062Y-23029798D01*
X8575348Y-23058369D01*
X8575348Y-23215512D01*
X8575348Y-23058369D02*
X8589634Y-23029798D01*
X8618205Y-23015512D01*
X8661062Y-23015512D01*
X8689634Y-23029798D01*
X8703919Y-23058369D01*
X8703919Y-23215512D01*
X8846777Y-23215512D02*
X8846777Y-23015512D01*
X8846777Y-23044084D02*
X8861062Y-23029798D01*
X8889634Y-23015512D01*
X8932491Y-23015512D01*
X8961062Y-23029798D01*
X8975348Y-23058369D01*
X8975348Y-23215512D01*
X8975348Y-23058369D02*
X8989634Y-23029798D01*
X9018205Y-23015512D01*
X9061062Y-23015512D01*
X9089634Y-23029798D01*
X9103919Y-23058369D01*
X9103919Y-23215512D01*
X9689634Y-22901227D02*
X9432491Y-23286941D01*
X10075348Y-22915512D02*
X10103919Y-22915512D01*
X10132491Y-22929798D01*
X10146776Y-22944084D01*
X10161062Y-22972655D01*
X10175348Y-23029798D01*
X10175348Y-23101227D01*
X10161062Y-23158369D01*
X10146776Y-23186941D01*
X10132491Y-23201227D01*
X10103919Y-23215512D01*
X10075348Y-23215512D01*
X10046776Y-23201227D01*
X10032491Y-23186941D01*
X10018205Y-23158369D01*
X10003919Y-23101227D01*
X10003919Y-23029798D01*
X10018205Y-22972655D01*
X10032491Y-22944084D01*
X10046776Y-22929798D01*
X10075348Y-22915512D01*
X10303919Y-23186941D02*
X10318205Y-23201227D01*
X10303919Y-23215512D01*
X10289634Y-23201227D01*
X10303919Y-23186941D01*
X10303919Y-23215512D01*
X10503919Y-22915512D02*
X10532491Y-22915512D01*
X10561062Y-22929798D01*
X10575348Y-22944084D01*
X10589634Y-22972655D01*
X10603919Y-23029798D01*
X10603919Y-23101227D01*
X10589634Y-23158369D01*
X10575348Y-23186941D01*
X10561062Y-23201227D01*
X10532491Y-23215512D01*
X10503919Y-23215512D01*
X10475348Y-23201227D01*
X10461062Y-23186941D01*
X10446776Y-23158369D01*
X10432491Y-23101227D01*
X10432491Y-23029798D01*
X10446776Y-22972655D01*
X10461062Y-22944084D01*
X10475348Y-22929798D01*
X10503919Y-22915512D01*
X10703919Y-22915512D02*
X10889634Y-22915512D01*
X10789634Y-23029798D01*
X10832491Y-23029798D01*
X10861062Y-23044084D01*
X10875348Y-23058369D01*
X10889634Y-23086941D01*
X10889634Y-23158369D01*
X10875348Y-23186941D01*
X10861062Y-23201227D01*
X10832491Y-23215512D01*
X10746776Y-23215512D01*
X10718205Y-23201227D01*
X10703919Y-23186941D01*
X11032491Y-23215512D02*
X11089634Y-23215512D01*
X11118205Y-23201227D01*
X11132491Y-23186941D01*
X11161062Y-23144084D01*
X11175348Y-23086941D01*
X11175348Y-22972655D01*
X11161062Y-22944084D01*
X11146776Y-22929798D01*
X11118205Y-22915512D01*
X11061062Y-22915512D01*
X11032491Y-22929798D01*
X11018205Y-22944084D01*
X11003919Y-22972655D01*
X11003919Y-23044084D01*
X11018205Y-23072655D01*
X11032491Y-23086941D01*
X11061062Y-23101227D01*
X11118205Y-23101227D01*
X11146776Y-23086941D01*
X11161062Y-23072655D01*
X11175348Y-23044084D01*
X11289634Y-22915512D02*
X11289634Y-22972655D01*
X11403919Y-22915512D02*
X11403919Y-22972655D01*
X11846776Y-23329798D02*
X11832491Y-23315512D01*
X11803919Y-23272655D01*
X11789633Y-23244084D01*
X11775348Y-23201227D01*
X11761062Y-23129798D01*
X11761062Y-23072655D01*
X11775348Y-23001227D01*
X11789633Y-22958369D01*
X11803919Y-22929798D01*
X11832491Y-22886941D01*
X11846776Y-22872655D01*
X11932491Y-22915512D02*
X12118205Y-22915512D01*
X12018205Y-23029798D01*
X12061062Y-23029798D01*
X12089633Y-23044084D01*
X12103919Y-23058369D01*
X12118205Y-23086941D01*
X12118205Y-23158369D01*
X12103919Y-23186941D01*
X12089633Y-23201227D01*
X12061062Y-23215512D01*
X11975348Y-23215512D01*
X11946776Y-23201227D01*
X11932491Y-23186941D01*
X12232491Y-22944084D02*
X12246776Y-22929798D01*
X12275348Y-22915512D01*
X12346776Y-22915512D01*
X12375348Y-22929798D01*
X12389633Y-22944084D01*
X12403919Y-22972655D01*
X12403919Y-23001227D01*
X12389633Y-23044084D01*
X12218205Y-23215512D01*
X12403919Y-23215512D01*
X12761062Y-23215512D02*
X12761062Y-22915512D01*
X12889633Y-23215512D02*
X12889633Y-23058369D01*
X12875348Y-23029798D01*
X12846776Y-23015512D01*
X12803919Y-23015512D01*
X12775348Y-23029798D01*
X12761062Y-23044084D01*
X13075348Y-23215512D02*
X13046776Y-23201227D01*
X13032491Y-23186941D01*
X13018205Y-23158369D01*
X13018205Y-23072655D01*
X13032491Y-23044084D01*
X13046776Y-23029798D01*
X13075348Y-23015512D01*
X13118205Y-23015512D01*
X13146776Y-23029798D01*
X13161062Y-23044084D01*
X13175348Y-23072655D01*
X13175348Y-23158369D01*
X13161062Y-23186941D01*
X13146776Y-23201227D01*
X13118205Y-23215512D01*
X13075348Y-23215512D01*
X13346776Y-23215512D02*
X13318205Y-23201227D01*
X13303919Y-23172655D01*
X13303919Y-22915512D01*
X13575348Y-23201227D02*
X13546776Y-23215512D01*
X13489634Y-23215512D01*
X13461062Y-23201227D01*
X13446776Y-23172655D01*
X13446776Y-23058369D01*
X13461062Y-23029798D01*
X13489634Y-23015512D01*
X13546776Y-23015512D01*
X13575348Y-23029798D01*
X13589634Y-23058369D01*
X13589634Y-23086941D01*
X13446776Y-23115512D01*
X13703919Y-23201227D02*
X13732491Y-23215512D01*
X13789634Y-23215512D01*
X13818205Y-23201227D01*
X13832491Y-23172655D01*
X13832491Y-23158369D01*
X13818205Y-23129798D01*
X13789634Y-23115512D01*
X13746776Y-23115512D01*
X13718205Y-23101227D01*
X13703919Y-23072655D01*
X13703919Y-23058369D01*
X13718205Y-23029798D01*
X13746776Y-23015512D01*
X13789634Y-23015512D01*
X13818205Y-23029798D01*
X13932491Y-23329798D02*
X13946776Y-23315512D01*
X13975348Y-23272655D01*
X13989634Y-23244084D01*
X14003919Y-23201227D01*
X14018205Y-23129798D01*
X14018205Y-23072655D01*
X14003919Y-23001227D01*
X13989634Y-22958369D01*
X13975348Y-22929798D01*
X13946776Y-22886941D01*
X13932491Y-22872655D01*
X14475348Y-23329798D02*
X14461062Y-23315512D01*
X14432491Y-23272655D01*
X14418205Y-23244084D01*
X14403919Y-23201227D01*
X14389634Y-23129798D01*
X14389634Y-23072655D01*
X14403919Y-23001227D01*
X14418205Y-22958369D01*
X14432491Y-22929798D01*
X14461062Y-22886941D01*
X14475348Y-22872655D01*
X14589634Y-23015512D02*
X14589634Y-23215512D01*
X14589634Y-23044084D02*
X14603919Y-23029798D01*
X14632491Y-23015512D01*
X14675348Y-23015512D01*
X14703919Y-23029798D01*
X14718205Y-23058369D01*
X14718205Y-23215512D01*
X14903919Y-23215512D02*
X14875348Y-23201227D01*
X14861062Y-23186941D01*
X14846776Y-23158369D01*
X14846776Y-23072655D01*
X14861062Y-23044084D01*
X14875348Y-23029798D01*
X14903919Y-23015512D01*
X14946776Y-23015512D01*
X14975348Y-23029798D01*
X14989634Y-23044084D01*
X15003919Y-23072655D01*
X15003919Y-23158369D01*
X14989634Y-23186941D01*
X14975348Y-23201227D01*
X14946776Y-23215512D01*
X14903919Y-23215512D01*
X15089634Y-23015512D02*
X15203919Y-23015512D01*
X15132491Y-22915512D02*
X15132491Y-23172655D01*
X15146776Y-23201227D01*
X15175348Y-23215512D01*
X15203919Y-23215512D01*
X15532491Y-23015512D02*
X15532491Y-23315512D01*
X15532491Y-23029798D02*
X15561062Y-23015512D01*
X15618205Y-23015512D01*
X15646776Y-23029798D01*
X15661062Y-23044084D01*
X15675348Y-23072655D01*
X15675348Y-23158369D01*
X15661062Y-23186941D01*
X15646776Y-23201227D01*
X15618205Y-23215512D01*
X15561062Y-23215512D01*
X15532491Y-23201227D01*
X15846776Y-23215512D02*
X15818205Y-23201227D01*
X15803919Y-23172655D01*
X15803919Y-22915512D01*
X16089634Y-23215512D02*
X16089634Y-23058369D01*
X16075348Y-23029798D01*
X16046777Y-23015512D01*
X15989634Y-23015512D01*
X15961062Y-23029798D01*
X16089634Y-23201227D02*
X16061062Y-23215512D01*
X15989634Y-23215512D01*
X15961062Y-23201227D01*
X15946777Y-23172655D01*
X15946777Y-23144084D01*
X15961062Y-23115512D01*
X15989634Y-23101227D01*
X16061062Y-23101227D01*
X16089634Y-23086941D01*
X16189634Y-23015512D02*
X16303919Y-23015512D01*
X16232491Y-22915512D02*
X16232491Y-23172655D01*
X16246777Y-23201227D01*
X16275348Y-23215512D01*
X16303919Y-23215512D01*
X16518205Y-23201227D02*
X16489634Y-23215512D01*
X16432491Y-23215512D01*
X16403919Y-23201227D01*
X16389634Y-23172655D01*
X16389634Y-23058369D01*
X16403919Y-23029798D01*
X16432491Y-23015512D01*
X16489634Y-23015512D01*
X16518205Y-23029798D01*
X16532491Y-23058369D01*
X16532491Y-23086941D01*
X16389634Y-23115512D01*
X16789634Y-23215512D02*
X16789634Y-22915512D01*
X16789634Y-23201227D02*
X16761062Y-23215512D01*
X16703919Y-23215512D01*
X16675348Y-23201227D01*
X16661062Y-23186941D01*
X16646777Y-23158369D01*
X16646777Y-23072655D01*
X16661062Y-23044084D01*
X16675348Y-23029798D01*
X16703919Y-23015512D01*
X16761062Y-23015512D01*
X16789634Y-23029798D01*
X16903920Y-23329798D02*
X16918205Y-23315512D01*
X16946777Y-23272655D01*
X16961062Y-23244084D01*
X16975348Y-23201227D01*
X16989634Y-23129798D01*
X16989634Y-23072655D01*
X16975348Y-23001227D01*
X16961062Y-22958369D01*
X16946777Y-22929798D01*
X16918205Y-22886941D01*
X16903920Y-22872655D01*
M02*
