M48
;DRILL file {KiCad 4.0.7} date Fri Sep 20 17:05:37 2019
;FORMAT={-:-/ absolute / inch / decimal}
FMAT,2
INCH,TZ
T1C0.012
T2C0.020
T3C0.039
T4C0.049
T5C0.055
T6C0.118
T7C0.125
%
G90
G05
M72
T1
X3.1616Y-7.737
X3.1682Y-4.0094
X3.1722Y-6.7546
X3.173Y-3.904
X3.1758Y-4.1192
X3.1824Y-4.8306
X3.1872Y-8.0366
X3.1888Y-7.1714
X3.1908Y-6.9944
X3.1914Y-7.0936
X3.1974Y-2.6626
X3.1974Y-2.6924
X3.198Y-2.6344
X3.2302Y-6.9234
X3.2436Y-5.0076
X3.2454Y-4.6944
X3.2466Y-4.4274
X3.2598Y-4.8558
X3.2606Y-2.4081
X3.2608Y-4.3142
X3.2624Y-2.51
X3.2644Y-7.0508
X3.267Y-7.867
X3.2694Y-2.2298
X3.2728Y-3.896
X3.2782Y-5.0108
X3.2782Y-7.7388
X3.2878Y-5.0498
X3.2879Y-2.484
X3.288Y-7.0976
X3.2882Y-7.1214
X3.2884Y-7.171
X3.2942Y-2.2974
X3.2964Y-6.935
X3.3062Y-3.2422
X3.307Y-4.3614
X3.309Y-5.6522
X3.309Y-7.8416
X3.3102Y-7.945
X3.3162Y-2.2698
X3.328Y-4.0934
X3.3372Y-7.903
X3.3444Y-3.8396
X3.3484Y-4.2776
X3.3492Y-4.0778
X3.3494Y-2.6406
X3.35Y-4.1746
X3.3502Y-4.1502
X3.3508Y-5.0854
X3.3584Y-6.3602
X3.3596Y-5.2562
X3.3616Y-5.0248
X3.3648Y-7.6432
X3.3688Y-4.0406
X3.3694Y-2.3056
X3.3718Y-2.4588
X3.3724Y-7.8792
X3.3736Y-6.474
X3.3786Y-2.0192
X3.3792Y-2.097
X3.3824Y-2.2427
X3.384Y-2.211
X3.3864Y-3.5296
X3.3864Y-3.6076
X3.3882Y-7.719
X3.3912Y-3.365
X3.3916Y-2.7206
X3.3946Y-7.0218
X3.3948Y-7.0718
X3.3956Y-7.1218
X3.397Y-7.1712
X3.3974Y-7.2216
X3.3984Y-6.5232
X3.3986Y-6.2318
X3.3998Y-7.8336
X3.4045Y-2.0435
X3.408Y-7.9014
X3.4139Y-2.5773
X3.4146Y-2.459
X3.4156Y-3.415
X3.4156Y-4.7486
X3.4158Y-2.7494
X3.431Y-2.111
X3.432Y-2.1818
X3.4346Y-3.5294
X3.4346Y-3.6074
X3.4424Y-2.448
X3.4444Y-4.0436
X3.4446Y-6.884
X3.445Y-5.0838
X3.4454Y-7.3263
X3.4456Y-2.0682
X3.4686Y-3.8686
X3.471Y-2.636
X3.4714Y-5.2578
X3.4736Y-7.1218
X3.4822Y-7.3124
X3.4834Y-7.3513
X3.484Y-2.0166
X3.4882Y-5.02
X3.4884Y-5.1008
X3.4884Y-6.105
X3.4914Y-3.478
X3.4918Y-3.6314
X3.4962Y-5.7182
X3.4974Y-2.057
X3.498Y-2.188
X3.4986Y-2.51
X3.4997Y-4.1025
X3.5012Y-3.244
X3.5032Y-2.7774
X3.507Y-5.9226
X3.5074Y-4.8572
X3.514Y-2.373
X3.5158Y-2.6208
X3.517Y-7.939
X3.519Y-2.2556
X3.5244Y-2.0696
X3.5276Y-7.7624
X3.5304Y-3.0587
X3.5308Y-2.9812
X3.531Y-4.2532
X3.5314Y-2.3222
X3.54Y-4.5414
X3.55Y-2.7752
X3.551Y-2.3874
X3.5514Y-3.378
X3.5516Y-3.5309
X3.5516Y-3.6094
X3.5528Y-4.1
X3.5536Y-8.2643
X3.5598Y-2.2626
X3.563Y-7.6394
X3.568Y-7.8158
X3.5714Y-2.0436
X3.5768Y-4.7946
X3.5854Y-2.1866
X3.5854Y-3.0587
X3.5858Y-2.9812
X3.5867Y-8.2645
X3.5885Y-3.6649
X3.5918Y-7.8692
X3.5942Y-7.7654
X3.5986Y-7.981
X3.6012Y-3.381
X3.606Y-2.3022
X3.609Y-6.7036
X3.6134Y-2.7006
X3.6144Y-2.7764
X3.6148Y-7.6388
X3.6162Y-4.3616
X3.6174Y-2.4556
X3.6174Y-7.522
X3.6184Y-4.4568
X3.619Y-7.9654
X3.6275Y-3.7039
X3.6341Y-3.5749
X3.6344Y-2.3548
X3.6346Y-3.4894
X3.6364Y-2.8856
X3.6414Y-2.2306
X3.6432Y-2.2628
X3.6454Y-8.2092
X3.6495Y-3.6039
X3.6592Y-3.848
X3.6593Y-3.9459
X3.6602Y-3.8732
X3.6608Y-4.0434
X3.6616Y-2.889
X3.6616Y-4.1192
X3.6622Y-3.482
X3.6643Y-2.7994
X3.666Y-2.2208
X3.6664Y-7.3098
X3.6665Y-3.7429
X3.6689Y-7.8672
X3.6702Y-6.152
X3.6709Y-7.8112
X3.6714Y-7.8412
X3.6739Y-6.8397
X3.6774Y-2.4212
X3.6796Y-2.1332
X3.68Y-2.676
X3.6828Y-4.165
X3.6846Y-6.3674
X3.6885Y-3.6429
X3.6891Y-3.5749
X3.6896Y-3.4894
X3.6936Y-3.0352
X3.6953Y-3.9771
X3.7043Y-4.1061
X3.7055Y-3.7819
X3.7074Y-7.89
X3.7075Y-4.3205
X3.7102Y-2.7
X3.717Y-3.4762
X3.7234Y-3.3396
X3.7262Y-3.005
X3.7275Y-3.6819
X3.7318Y-2.4484
X3.7374Y-2.2444
X3.7403Y-2.7958
X3.7416Y-2.6564
X3.7441Y-3.5749
X3.7445Y-3.8209
X3.7446Y-3.4894
X3.7456Y-4.2834
X3.75Y-2.2072
X3.7512Y-3.2836
X3.76Y-2.4024
X3.7618Y-2.3108
X3.7628Y-2.2282
X3.7665Y-3.7209
X3.7714Y-2.9336
X3.7775Y-3.8665
X3.7775Y-3.9215
X3.7775Y-3.9765
X3.7775Y-4.0315
X3.7775Y-4.0865
X3.7775Y-4.1415
X3.7775Y-4.1965
X3.7775Y-4.2515
X3.7775Y-4.3065
X3.7775Y-4.3615
X3.7775Y-4.4165
X3.7775Y-4.4715
X3.7775Y-4.5265
X3.7775Y-4.5815
X3.7775Y-4.6365
X3.7775Y-4.6915
X3.7775Y-4.7465
X3.7775Y-4.8015
X3.7775Y-4.8565
X3.7775Y-4.9115
X3.7775Y-4.9665
X3.7775Y-5.0215
X3.7775Y-5.0765
X3.7775Y-5.1315
X3.7775Y-5.1865
X3.7775Y-5.2415
X3.7775Y-5.2965
X3.7775Y-5.3515
X3.7775Y-5.4065
X3.7775Y-5.4615
X3.7775Y-5.5165
X3.7775Y-5.5715
X3.7775Y-5.6265
X3.7775Y-5.6815
X3.7775Y-5.7365
X3.7775Y-5.7915
X3.7775Y-5.8465
X3.7775Y-5.9015
X3.7775Y-5.9565
X3.7775Y-6.0115
X3.7775Y-6.0665
X3.7775Y-6.1215
X3.7775Y-6.1765
X3.7775Y-6.2315
X3.7775Y-6.2865
X3.7775Y-6.3415
X3.7775Y-6.3965
X3.7775Y-6.4515
X3.7775Y-6.5065
X3.7775Y-6.5615
X3.7775Y-6.6165
X3.7775Y-6.6715
X3.7775Y-6.7265
X3.7775Y-6.7815
X3.7775Y-6.8365
X3.7824Y-2.8982
X3.7856Y-2.8411
X3.7858Y-2.4906
X3.7874Y-5.4892
X3.7934Y-2.454
X3.7991Y-3.5749
X3.7996Y-3.4894
X3.8026Y-7.7876
X3.804Y-3.0458
X3.8042Y-3.345
X3.8055Y-3.7599
X3.8056Y-7.8934
X3.8149Y-6.8857
X3.8174Y-2.0256
X3.8249Y-2.8685
X3.8266Y-3.2826
X3.8272Y-3.62
X3.8298Y-2.8374
X3.844Y-7.2594
X3.8448Y-2.141
X3.8484Y-3.208
X3.853Y-2.8628
X3.8541Y-3.5749
X3.8546Y-3.4894
X3.858Y-2.9654
X3.8584Y-2.9348
X3.8584Y-2.9896
X3.8592Y-6.9612
X3.8614Y-3.7026
X3.8624Y-3.7562
X3.8624Y-3.8112
X3.863Y-3.867
X3.863Y-3.922
X3.863Y-4.032
X3.863Y-4.087
X3.863Y-4.142
X3.863Y-4.197
X3.863Y-4.417
X3.863Y-4.472
X3.863Y-4.527
X3.863Y-4.582
X3.863Y-4.637
X3.863Y-4.692
X3.863Y-4.747
X3.863Y-4.802
X3.863Y-4.857
X3.863Y-4.912
X3.863Y-4.967
X3.863Y-5.022
X3.863Y-5.077
X3.863Y-5.132
X3.863Y-5.187
X3.863Y-5.242
X3.863Y-5.297
X3.863Y-5.352
X3.863Y-5.407
X3.863Y-5.462
X3.863Y-5.517
X3.863Y-5.572
X3.863Y-5.627
X3.863Y-5.682
X3.863Y-5.737
X3.863Y-5.792
X3.863Y-5.847
X3.863Y-5.902
X3.863Y-5.957
X3.863Y-6.012
X3.863Y-6.067
X3.863Y-6.122
X3.863Y-6.177
X3.863Y-6.232
X3.863Y-6.287
X3.863Y-6.342
X3.863Y-6.397
X3.863Y-6.452
X3.863Y-6.507
X3.863Y-6.562
X3.863Y-6.617
X3.863Y-6.672
X3.863Y-6.727
X3.863Y-6.782
X3.8631Y-3.9782
X3.8654Y-4.3006
X3.8786Y-2.36
X3.8794Y-7.0467
X3.8794Y-7.155
X3.8794Y-2.5182
X3.8824Y-3.2834
X3.8828Y-7.9279
X3.8854Y-2.0586
X3.8866Y-2.21
X3.887Y-2.242
X3.8896Y-6.7034
X3.8906Y-2.2786
X3.8971Y-6.8282
X3.8974Y-2.3356
X3.8985Y-6.9133
X3.8989Y-3.6616
X3.9055Y-4.3014
X3.9084Y-2.0268
X3.9091Y-3.5749
X3.9096Y-3.4894
X3.9105Y-5.571
X3.9105Y-5.626
X3.9105Y-5.681
X3.9105Y-5.736
X3.9124Y-2.264
X3.9124Y-3.3446
X3.9127Y-4.9559
X3.9148Y-6.8054
X3.9152Y-7.871
X3.9159Y-7.9281
X3.9232Y-2.4728
X3.9238Y-2.062
X3.9252Y-2.5912
X3.9272Y-3.2834
X3.9276Y-3.189
X3.9389Y-4.3014
X3.9424Y-3.6186
X3.945Y-5.7624
X3.945Y-6.077
X3.9469Y-2.4872
X3.9493Y-6.3958
X3.9493Y-6.4508
X3.9493Y-6.5058
X3.9493Y-6.5608
X3.9493Y-6.6158
X3.9493Y-6.6708
X3.9498Y-4.583
X3.9498Y-4.638
X3.9498Y-4.693
X3.9498Y-4.748
X3.9498Y-4.803
X3.9498Y-4.858
X3.9512Y-3.758
X3.9512Y-3.813
X3.9512Y-3.868
X3.9512Y-3.923
X3.9512Y-3.978
X3.9512Y-4.033
X3.9512Y-4.088
X3.9512Y-4.143
X3.9514Y-2.088
X3.9517Y-4.9949
X3.9532Y-2.6664
X3.9574Y-2.462
X3.9574Y-6.9354
X3.9604Y-2.8405
X3.9641Y-3.5749
X3.9646Y-3.4894
X3.9729Y-6.9989
X3.9729Y-7.1089
X3.9729Y-7.1983
X3.9737Y-4.8949
X3.9741Y-3.7108
X3.9764Y-6.3429
X3.9779Y-5.9806
X3.9817Y-4.3182
X3.9836Y-4.2828
X3.9914Y-2.4238
X3.9966Y-5.0274
X4.0009Y-7.9616
X4.0013Y-7.2478
X4.003Y-2.778
X4.0042Y-2.0408
X4.0073Y-5.9808
X4.0094Y-3.052
X4.0099Y-2.9665
X4.0119Y-3.6731
X4.0127Y-4.9339
X4.0128Y-2.5897
X4.0154Y-6.3039
X4.0204Y-4.3185
X4.0217Y-3.4326
X4.0223Y-4.2831
X4.0275Y-3.325
X4.03Y-6.8322
X4.0348Y-6.4513
X4.0348Y-6.5063
X4.0348Y-6.5613
X4.0348Y-6.6163
X4.0348Y-6.6713
X4.0351Y-6.4072
X4.0494Y-3.5316
X4.0499Y-3.6346
X4.0544Y-6.2649
X4.0565Y-5.0273
X4.057Y-4.9418
X4.0578Y-3.3576
X4.0585Y-3.3938
X4.0601Y-4.3188
X4.0615Y-6.9999
X4.0615Y-7.0549
X4.0615Y-7.1099
X4.0615Y-7.1649
X4.0621Y-4.2834
X4.0644Y-3.052
X4.0649Y-2.9665
X4.0653Y-6.4523
X4.0669Y-3.9041
X4.0679Y-2.4087
X4.0698Y-2.3762
X4.0704Y-2.2502
X4.073Y-2.9034
X4.0754Y-3.1046
X4.0764Y-6.3649
X4.0834Y-2.4896
X4.0846Y-4.7528
X4.0914Y-2.056
X4.0934Y-6.2259
X4.0956Y-2.1234
X4.0981Y-5.121
X4.1094Y-3.5696
X4.1115Y-5.0273
X4.112Y-4.9418
X4.1132Y-2.1042
X4.1135Y-3.3938
X4.1142Y-2.4892
X4.1152Y-7.2032
X4.1154Y-6.3259
X4.1154Y-3.4788
X4.1156Y-7.0546
X4.117Y-2.3076
X4.119Y-2.1922
X4.1194Y-3.052
X4.1196Y-6.9336
X4.1199Y-2.9665
X4.1205Y-6.52
X4.1207Y-6.5618
X4.1207Y-6.6168
X4.1207Y-6.6718
X4.1207Y-6.7268
X4.1363Y-5.0825
X4.137Y-3.1512
X4.1414Y-4.7726
X4.1421Y-6.3903
X4.1464Y-6.806
X4.1464Y-6.8594
X4.15Y-2.5112
X4.1502Y-2.6254
X4.1506Y-2.3498
X4.1526Y-2.7718
X4.1544Y-6.2869
X4.1558Y-4.4816
X4.1561Y-4.5116
X4.1618Y-6.4885
X4.1629Y-6.9769
X4.1629Y-7.1038
X4.1665Y-5.0273
X4.167Y-4.9418
X4.1681Y-2.4635
X4.1685Y-3.3938
X4.1687Y-3.4789
X4.1728Y-2.4232
X4.1744Y-3.052
X4.1749Y-2.9665
X4.178Y-2.4965
X4.1802Y-2.7888
X4.191Y-5.1518
X4.1914Y-2.3486
X4.2006Y-3.5582
X4.206Y-5.6679
X4.2112Y-2.7938
X4.2113Y-6.1082
X4.2198Y-4.9412
X4.2224Y-6.0593
X4.2235Y-3.3938
X4.226Y-3.542
X4.2294Y-3.052
X4.2299Y-2.9665
X4.2305Y-5.1773
X4.2305Y-5.2323
X4.2305Y-5.293
X4.2309Y-5.1116
X4.2315Y-2.5845
X4.232Y-2.348
X4.232Y-4.8962
X4.2321Y-4.6695
X4.2321Y-4.7245
X4.2321Y-4.7795
X4.2321Y-4.8345
X4.2338Y-5.6411
X4.2344Y-2.4231
X4.2356Y-5.4586
X4.2375Y-3.4795
X4.2431Y-4.623
X4.2434Y-2.1076
X4.253Y-5.5961
X4.2533Y-5.3663
X4.2562Y-2.3528
X4.2563Y-7.2554
X4.2563Y-7.2954
X4.2563Y-7.3348
X4.273Y-7.9049
X4.2734Y-7.3779
X4.2734Y-7.4173
X4.2741Y-7.1412
X4.2768Y-2.634
X4.2772Y-5.6237
X4.278Y-3.4793
X4.278Y-7.0546
X4.2785Y-3.3938
X4.2799Y-2.832
X4.2804Y-5.5717
X4.282Y-6.1589
X4.2829Y-6.4885
X4.2831Y-6.0728
X4.2834Y-2.3471
X4.2842Y-4.9846
X4.2844Y-3.052
X4.2845Y-5.4584
X4.2849Y-2.9665
X4.2854Y-3.7674
X4.2913Y-7.2554
X4.2913Y-7.2954
X4.2913Y-7.3348
X4.3011Y-6.3886
X4.3025Y-2.4935
X4.303Y-2.575
X4.3032Y-2.1032
X4.3045Y-5.4139
X4.3048Y-5.5969
X4.305Y-6.7578
X4.3056Y-6.6834
X4.3061Y-7.9051
X4.308Y-5.5418
X4.3142Y-6.9074
X4.3179Y-5.2183
X4.3187Y-5.2923
X4.3187Y-4.5467
X4.3189Y-4.6705
X4.3189Y-4.7805
X4.3189Y-4.8355
X4.3242Y-6.2167
X4.3246Y-6.3191
X4.3246Y-6.3562
X4.325Y-6.2887
X4.3254Y-7.8708
X4.326Y-4.4426
X4.3264Y-5.148
X4.3269Y-6.0201
X4.3273Y-4.4828
X4.3277Y-4.3423
X4.3278Y-4.2607
X4.3281Y-4.2907
X4.3281Y-4.3734
X4.3287Y-6.6459
X4.3307Y-7.0317
X4.3307Y-7.1715
X4.3322Y-7.2298
X4.3324Y-5.567
X4.3324Y-4.8084
X4.333Y-3.4793
X4.3335Y-3.3938
X4.334Y-4.7072
X4.3344Y-4.7383
X4.3349Y-2.832
X4.3356Y-2.106
X4.338Y-4.6422
X4.338Y-4.9534
X4.338Y-4.9848
X4.3386Y-5.012
X4.3394Y-5.041
X4.3394Y-3.052
X4.3399Y-2.9665
X4.3405Y-2.4955
X4.3405Y-5.4963
X4.3424Y-2.754
X4.345Y-6.4769
X4.3561Y-6.3886
X4.3594Y-6.1583
X4.3599Y-6.0728
X4.3602Y-5.9471
X4.3628Y-5.3489
X4.3685Y-2.494
X4.3688Y-2.6394
X4.3697Y-4.8066
X4.3704Y-2.3471
X4.3704Y-2.1065
X4.3732Y-3.8233
X4.3743Y-7.1405
X4.3748Y-7.055
X4.388Y-3.4793
X4.3885Y-3.3938
X4.3899Y-2.832
X4.3902Y-5.136
X4.3907Y-5.0505
X4.394Y-2.575
X4.3944Y-3.052
X4.3949Y-2.9665
X4.395Y-2.4945
X4.3974Y-2.754
X4.4Y-2.6444
X4.4011Y-5.6599
X4.4021Y-6.4769
X4.403Y-5.7456
X4.4144Y-6.1583
X4.4145Y-5.338
X4.4148Y-4.5212
X4.4149Y-6.0728
X4.4159Y-2.8736
X4.4193Y-3.9339
X4.4208Y-4.6071
X4.4242Y-4.8921
X4.4247Y-4.8066
X4.4293Y-7.1405
X4.4298Y-6.3894
X4.4298Y-7.055
X4.4364Y-6.5856
X4.4384Y-7.4611
X4.441Y-2.7492
X4.4414Y-7.3541
X4.442Y-3.4956
X4.4452Y-5.136
X4.4457Y-5.0505
X4.4494Y-3.052
X4.4499Y-2.9665
X4.4523Y-6.4769
X4.4566Y-2.327
X4.4575Y-3.5444
X4.4575Y-3.5844
X4.4575Y-3.6238
X4.4688Y-6.969
X4.4689Y-2.8745
X4.4694Y-6.1583
X4.4699Y-6.0728
X4.4733Y-3.282
X4.4733Y-3.322
X4.4733Y-3.3614
X4.4739Y-2.3456
X4.4746Y-3.6669
X4.4746Y-3.7063
X4.475Y-4.5216
X4.476Y-2.5886
X4.4791Y-5.6089
X4.4792Y-4.8921
X4.4797Y-4.8066
X4.483Y-5.338
X4.4843Y-7.1405
X4.4848Y-7.055
X4.4858Y-4.6391
X4.4868Y-7.4611
X4.4898Y-7.3541
X4.4904Y-3.4045
X4.4904Y-3.4439
X4.4906Y-2.7428
X4.4916Y-5.7456
X4.4925Y-3.5444
X4.4925Y-3.5844
X4.4925Y-3.6238
X4.4939Y-6.3905
X4.495Y-5.4475
X4.495Y-2.422
X4.497Y-3.4956
X4.5Y-3.6396
X4.5002Y-5.136
X4.5007Y-5.0505
X4.5044Y-3.052
X4.5049Y-2.9665
X4.5054Y-2.5735
X4.5083Y-3.282
X4.5083Y-3.322
X4.5083Y-3.3614
X4.5146Y-2.0196
X4.5239Y-2.8745
X4.5244Y-6.1583
X4.5249Y-6.0728
X4.5261Y-5.6609
X4.5295Y-5.347
X4.53Y-4.5216
X4.5314Y-7.4611
X4.5314Y-2.746
X4.5342Y-4.8921
X4.5344Y-7.3541
X4.5347Y-4.8066
X4.535Y-2.494
X4.5393Y-7.1405
X4.5398Y-7.055
X4.552Y-3.4956
X4.5545Y-5.432
X4.555Y-3.6396
X4.5552Y-5.136
X4.5557Y-5.0505
X4.5594Y-3.052
X4.5599Y-2.9665
X4.5605Y-2.5735
X4.5625Y-5.7446
X4.5729Y-2.3491
X4.5754Y-3.7396
X4.5764Y-7.4611
X4.5789Y-2.8745
X4.5794Y-7.3541
X4.5794Y-6.1583
X4.5799Y-6.0728
X4.585Y-4.5216
X4.586Y-5.347
X4.5864Y-2.746
X4.589Y-2.494
X4.5892Y-4.8921
X4.5897Y-4.8066
X4.5949Y-4.607
X4.5984Y-2.2652
X4.601Y-5.2435
X4.607Y-3.4956
X4.6092Y-3.6456
X4.6102Y-5.136
X4.6107Y-5.0505
X4.611Y-5.4325
X4.6144Y-3.052
X4.6149Y-2.9665
X4.6154Y-2.5735
X4.6166Y-5.7987
X4.6169Y-2.3501
X4.6248Y-7.4611
X4.626Y-2.264
X4.6268Y-2.1038
X4.6278Y-7.3541
X4.6339Y-2.8745
X4.6344Y-6.1583
X4.6349Y-6.0728
X4.6405Y-6.5481
X4.6414Y-2.746
X4.6442Y-4.8921
X4.6447Y-4.8066
X4.6499Y-4.607
X4.651Y-5.2435
X4.656Y-5.7141
X4.6622Y-3.4956
X4.6642Y-3.6456
X4.6652Y-5.136
X4.6657Y-5.0505
X4.6672Y-3.7396
X4.6694Y-7.4611
X4.6694Y-3.052
X4.6699Y-2.9665
X4.6724Y-7.3541
X4.6739Y-7.9982
X4.6743Y-8.0461
X4.6744Y-8.0947
X4.6762Y-5.8552
X4.6764Y-2.3495
X4.6809Y-2.2695
X4.6814Y-5.9482
X4.682Y-5.4315
X4.6832Y-5.347
X4.6889Y-2.8745
X4.6894Y-6.1583
X4.6899Y-6.0728
X4.6992Y-4.8921
X4.6997Y-4.8066
X4.7049Y-4.607
X4.7053Y-7.9406
X4.7112Y-5.267
X4.7119Y-5.8837
X4.7155Y-2.498
X4.7172Y-3.4956
X4.7177Y-3.4101
X4.7178Y-7.4611
X4.7192Y-3.6456
X4.7194Y-2.4326
X4.7202Y-5.136
X4.7207Y-5.0505
X4.7208Y-7.3541
X4.7214Y-2.7392
X4.7219Y-5.779
X4.7222Y-3.7396
X4.724Y-2.1244
X4.7244Y-3.052
X4.7249Y-2.9665
X4.7275Y-2.5735
X4.7314Y-2.3495
X4.7322Y-6.5258
X4.7359Y-2.2695
X4.7364Y-5.9482
X4.737Y-2.622
X4.738Y-6.2698
X4.738Y-6.3098
X4.738Y-6.3492
X4.74Y-2.456
X4.7408Y-7.2276
X4.7444Y-6.1583
X4.7449Y-6.0728
X4.7469Y-2.8751
X4.7542Y-4.8921
X4.7543Y-7.9416
X4.7547Y-4.8066
X4.7551Y-6.3923
X4.7551Y-6.4317
X4.7557Y-4.0475
X4.7569Y-4.5216
X4.7616Y-2.1248
X4.7624Y-4.6065
X4.7624Y-2.4326
X4.7624Y-7.4611
X4.7654Y-7.3541
X4.7662Y-5.267
X4.7669Y-5.8837
X4.7674Y-5.7982
X4.7722Y-3.4956
X4.7727Y-3.4101
X4.773Y-6.2698
X4.773Y-6.3098
X4.773Y-6.3492
X4.7742Y-3.6456
X4.7752Y-5.136
X4.7757Y-5.0505
X4.7772Y-3.7396
X4.7794Y-3.052
X4.7799Y-2.9665
X4.78Y-2.4865
X4.7815Y-2.574
X4.7839Y-2.834
X4.7854Y-7.2276
X4.7864Y-2.3495
X4.7914Y-5.9482
X4.7915Y-5.4295
X4.7948Y-2.7424
X4.7994Y-6.1583
X4.7999Y-6.0728
X4.8068Y-7.9431
X4.8074Y-7.4611
X4.8092Y-4.8921
X4.8097Y-4.8066
X4.8104Y-7.3541
X4.8114Y-2.4326
X4.8119Y-4.6065
X4.8119Y-4.5216
X4.8184Y-2.7204
X4.8212Y-5.267
X4.8219Y-5.8837
X4.8224Y-5.7982
X4.8225Y-2.4955
X4.8272Y-3.4956
X4.8277Y-3.4101
X4.8292Y-3.6456
X4.8302Y-5.136
X4.8304Y-7.2276
X4.8307Y-5.0505
X4.8322Y-3.7396
X4.8344Y-3.052
X4.8349Y-2.9665
X4.8389Y-2.834
X4.8414Y-2.3495
X4.8464Y-5.9482
X4.8502Y-2.642
X4.853Y-6.3887
X4.8538Y-2.1728
X4.8544Y-6.1583
X4.8549Y-6.0728
X4.8558Y-7.4611
X4.8588Y-7.3541
X4.8639Y-4.6075
X4.8642Y-4.8921
X4.8647Y-4.8066
X4.8769Y-5.8837
X4.8774Y-5.7982
X4.8788Y-7.2276
X4.8822Y-3.4956
X4.8827Y-3.4101
X4.8842Y-3.6456
X4.8852Y-5.136
X4.8857Y-5.0505
X4.8884Y-8.0122
X4.8888Y-7.8138
X4.8888Y-8.0601
X4.8889Y-7.7712
X4.8889Y-8.1087
X4.8894Y-3.052
X4.8894Y-7.8677
X4.8899Y-2.9665
X4.8937Y-4.0021
X4.8939Y-2.834
X4.8947Y-3.9321
X4.8964Y-2.3495
X4.8982Y-5.746
X4.9014Y-5.9482
X4.9049Y-2.2936
X4.9078Y-7.3536
X4.908Y-6.3887
X4.9094Y-6.1583
X4.9099Y-6.0728
X4.9136Y-6.3175
X4.916Y-2.4216
X4.9171Y-4.2189
X4.9192Y-4.8921
X4.9197Y-4.8066
X4.921Y-4.6075
X4.924Y-2.5176
X4.9278Y-7.2271
X4.9296Y-2.5418
X4.9319Y-5.8837
X4.9324Y-5.7982
X4.9336Y-2.4486
X4.937Y-6.4737
X4.937Y-6.517
X4.9372Y-3.4956
X4.9372Y-3.7436
X4.9402Y-3.6396
X4.9402Y-5.136
X4.9407Y-5.0505
X4.9414Y-5.2401
X4.9414Y-5.2801
X4.9414Y-5.3195
X4.9422Y-6.9444
X4.9422Y-6.9844
X4.9422Y-7.0238
X4.943Y-3.3808
X4.9444Y-3.052
X4.9449Y-2.9665
X4.9487Y-4.0021
X4.9497Y-3.9321
X4.9504Y-7.9426
X4.9514Y-2.3495
X4.9524Y-7.3536
X4.956Y-2.6644
X4.9564Y-2.1911
X4.9564Y-5.9482
X4.9585Y-5.3626
X4.9585Y-5.402
X4.9593Y-7.0669
X4.9593Y-7.1063
X4.963Y-6.3887
X4.9644Y-6.1583
X4.9649Y-6.0728
X4.9704Y-4.2189
X4.9724Y-7.2271
X4.9742Y-4.8921
X4.9744Y-4.6135
X4.9747Y-4.8066
X4.9764Y-5.2401
X4.9764Y-5.2801
X4.9764Y-5.3195
X4.9772Y-6.9444
X4.9772Y-6.9844
X4.9772Y-7.0238
X4.9869Y-5.8837
X4.9874Y-5.7982
X4.9909Y-2.1136
X4.9922Y-3.4956
X4.9922Y-3.7436
X4.9927Y-3.4101
X4.9949Y-2.2476
X4.9952Y-3.6396
X4.9974Y-2.2856
X4.9978Y-2.7848
X4.9988Y-7.9426
X4.9994Y-3.052
X4.9999Y-2.9665
X5.0008Y-7.3536
X5.0037Y-4.0021
X5.0047Y-3.9321
X5.0086Y-6.3405
X5.0114Y-5.9482
X5.0171Y-5.1373
X5.0194Y-6.1583
X5.0199Y-6.0728
X5.0208Y-7.2271
X5.025Y-7.17
X5.0254Y-4.2189
X5.0289Y-2.1521
X5.0292Y-4.8921
X5.0294Y-4.6115
X5.0297Y-4.8066
X5.0329Y-2.3946
X5.0334Y-2.2851
X5.0334Y-2.3386
X5.0382Y-2.5133
X5.0419Y-5.8837
X5.0424Y-5.7982
X5.0434Y-7.9426
X5.0454Y-7.3536
X5.0472Y-3.4956
X5.0472Y-3.7436
X5.0477Y-3.4101
X5.0502Y-3.6396
X5.0544Y-3.052
X5.0549Y-2.9665
X5.063Y-6.4687
X5.0636Y-6.3405
X5.0664Y-5.9482
X5.0675Y-2.7763
X5.0714Y-2.1911
X5.072Y-3.2696
X5.0744Y-6.1583
X5.0749Y-6.0728
X5.0804Y-4.2189
X5.0842Y-4.8921
X5.0847Y-4.8066
X5.09Y-7.1475
X5.0904Y-7.3536
X5.0922Y-2.8404
X5.0935Y-5.3535
X5.095Y-7.8146
X5.095Y-5.157
X5.0954Y-7.7742
X5.0954Y-8.0072
X5.0958Y-8.0551
X5.0959Y-7.8707
X5.0959Y-8.1037
X5.0969Y-5.8837
X5.0974Y-5.7982
X5.1012Y-6.4816
X5.1022Y-3.4956
X5.1022Y-3.7436
X5.1027Y-3.4101
X5.1052Y-3.6396
X5.1094Y-3.052
X5.1099Y-2.9665
X5.1118Y-4.9376
X5.1118Y-4.9776
X5.1118Y-5.017
X5.1148Y-3.2888
X5.1174Y-2.8394
X5.1188Y-6.3887
X5.1194Y-2.2461
X5.1194Y-2.2846
X5.1199Y-2.3371
X5.1214Y-5.9482
X5.1289Y-5.0601
X5.1289Y-5.0995
X5.1294Y-6.1583
X5.1299Y-6.0728
X5.134Y-5.3545
X5.1354Y-4.2189
X5.1388Y-7.3536
X5.1389Y-4.4441
X5.1389Y-4.4838
X5.1389Y-4.6021
X5.1389Y-4.6418
X5.1392Y-4.8921
X5.1393Y-4.4047
X5.1393Y-4.5627
X5.1397Y-4.8066
X5.1434Y-2.9132
X5.1448Y-3.352
X5.1465Y-7.147
X5.1468Y-4.9376
X5.1468Y-4.9776
X5.1468Y-5.017
X5.149Y-3.2004
X5.1519Y-5.8837
X5.1524Y-5.7982
X5.1564Y-2.511
X5.1572Y-3.4956
X5.1577Y-3.4101
X5.1583Y-7.9436
X5.1586Y-2.629
X5.1602Y-3.6396
X5.1605Y-5.1575
X5.1644Y-3.052
X5.1649Y-2.9665
X5.1674Y-2.8206
X5.1678Y-2.1708
X5.1678Y-2.8446
X5.1738Y-6.3887
X5.1788Y-2.6092
X5.179Y-2.474
X5.1844Y-6.1583
X5.1849Y-6.0728
X5.1869Y-4.4441
X5.1869Y-4.4838
X5.1869Y-4.6021
X5.1869Y-4.6418
X5.1873Y-4.4047
X5.1873Y-4.5627
X5.1878Y-4.5241
X5.1904Y-4.2189
X5.1909Y-5.5612
X5.193Y-3.322
X5.194Y-7.167
X5.1942Y-4.8921
X5.1947Y-4.8066
X5.1986Y-2.6246
X5.2034Y-7.9446
X5.205Y-2.7914
X5.2069Y-5.8837
X5.2074Y-5.7982
X5.2122Y-3.4956
X5.2127Y-3.4101
X5.215Y-2.473
X5.215Y-2.6042
X5.2152Y-3.6396
X5.2158Y-2.841
X5.2194Y-3.052
X5.2199Y-2.9665
X5.2212Y-6.5156
X5.2238Y-4.5241
X5.2244Y-3.1346
X5.2249Y-4.4441
X5.2249Y-4.4838
X5.2249Y-4.6021
X5.2249Y-4.6418
X5.2253Y-4.4047
X5.2253Y-4.5627
X5.2265Y-5.3505
X5.2288Y-6.3887
X5.2406Y-3.4062
X5.2443Y-5.1386
X5.2464Y-5.4417
X5.2492Y-4.8921
X5.2494Y-7.9446
X5.2497Y-4.8066
X5.2504Y-7.1666
X5.2522Y-2.3288
X5.256Y-2.2334
X5.257Y-2.7738
X5.2598Y-4.5241
X5.2609Y-4.4441
X5.2609Y-4.4838
X5.2609Y-4.6021
X5.2609Y-4.6418
X5.2613Y-4.4047
X5.2613Y-4.5627
X5.267Y-5.3515
X5.2672Y-3.4956
X5.2676Y-2.8472
X5.2677Y-3.4101
X5.2702Y-3.6396
X5.2744Y-3.052
X5.2749Y-2.9665
X5.2838Y-6.3887
X5.2863Y-5.9866
X5.2863Y-6.0266
X5.2863Y-6.066
X5.2954Y-5.4892
X5.2964Y-2.5914
X5.2988Y-7.1666
X5.2993Y-5.1386
X5.3034Y-6.1091
X5.3034Y-6.1485
X5.3042Y-4.8921
X5.3047Y-3.7406
X5.3047Y-4.8066
X5.3059Y-7.7752
X5.3059Y-8.0077
X5.3063Y-8.0556
X5.3064Y-7.8106
X5.3064Y-7.8717
X5.3064Y-8.1042
X5.3089Y-4.4441
X5.3089Y-4.4838
X5.3089Y-4.6021
X5.3089Y-4.6418
X5.3093Y-4.4047
X5.3093Y-4.5627
X5.3125Y-5.3895
X5.3162Y-2.7208
X5.3169Y-5.8208
X5.3213Y-5.9866
X5.3213Y-6.0266
X5.3213Y-6.066
X5.3222Y-3.4956
X5.3227Y-3.4101
X5.3239Y-5.5227
X5.3248Y-2.5104
X5.3251Y-2.5914
X5.3252Y-3.6396
X5.3266Y-3.322
X5.3294Y-7.5316
X5.3294Y-3.052
X5.3299Y-2.9665
X5.3307Y-5.746
X5.3374Y-2.7402
X5.3388Y-6.3887
X5.345Y-5.422
X5.3478Y-7.1661
X5.3543Y-5.1386
X5.3566Y-2.279
X5.3566Y-3.0734
X5.3579Y-5.5562
X5.3592Y-4.8921
X5.3597Y-4.8066
X5.3663Y-7.9446
X5.3772Y-3.4956
X5.3777Y-3.4101
X5.3778Y-7.5316
X5.378Y-5.4555
X5.3834Y-3.6476
X5.3835Y-3.8917
X5.3844Y-2.4702
X5.3844Y-3.052
X5.3849Y-2.9665
X5.3924Y-7.1661
X5.3938Y-6.3887
X5.4056Y-4.4419
X5.4059Y-3.5346
X5.4072Y-3.0768
X5.4074Y-3.3864
X5.408Y-3.867
X5.4093Y-5.1386
X5.4098Y-5.0531
X5.4107Y-6.5146
X5.4128Y-2.028
X5.4135Y-3.8965
X5.4142Y-4.8921
X5.4147Y-4.8066
X5.4153Y-7.9456
X5.4189Y-3.9265
X5.4224Y-7.5316
X5.4227Y-6.1166
X5.423Y-5.5575
X5.4303Y-2.9279
X5.4322Y-3.4956
X5.4324Y-3.8422
X5.4327Y-3.4101
X5.4352Y-2.663
X5.438Y-3.8718
X5.4394Y-3.3226
X5.4408Y-7.1661
X5.4434Y-3.9018
X5.4523Y-3.0279
X5.4569Y-3.8175
X5.4586Y-5.8169
X5.4589Y-4.4419
X5.4594Y-3.5406
X5.4624Y-3.847
X5.4643Y-5.1386
X5.4648Y-5.0531
X5.4674Y-7.5316
X5.4678Y-3.877
X5.4678Y-7.9471
X5.4692Y-4.8921
X5.4693Y-2.8889
X5.4697Y-4.8066
X5.4771Y-6.2016
X5.4776Y-6.1161
X5.4813Y-3.7927
X5.484Y-5.3785
X5.4869Y-3.8223
X5.4872Y-3.4956
X5.4877Y-3.4101
X5.4923Y-3.8523
X5.4924Y-3.345
X5.5045Y-5.557
X5.506Y-3.7681
X5.5083Y-2.8499
X5.5113Y-3.7975
X5.5139Y-4.4419
X5.5158Y-7.5316
X5.5167Y-3.8275
X5.5168Y-2.6661
X5.5193Y-5.1386
X5.5198Y-5.0531
X5.5234Y-2.9802
X5.524Y-3.5368
X5.5242Y-4.8921
X5.5247Y-4.8066
X5.5303Y-2.9499
X5.5304Y-3.7433
X5.5321Y-6.2016
X5.5326Y-6.1161
X5.536Y-3.7729
X5.5414Y-3.8029
X5.5432Y-2.1026
X5.5473Y-2.8109
X5.5482Y-2.6661
X5.5498Y-3.3768
X5.5502Y-3.3464
X5.5504Y-2.1528
X5.5549Y-3.7186
X5.5604Y-3.7481
X5.5604Y-7.5316
X5.5612Y-2.3338
X5.5658Y-3.7781
X5.5689Y-4.4419
X5.5693Y-2.9109
X5.5734Y-3.5366
X5.5743Y-5.1386
X5.5748Y-5.0531
X5.5797Y-4.8066
X5.5813Y-4.8919
X5.582Y-5.5592
X5.5839Y-5.4782
X5.5849Y-3.7234
X5.5863Y-2.7719
X5.5903Y-3.7534
X5.5918Y-2.5452
X5.6036Y-5.3755
X5.6039Y-3.2151
X5.6056Y-5.4227
X5.6076Y-2.422
X5.6083Y-2.8719
X5.6088Y-7.5316
X5.6119Y-3.4921
X5.6134Y-3.1786
X5.6194Y-3.4096
X5.6234Y-4.5274
X5.6239Y-4.4419
X5.6246Y-4.7624
X5.6293Y-5.1386
X5.6298Y-5.0531
X5.6322Y-2.2376
X5.6379Y-4.8726
X5.6395Y-3.5411
X5.6434Y-2.6504
X5.6444Y-3.0964
X5.6473Y-2.8329
X5.6477Y-7.0961
X5.6477Y-7.1355
X5.6477Y-7.1748
X5.6479Y-6.9385
X5.6479Y-6.9779
X5.6479Y-7.0173
X5.6479Y-7.0566
X5.6534Y-7.5316
X5.6569Y-7.2396
X5.6604Y-4.7254
X5.6663Y-3.5411
X5.673Y-3.1656
X5.6734Y-2.6544
X5.6784Y-4.5274
X5.6789Y-4.4419
X5.6799Y-6.9196
X5.6802Y-7.1161
X5.6802Y-7.1555
X5.6804Y-2.2778
X5.6804Y-6.9585
X5.6804Y-6.9979
X5.6804Y-7.0373
X5.6804Y-7.0766
X5.6808Y-2.166
X5.6816Y-5.558
X5.6843Y-5.1386
X5.6848Y-5.0531
X5.6863Y-2.7939
X5.6898Y-5.7132
X5.6898Y-5.7532
X5.6898Y-5.7926
X5.6899Y-5.9969
X5.6899Y-6.0369
X5.6899Y-6.0763
X5.6913Y-4.2607
X5.6915Y-3.5427
X5.6958Y-2.2988
X5.6958Y-4.8139
X5.6984Y-7.5316
X5.7004Y-2.9916
X5.7033Y-2.6549
X5.7053Y-7.2396
X5.7069Y-5.8357
X5.7069Y-5.8751
X5.707Y-6.1194
X5.707Y-6.1588
X5.707Y-3.1664
X5.7077Y-7.0961
X5.7077Y-7.1355
X5.7077Y-7.1748
X5.7079Y-6.9385
X5.7079Y-6.9779
X5.7079Y-7.0173
X5.7079Y-7.0566
X5.7166Y-2.952
X5.7167Y-3.5403
X5.7248Y-5.7132
X5.7248Y-5.7532
X5.7248Y-5.7926
X5.7249Y-5.9969
X5.7249Y-6.0369
X5.7249Y-6.0763
X5.7253Y-2.7549
X5.7279Y-4.1401
X5.7293Y-4.2607
X5.7305Y-3.1477
X5.7333Y-3.0585
X5.7334Y-4.5274
X5.7339Y-4.4419
X5.7393Y-5.1386
X5.7398Y-5.0531
X5.7399Y-3.6126
X5.7414Y-4.0631
X5.7433Y-6.4043
X5.7433Y-6.4437
X5.7433Y-6.483
X5.7435Y-6.2467
X5.7435Y-6.2861
X5.7435Y-6.3255
X5.7435Y-6.3648
X5.7445Y-6.5958
X5.7468Y-7.5316
X5.7499Y-7.2396
X5.7564Y-2.5476
X5.7604Y-4.7856
X5.7622Y-3.4956
X5.7627Y-3.4101
X5.7653Y-4.2607
X5.7755Y-6.2278
X5.7758Y-6.4243
X5.7758Y-6.4637
X5.776Y-6.2667
X5.776Y-6.3061
X5.776Y-6.3455
X5.776Y-6.3848
X5.7789Y-4.1401
X5.779Y-3.1828
X5.7806Y-2.8634
X5.781Y-2.831
X5.7884Y-4.5274
X5.7889Y-4.4419
X5.7914Y-7.5316
X5.7943Y-5.1386
X5.7948Y-5.0531
X5.7949Y-7.2396
X5.8013Y-4.2622
X5.8033Y-6.4043
X5.8033Y-6.4437
X5.8033Y-6.483
X5.8035Y-6.2467
X5.8035Y-6.2861
X5.8035Y-6.3255
X5.8035Y-6.3648
X5.8157Y-3.5596
X5.818Y-2.0354
X5.8199Y-3.9611
X5.8203Y-2.5379
X5.8214Y-4.1401
X5.8222Y-3.1594
X5.8224Y-2.9676
X5.8253Y-3.6138
X5.835Y-2.9182
X5.8393Y-4.2622
X5.8423Y-2.6379
X5.8433Y-7.2396
X5.8434Y-4.5274
X5.8439Y-4.4419
X5.8493Y-5.1386
X5.8498Y-5.0531
X5.8529Y-3.9991
X5.8581Y-3.4524
X5.8593Y-2.4989
X5.8637Y-3.2901
X5.8715Y-3.753
X5.8723Y-6.5958
X5.8732Y-3.1944
X5.8879Y-7.2396
X5.8889Y-4.0391
X5.8898Y-7.1494
X5.8983Y-2.4599
X5.8984Y-4.5274
X5.8989Y-4.4419
X5.905Y-3.4218
X5.9069Y-3.6132
X5.9188Y-4.5901
X5.9188Y-4.6301
X5.9188Y-4.6695
X5.9189Y-4.0626
X5.9198Y-3.4891
X5.9203Y-2.5599
X5.9209Y-5.3501
X5.9209Y-5.3901
X5.9209Y-5.4295
X5.9232Y-3.4626
X5.9254Y-3.434
X5.9256Y-2.7774
X5.9318Y-2.227
X5.9328Y-2.2526
X5.9359Y-4.7126
X5.9359Y-4.752
X5.9363Y-7.2396
X5.9373Y-2.4209
X5.938Y-5.4726
X5.938Y-5.512
X5.9422Y-3.5216
X5.9435Y-6.858
X5.946Y-3.0775
X5.9465Y-3.0265
X5.9474Y-4.1956
X5.9534Y-4.5274
X5.9538Y-4.5901
X5.9538Y-4.6301
X5.9538Y-4.6695
X5.9539Y-4.4419
X5.955Y-7.1495
X5.9559Y-5.3501
X5.9559Y-5.3901
X5.9559Y-5.4295
X5.9593Y-5.1386
X5.9593Y-2.5209
X5.9598Y-5.0531
X5.9599Y-3.7959
X5.9604Y-3.7104
X5.9694Y-5.9982
X5.9695Y-6.0313
X5.9695Y-6.0636
X5.9696Y-6.0967
X5.972Y-2.778
X5.9724Y-4.2711
X5.9732Y-5.9014
X5.9737Y-5.8159
X5.9748Y-6.5044
X5.9769Y-2.3895
X5.9773Y-8.0349
X5.9773Y-8.0899
X5.9782Y-3.3464
X5.9801Y-3.612
X5.9809Y-7.2396
X5.9939Y-6.8586
X5.9983Y-2.4819
X5.9987Y-5.9983
X5.9988Y-6.0314
X5.9988Y-6.0637
X5.9989Y-6.0968
X6.0006Y-6.1886
X6.0023Y-7.1899
X6.0124Y-3.345
X6.0139Y-3.6651
X6.0143Y-5.1386
X6.0148Y-5.0531
X6.0149Y-3.7959
X6.0154Y-3.7104
X6.0154Y-4.1951
X6.0208Y-7.9794
X6.0208Y-8.0344
X6.0259Y-7.2396
X6.0282Y-5.9014
X6.0287Y-5.8159
X6.0295Y-3.1475
X6.0295Y-3.247
X6.0389Y-6.8586
X6.049Y-2.3895
X6.0497Y-5.6894
X6.0498Y-2.4785
X6.0528Y-2.772
X6.0554Y-6.1885
X6.0634Y-4.5274
X6.0656Y-4.4419
X6.0675Y-7.19
X6.0693Y-5.1386
X6.0698Y-5.0531
X6.0699Y-3.7959
X6.0704Y-3.7104
X6.0743Y-7.2396
X6.0832Y-5.9014
X6.0836Y-4.6997
X6.0837Y-5.8159
X6.0873Y-6.8586
X6.0875Y-7.2885
X6.0944Y-4.1926
X6.0988Y-7.8109
X6.0988Y-7.8659
X6.1047Y-5.6894
X6.1066Y-6.3748
X6.1104Y-6.1885
X6.1104Y-6.2371
X6.1109Y-6.103
X6.1127Y-2.3903
X6.1132Y-2.478
X6.1159Y-3.1352
X6.1184Y-4.5274
X6.1189Y-4.4419
X6.1189Y-7.2396
X6.123Y-4.0952
X6.1243Y-5.1386
X6.1248Y-5.0531
X6.1249Y-3.7959
X6.1254Y-3.7104
X6.1264Y-2.0224
X6.1269Y-4.8166
X6.1276Y-2.074
X6.1319Y-6.8586
X6.1341Y-2.1428
X6.1346Y-2.1953
X6.1382Y-5.9014
X6.1386Y-4.6997
X6.1387Y-5.8159
X6.1422Y-3.3738
X6.1483Y-7.1909
X6.1549Y-4.5629
X6.1584Y-3.1413
X6.1586Y-3.0941
X6.1597Y-5.6894
X6.1612Y-2.9039
X6.1654Y-6.1885
X6.1659Y-6.103
X6.166Y-6.37
X6.1662Y-6.2374
X6.1689Y-4.1916
X6.1739Y-4.4419
X6.1757Y-2.3907
X6.176Y-3.2375
X6.1768Y-2.9561
X6.1773Y-6.9599
X6.1793Y-5.1386
X6.1793Y-2.0924
X6.1797Y-7.9742
X6.1798Y-5.0531
X6.1799Y-3.7959
X6.1803Y-7.2479
X6.1803Y-7.3029
X6.1816Y-7.7746
X6.1868Y-4.7871
X6.1876Y-2.1378
X6.1881Y-2.6646
X6.1932Y-5.9014
X6.1936Y-4.6997
X6.1937Y-5.8159
X6.1979Y-4.6066
X6.2018Y-7.1499
X6.2047Y-5.6889
X6.206Y-4.1087
X6.2114Y-3.3681
X6.2139Y-8.3466
X6.216Y-3.4754
X6.2194Y-2.0199
X6.2204Y-6.1885
X6.2209Y-6.103
X6.2254Y-4.4941
X6.2268Y-2.48
X6.2313Y-7.0629
X6.2319Y-4.2561
X6.2328Y-2.0874
X6.2328Y-2.3927
X6.2343Y-5.1386
X6.2346Y-6.7807
X6.2348Y-5.0531
X6.2349Y-3.7959
X6.2356Y-8.2824
X6.2399Y-4.6491
X6.2418Y-4.7871
X6.2455Y-7.248
X6.2455Y-7.305
X6.2486Y-4.6997
X6.2569Y-4.5251
X6.2597Y-5.6889
X6.261Y-4.1087
X6.2611Y-4.1923
X6.267Y-7.15
X6.2675Y-6.4355
X6.2754Y-6.1885
X6.2759Y-6.103
X6.2763Y-6.232
X6.2763Y-6.2848
X6.2766Y-2.2234
X6.2766Y-2.3082
X6.2773Y-6.9639
X6.2793Y-6.3756
X6.2794Y-2.897
X6.281Y-2.5453
X6.2811Y-2.5915
X6.2811Y-2.6371
X6.2893Y-5.1386
X6.2898Y-5.0531
X6.2901Y-5.9014
X6.2906Y-5.8159
X6.2968Y-4.7871
X6.2989Y-4.5676
X6.3014Y-2.0224
X6.3036Y-4.6997
X6.312Y-2.1446
X6.3123Y-3.6294
X6.3123Y-3.6691
X6.3123Y-3.7874
X6.3123Y-3.8271
X6.3127Y-3.59
X6.3127Y-3.748
X6.3139Y-6.5916
X6.3147Y-5.6889
X6.3153Y-3.0732
X6.3153Y-3.1129
X6.3153Y-3.2312
X6.3153Y-3.2709
X6.3157Y-3.0338
X6.3157Y-3.1918
X6.316Y-4.1087
X6.3161Y-4.1923
X6.3185Y-2.6553
X6.3241Y-6.375
X6.3256Y-2.7206
X6.3263Y-7.2489
X6.3263Y-7.3039
X6.3286Y-2.4352
X6.3294Y-4.3096
X6.3304Y-6.1885
X6.3309Y-6.103
X6.3309Y-6.2341
X6.3309Y-6.2839
X6.3399Y-4.6081
X6.3425Y-6.964
X6.3443Y-5.1386
X6.3448Y-5.0531
X6.3451Y-5.9014
X6.3456Y-5.8159
X6.3478Y-7.1509
X6.3518Y-4.7871
X6.3522Y-2.678
X6.3586Y-4.6997
X6.3589Y-6.5916
X6.3603Y-3.6294
X6.3603Y-3.6691
X6.3603Y-3.7874
X6.3603Y-3.8271
X6.3607Y-3.59
X6.3607Y-3.748
X6.361Y-2.3082
X6.3612Y-3.7094
X6.3624Y-2.2234
X6.3626Y-2.5749
X6.3633Y-3.0732
X6.3633Y-3.1129
X6.3633Y-3.2312
X6.3633Y-3.2709
X6.3637Y-3.0338
X6.3637Y-3.1918
X6.3642Y-3.1532
X6.371Y-4.1087
X6.3711Y-4.1923
X6.378Y-2.0202
X6.385Y-6.2831
X6.3854Y-6.1885
X6.3855Y-6.2359
X6.3859Y-4.6084
X6.3859Y-6.103
X6.3862Y-2.5983
X6.3903Y-7.0609
X6.3915Y-7.249
X6.3915Y-7.306
X6.3916Y-2.4004
X6.3932Y-2.4242
X6.3972Y-3.7094
X6.3983Y-3.6294
X6.3983Y-3.6691
X6.3983Y-3.7874
X6.3983Y-3.8271
X6.3987Y-3.59
X6.3987Y-3.748
X6.3993Y-5.1386
X6.3998Y-5.0531
X6.4001Y-5.9014
X6.4002Y-3.1532
X6.4006Y-5.8159
X6.4013Y-3.0732
X6.4013Y-3.1129
X6.4013Y-3.2312
X6.4013Y-3.2709
X6.4017Y-3.0338
X6.4017Y-3.1918
X6.4073Y-6.5916
X6.4106Y-4.7002
X6.4118Y-2.4416
X6.412Y-2.1218
X6.413Y-7.151
X6.4156Y-2.5
X6.4245Y-4.1926
X6.426Y-4.1087
X6.4308Y-2.3637
X6.4314Y-2.5993
X6.4316Y-2.672
X6.4332Y-3.7094
X6.4343Y-3.6294
X6.4343Y-3.6691
X6.4343Y-3.7874
X6.4343Y-3.8271
X6.4347Y-3.59
X6.4347Y-3.748
X6.4349Y-4.3331
X6.4362Y-3.1532
X6.4373Y-3.0732
X6.4373Y-3.1129
X6.4373Y-3.2312
X6.4373Y-3.2709
X6.4377Y-3.0338
X6.4377Y-3.1918
X6.44Y-6.2831
X6.44Y-6.2371
X6.4404Y-6.1885
X6.4409Y-4.6084
X6.4409Y-5.7781
X6.4409Y-6.103
X6.4436Y-2.4264
X6.4444Y-4.7871
X6.4468Y-6.8773
X6.4543Y-5.1386
X6.4548Y-5.0531
X6.4555Y-7.061
X6.4656Y-4.7002
X6.4656Y-5.8769
X6.4669Y-4.2353
X6.4706Y-7.908
X6.4728Y-2.2248
X6.473Y-8.2667
X6.4744Y-2.1242
X6.4762Y-2.5045
X6.4768Y-7.2499
X6.4768Y-7.3049
X6.4789Y-5.7401
X6.4822Y-2.3649
X6.4823Y-3.6294
X6.4823Y-3.6691
X6.4823Y-3.7874
X6.4823Y-3.8271
X6.4826Y-7.9806
X6.4826Y-8.0356
X6.4826Y-8.0906
X6.4826Y-8.1456
X6.4826Y-8.1825
X6.4827Y-3.59
X6.4827Y-3.748
X6.4853Y-3.0732
X6.4853Y-3.1129
X6.4853Y-3.2312
X6.4853Y-3.2709
X6.4857Y-3.0338
X6.4857Y-3.1918
X6.4897Y-4.1369
X6.4904Y-2.291
X6.495Y-6.2831
X6.495Y-6.236
X6.4954Y-6.1885
X6.4959Y-4.6084
X6.4959Y-6.103
X6.4983Y-7.1519
X6.5058Y-6.988
X6.5059Y-4.2743
X6.5093Y-5.1386
X6.5098Y-5.0531
X6.5128Y-2.0216
X6.5156Y-5.3921
X6.5162Y-5.7023
X6.5183Y-7.4454
X6.5183Y-7.5004
X6.5206Y-4.7002
X6.5236Y-2.8304
X6.524Y-2.798
X6.5279Y-4.1743
X6.5395Y-6.4041
X6.542Y-7.25
X6.542Y-7.307
X6.5449Y-4.3133
X6.5459Y-4.8271
X6.55Y-6.2831
X6.5504Y-6.1885
X6.5508Y-2.2896
X6.5509Y-4.6084
X6.5509Y-6.103
X6.5532Y-2.3879
X6.5631Y-5.7633
X6.5636Y-5.6778
X6.5643Y-5.1386
X6.5648Y-5.0531
X6.5654Y-4.7871
X6.5656Y-2.5928
X6.5668Y-2.1326
X6.5668Y-7.3899
X6.5668Y-7.4449
X6.5669Y-4.2133
X6.5673Y-7.5014
X6.5673Y-7.5564
X6.5674Y-3.5086
X6.5681Y-7.9811
X6.5681Y-8.0361
X6.5681Y-8.0911
X6.5681Y-8.1461
X6.5681Y-8.183
X6.5688Y-2.672
X6.5706Y-5.3921
X6.5756Y-4.7002
X6.5785Y-8.2687
X6.5797Y-7.8935
X6.5839Y-4.3523
X6.5884Y-3.0384
X6.5886Y-6.8557
X6.5894Y-2.7486
X6.6004Y-2.8494
X6.6029Y-3.5086
X6.605Y-6.2831
X6.6054Y-6.1885
X6.6059Y-4.6084
X6.6059Y-4.2523
X6.6059Y-6.103
X6.6114Y-2.5051
X6.6162Y-2.2136
X6.6181Y-5.7633
X6.6186Y-5.6778
X6.6191Y-6.4325
X6.6193Y-5.1386
X6.6197Y-3.6266
X6.6198Y-5.0531
X6.6229Y-4.3913
X6.6256Y-5.3921
X6.6268Y-4.7871
X6.628Y-3.1535
X6.6306Y-4.7002
X6.6374Y-2.6724
X6.6378Y-2.2892
X6.6399Y-2.4351
X6.6414Y-4.5306
X6.6424Y-2.592
X6.6445Y-3.0575
X6.6449Y-4.2913
X6.6464Y-2.7491
X6.6577Y-4.6088
X6.6586Y-2.0252
X6.66Y-6.2831
X6.6604Y-6.1885
X6.6609Y-6.103
X6.6619Y-4.4303
X6.6684Y-2.9446
X6.6731Y-5.7633
X6.6736Y-5.6778
X6.6742Y-3.7121
X6.6743Y-5.1386
X6.6747Y-3.6266
X6.6748Y-5.0531
X6.6754Y-2.8466
X6.6759Y-3.1538
X6.6787Y-4.5695
X6.6806Y-5.3921
X6.6818Y-4.7871
X6.6839Y-4.3303
X6.6856Y-4.7002
X6.6861Y-2.5021
X6.6914Y-4.8241
X6.6924Y-3.0578
X6.6952Y-2.3802
X6.6954Y-2.4294
X6.7007Y-4.4695
X6.7015Y-7.8935
X6.702Y-2.4032
X6.7025Y-7.9615
X6.7029Y-8.273
X6.7032Y-2.48
X6.7092Y-2.5914
X6.7104Y-2.672
X6.7104Y-2.9441
X6.715Y-6.2831
X6.7154Y-6.1885
X6.7159Y-6.103
X6.7164Y-2.8461
X6.7174Y-4.8766
X6.7177Y-4.6085
X6.7198Y-7.1436
X6.7229Y-4.3693
X6.7234Y-2.2194
X6.7269Y-2.7476
X6.7279Y-4.8391
X6.7281Y-5.7633
X6.7282Y-2.2948
X6.7292Y-3.7121
X6.7293Y-5.1386
X6.7293Y-5.6773
X6.7297Y-3.6266
X6.7298Y-5.0531
X6.7319Y-3.1556
X6.7368Y-4.7871
X6.7374Y-4.7006
X6.7397Y-4.5085
X6.7484Y-3.0596
X6.7504Y-2.105
X6.7544Y-2.8616
X6.757Y-5.2736
X6.7619Y-4.4083
X6.7622Y-2.4348
X6.7683Y-5.6383
X6.77Y-6.2831
X6.7704Y-6.1885
X6.7709Y-6.103
X6.7738Y-7.058
X6.7748Y-7.1436
X6.7768Y-7.2276
X6.7774Y-2.8184
X6.7781Y-5.7515
X6.7787Y-4.5475
X6.7804Y-2.6601
X6.783Y-4.0326
X6.7994Y-3.0376
X6.8006Y-2.023
X6.8008Y-4.613
X6.8009Y-4.4473
X6.8021Y-5.2532
X6.8023Y-4.9578
X6.8026Y-4.9953
X6.8026Y-5.5569
X6.8027Y-5.5285
X6.8029Y-4.9163
X6.8031Y-5.4766
X6.8049Y-5.045
X6.8052Y-5.2914
X6.8056Y-5.3192
X6.8058Y-6.6524
X6.8058Y-6.8826
X6.8073Y-5.5993
X6.8076Y-6.9822
X6.8078Y-7.0098
X6.8086Y-6.5022
X6.8092Y-6.5312
X6.8134Y-2.2966
X6.8137Y-4.2928
X6.8147Y-4.2274
X6.8148Y-3.3858
X6.8158Y-3.9596
X6.816Y-2.1854
X6.8162Y-6.7766
X6.8166Y-2.2166
X6.8171Y-5.7125
X6.8177Y-4.5865
X6.818Y-6.7212
X6.8224Y-2.7471
X6.8228Y-6.014
X6.825Y-6.2831
X6.8254Y-3.0656
X6.8254Y-6.1885
X6.8259Y-6.103
X6.827Y-5.225
X6.8276Y-5.2496
X6.8292Y-4.3304
X6.8295Y-4.7209
X6.8298Y-7.1436
X6.832Y-7.186
X6.832Y-7.227
X6.8335Y-8.032
X6.8336Y-4.8462
X6.8394Y-5.2796
X6.8395Y-4.2618
X6.8399Y-4.4863
X6.8418Y-5.2057
X6.8424Y-6.8011
X6.8425Y-6.858
X6.8425Y-6.913
X6.8425Y-7.023
X6.8436Y-2.4786
X6.8467Y-5.559
X6.8474Y-2.6601
X6.8483Y-6.4065
X6.8483Y-6.4615
X6.8484Y-6.5754
X6.8484Y-6.6304
X6.8484Y-6.6854
X6.8494Y-2.9511
X6.8504Y-3.7096
X6.8509Y-3.6206
X6.8518Y-2.1032
X6.8528Y-4.3874
X6.853Y-7.7396
X6.854Y-2.392
X6.8554Y-4.8838
X6.8554Y-4.9388
X6.8554Y-4.9938
X6.8554Y-5.0488
X6.8554Y-5.1038
X6.8555Y-7.8625
X6.8558Y-5.3971
X6.8558Y-5.4521
X6.8558Y-5.5071
X6.8561Y-5.6735
X6.8568Y-4.6256
X6.8628Y-4.7536
X6.8677Y-7.1228
X6.8705Y-7.186
X6.8713Y-7.2266
X6.872Y-5.9932
X6.8724Y-6.021
X6.8779Y-3.2871
X6.8784Y-3.1601
X6.8794Y-3.2361
X6.8802Y-4.5271
X6.884Y-3.392
X6.8898Y-5.2486
X6.8926Y-2.0246
X6.8946Y-3.5043
X6.8955Y-5.6341
X6.8958Y-4.6646
X6.9Y-2.0691
X6.9018Y-4.7926
X6.9034Y-2.7486
X6.9059Y-4.1701
X6.9067Y-7.0838
X6.9072Y-2.1866
X6.9072Y-2.2172
X6.908Y-2.296
X6.9136Y-2.4776
X6.9163Y-6.335
X6.9169Y-3.4201
X6.9178Y-4.5646
X6.9184Y-3.3691
X6.9225Y-2.3915
X6.9229Y-3.0236
X6.9244Y-3.9416
X6.9249Y-3.6211
X6.9272Y-6.856
X6.9272Y-6.911
X6.9272Y-7.021
X6.9279Y-6.8101
X6.9284Y-2.6616
X6.9331Y-6.5734
X6.9331Y-6.6284
X6.9331Y-6.6834
X6.9338Y-6.407
X6.9338Y-6.462
X6.9342Y-3.7266
X6.9348Y-4.7036
X6.9364Y-3.8246
X6.9408Y-4.8316
X6.941Y-2.221
X6.9412Y-5.3979
X6.9412Y-5.4529
X6.9412Y-5.5079
X6.9412Y-5.5629
X6.9412Y-5.6179
X6.9412Y-5.6729
X6.9412Y-5.7279
X6.9412Y-5.7829
X6.9412Y-5.8379
X6.9412Y-5.8929
X6.9412Y-5.9479
X6.9412Y-5.366
X6.9413Y-4.8841
X6.9413Y-4.9391
X6.9413Y-4.9941
X6.9413Y-5.0491
X6.9413Y-5.1041
X6.9414Y-5.9872
X6.9456Y-6.935
X6.952Y-6.0973
X6.956Y-4.4676
X6.9566Y-4.2596
X6.9568Y-4.6036
X6.9579Y-3.0603
X6.9594Y-3.5041
X6.9604Y-3.2866
X6.9619Y-3.2356
X6.9696Y-2.0225
X6.9738Y-4.7426
X6.9814Y-2.7491
X6.9814Y-3.1298
X6.9821Y-2.4776
X6.986Y-3.875
X6.991Y-2.3915
X6.9919Y-3.7281
X6.9929Y-3.6021
X6.9934Y-3.4361
X6.9938Y-3.5645
X6.9939Y-4.0111
X6.9944Y-3.1806
X6.9958Y-4.6426
X7.0009Y-3.2766
X7.0019Y-3.3396
X7.002Y-7.0764
X7.0024Y-3.2191
X7.0064Y-2.6621
X7.0128Y-4.7816
X7.0139Y-3.0621
X7.0144Y-3.0221
X7.0234Y-3.3001
X7.0244Y-3.3616
X7.0249Y-3.2536
X7.0254Y-3.4641
X7.0274Y-4.0461
X7.0276Y-5.4538
X7.0276Y-5.5088
X7.0276Y-5.5638
X7.0276Y-5.6188
X7.0276Y-5.6738
X7.0276Y-5.7288
X7.0276Y-5.7838
X7.0276Y-5.8388
X7.0276Y-5.8938
X7.0276Y-5.9488
X7.0276Y-6.0038
X7.0276Y-6.0588
X7.0276Y-6.1138
X7.0276Y-6.1688
X7.0276Y-6.2238
X7.0276Y-6.2788
X7.0276Y-6.3338
X7.0276Y-6.3888
X7.0276Y-6.4438
X7.0276Y-6.5538
X7.0276Y-6.6088
X7.0276Y-6.6638
X7.0276Y-6.7188
X7.0276Y-6.8288
X7.0278Y-6.8839
X7.0278Y-7.0489
X7.0278Y-7.1039
X7.0278Y-7.1589
X7.0278Y-7.2139
X7.0278Y-7.2689
X7.0278Y-7.3239
X7.0278Y-7.4339
X7.0278Y-7.4889
X7.0278Y-7.5439
X7.0278Y-7.5989
X7.0278Y-7.7089
X7.0278Y-7.7639
X7.0278Y-4.8281
X7.0278Y-4.8831
X7.0278Y-4.9381
X7.0278Y-4.9931
X7.0278Y-5.0481
X7.0278Y-5.1031
X7.0278Y-5.1361
X7.0278Y-5.3991
X7.0297Y-8.0986
X7.0324Y-5.286
X7.0348Y-4.6816
X7.0391Y-7.8299
X7.0424Y-4.2074
X7.0485Y-3.9415
X7.0584Y-2.7496
X7.0604Y-4.0776
X7.0608Y-4.3412
X7.0616Y-2.0241
X7.0624Y-4.1786
X7.0638Y-4.2674
X7.0682Y-4.5674
X7.072Y-2.4795
X7.0724Y-3.5636
X7.0738Y-4.7206
X7.0745Y-2.3925
X7.0779Y-3.6596
X7.0789Y-3.6081
X7.0834Y-2.6626
X7.086Y-3.7262
X7.09Y-4.2586
X7.0918Y-4.3172
X7.0924Y-4.607
X7.0926Y-4.3604
X7.0987Y-3.4265
X7.1089Y-4.1261
X7.1092Y-5.2897
X7.1097Y-5.2042
X7.1128Y-4.7596
X7.1129Y-3.1481
X7.113Y-5.362
X7.1131Y-5.3993
X7.1131Y-5.4543
X7.1131Y-5.5093
X7.1131Y-5.5643
X7.1131Y-5.6193
X7.1131Y-5.6743
X7.1131Y-5.7293
X7.1131Y-5.7843
X7.1131Y-5.8393
X7.1131Y-5.8943
X7.1131Y-5.9493
X7.1131Y-6.0043
X7.1131Y-6.0593
X7.1131Y-6.1143
X7.1131Y-6.1693
X7.1131Y-6.2243
X7.1131Y-6.2793
X7.1131Y-6.3343
X7.1131Y-6.3893
X7.1131Y-6.4443
X7.1131Y-6.5543
X7.1131Y-6.6093
X7.1131Y-6.6643
X7.1131Y-6.7193
X7.1131Y-6.8293
X7.1133Y-6.8844
X7.1133Y-7.0494
X7.1133Y-7.1044
X7.1133Y-7.1594
X7.1133Y-7.2144
X7.1133Y-7.2694
X7.1133Y-7.3244
X7.1133Y-7.4344
X7.1133Y-7.4894
X7.1133Y-7.5444
X7.1133Y-7.5994
X7.1133Y-4.8286
X7.1133Y-4.8836
X7.1133Y-4.9386
X7.1133Y-4.9936
X7.1133Y-5.0486
X7.1133Y-5.1036
X7.1133Y-5.1586
X7.1139Y-3.0236
X7.1139Y-3.2006
X7.1144Y-3.0626
X7.1148Y-4.5216
X7.1148Y-3.8181
X7.1155Y-4.0065
X7.1201Y-2.5226
X7.1273Y-8.1596
X7.1368Y-4.3098
X7.137Y-7.8468
X7.1398Y-6.9242
X7.1462Y-6.2539
X7.1475Y-3.4509
X7.1506Y-2.022
X7.1513Y-3.4025
X7.1546Y-3.4265
X7.1602Y-6.2839
X7.1604Y-4.5278
X7.1611Y-3.6355
X7.1632Y-2.6648
X7.1642Y-5.2897
X7.1647Y-5.2042
X7.165Y-5.1344
X7.166Y-3.8706
X7.1665Y-4.0595
X7.1684Y-3.8182
X7.1692Y-3.8442
X7.1694Y-7.7208
X7.1743Y-7.078
X7.1745Y-7.1056
X7.1762Y-6.2539
X7.1771Y-3.2828
X7.181Y-3.4753
X7.1834Y-3.4989
X7.1845Y-3.4509
X7.1897Y-3.4257
X7.1908Y-2.638
X7.192Y-7.6136
X7.192Y-3.1095
X7.1946Y-7.9026
X7.2028Y-7.0905
X7.203Y-7.1181
X7.2096Y-8.1171
X7.21Y-4.095
X7.2136Y-5.134
X7.215Y-2.6656
X7.2162Y-7.9362
X7.2192Y-5.2897
X7.2195Y-3.947
X7.2197Y-5.2042
X7.2252Y-7.7814
X7.233Y-3.9975
X7.2342Y-2.6206
X7.2365Y-3.4757
X7.241Y-2.5133
X7.2442Y-5.1412
X7.2468Y-6.6252
X7.2484Y-3.3786
X7.2491Y-3.1005
X7.2496Y-4.3124
X7.2496Y-6.6924
X7.25Y-2.8775
X7.2502Y-3.8765
X7.2504Y-6.747
X7.251Y-7.953
X7.2514Y-4.3706
X7.256Y-3.13
X7.2576Y-4.443
X7.2578Y-4.2673
X7.2579Y-3.9731
X7.26Y-3.3208
X7.262Y-2.5938
X7.2644Y-3.2366
X7.2652Y-7.6144
X7.2654Y-3.2851
X7.2742Y-5.2897
X7.2762Y-7.833
X7.2786Y-2.8164
X7.2804Y-3.7321
X7.282Y-3.654
X7.2835Y-4.0995
X7.2845Y-3.593
X7.2895Y-2.9325
X7.2929Y-4.0062
X7.295Y-4.176
X7.302Y-6.2579
X7.3024Y-5.3231
X7.3024Y-5.3646
X7.3041Y-4.4978
X7.3041Y-4.5528
X7.3041Y-4.6078
X7.3041Y-4.6628
X7.3041Y-4.7178
X7.3041Y-4.7728
X7.3041Y-4.9378
X7.3041Y-4.9928
X7.3041Y-5.0478
X7.3041Y-5.1028
X7.3041Y-5.1578
X7.3043Y-4.4431
X7.3044Y-4.8161
X7.3044Y-4.9016
X7.3078Y-2.1242
X7.309Y-3.8
X7.3114Y-5.4646
X7.3124Y-3.6216
X7.3135Y-3.7325
X7.319Y-2.7525
X7.3232Y-7.9832
X7.3248Y-7.8832
X7.3254Y-4.3978
X7.3256Y-6.2804
X7.336Y-4.1005
X7.339Y-3.5385
X7.3464Y-5.2463
X7.3594Y-5.5046
X7.3644Y-7.0536
X7.3655Y-4.1765
X7.3668Y-2.3094
X7.3694Y-4.3543
X7.374Y-2.778
X7.3862Y-2.3828
X7.3889Y-4.7526
X7.3894Y-4.9016
X7.3896Y-4.4983
X7.3896Y-4.5533
X7.3896Y-4.6083
X7.3896Y-4.6633
X7.3896Y-4.7183
X7.3896Y-4.9383
X7.3896Y-4.9933
X7.3896Y-5.0483
X7.3896Y-5.1033
X7.3896Y-5.1583
X7.3908Y-2.6262
X7.3923Y-3.0925
X7.3934Y-2.8371
X7.3936Y-6.3968
X7.3944Y-2.8896
X7.3949Y-2.9556
X7.397Y-3.3265
X7.3974Y-5.3781
X7.3984Y-3.6221
X7.3984Y-4.4491
X7.3989Y-3.7291
X7.4023Y-3.2879
X7.4026Y-3.2564
X7.403Y-3.2265
X7.4054Y-3.5456
X7.4086Y-5.2574
X7.41Y-4.7776
X7.4117Y-4.006
X7.4144Y-3.4406
X7.4166Y-3.8442
X7.4174Y-6.9326
X7.418Y-6.0465
X7.4204Y-7.0726
X7.4205Y-6.8746
X7.4209Y-5.4306
X7.4214Y-4.2308
X7.4214Y-4.2976
X7.4219Y-4.1733
X7.4234Y-3.6566
X7.4238Y-3.8745
X7.424Y-3.944
X7.4249Y-4.4231
X7.4274Y-2.7006
X7.4274Y-3.4736
X7.4304Y-3.5906
X7.4352Y-3.702
X7.4392Y-7.8872
X7.4416Y-7.9712
X7.444Y-2.2365
X7.4465Y-2.02
X7.4474Y-5.5435
X7.4479Y-5.458
X7.4516Y-2.705
X7.4524Y-2.7311
X7.4555Y-6.8746
X7.4566Y-6.3776
X7.4578Y-4.5674
X7.4592Y-3.2872
X7.4636Y-2.9802
X7.471Y-6.6746
X7.4724Y-2.8886
X7.4724Y-2.9531
X7.4781Y-5.9811
X7.4794Y-2.2366
X7.489Y-6.5474
X7.4924Y-6.4406
X7.4926Y-6.1671
X7.4926Y-6.1991
X7.498Y-3.576
X7.5002Y-3.6288
X7.5003Y-7.0769
X7.5004Y-3.7392
X7.5006Y-8.1318
X7.5034Y-2.1018
X7.5079Y-5.544
X7.5084Y-5.4585
X7.5104Y-5.9676
X7.5118Y-3.3265
X7.5118Y-3.3815
X7.5118Y-3.4365
X7.5118Y-3.4915
X7.5118Y-3.5465
X7.5118Y-3.6015
X7.5118Y-3.6565
X7.5118Y-3.7115
X7.5118Y-3.8215
X7.5118Y-3.8765
X7.5118Y-3.9315
X7.5118Y-3.9865
X7.5118Y-4.2065
X7.5124Y-4.0616
X7.5129Y-4.1386
X7.519Y-3.2451
X7.5249Y-5.2076
X7.525Y-4.973
X7.5254Y-5.0766
X7.5272Y-7.888
X7.5288Y-7.9728
X7.5294Y-2.6936
X7.5305Y-4.7186
X7.532Y-2.02
X7.5332Y-4.6144
X7.534Y-2.2014
X7.539Y-6.6801
X7.5456Y-2.3312
X7.546Y-2.453
X7.5526Y-2.0826
X7.553Y-2.3646
X7.5542Y-4.4786
X7.5542Y-4.8388
X7.5546Y-2.2224
X7.5558Y-2.5948
X7.5608Y-6.96
X7.561Y-6.9876
X7.5629Y-5.544
X7.5634Y-5.4585
X7.5743Y-4.302
X7.5746Y-6.0131
X7.5746Y-6.0531
X7.5746Y-6.0851
X7.575Y-6.6411
X7.5754Y-6.6796
X7.5756Y-6.1251
X7.5802Y-2.1766
X7.5854Y-3.0626
X7.587Y-4.5554
X7.5872Y-4.506
X7.5876Y-5.1948
X7.589Y-3.0345
X7.5969Y-4.1371
X7.5973Y-3.327
X7.5973Y-3.382
X7.5973Y-3.437
X7.5973Y-3.492
X7.5973Y-3.547
X7.5973Y-3.602
X7.5973Y-3.657
X7.5973Y-3.712
X7.5973Y-3.822
X7.5973Y-3.877
X7.5973Y-3.932
X7.5973Y-3.987
X7.5974Y-4.0601
X7.5998Y-4.2468
X7.6006Y-6.4121
X7.6024Y-5.7866
X7.6054Y-2.5848
X7.6096Y-3.8488
X7.6098Y-3.74
X7.61Y-2.9995
X7.6102Y-3.7796
X7.6158Y-3.576
X7.6159Y-3.0961
X7.6179Y-5.544
X7.6184Y-5.4585
X7.6209Y-3.1716
X7.6209Y-3.2356
X7.6244Y-2.2076
X7.6245Y-7.4406
X7.6305Y-5.947
X7.6314Y-2.1306
X7.6325Y-2.019
X7.6326Y-6.2111
X7.6332Y-3.8558
X7.6374Y-2.4636
X7.6378Y-4.7444
X7.6394Y-4.2248
X7.6394Y-4.6364
X7.6422Y-4.9258
X7.649Y-8.1931
X7.65Y-6.7571
X7.6505Y-7.4406
X7.6522Y-4.2496
X7.6532Y-4.1641
X7.6544Y-5.5446
X7.656Y-4.7952
X7.6572Y-2.4078
X7.6585Y-7.1851
X7.6624Y-5.5906
X7.6638Y-4.041
X7.665Y-3.13
X7.665Y-3.6228
X7.6656Y-6.1611
X7.6664Y-2.5864
X7.6674Y-2.9011
X7.6675Y-2.9665
X7.6716Y-3.8274
X7.6734Y-3.7932
X7.6734Y-5.4585
X7.6746Y-3.7466
X7.6746Y-6.2591
X7.6746Y-6.3351
X7.6754Y-3.6966
X7.6814Y-5.5666
X7.682Y-6.6711
X7.6824Y-7.9816
X7.6914Y-4.2486
X7.6932Y-4.585
X7.6966Y-6.2151
X7.7028Y-2.1612
X7.7067Y-5.8207
X7.725Y-4.8806
X7.725Y-6.8121
X7.7284Y-5.4585
X7.731Y-2.019
X7.7386Y-5.9751
X7.7442Y-6.587
X7.7446Y-5.9151
X7.7484Y-4.4486
X7.7502Y-4.5388
X7.7514Y-3.5372
X7.7514Y-3.9372
X7.7574Y-4.8452
X7.7586Y-2.301
X7.7618Y-2.864
X7.7714Y-2.2304
X7.7767Y-5.6927
X7.7786Y-6.3591
X7.7806Y-6.1851
X7.7814Y-2.768
X7.7818Y-2.9052
X7.7818Y-3.2092
X7.7829Y-5.544
X7.7832Y-2.4566
X7.7834Y-5.4585
X7.7842Y-2.6694
X7.7907Y-5.6627
X7.7912Y-3.4688
X7.7958Y-3.7556
X7.7974Y-4.6106
X7.798Y-4.548
X7.8024Y-6.3776
X7.8064Y-4.022
X7.8074Y-3.6826
X7.8094Y-3.4096
X7.8094Y-3.6566
X7.8182Y-4.2264
X7.8199Y-3.1506
X7.82Y-3.216
X7.8204Y-3.0216
X7.8205Y-3.087
X7.829Y-3.4312
X7.829Y-3.7056
X7.831Y-4.7636
X7.8356Y-6.4711
X7.8372Y-4.3212
X7.8379Y-5.544
X7.8384Y-5.4585
X7.8408Y-2.4746
X7.8454Y-5.051
X7.8556Y-6.0351
X7.856Y-3.6056
X7.8586Y-2.8284
X7.8598Y-2.7926
X7.8606Y-2.9318
X7.8626Y-6.2611
X7.8642Y-4.5369
X7.8709Y-4.2861
X7.8711Y-4.2467
X7.8736Y-6.4721
X7.8742Y-4.4318
X7.8744Y-5.3936
X7.8744Y-5.6106
X7.8746Y-5.1614
X7.8748Y-4.9428
X7.8766Y-6.2911
X7.8796Y-4.0548
X7.8808Y-2.2826
X7.8887Y-4.5634
X7.8926Y-6.2611
X7.899Y-3.721
X7.9012Y-2.39
X7.9012Y-4.7812
X7.9022Y-4.5379
X7.9044Y-6.3016
X7.9054Y-2.6788
X7.9146Y-6.1471
X7.9176Y-6.4711
X7.9252Y-2.6444
X7.9267Y-4.5644
X7.9274Y-2.3738
X7.9274Y-2.5862
X7.9346Y-6.1231
X7.936Y-4.649
X7.9384Y-6.4366
X7.9422Y-4.8
X7.9446Y-6.1531
X7.9462Y-4.5369
X7.9556Y-6.4721
X7.9588Y-5.394
X7.9588Y-5.6104
X7.9596Y-5.1594
X7.9598Y-4.943
X7.9608Y-4.5952
X7.9834Y-4.7306
X7.9842Y-4.5379
X7.9924Y-6.3266
X7.9974Y-2.9626
X7.9975Y-2.763
X7.9975Y-3.028
X7.9979Y-2.8336
X7.998Y-2.899
X8.001Y-2.2638
X8.0027Y-4.3322
X8.0054Y-4.0036
X8.0064Y-4.0984
X8.007Y-4.1482
X8.007Y-4.2076
X8.0084Y-6.0236
X8.0096Y-3.9581
X8.0128Y-2.7058
X8.0208Y-3.6968
X8.0214Y-4.6494
X8.0264Y-4.0396
X8.0274Y-2.514
X8.0296Y-3.9341
X8.0396Y-3.9641
X8.0434Y-5.1602
X8.0434Y-5.3942
X8.0434Y-5.6104
X8.044Y-4.9446
X8.0518Y-3.7958
X8.0532Y-3.7462
T2
X3.9104Y-2.9344
X5.4748Y-2.7186
X5.7Y-2.5314
X6.0715Y-8.2284
X6.2417Y-2.7909
X6.9411Y-8.2289
X7.0632Y-2.9511
X7.0938Y-8.2793
X7.099Y-7.7915
X7.1168Y-3.2489
X7.1987Y-3.6702
X7.294Y-3.9131
X7.3896Y-4.0613
X7.4786Y-3.2127
X7.5534Y-4.1566
X7.5536Y-4.0143
X7.5728Y-7.9322
T5
X3.5454Y-5.3265
X3.5454Y-5.5265
X3.5454Y-5.8273
X3.5454Y-6.2273
X3.5454Y-6.4273
X3.5454Y-6.6273
X3.5454Y-6.8273
X3.5454Y-7.0273
X3.5454Y-7.2273
X3.5474Y-6.0273
T6
X3.2541Y-2.1019
X3.2541Y-7.5113
X4.5202Y-4.0781
X4.5202Y-5.8781
X4.5202Y-7.6781
X5.9864Y-2.1019
X6.6202Y-4.0781
X6.6202Y-5.8781
X6.6202Y-7.6781
T7
X3.2754Y-8.2576
X7.9364Y-2.1236
X7.9374Y-8.2576
T3
X7.7948Y-7.1957G85X7.8933Y-7.1957
G05
X7.972Y-7.4338G85X7.972Y-7.3354
G05
T4
X7.7259Y-7.4338G85X7.7259Y-7.3354
G05
T0
M30
