G04 #@! TF.FileFunction,Paste,Top*
%FSLAX46Y46*%
G04 Gerber Fmt 4.6, Leading zero omitted, Abs format (unit mm)*
G04 Created by KiCad (PCBNEW 4.0.7) date Fri Sep 20 17:05:35 2019*
%MOMM*%
%LPD*%
G01*
G04 APERTURE LIST*
%ADD10C,0.150000*%
%ADD11R,0.302000X0.212000*%
%ADD12R,1.907000X2.427700*%
%ADD13R,0.713200X1.500600*%
%ADD14R,0.916400X5.336000*%
%ADD15R,2.002000X3.752000*%
%ADD16R,13.002000X1.502000*%
%ADD17R,1.502000X1.602000*%
%ADD18R,1.202000X1.202000*%
%ADD19R,0.612000X1.247000*%
%ADD20R,1.042000X1.802000*%
%ADD21R,0.452000X0.552000*%
%ADD22R,1.102000X0.602000*%
%ADD23R,0.552000X0.452000*%
%ADD24R,2.402000X0.742000*%
%ADD25R,3.202000X1.272000*%
%ADD26R,3.202400X1.272000*%
%ADD27R,1.272000X3.202000*%
%ADD28R,1.272000X3.202400*%
%ADD29R,0.902000X0.902000*%
%ADD30R,0.282000X0.202000*%
%ADD31R,0.202000X0.282000*%
%ADD32R,1.526000X2.034000*%
%ADD33R,2.034000X1.526000*%
%ADD34R,0.802000X1.602000*%
%ADD35R,0.799560X0.799560*%
%ADD36R,4.002000X1.202000*%
%ADD37R,1.202000X4.002000*%
%ADD38R,5.002000X2.002000*%
%ADD39R,1.002000X0.702000*%
%ADD40R,0.602000X2.002000*%
%ADD41R,0.602000X1.102000*%
%ADD42R,1.401540X0.901160*%
%ADD43R,0.702000X0.802000*%
%ADD44R,0.497300X0.497300*%
%ADD45R,0.901160X1.401540*%
%ADD46R,0.802000X0.702000*%
%ADD47R,0.451580X2.000980*%
%ADD48R,2.000980X0.451580*%
%ADD49R,0.602000X0.952000*%
%ADD50R,1.552000X0.602000*%
%ADD51R,0.952000X0.602000*%
%ADD52R,0.502000X0.402000*%
%ADD53R,0.652000X0.352000*%
%ADD54R,0.552000X0.252000*%
%ADD55R,0.902000X0.602000*%
%ADD56R,3.002000X3.002000*%
%ADD57R,2.002000X1.052000*%
%ADD58R,0.652000X0.302000*%
%ADD59R,0.700500X0.799560*%
%ADD60R,0.799560X0.700500*%
%ADD61R,1.002000X0.352000*%
%ADD62R,0.352000X1.002000*%
%ADD63R,0.702000X0.402000*%
%ADD64R,2.102000X0.402000*%
%ADD65R,0.802000X0.652000*%
%ADD66R,1.552000X0.652000*%
%ADD67R,0.552000X0.152000*%
%ADD68R,0.702000X0.452000*%
%ADD69R,0.202000X0.052000*%
%ADD70R,0.352000X0.252000*%
%ADD71R,0.702000X0.602000*%
%ADD72R,1.142000X3.052000*%
%ADD73R,1.002000X2.802000*%
%ADD74R,1.002000X2.202000*%
%ADD75R,1.002000X1.002000*%
%ADD76R,0.700500X1.052000*%
%ADD77R,1.602000X1.502000*%
%ADD78R,0.802000X0.902000*%
%ADD79R,1.602000X2.502000*%
%ADD80R,0.902000X0.452000*%
%ADD81R,2.162000X4.912000*%
%ADD82R,2.262000X7.112000*%
%ADD83R,2.162000X1.522000*%
%ADD84R,0.702000X1.002000*%
%ADD85R,1.502000X2.222000*%
%ADD86R,0.952000X0.302000*%
%ADD87R,0.302000X0.952000*%
%ADD88R,2.152000X2.152000*%
%ADD89R,1.202000X3.002000*%
%ADD90R,0.902000X0.802000*%
%ADD91R,3.002000X1.202000*%
%ADD92R,0.302000X0.662000*%
%ADD93R,0.802000X1.102000*%
%ADD94R,0.802000X1.502000*%
%ADD95R,2.102000X1.002000*%
%ADD96R,1.002000X2.102000*%
%ADD97R,0.802000X1.702000*%
%ADD98R,0.852000X0.352000*%
%ADD99R,0.352000X0.852000*%
%ADD100R,1.202000X1.402000*%
%ADD101R,2.802000X1.402000*%
%ADD102R,4.002000X4.002000*%
%ADD103R,3.152000X1.202000*%
%ADD104R,1.222000X2.992000*%
%ADD105R,0.402000X0.402000*%
%ADD106R,0.902000X0.402000*%
%ADD107R,0.402000X0.732000*%
%ADD108R,0.732000X0.402000*%
%ADD109R,0.732000X0.732000*%
%ADD110R,0.677000X0.402000*%
%ADD111R,0.402000X0.677000*%
%ADD112R,1.277000X2.957000*%
%ADD113R,2.902000X6.802000*%
%ADD114R,0.302000X0.502000*%
%ADD115R,5.452000X2.957000*%
%ADD116R,2.902000X0.892000*%
%ADD117R,1.182000X0.702000*%
%ADD118R,0.402000X0.702000*%
%ADD119R,1.002000X0.542000*%
%ADD120R,1.502000X0.452000*%
%ADD121R,0.702000X1.182000*%
%ADD122R,0.252000X0.202000*%
%ADD123R,0.802000X2.502000*%
%ADD124R,0.302000X0.852000*%
%ADD125R,0.852000X0.302000*%
%ADD126R,3.202000X3.202000*%
%ADD127R,1.402000X1.342000*%
%ADD128R,1.902000X1.702000*%
%ADD129R,0.602000X2.402000*%
%ADD130R,2.102000X1.272000*%
%ADD131R,1.342000X1.402000*%
%ADD132R,1.702000X1.902000*%
%ADD133R,2.402000X0.602000*%
%ADD134R,0.632000X0.832000*%
%ADD135R,1.092000X0.992000*%
%ADD136R,0.312000X0.422000*%
%ADD137R,0.417000X0.312000*%
%ADD138R,0.392000X0.312000*%
%ADD139R,0.433000X0.328000*%
%ADD140R,0.408000X0.328000*%
%ADD141R,0.432000X0.942000*%
%ADD142R,0.342000X0.242000*%
%ADD143R,0.342000X0.232000*%
%ADD144R,2.427700X1.907000*%
%ADD145R,1.500600X0.713200*%
%ADD146R,5.336000X0.916400*%
%ADD147R,0.702000X0.702000*%
%ADD148R,0.442000X0.202000*%
%ADD149R,0.202000X0.442000*%
G04 APERTURE END LIST*
D10*
D11*
X150891700Y-91352020D03*
X150641700Y-92152020D03*
X151141700Y-92152020D03*
X151141700Y-91752020D03*
X150641700Y-91752020D03*
D10*
G36*
X151728360Y-118837580D02*
X151233060Y-119334880D01*
X150316660Y-119334880D01*
X149821360Y-118837580D01*
X151728360Y-118837580D01*
X151728360Y-118837580D01*
G37*
D12*
X150774860Y-117625730D03*
D13*
X152273460Y-120502280D03*
D14*
X150774860Y-118584580D03*
D13*
X149276260Y-120502280D03*
D10*
G36*
X149821360Y-116413880D02*
X150316660Y-115916580D01*
X151233060Y-115916580D01*
X151728360Y-116413880D01*
X149821360Y-116413880D01*
X149821360Y-116413880D01*
G37*
D15*
X174794600Y-190271400D03*
X183294600Y-190271400D03*
D16*
X141242680Y-191301100D03*
X141242680Y-188801100D03*
X141242680Y-193801100D03*
D17*
X135862860Y-185478020D03*
D18*
X139112860Y-186478020D03*
X139112860Y-184478020D03*
D19*
X166279820Y-139673320D03*
X166279820Y-137818320D03*
D20*
X164654820Y-138745820D03*
X167904820Y-138745820D03*
D21*
X128573940Y-140655940D03*
X127623940Y-140655940D03*
D22*
X128898940Y-143655940D03*
X128898940Y-144605940D03*
X128898940Y-145555940D03*
X126298940Y-145555940D03*
X126298940Y-144605940D03*
X126298940Y-143655940D03*
D23*
X118748940Y-166030940D03*
X118748940Y-166980940D03*
D10*
G36*
X108884070Y-143269262D02*
X108182196Y-143270676D01*
X107534204Y-142622684D01*
X107535618Y-141920810D01*
X108884070Y-143269262D01*
X108884070Y-143269262D01*
G37*
G36*
X107534204Y-141922223D02*
X109250847Y-140205580D01*
X110599300Y-141554033D01*
X108882657Y-143270676D01*
X107534204Y-141922223D01*
X107534204Y-141922223D01*
G37*
G36*
X107309698Y-145110214D02*
X108370782Y-144049130D01*
X108875090Y-144553438D01*
X107814006Y-145614522D01*
X107309698Y-145110214D01*
X107309698Y-145110214D01*
G37*
G36*
X106178186Y-143978702D02*
X109951308Y-140205580D01*
X110599300Y-140853572D01*
X106826178Y-144626694D01*
X106178186Y-143978702D01*
X106178186Y-143978702D01*
G37*
G36*
X105190358Y-142990874D02*
X106251442Y-141929790D01*
X106755750Y-142434098D01*
X105694666Y-143495182D01*
X105190358Y-142990874D01*
X105190358Y-142990874D01*
G37*
G36*
X109249433Y-140206995D02*
X109951307Y-140205581D01*
X110599299Y-140853573D01*
X110597885Y-141555447D01*
X109249433Y-140206995D01*
X109249433Y-140206995D01*
G37*
D24*
X102388780Y-58053980D03*
X106263780Y-58053980D03*
X102363780Y-55513980D03*
X106263780Y-55513980D03*
X106263780Y-56783980D03*
X102363780Y-56783980D03*
X102363780Y-54243980D03*
X106263780Y-54243980D03*
X106263780Y-52973980D03*
X102363780Y-52973980D03*
D25*
X114543820Y-52914980D03*
X114543820Y-55489980D03*
X114543820Y-58029980D03*
D26*
X119693820Y-52914980D03*
D25*
X119693820Y-55489980D03*
X119693820Y-58029980D03*
D27*
X196859380Y-174440980D03*
X194284380Y-174440980D03*
X191744380Y-174440980D03*
D28*
X196859380Y-179590980D03*
D27*
X194284380Y-179590980D03*
X191744380Y-179590980D03*
D17*
X138248940Y-143955940D03*
D18*
X141498940Y-144955940D03*
X141498940Y-142955940D03*
D29*
X183807280Y-88272520D03*
D30*
X184702280Y-88672520D03*
X184702280Y-87872520D03*
X184702280Y-88272520D03*
D31*
X183132280Y-89167520D03*
X183582280Y-89167520D03*
X184032280Y-89167520D03*
X184482280Y-89167520D03*
X183132280Y-87377520D03*
X183582280Y-87377520D03*
X184032280Y-87377520D03*
D30*
X182912280Y-87872520D03*
X182912280Y-88672520D03*
X182912280Y-88272520D03*
D31*
X184482280Y-87377520D03*
D32*
X154584860Y-77472140D03*
X151282860Y-77472140D03*
D33*
X167239140Y-85549340D03*
X167239140Y-88851340D03*
X154813460Y-90421060D03*
X154813460Y-87119060D03*
D32*
X169621200Y-95986600D03*
X172923200Y-95986600D03*
D33*
X124403780Y-113674980D03*
X124403780Y-110372980D03*
X140548940Y-116154940D03*
X140548940Y-119456940D03*
D21*
X148273940Y-166155940D03*
X149223940Y-166155940D03*
D10*
G36*
X145925320Y-154551600D02*
X145430020Y-155048900D01*
X144513620Y-155048900D01*
X144018320Y-154551600D01*
X145925320Y-154551600D01*
X145925320Y-154551600D01*
G37*
D12*
X144971820Y-153339750D03*
D13*
X146470420Y-156216300D03*
D14*
X144971820Y-154298600D03*
D13*
X143473220Y-156216300D03*
D10*
G36*
X144018320Y-152127900D02*
X144513620Y-151630600D01*
X145430020Y-151630600D01*
X145925320Y-152127900D01*
X144018320Y-152127900D01*
X144018320Y-152127900D01*
G37*
G36*
X144004760Y-144846640D02*
X144500060Y-144349340D01*
X145416460Y-144349340D01*
X145911760Y-144846640D01*
X144004760Y-144846640D01*
X144004760Y-144846640D01*
G37*
D12*
X144958260Y-146058490D03*
D10*
G36*
X145911760Y-147270340D02*
X145416460Y-147767640D01*
X144500060Y-147767640D01*
X144004760Y-147270340D01*
X145911760Y-147270340D01*
X145911760Y-147270340D01*
G37*
D34*
X146458260Y-148884340D03*
D14*
X144958260Y-147017340D03*
D34*
X143458260Y-148884340D03*
D21*
X150073940Y-143255940D03*
X151023940Y-143255940D03*
D10*
G36*
X151766960Y-138108680D02*
X151271660Y-138605980D01*
X150355260Y-138605980D01*
X149859960Y-138108680D01*
X151766960Y-138108680D01*
X151766960Y-138108680D01*
G37*
D12*
X150813460Y-136896830D03*
D13*
X152312060Y-139773380D03*
D14*
X150813460Y-137855680D03*
D13*
X149314860Y-139773380D03*
D10*
G36*
X149859960Y-135684980D02*
X150355260Y-135187680D01*
X151271660Y-135187680D01*
X151766960Y-135684980D01*
X149859960Y-135684980D01*
X149859960Y-135684980D01*
G37*
D23*
X114498940Y-97080940D03*
X114498940Y-98030940D03*
D10*
G36*
X114603720Y-92218380D02*
X114108420Y-92715680D01*
X113192020Y-92715680D01*
X112696720Y-92218380D01*
X114603720Y-92218380D01*
X114603720Y-92218380D01*
G37*
D12*
X113650220Y-91006530D03*
D13*
X115148820Y-93883080D03*
D14*
X113650220Y-91965380D03*
D13*
X112151620Y-93883080D03*
D10*
G36*
X112696720Y-89794680D02*
X113192020Y-89297380D01*
X114108420Y-89297380D01*
X114603720Y-89794680D01*
X112696720Y-89794680D01*
X112696720Y-89794680D01*
G37*
D21*
X140764740Y-173737240D03*
X139814740Y-173737240D03*
D35*
X81820440Y-145228180D03*
X83420640Y-145228180D03*
D36*
X200545580Y-170678680D03*
X202145580Y-173218680D03*
X202145580Y-168138680D03*
D37*
X193125780Y-146866380D03*
X195665780Y-145266380D03*
X190585780Y-145266380D03*
D36*
X191756980Y-187597620D03*
X190156980Y-185057620D03*
X190156980Y-190137620D03*
D38*
X82753780Y-93373980D03*
X82753780Y-87873980D03*
X82753780Y-90623980D03*
X82743780Y-78253980D03*
X82743780Y-72753980D03*
X82743780Y-75503980D03*
X202153780Y-196193980D03*
X202153780Y-201693980D03*
X202153780Y-198943980D03*
X202153780Y-137003980D03*
X202153780Y-142503980D03*
X202153780Y-139753980D03*
X202173260Y-125551620D03*
X202173260Y-131051620D03*
X202173260Y-128301620D03*
X202158700Y-109766640D03*
X202158700Y-115266640D03*
X202158700Y-112516640D03*
X202142780Y-80781580D03*
X202142780Y-86281580D03*
X202142780Y-83531580D03*
D39*
X115483780Y-110683980D03*
X115483780Y-112583980D03*
X113083780Y-112583980D03*
X113083780Y-110683980D03*
X113083780Y-111633980D03*
D40*
X86748780Y-189453980D03*
X88018780Y-189453980D03*
X89288780Y-189453980D03*
X90558780Y-189453980D03*
X91828780Y-189453980D03*
X93098780Y-189453980D03*
X94368780Y-189453980D03*
X95638780Y-189453980D03*
X86748780Y-195453980D03*
X88018780Y-195453980D03*
X89288780Y-195453980D03*
X90558780Y-195453980D03*
X91828780Y-195453980D03*
X93098780Y-195453980D03*
X94368780Y-195453980D03*
X95638780Y-195453980D03*
D41*
X90699200Y-204797520D03*
X91649200Y-204797520D03*
X92599200Y-204797520D03*
X92599200Y-207397520D03*
X91649200Y-207397520D03*
X90699200Y-207397520D03*
D42*
X165733780Y-209501480D03*
X165733780Y-211406480D03*
X165733780Y-199471480D03*
X165733780Y-201376480D03*
X161033780Y-197521480D03*
X161033780Y-199426480D03*
X161063780Y-200661480D03*
X161063780Y-202566480D03*
X161033780Y-203791480D03*
X161033780Y-205696480D03*
X161033780Y-206951480D03*
X161033780Y-208856480D03*
X161043780Y-210101480D03*
X161043780Y-212006480D03*
D43*
X159403780Y-197493980D03*
X157903780Y-197493980D03*
D44*
X159403780Y-199534400D03*
X159403780Y-200433560D03*
X162613780Y-205244400D03*
X162613780Y-206143560D03*
X162603780Y-208884400D03*
X162603780Y-209783560D03*
X159603360Y-212003980D03*
X158704200Y-212003980D03*
D45*
X163831280Y-211403980D03*
X165736280Y-211403980D03*
X165726280Y-199473980D03*
X163821280Y-199473980D03*
D43*
X159403780Y-202573980D03*
X157903780Y-202573980D03*
D46*
X159323780Y-208863980D03*
X159323780Y-210363980D03*
D47*
X95070000Y-63749820D03*
X94269900Y-63749820D03*
X93469800Y-63749820D03*
X92669700Y-63749820D03*
X91869600Y-63749820D03*
X91069500Y-63749820D03*
X90269400Y-63749820D03*
X89469300Y-63749820D03*
X89474380Y-54184180D03*
X95087780Y-54184180D03*
X94274980Y-54184180D03*
X93462180Y-54184180D03*
X92674780Y-54184180D03*
X91861980Y-54184180D03*
X91074580Y-54184180D03*
X90261780Y-54184180D03*
D48*
X87467780Y-61758460D03*
X87467780Y-60960900D03*
X87467780Y-60158260D03*
X87467780Y-59360700D03*
X87467780Y-58558060D03*
X87467780Y-57760500D03*
X87467780Y-56957860D03*
X87467780Y-56160300D03*
X97068980Y-61753380D03*
X97068980Y-60965980D03*
X97068980Y-60153180D03*
X97068980Y-59365780D03*
X97068980Y-58578380D03*
X97068980Y-57765580D03*
X97068980Y-56952780D03*
X97068980Y-56139980D03*
D45*
X119456280Y-113833980D03*
X117551280Y-113833980D03*
D42*
X137848780Y-117681480D03*
X137848780Y-119586480D03*
D43*
X199260580Y-155591380D03*
X197760580Y-155591380D03*
D44*
X192463160Y-162866980D03*
X191564000Y-162866980D03*
D49*
X199237740Y-105376480D03*
X198287740Y-105376480D03*
X197337740Y-105376480D03*
X197337740Y-103126480D03*
X199237740Y-103126480D03*
X198287740Y-103126480D03*
D50*
X192709920Y-112366780D03*
X192709920Y-113636780D03*
X192709920Y-114906780D03*
X192709920Y-119986780D03*
X192709920Y-118716780D03*
X192709920Y-117446780D03*
X192709920Y-116176780D03*
X198109920Y-112366780D03*
X198109920Y-113636780D03*
X198109920Y-114906780D03*
X198109920Y-119986780D03*
X198109920Y-118716780D03*
X198109920Y-117446780D03*
X198109920Y-116176780D03*
D51*
X117173780Y-117808980D03*
X117173780Y-118758980D03*
X117173780Y-119708980D03*
X114923780Y-119708980D03*
X114923780Y-117808980D03*
X114923780Y-118758980D03*
D46*
X189572680Y-174272080D03*
X189572680Y-175772080D03*
D10*
G36*
X142486866Y-104260965D02*
X143053965Y-103693866D01*
X143550354Y-104190255D01*
X142983255Y-104757354D01*
X142486866Y-104260965D01*
X142486866Y-104260965D01*
G37*
G36*
X143547526Y-105321625D02*
X144114625Y-104754526D01*
X144611014Y-105250915D01*
X144043915Y-105818014D01*
X143547526Y-105321625D01*
X143547526Y-105321625D01*
G37*
D43*
X133548940Y-95505940D03*
X132048940Y-95505940D03*
X130598940Y-93805940D03*
X129098940Y-93805940D03*
D52*
X138956040Y-78693800D03*
X138956040Y-79343800D03*
X138956040Y-79993800D03*
X140856040Y-79993800D03*
X140856040Y-79343800D03*
X140856040Y-78693800D03*
D10*
G36*
X109480540Y-186513340D02*
X108985240Y-187010640D01*
X108068840Y-187010640D01*
X107573540Y-186513340D01*
X109480540Y-186513340D01*
X109480540Y-186513340D01*
G37*
D12*
X108527040Y-185301490D03*
D13*
X110025640Y-188178040D03*
D14*
X108527040Y-186260340D03*
D13*
X107028440Y-188178040D03*
D10*
G36*
X107573540Y-184089640D02*
X108068840Y-183592340D01*
X108985240Y-183592340D01*
X109480540Y-184089640D01*
X107573540Y-184089640D01*
X107573540Y-184089640D01*
G37*
D53*
X141398940Y-130005940D03*
X141398940Y-129455940D03*
X141398940Y-128905940D03*
X140498940Y-130005940D03*
X140498940Y-128905940D03*
X140498940Y-129455940D03*
D54*
X143498980Y-114406220D03*
X143498980Y-113906220D03*
X143498980Y-113406220D03*
X142698980Y-114406220D03*
X142698980Y-113406220D03*
X142698980Y-113906220D03*
D22*
X129789780Y-157883200D03*
X129789780Y-158833200D03*
X129789780Y-159783200D03*
X127189780Y-159783200D03*
X127189780Y-158833200D03*
X127189780Y-157883200D03*
D10*
G36*
X182444918Y-66521150D02*
X183146792Y-66519736D01*
X183794784Y-67167728D01*
X183793370Y-67869602D01*
X182444918Y-66521150D01*
X182444918Y-66521150D01*
G37*
G36*
X183794785Y-67868188D02*
X182078142Y-69584831D01*
X180729689Y-68236378D01*
X182446332Y-66519735D01*
X183794785Y-67868188D01*
X183794785Y-67868188D01*
G37*
G36*
X184019291Y-64680197D02*
X182958207Y-65741281D01*
X182453899Y-65236973D01*
X183514983Y-64175889D01*
X184019291Y-64680197D01*
X184019291Y-64680197D01*
G37*
G36*
X185150803Y-65811709D02*
X181377681Y-69584831D01*
X180729689Y-68936839D01*
X184502811Y-65163717D01*
X185150803Y-65811709D01*
X185150803Y-65811709D01*
G37*
G36*
X186138631Y-66799537D02*
X185077547Y-67860621D01*
X184573239Y-67356313D01*
X185634323Y-66295229D01*
X186138631Y-66799537D01*
X186138631Y-66799537D01*
G37*
G36*
X182079555Y-69583417D02*
X181377681Y-69584831D01*
X180729689Y-68936839D01*
X180731103Y-68234965D01*
X182079555Y-69583417D01*
X182079555Y-69583417D01*
G37*
D22*
X166398940Y-135605940D03*
X166398940Y-134655940D03*
X166398940Y-133705940D03*
X168998940Y-133705940D03*
X168998940Y-134655940D03*
X168998940Y-135605940D03*
D39*
X134209940Y-79392020D03*
X134209940Y-81292020D03*
X131809940Y-81292020D03*
X131809940Y-79392020D03*
X131809940Y-80342020D03*
D22*
X144054300Y-126874040D03*
X144054300Y-125924040D03*
X144054300Y-124974040D03*
X146654300Y-124974040D03*
X146654300Y-125924040D03*
X146654300Y-126874040D03*
D55*
X99308900Y-74525700D03*
X99308900Y-75475700D03*
X99308900Y-76425700D03*
X96708900Y-74525700D03*
X96708900Y-75475700D03*
X96708900Y-76425700D03*
X91285040Y-89719980D03*
X91285040Y-90669980D03*
X91285040Y-91619980D03*
X88685040Y-89719980D03*
X88685040Y-90669980D03*
X88685040Y-91619980D03*
D44*
X145733540Y-120562100D03*
X144834380Y-120562100D03*
D43*
X140804660Y-184462020D03*
X142304660Y-184462020D03*
X142304660Y-186504180D03*
X140804660Y-186504180D03*
X146998940Y-139005940D03*
X145498940Y-139005940D03*
D44*
X156896840Y-120483360D03*
X155997680Y-120483360D03*
D43*
X109264340Y-196953740D03*
X107764340Y-196953740D03*
D45*
X108107940Y-191441940D03*
X110012940Y-191441940D03*
D43*
X99445840Y-181726440D03*
X100945840Y-181726440D03*
D46*
X102037340Y-180252540D03*
X102037340Y-181752540D03*
D43*
X99433140Y-178995940D03*
X100933140Y-178995940D03*
D44*
X137349360Y-113855940D03*
X138248520Y-113855940D03*
X141667280Y-155167280D03*
X141667280Y-154268120D03*
X141672360Y-152205200D03*
X140773200Y-152205200D03*
X141672360Y-153257200D03*
X140773200Y-153257200D03*
X123916900Y-86166560D03*
X124816060Y-86166560D03*
X143603780Y-82064400D03*
X143603780Y-82963560D03*
X171813220Y-93202760D03*
X172712380Y-93202760D03*
X155969160Y-95313100D03*
X155070000Y-95313100D03*
X178571580Y-80872200D03*
X178571580Y-81771360D03*
X171805600Y-92290900D03*
X171805600Y-93190060D03*
X172783500Y-79014320D03*
X173682660Y-79014320D03*
X156121560Y-81150060D03*
X155222400Y-81150060D03*
X172786040Y-79910940D03*
X172786040Y-79011780D03*
X146180000Y-83837380D03*
X147079160Y-83837380D03*
X152052480Y-93088060D03*
X151153320Y-93088060D03*
X146174920Y-84914340D03*
X147074080Y-84914340D03*
X151661320Y-90288980D03*
X150762160Y-90288980D03*
D43*
X158190620Y-138654380D03*
X156690620Y-138654380D03*
X146998940Y-137905940D03*
X145498940Y-137905940D03*
D46*
X137998940Y-139005940D03*
X137998940Y-137505940D03*
D43*
X139253780Y-140083980D03*
X137753780Y-140083980D03*
D44*
X134389320Y-129460860D03*
X133490160Y-129460860D03*
X126482880Y-129365740D03*
X125583720Y-129365740D03*
X99243540Y-113732920D03*
X99243540Y-112833760D03*
D46*
X133886980Y-126629460D03*
X133886980Y-128129460D03*
D43*
X135900780Y-157638700D03*
X137400780Y-157638700D03*
D46*
X154163220Y-123175060D03*
X154163220Y-121675060D03*
D43*
X164862540Y-160726460D03*
X163362540Y-160726460D03*
D44*
X149819820Y-84754320D03*
X149819820Y-83855160D03*
X150807880Y-88622740D03*
X151707040Y-88622740D03*
D43*
X160834760Y-138646760D03*
X159334760Y-138646760D03*
X156675380Y-139805000D03*
X158175380Y-139805000D03*
X154038860Y-138646760D03*
X155538860Y-138646760D03*
X154046480Y-139835480D03*
X155546480Y-139835480D03*
D44*
X146935760Y-140162000D03*
X146036600Y-140162000D03*
D43*
X145103780Y-141183980D03*
X143603780Y-141183980D03*
X142572740Y-140085800D03*
X141072740Y-140085800D03*
D46*
X139248940Y-137505940D03*
X139248940Y-139005940D03*
D10*
G36*
X136311014Y-139200915D02*
X135743915Y-139768014D01*
X135247526Y-139271625D01*
X135814625Y-138704526D01*
X136311014Y-139200915D01*
X136311014Y-139200915D01*
G37*
G36*
X135250354Y-138140255D02*
X134683255Y-138707354D01*
X134186866Y-138210965D01*
X134753965Y-137643866D01*
X135250354Y-138140255D01*
X135250354Y-138140255D01*
G37*
D44*
X154976600Y-120483360D03*
X154077440Y-120483360D03*
X156670780Y-125029960D03*
X156670780Y-124130800D03*
X155614140Y-125029960D03*
X155614140Y-124130800D03*
X147684260Y-120562100D03*
X146785100Y-120562100D03*
D46*
X138498940Y-114955940D03*
X138498940Y-116455940D03*
X137298940Y-114955940D03*
X137298940Y-116455940D03*
D43*
X129948700Y-109217380D03*
X131448700Y-109217380D03*
X129923300Y-110340060D03*
X131423300Y-110340060D03*
D46*
X127792940Y-114590180D03*
X127792940Y-113090180D03*
X126553420Y-114605420D03*
X126553420Y-113105420D03*
D33*
X121548580Y-111789080D03*
X121548580Y-108487080D03*
D44*
X116963780Y-110674400D03*
X116963780Y-111573560D03*
X99228300Y-114754000D03*
X99228300Y-115653160D03*
X134999360Y-128155940D03*
X135898520Y-128155940D03*
X126617500Y-128304020D03*
X126617500Y-127404860D03*
X124231860Y-83113480D03*
X124231860Y-84012640D03*
X129073100Y-84104080D03*
X129073100Y-85003240D03*
X164332340Y-100597840D03*
X164332340Y-99698680D03*
D42*
X152338460Y-85002240D03*
X152338460Y-86907240D03*
D44*
X145844200Y-93703980D03*
X146743360Y-93703980D03*
X150627540Y-74741640D03*
X150627540Y-73842480D03*
X145627780Y-76097000D03*
X145627780Y-76996160D03*
X147149240Y-80036540D03*
X146250080Y-80036540D03*
X100343360Y-113694820D03*
X101242520Y-113694820D03*
X99248620Y-104746400D03*
X99248620Y-105645560D03*
X104981200Y-90687760D03*
X105880360Y-90687760D03*
X162771280Y-62757920D03*
X163670440Y-62757920D03*
D43*
X139277260Y-156437980D03*
X137777260Y-156437980D03*
D46*
X133719040Y-157679340D03*
X133719040Y-159179340D03*
D43*
X131448940Y-155355940D03*
X129948940Y-155355940D03*
D42*
X141283780Y-199136480D03*
X141283780Y-197231480D03*
X143603780Y-199176480D03*
X143603780Y-197271480D03*
X143393780Y-211846480D03*
X143393780Y-209941480D03*
D56*
X107783780Y-203313980D03*
X107783780Y-208313980D03*
D43*
X151815280Y-156114700D03*
X150315280Y-156114700D03*
D42*
X137292380Y-79353960D03*
X137292380Y-81258960D03*
D43*
X141812760Y-156424580D03*
X140312760Y-156424580D03*
D44*
X117696440Y-87723580D03*
X118595600Y-87723580D03*
X119771620Y-83057600D03*
X119771620Y-83956760D03*
X121051780Y-83057600D03*
X121051780Y-83956760D03*
X111051800Y-127601580D03*
X111950960Y-127601580D03*
X108887720Y-87291780D03*
X109786880Y-87291780D03*
X135646460Y-79379360D03*
X135646460Y-80278520D03*
X130419140Y-79374280D03*
X130419140Y-80273440D03*
D42*
X128691940Y-79359040D03*
X128691940Y-81264040D03*
D46*
X167005000Y-94251080D03*
X167005000Y-95751080D03*
D43*
X170892460Y-98116260D03*
X172392460Y-98116260D03*
X159184100Y-88958020D03*
X160684100Y-88958020D03*
D44*
X159164480Y-89999420D03*
X160063640Y-89999420D03*
D43*
X157224620Y-92590220D03*
X155724620Y-92590220D03*
X157209380Y-93900860D03*
X155709380Y-93900860D03*
X167240980Y-82379420D03*
X168740980Y-82379420D03*
X167246060Y-81251660D03*
X168746060Y-81251660D03*
X159290780Y-75562060D03*
X160790780Y-75562060D03*
D44*
X159291480Y-74474940D03*
X160190640Y-74474940D03*
D43*
X157951060Y-78584660D03*
X156451060Y-78584660D03*
X157951060Y-79788620D03*
X156451060Y-79788620D03*
D44*
X189337140Y-52178820D03*
X188437980Y-52178820D03*
X191836500Y-52209300D03*
X190937340Y-52209300D03*
D10*
G36*
X182578525Y-62882734D02*
X182011426Y-62315635D01*
X182507815Y-61819246D01*
X183074914Y-62386345D01*
X182578525Y-62882734D01*
X182578525Y-62882734D01*
G37*
G36*
X183639185Y-61822074D02*
X183072086Y-61254975D01*
X183568475Y-60758586D01*
X184135574Y-61325685D01*
X183639185Y-61822074D01*
X183639185Y-61822074D01*
G37*
D57*
X164460380Y-54034840D03*
D22*
X162960380Y-55259840D03*
D57*
X164460380Y-56484840D03*
D22*
X165960380Y-55259840D03*
D58*
X165440780Y-59125720D03*
D46*
X166390780Y-59675720D03*
D58*
X167340780Y-59125720D03*
D46*
X166390780Y-58575720D03*
D45*
X153096440Y-177605940D03*
X155001440Y-177605940D03*
X138518720Y-176268760D03*
X136613720Y-176268760D03*
D44*
X113377980Y-98211560D03*
X113377980Y-99110720D03*
X117599920Y-176099440D03*
X116700760Y-176099440D03*
D59*
X131130600Y-163360100D03*
X129930600Y-163360100D03*
X131579040Y-164669840D03*
X130379040Y-164669840D03*
X133852340Y-164644440D03*
X132652340Y-164644440D03*
X136233740Y-164580940D03*
X137433740Y-164580940D03*
X140938940Y-162396540D03*
X139738940Y-162396540D03*
D60*
X153598940Y-158355940D03*
X153598940Y-159555940D03*
X155798940Y-159605940D03*
X155798940Y-158405940D03*
D59*
X157478620Y-160751860D03*
X156278620Y-160751860D03*
X159693500Y-160751860D03*
X158493500Y-160751860D03*
D60*
X148387260Y-149897140D03*
X148387260Y-151097140D03*
D59*
X149566380Y-148841060D03*
X148366380Y-148841060D03*
D60*
X149560740Y-149912380D03*
X149560740Y-151112380D03*
D59*
X154198940Y-148805940D03*
X152998940Y-148805940D03*
X135689900Y-163360100D03*
X134489900Y-163360100D03*
X153013300Y-160756940D03*
X151813300Y-160756940D03*
X155253580Y-160756940D03*
X154053580Y-160756940D03*
D60*
X158098940Y-159605940D03*
X158098940Y-158405940D03*
X150703740Y-151076820D03*
X150703740Y-149876820D03*
D59*
X151887940Y-148815660D03*
X150687940Y-148815660D03*
D44*
X162306600Y-161818660D03*
X161407440Y-161818660D03*
X164186200Y-161788180D03*
X163287040Y-161788180D03*
X165184420Y-161750080D03*
X165184420Y-162649240D03*
X167122440Y-161757700D03*
X166223280Y-161757700D03*
X168125740Y-161704360D03*
X168125740Y-162603520D03*
X170028200Y-161752620D03*
X169129040Y-161752620D03*
X171054360Y-161747540D03*
X171953520Y-161747540D03*
D43*
X167433020Y-160726460D03*
X165933020Y-160726460D03*
X170013660Y-160680740D03*
X168513660Y-160680740D03*
D44*
X156198520Y-148805940D03*
X155299360Y-148805940D03*
D10*
G36*
X163625121Y-147826075D02*
X163976765Y-148177719D01*
X163625121Y-148529363D01*
X163273477Y-148177719D01*
X163625121Y-147826075D01*
X163625121Y-147826075D01*
G37*
G36*
X162989319Y-148461877D02*
X163340963Y-148813521D01*
X162989319Y-149165165D01*
X162637675Y-148813521D01*
X162989319Y-148461877D01*
X162989319Y-148461877D01*
G37*
D44*
X162296440Y-160751860D03*
X161397280Y-160751860D03*
X171933200Y-160650260D03*
X171034040Y-160650260D03*
D45*
X106277540Y-163450640D03*
X108182540Y-163450640D03*
D55*
X174884540Y-173241140D03*
X174884540Y-172291140D03*
X174884540Y-171341140D03*
X177484540Y-173241140D03*
X177484540Y-172291140D03*
X177484540Y-171341140D03*
D10*
G36*
X121744600Y-161501460D02*
X121249300Y-161998760D01*
X120332900Y-161998760D01*
X119837600Y-161501460D01*
X121744600Y-161501460D01*
X121744600Y-161501460D01*
G37*
D12*
X120791100Y-160289610D03*
D13*
X122289700Y-163166160D03*
D14*
X120791100Y-161248460D03*
D13*
X119292500Y-163166160D03*
D10*
G36*
X119837600Y-159077760D02*
X120332900Y-158580460D01*
X121249300Y-158580460D01*
X121744600Y-159077760D01*
X119837600Y-159077760D01*
X119837600Y-159077760D01*
G37*
G36*
X126902440Y-135331940D02*
X126407140Y-135829240D01*
X125490740Y-135829240D01*
X124995440Y-135331940D01*
X126902440Y-135331940D01*
X126902440Y-135331940D01*
G37*
D12*
X125948940Y-134120090D03*
D13*
X127447540Y-136996640D03*
D14*
X125948940Y-135078940D03*
D13*
X124450340Y-136996640D03*
D10*
G36*
X124995440Y-132908240D02*
X125490740Y-132410940D01*
X126407140Y-132410940D01*
X126902440Y-132908240D01*
X124995440Y-132908240D01*
X124995440Y-132908240D01*
G37*
D61*
X157311700Y-148805500D03*
X159711700Y-148805500D03*
D62*
X159161700Y-149705500D03*
X157861700Y-149705500D03*
X158511700Y-149705500D03*
X159161700Y-147905500D03*
X157861700Y-147905500D03*
X158511700Y-147905500D03*
D44*
X165249280Y-179243860D03*
X165249280Y-178344700D03*
X167378380Y-180365400D03*
X166479220Y-180365400D03*
X166578740Y-179000120D03*
X166578740Y-178100960D03*
X169448520Y-180355940D03*
X168549360Y-180355940D03*
X169626740Y-181491860D03*
X169626740Y-182391020D03*
X150277240Y-105492900D03*
X150277240Y-106392060D03*
X152695320Y-105497980D03*
X151796160Y-105497980D03*
X154023740Y-105746900D03*
X154023740Y-106646060D03*
X156314820Y-105497980D03*
X155415660Y-105497980D03*
X157643240Y-105429400D03*
X157643240Y-106328560D03*
D43*
X123298940Y-93755940D03*
X121798940Y-93755940D03*
D46*
X124498940Y-93755940D03*
X124498940Y-95255940D03*
D43*
X146891540Y-104152300D03*
X145391540Y-104152300D03*
D45*
X168432940Y-181903340D03*
X166527940Y-181903340D03*
D42*
X168092440Y-177208120D03*
X168092440Y-179113120D03*
X169942440Y-179138120D03*
X169942440Y-177233120D03*
D44*
X112265460Y-99125960D03*
X112265460Y-98226800D03*
X110261400Y-98249660D03*
X111160560Y-98249660D03*
X117648940Y-178005520D03*
X117648940Y-177106360D03*
X119492220Y-176099440D03*
X118593060Y-176099440D03*
D43*
X148998940Y-172205940D03*
X150498940Y-172205940D03*
X137928240Y-174080140D03*
X136428240Y-174080140D03*
D45*
X104765880Y-93909880D03*
X106670880Y-93909880D03*
X116350240Y-180290440D03*
X118255240Y-180290440D03*
D10*
G36*
X126917640Y-178625740D02*
X126422340Y-179123040D01*
X125505940Y-179123040D01*
X125010640Y-178625740D01*
X126917640Y-178625740D01*
X126917640Y-178625740D01*
G37*
D12*
X125964140Y-177413890D03*
D13*
X127462740Y-180290440D03*
D14*
X125964140Y-178372740D03*
D13*
X124465540Y-180290440D03*
D10*
G36*
X125010640Y-176202040D02*
X125505940Y-175704740D01*
X126422340Y-175704740D01*
X126917640Y-176202040D01*
X125010640Y-176202040D01*
X125010640Y-176202040D01*
G37*
D59*
X134737860Y-148932500D03*
X133537860Y-148932500D03*
X135698940Y-147805940D03*
X136898940Y-147805940D03*
X139137140Y-148891860D03*
X137937140Y-148891860D03*
D60*
X139448940Y-149905940D03*
X139448940Y-151105940D03*
D59*
X141367260Y-148886780D03*
X140167260Y-148886780D03*
D44*
X123045680Y-87723580D03*
X122146520Y-87723580D03*
X120739360Y-115943300D03*
X119840200Y-115943300D03*
X124854160Y-115958540D03*
X123955000Y-115958540D03*
D59*
X136917180Y-148907100D03*
X135717180Y-148907100D03*
D60*
X137998940Y-149905940D03*
X137998940Y-151105940D03*
D42*
X133054780Y-193754880D03*
X133054780Y-191849880D03*
D59*
X142098940Y-150055940D03*
X140898940Y-150055940D03*
D42*
X105048940Y-131203440D03*
X105048940Y-133108440D03*
D43*
X102448940Y-135955940D03*
X103948940Y-135955940D03*
D46*
X113798940Y-143355940D03*
X113798940Y-144855940D03*
D45*
X112108960Y-136997700D03*
X114013960Y-136997700D03*
D46*
X117548940Y-134255940D03*
X117548940Y-135755940D03*
X131398940Y-134355940D03*
X131398940Y-135855940D03*
D41*
X97474390Y-205725430D03*
X96524390Y-205725430D03*
X95574390Y-205725430D03*
X95574390Y-203125430D03*
X96524390Y-203125430D03*
X97474390Y-203125430D03*
D63*
X126033580Y-87705780D03*
X124553580Y-87705780D03*
D64*
X125293580Y-88655780D03*
D63*
X127628700Y-115976300D03*
X126148700Y-115976300D03*
D64*
X126888700Y-116926300D03*
D42*
X133088840Y-190121140D03*
X133088840Y-188216140D03*
X154448940Y-135553440D03*
X154448940Y-137458440D03*
D43*
X133913640Y-176302640D03*
X135413640Y-176302640D03*
X150869540Y-176112140D03*
X149369540Y-176112140D03*
X111122020Y-163432860D03*
X109622020Y-163432860D03*
X141083780Y-141193980D03*
X142583780Y-141193980D03*
D42*
X125232620Y-191759440D03*
X125232620Y-189854440D03*
D45*
X127069040Y-188272020D03*
X125164040Y-188272020D03*
D42*
X127234140Y-191734040D03*
X127234140Y-189829040D03*
X131173780Y-189931480D03*
X131173780Y-191836480D03*
X129243780Y-189941480D03*
X129243780Y-191846480D03*
D44*
X144836340Y-119491360D03*
X144836340Y-118592200D03*
X146769860Y-119533400D03*
X146769860Y-118634240D03*
X155494760Y-121512060D03*
X156393920Y-121512060D03*
X157910300Y-120488440D03*
X157910300Y-121387600D03*
D43*
X105148940Y-97905940D03*
X106648940Y-97905940D03*
D46*
X121748940Y-97055940D03*
X121748940Y-95555940D03*
D43*
X113134260Y-162271580D03*
X111634260Y-162271580D03*
D46*
X120503140Y-175020640D03*
X120503140Y-173520640D03*
D43*
X128748940Y-162055940D03*
X127248940Y-162055940D03*
D46*
X126243540Y-173355540D03*
X126243540Y-174855540D03*
X138289160Y-160897240D03*
X138289160Y-162397240D03*
D43*
X136498940Y-172455940D03*
X137998940Y-172455940D03*
X113687420Y-163453180D03*
X112187420Y-163453180D03*
X125478100Y-163351580D03*
X123978100Y-163351580D03*
X128729300Y-163361740D03*
X127229300Y-163361740D03*
D46*
X105048940Y-135855940D03*
X105048940Y-134355940D03*
X105048940Y-138505940D03*
X105048940Y-137005940D03*
D43*
X112598940Y-144855940D03*
X111098940Y-144855940D03*
X116498940Y-144905940D03*
X114998940Y-144905940D03*
X116991540Y-136875780D03*
X115491540Y-136875780D03*
X119734740Y-136885940D03*
X118234740Y-136885940D03*
X130716060Y-136960740D03*
X129216060Y-136960740D03*
X133550700Y-136960740D03*
X132050700Y-136960740D03*
D46*
X178890120Y-55687260D03*
X178890120Y-54187260D03*
X177645520Y-55697420D03*
X177645520Y-54197420D03*
D43*
X188805580Y-70751300D03*
X190305580Y-70751300D03*
D46*
X188671660Y-67731940D03*
X188671660Y-66231940D03*
X190119460Y-67792900D03*
X190119460Y-66292900D03*
D10*
G36*
X181185955Y-60215026D02*
X181753054Y-60782125D01*
X181256665Y-61278514D01*
X180689566Y-60711415D01*
X181185955Y-60215026D01*
X181185955Y-60215026D01*
G37*
G36*
X180125295Y-61275686D02*
X180692394Y-61842785D01*
X180196005Y-62339174D01*
X179628906Y-61772075D01*
X180125295Y-61275686D01*
X180125295Y-61275686D01*
G37*
G36*
X172426835Y-53519539D02*
X172778479Y-53167895D01*
X173130123Y-53519539D01*
X172778479Y-53871183D01*
X172426835Y-53519539D01*
X172426835Y-53519539D01*
G37*
G36*
X173062637Y-54155341D02*
X173414281Y-53803697D01*
X173765925Y-54155341D01*
X173414281Y-54506985D01*
X173062637Y-54155341D01*
X173062637Y-54155341D01*
G37*
G36*
X159301239Y-54247905D02*
X158949595Y-53896261D01*
X159301239Y-53544617D01*
X159652883Y-53896261D01*
X159301239Y-54247905D01*
X159301239Y-54247905D01*
G37*
G36*
X159937041Y-53612103D02*
X159585397Y-53260459D01*
X159937041Y-52908815D01*
X160288685Y-53260459D01*
X159937041Y-53612103D01*
X159937041Y-53612103D01*
G37*
D65*
X168049620Y-53757280D03*
X168049620Y-52557280D03*
X168049620Y-51357280D03*
X170299620Y-51357280D03*
X170299620Y-52557280D03*
D66*
X169949620Y-53757280D03*
D44*
X87577120Y-90680140D03*
X86677960Y-90680140D03*
X95063360Y-75503980D03*
X94164200Y-75503980D03*
X93414040Y-89720020D03*
X92514880Y-89720020D03*
D10*
G36*
X152032561Y-61478775D02*
X152384205Y-61830419D01*
X152032561Y-62182063D01*
X151680917Y-61830419D01*
X152032561Y-61478775D01*
X152032561Y-61478775D01*
G37*
G36*
X151396759Y-62114577D02*
X151748403Y-62466221D01*
X151396759Y-62817865D01*
X151045115Y-62466221D01*
X151396759Y-62114577D01*
X151396759Y-62114577D01*
G37*
D43*
X144903780Y-123533980D03*
X146403780Y-123533980D03*
X166413780Y-132213980D03*
X167913780Y-132213980D03*
D46*
X95184540Y-207159040D03*
X95184540Y-208659040D03*
D43*
X130098940Y-160805940D03*
X131598940Y-160805940D03*
D44*
X138824740Y-126838440D03*
X138824740Y-125939280D03*
D46*
X111229140Y-99176060D03*
X111229140Y-100676060D03*
X118674340Y-175033340D03*
X118674340Y-173533340D03*
D44*
X186484720Y-53979680D03*
X186484720Y-54878840D03*
X180868780Y-54144780D03*
X180868780Y-55043940D03*
X169024760Y-67035280D03*
X168125600Y-67035280D03*
X174998840Y-61828280D03*
X175898000Y-61828280D03*
X197769940Y-63763760D03*
X197769940Y-64662920D03*
D10*
G36*
X186671155Y-68635079D02*
X187022799Y-68283435D01*
X187374443Y-68635079D01*
X187022799Y-68986723D01*
X186671155Y-68635079D01*
X186671155Y-68635079D01*
G37*
G36*
X187306957Y-69270881D02*
X187658601Y-68919237D01*
X188010245Y-69270881D01*
X187658601Y-69622525D01*
X187306957Y-69270881D01*
X187306957Y-69270881D01*
G37*
D44*
X191241100Y-66597400D03*
X191241100Y-67496560D03*
X188305900Y-61127240D03*
X188305900Y-62026400D03*
X189479380Y-61127240D03*
X189479380Y-62026400D03*
D43*
X130638440Y-180366640D03*
X129138440Y-180366640D03*
X131589540Y-178690240D03*
X133089540Y-178690240D03*
X132746640Y-176315340D03*
X131246640Y-176315340D03*
D46*
X134748040Y-179555940D03*
X134748040Y-178055940D03*
D43*
X140709540Y-174765940D03*
X139209540Y-174765940D03*
D46*
X149548040Y-173317440D03*
X149548040Y-174817440D03*
X158248940Y-177055940D03*
X158248940Y-178555940D03*
X140863780Y-138913980D03*
X140863780Y-137413980D03*
X147298940Y-135205940D03*
X147298940Y-136705940D03*
D43*
X144948940Y-134055940D03*
X143448940Y-134055940D03*
D46*
X155503780Y-132143980D03*
X155503780Y-133643980D03*
X170823940Y-134030940D03*
X170823940Y-135530940D03*
X141553780Y-211453980D03*
X141553780Y-209953980D03*
D43*
X152963780Y-209023980D03*
X151463780Y-209023980D03*
D46*
X134811240Y-157641240D03*
X134811240Y-159141240D03*
D44*
X135865340Y-158741760D03*
X135865340Y-159640920D03*
D43*
X152993780Y-207743980D03*
X151493780Y-207743980D03*
X130757820Y-188287260D03*
X129257820Y-188287260D03*
D46*
X118248940Y-99055940D03*
X118248940Y-100555940D03*
X114198940Y-173605940D03*
X114198940Y-172105940D03*
D10*
G36*
X97562214Y-97382875D02*
X96995115Y-97949974D01*
X96498726Y-97453585D01*
X97065825Y-96886486D01*
X97562214Y-97382875D01*
X97562214Y-97382875D01*
G37*
G36*
X96501554Y-96322215D02*
X95934455Y-96889314D01*
X95438066Y-96392925D01*
X96005165Y-95825826D01*
X96501554Y-96322215D01*
X96501554Y-96322215D01*
G37*
D46*
X125578340Y-160474740D03*
X125578340Y-158974740D03*
X102037340Y-179022040D03*
X102037340Y-177522040D03*
D44*
X186411060Y-75569680D03*
X186411060Y-74670520D03*
X182733140Y-72580100D03*
X181833980Y-72580100D03*
D42*
X122692620Y-83103320D03*
X122692620Y-85008320D03*
D46*
X137582680Y-126933120D03*
X137582680Y-125433120D03*
X105936240Y-194579540D03*
X105936240Y-193079540D03*
D43*
X132569980Y-185645660D03*
X134069980Y-185645660D03*
D10*
G36*
X103632814Y-184253415D02*
X103065715Y-184820514D01*
X102569326Y-184324125D01*
X103136425Y-183757026D01*
X103632814Y-184253415D01*
X103632814Y-184253415D01*
G37*
G36*
X102572154Y-183192755D02*
X102005055Y-183759854D01*
X101508666Y-183263465D01*
X102075765Y-182696366D01*
X102572154Y-183192755D01*
X102572154Y-183192755D01*
G37*
D46*
X146675300Y-184987100D03*
X146675300Y-186487100D03*
X143647620Y-184987100D03*
X143647620Y-186487100D03*
D43*
X122934620Y-188165340D03*
X121434620Y-188165340D03*
D46*
X100793780Y-208703980D03*
X100793780Y-210203980D03*
D43*
X95942140Y-201377420D03*
X97442140Y-201377420D03*
D44*
X187414360Y-81945080D03*
X187414360Y-81045920D03*
D46*
X148978940Y-124605940D03*
X148978940Y-126105940D03*
D44*
X165781180Y-123357240D03*
X165781180Y-122458080D03*
X160894220Y-122524120D03*
X160894220Y-121624960D03*
X157742660Y-124138420D03*
X157742660Y-125037580D03*
X182677260Y-76131020D03*
X182677260Y-77030180D03*
X184467960Y-77957280D03*
X184467960Y-77058120D03*
X168928240Y-64561320D03*
X169827400Y-64561320D03*
X162436000Y-64571480D03*
X163335160Y-64571480D03*
X168460880Y-59125720D03*
X169360040Y-59125720D03*
X163502800Y-59105400D03*
X164401960Y-59105400D03*
D10*
G36*
X170943475Y-55317859D02*
X171295119Y-54966215D01*
X171646763Y-55317859D01*
X171295119Y-55669503D01*
X170943475Y-55317859D01*
X170943475Y-55317859D01*
G37*
G36*
X171579277Y-55953661D02*
X171930921Y-55602017D01*
X172282565Y-55953661D01*
X171930921Y-56305305D01*
X171579277Y-55953661D01*
X171579277Y-55953661D01*
G37*
G36*
X160535679Y-56239265D02*
X160184035Y-55887621D01*
X160535679Y-55535977D01*
X160887323Y-55887621D01*
X160535679Y-56239265D01*
X160535679Y-56239265D01*
G37*
G36*
X161171481Y-55603463D02*
X160819837Y-55251819D01*
X161171481Y-54900175D01*
X161523125Y-55251819D01*
X161171481Y-55603463D01*
X161171481Y-55603463D01*
G37*
G36*
X143645548Y-99468294D02*
X144636586Y-100459332D01*
X143999370Y-101096548D01*
X143008332Y-100105510D01*
X143645548Y-99468294D01*
X143645548Y-99468294D01*
G37*
G36*
X142298510Y-100815332D02*
X143289548Y-101806370D01*
X142652332Y-102443586D01*
X141661294Y-101452548D01*
X142298510Y-100815332D01*
X142298510Y-100815332D01*
G37*
G36*
X184501874Y-73538100D02*
X184350460Y-73689514D01*
X184199046Y-73538100D01*
X184350460Y-73386686D01*
X184501874Y-73538100D01*
X184501874Y-73538100D01*
G37*
D67*
X184075460Y-73613100D03*
D68*
X184150460Y-73313100D03*
D69*
X184150460Y-72463100D03*
X184150460Y-73713100D03*
D70*
X183425460Y-73588100D03*
X183425460Y-73088100D03*
X183425460Y-72588100D03*
X184875460Y-73588100D03*
X184875460Y-72588100D03*
X184875460Y-73088100D03*
D71*
X184150460Y-72788100D03*
D43*
X198293780Y-198943980D03*
X196793780Y-198943980D03*
D22*
X161148940Y-175655940D03*
X161148940Y-174705940D03*
X161148940Y-173755940D03*
X163748940Y-173755940D03*
X163748940Y-174705940D03*
X163748940Y-175655940D03*
D43*
X159898940Y-173155940D03*
X158398940Y-173155940D03*
X111110840Y-176783040D03*
X112610840Y-176783040D03*
D46*
X118848940Y-182105940D03*
X118848940Y-183605940D03*
X116198940Y-177255940D03*
X116198940Y-178755940D03*
X106628440Y-175069240D03*
X106628440Y-173569240D03*
D22*
X111116140Y-173547040D03*
X111116140Y-174497040D03*
X111116140Y-175447040D03*
X108516140Y-175447040D03*
X108516140Y-174497040D03*
X108516140Y-173547040D03*
D45*
X100995940Y-194655040D03*
X99090940Y-194655040D03*
X104780540Y-194566140D03*
X102875540Y-194566140D03*
D43*
X100271340Y-189105140D03*
X101771340Y-189105140D03*
D32*
X97860540Y-198319260D03*
X94558540Y-198319260D03*
D43*
X89173400Y-204776720D03*
X87673400Y-204776720D03*
X89197400Y-208929620D03*
X90697400Y-208929620D03*
D72*
X100996040Y-198325340D03*
X105136040Y-198325340D03*
D44*
X103205740Y-190497060D03*
X103205740Y-191396220D03*
X101864620Y-190349740D03*
X100965460Y-190349740D03*
X105255520Y-190273540D03*
X104356360Y-190273540D03*
D46*
X100983240Y-193030140D03*
X100983240Y-191530140D03*
D43*
X167109260Y-175687860D03*
X165609260Y-175687860D03*
D46*
X135298940Y-167105940D03*
X135298940Y-168605940D03*
D60*
X137798940Y-167105940D03*
X137798940Y-168305940D03*
D43*
X150863780Y-165213980D03*
X152363780Y-165213980D03*
D46*
X156648940Y-162555940D03*
X156648940Y-164055940D03*
D60*
X153648940Y-162805940D03*
X153648940Y-164005940D03*
D43*
X165113780Y-164073980D03*
X166613780Y-164073980D03*
D46*
X168248940Y-166705940D03*
X168248940Y-165205940D03*
D43*
X166598940Y-171005940D03*
X165098940Y-171005940D03*
D42*
X151898940Y-164058440D03*
X151898940Y-162153440D03*
D43*
X157498940Y-167355940D03*
X158998940Y-167355940D03*
X151873780Y-166283980D03*
X150373780Y-166283980D03*
X150413780Y-167443980D03*
X151913780Y-167443980D03*
D41*
X165048940Y-166755940D03*
X165998940Y-166755940D03*
X166948940Y-166755940D03*
X166948940Y-169355940D03*
X165998940Y-169355940D03*
X165048940Y-169355940D03*
D43*
X158698940Y-151405940D03*
X157198940Y-151405940D03*
D46*
X105198940Y-119105940D03*
X105198940Y-120605940D03*
X157248940Y-154055940D03*
X157248940Y-152555940D03*
X164484740Y-152570620D03*
X164484740Y-154070620D03*
D44*
X103798520Y-115855940D03*
X102899360Y-115855940D03*
X100949360Y-115855940D03*
X101848520Y-115855940D03*
D46*
X105198940Y-121805940D03*
X105198940Y-123305940D03*
D44*
X102899360Y-114755940D03*
X103798520Y-114755940D03*
D46*
X135398940Y-145455940D03*
X135398940Y-143955940D03*
D43*
X150798940Y-144405940D03*
X152298940Y-144405940D03*
X111848940Y-167755940D03*
X110348940Y-167755940D03*
X118648940Y-165105940D03*
X120148940Y-165105940D03*
D46*
X119898940Y-167805940D03*
X119898940Y-166305940D03*
X126548940Y-168005940D03*
X126548940Y-166505940D03*
D43*
X127798940Y-165205940D03*
X126298940Y-165205940D03*
D46*
X133448940Y-166855940D03*
X133448940Y-168355940D03*
X105948940Y-149905940D03*
X105948940Y-151405940D03*
X104698940Y-151405940D03*
X104698940Y-149905940D03*
D43*
X104048940Y-155655940D03*
X105548940Y-155655940D03*
D46*
X101448940Y-149805940D03*
X101448940Y-151305940D03*
X123148940Y-142155940D03*
X123148940Y-140655940D03*
D43*
X129648940Y-140655940D03*
X131148940Y-140655940D03*
X125898940Y-140705940D03*
X124398940Y-140705940D03*
D46*
X132648940Y-142405940D03*
X132648940Y-143905940D03*
X124398940Y-145155940D03*
X124398940Y-143655940D03*
D59*
X136648940Y-146555940D03*
X135448940Y-146555940D03*
D60*
X138048940Y-146555940D03*
X138048940Y-147755940D03*
X139198940Y-146555940D03*
X139198940Y-147755940D03*
X141548940Y-146555940D03*
X141548940Y-147755940D03*
D43*
X151948940Y-142005940D03*
X153448940Y-142005940D03*
D60*
X153898940Y-147105940D03*
X153898940Y-145905940D03*
X152548940Y-147105940D03*
X152548940Y-145905940D03*
X151148940Y-147105940D03*
X151148940Y-145905940D03*
X149798940Y-147105940D03*
X149798940Y-145905940D03*
D46*
X161798940Y-144555940D03*
X161798940Y-146055940D03*
D43*
X162898940Y-140405940D03*
X161398940Y-140405940D03*
D46*
X167548940Y-141855940D03*
X167548940Y-143355940D03*
D73*
X150498940Y-153605940D03*
X153498940Y-153605940D03*
D60*
X140348940Y-146555940D03*
X140348940Y-147755940D03*
X148398940Y-145905940D03*
X148398940Y-147105940D03*
D10*
G36*
X103979395Y-147588039D02*
X104331039Y-147236395D01*
X104682683Y-147588039D01*
X104331039Y-147939683D01*
X103979395Y-147588039D01*
X103979395Y-147588039D01*
G37*
G36*
X104615197Y-148223841D02*
X104966841Y-147872197D01*
X105318485Y-148223841D01*
X104966841Y-148575485D01*
X104615197Y-148223841D01*
X104615197Y-148223841D01*
G37*
D43*
X145048940Y-142555940D03*
X143548940Y-142555940D03*
X152048940Y-143305940D03*
X153548940Y-143305940D03*
D44*
X113148940Y-167406360D03*
X113148940Y-168305520D03*
X117999360Y-168205940D03*
X118898520Y-168205940D03*
X114298940Y-167456360D03*
X114298940Y-168355520D03*
D46*
X110698940Y-166305940D03*
X110698940Y-164805940D03*
X125448940Y-166505940D03*
X125448940Y-168005940D03*
D10*
G36*
X102431039Y-148925485D02*
X102079395Y-148573841D01*
X102431039Y-148222197D01*
X102782683Y-148573841D01*
X102431039Y-148925485D01*
X102431039Y-148925485D01*
G37*
G36*
X103066841Y-148289683D02*
X102715197Y-147938039D01*
X103066841Y-147586395D01*
X103418485Y-147938039D01*
X103066841Y-148289683D01*
X103066841Y-148289683D01*
G37*
G36*
X102529395Y-146138039D02*
X102881039Y-145786395D01*
X103232683Y-146138039D01*
X102881039Y-146489683D01*
X102529395Y-146138039D01*
X102529395Y-146138039D01*
G37*
G36*
X103165197Y-146773841D02*
X103516841Y-146422197D01*
X103868485Y-146773841D01*
X103516841Y-147125485D01*
X103165197Y-146773841D01*
X103165197Y-146773841D01*
G37*
D43*
X101548940Y-144805940D03*
X100048940Y-144805940D03*
D46*
X108098940Y-153905940D03*
X108098940Y-152405940D03*
D44*
X121898940Y-141256360D03*
X121898940Y-142155520D03*
X124999360Y-142155940D03*
X125898520Y-142155940D03*
X120448940Y-141256360D03*
X120448940Y-142155520D03*
D43*
X119348940Y-141855940D03*
X117848940Y-141855940D03*
X135348940Y-142355940D03*
X133848940Y-142355940D03*
D22*
X159998940Y-154055940D03*
X159998940Y-153105940D03*
X159998940Y-152155940D03*
X162598940Y-152155940D03*
X162598940Y-153105940D03*
X162598940Y-154055940D03*
D41*
X101848940Y-119105940D03*
X102798940Y-119105940D03*
X103748940Y-119105940D03*
X103748940Y-121705940D03*
X102798940Y-121705940D03*
X101848940Y-121705940D03*
D22*
X129198940Y-168005940D03*
X129198940Y-167055940D03*
X129198940Y-166105940D03*
X131798940Y-166105940D03*
X131798940Y-167055940D03*
X131798940Y-168005940D03*
X104048940Y-152455940D03*
X104048940Y-153405940D03*
X104048940Y-154355940D03*
X101448940Y-154355940D03*
X101448940Y-153405940D03*
X101448940Y-152455940D03*
X163248940Y-143355940D03*
X163248940Y-142405940D03*
X163248940Y-141455940D03*
X165848940Y-141455940D03*
X165848940Y-142405940D03*
X165848940Y-143355940D03*
D43*
X156753680Y-107356780D03*
X155253680Y-107356780D03*
D46*
X123224980Y-99160900D03*
X123224980Y-97660900D03*
D10*
G36*
X133093915Y-96893866D02*
X133661014Y-97460965D01*
X133164625Y-97957354D01*
X132597526Y-97390255D01*
X133093915Y-96893866D01*
X133093915Y-96893866D01*
G37*
G36*
X132033255Y-97954526D02*
X132600354Y-98521625D01*
X132103965Y-99018014D01*
X131536866Y-98450915D01*
X132033255Y-97954526D01*
X132033255Y-97954526D01*
G37*
G36*
X136993915Y-103093866D02*
X137561014Y-103660965D01*
X137064625Y-104157354D01*
X136497526Y-103590255D01*
X136993915Y-103093866D01*
X136993915Y-103093866D01*
G37*
G36*
X135933255Y-104154526D02*
X136500354Y-104721625D01*
X136003965Y-105218014D01*
X135436866Y-104650915D01*
X135933255Y-104154526D01*
X135933255Y-104154526D01*
G37*
G36*
X139603965Y-108768014D02*
X139036866Y-108200915D01*
X139533255Y-107704526D01*
X140100354Y-108271625D01*
X139603965Y-108768014D01*
X139603965Y-108768014D01*
G37*
G36*
X140664625Y-107707354D02*
X140097526Y-107140255D01*
X140593915Y-106643866D01*
X141161014Y-107210965D01*
X140664625Y-107707354D01*
X140664625Y-107707354D01*
G37*
D46*
X152748940Y-109655940D03*
X152748940Y-108155940D03*
X141673940Y-109730940D03*
X141673940Y-111230940D03*
D45*
X129551440Y-97555940D03*
X127646440Y-97555940D03*
D10*
G36*
X138702332Y-106343586D02*
X137711294Y-105352548D01*
X138348510Y-104715332D01*
X139339548Y-105706370D01*
X138702332Y-106343586D01*
X138702332Y-106343586D01*
G37*
G36*
X140049370Y-104996548D02*
X139058332Y-104005510D01*
X139695548Y-103368294D01*
X140686586Y-104359332D01*
X140049370Y-104996548D01*
X140049370Y-104996548D01*
G37*
D43*
X113398940Y-97105940D03*
X111898940Y-97105940D03*
X121358780Y-103617900D03*
X119858780Y-103617900D03*
X128148940Y-95955940D03*
X129648940Y-95955940D03*
X140998940Y-108555940D03*
X142498940Y-108555940D03*
D10*
G36*
X139603965Y-107118014D02*
X139036866Y-106550915D01*
X139533255Y-106054526D01*
X140100354Y-106621625D01*
X139603965Y-107118014D01*
X139603965Y-107118014D01*
G37*
G36*
X140664625Y-106057354D02*
X140097526Y-105490255D01*
X140593915Y-104993866D01*
X141161014Y-105560965D01*
X140664625Y-106057354D01*
X140664625Y-106057354D01*
G37*
D43*
X130198940Y-103705940D03*
X131698940Y-103705940D03*
D10*
G36*
X134286866Y-105460965D02*
X134853965Y-104893866D01*
X135350354Y-105390255D01*
X134783255Y-105957354D01*
X134286866Y-105460965D01*
X134286866Y-105460965D01*
G37*
G36*
X135347526Y-106521625D02*
X135914625Y-105954526D01*
X136411014Y-106450915D01*
X135843915Y-107018014D01*
X135347526Y-106521625D01*
X135347526Y-106521625D01*
G37*
D22*
X156998940Y-110405940D03*
X156998940Y-109455940D03*
X156998940Y-108505940D03*
X159598940Y-108505940D03*
X159598940Y-109455940D03*
X159598940Y-110405940D03*
D41*
X119848940Y-99455940D03*
X120798940Y-99455940D03*
X121748940Y-99455940D03*
X121748940Y-102055940D03*
X120798940Y-102055940D03*
X119848940Y-102055940D03*
D74*
X171333500Y-82814160D03*
X174233500Y-82814160D03*
D75*
X172783500Y-84314160D03*
X172783500Y-81314160D03*
D74*
X173250520Y-89209880D03*
X170350520Y-89209880D03*
D75*
X171800520Y-87709880D03*
X171800520Y-90709880D03*
D43*
X136162940Y-180569840D03*
X134662940Y-180569840D03*
X137346220Y-177818760D03*
X138846220Y-177818760D03*
X138853380Y-178981200D03*
X137353380Y-178981200D03*
X149521940Y-177255140D03*
X151021940Y-177255140D03*
D46*
X156898940Y-179205940D03*
X156898940Y-177705940D03*
X159498940Y-179305940D03*
X159498940Y-177805940D03*
D43*
X159155700Y-180365400D03*
X160655700Y-180365400D03*
X163119500Y-180365400D03*
X161619500Y-180365400D03*
X144398940Y-137805940D03*
X142898940Y-137805940D03*
X144398940Y-136555940D03*
X142898940Y-136555940D03*
D46*
X157133780Y-133143980D03*
X157133780Y-134643980D03*
X155945140Y-136959760D03*
X155945140Y-135459760D03*
X156048940Y-152705940D03*
X156048940Y-154205940D03*
X154848940Y-152705940D03*
X154848940Y-154205940D03*
D43*
X129698940Y-99305940D03*
X128198940Y-99305940D03*
D10*
G36*
X142861014Y-105650915D02*
X142293915Y-106218014D01*
X141797526Y-105721625D01*
X142364625Y-105154526D01*
X142861014Y-105650915D01*
X142861014Y-105650915D01*
G37*
G36*
X141800354Y-104590255D02*
X141233255Y-105157354D01*
X140736866Y-104660965D01*
X141303965Y-104093866D01*
X141800354Y-104590255D01*
X141800354Y-104590255D01*
G37*
D43*
X124519580Y-129369420D03*
X123019580Y-129369420D03*
D10*
G36*
X145736866Y-100960965D02*
X146303965Y-100393866D01*
X146800354Y-100890255D01*
X146233255Y-101457354D01*
X145736866Y-100960965D01*
X145736866Y-100960965D01*
G37*
G36*
X146797526Y-102021625D02*
X147364625Y-101454526D01*
X147861014Y-101950915D01*
X147293915Y-102518014D01*
X146797526Y-102021625D01*
X146797526Y-102021625D01*
G37*
D46*
X109156500Y-98109260D03*
X109156500Y-99609260D03*
X107891580Y-98124500D03*
X107891580Y-99624500D03*
D43*
X109675820Y-92214300D03*
X108175820Y-92214300D03*
D46*
X120548940Y-95705940D03*
X120548940Y-97205940D03*
X119248940Y-95705940D03*
X119248940Y-97205940D03*
D43*
X120433400Y-177228500D03*
X121933400Y-177228500D03*
X120433400Y-176098200D03*
X121933400Y-176098200D03*
X121933400Y-178727100D03*
X120433400Y-178727100D03*
X129914540Y-175934340D03*
X128414540Y-175934340D03*
D46*
X127462740Y-173482540D03*
X127462740Y-174982540D03*
X136287280Y-126933120D03*
X136287280Y-125433120D03*
X135029980Y-126955980D03*
X135029980Y-125455980D03*
D43*
X136948940Y-129455940D03*
X135448940Y-129455940D03*
D46*
X106736340Y-191404540D03*
X106736340Y-189904540D03*
X175023900Y-163712460D03*
X175023900Y-162212460D03*
X174876440Y-177333740D03*
X174876440Y-175833740D03*
X179573940Y-172455940D03*
X179573940Y-170955940D03*
X111898940Y-166405940D03*
X111898940Y-164905940D03*
X113148940Y-166455940D03*
X113148940Y-164955940D03*
D43*
X116898940Y-161755940D03*
X115398940Y-161755940D03*
D46*
X121198940Y-165055940D03*
X121198940Y-166555940D03*
X122448940Y-165055940D03*
X122448940Y-166555940D03*
D43*
X101698940Y-143505940D03*
X100198940Y-143505940D03*
X101698940Y-142155940D03*
X100198940Y-142155940D03*
D46*
X105048940Y-141105940D03*
X105048940Y-139605940D03*
D43*
X110248940Y-151055940D03*
X108748940Y-151055940D03*
X110248940Y-149655940D03*
X108748940Y-149655940D03*
X119498940Y-140655940D03*
X117998940Y-140655940D03*
X119498940Y-139455940D03*
X117998940Y-139455940D03*
X122239180Y-136875780D03*
X120739180Y-136875780D03*
X135198940Y-141105940D03*
X133698940Y-141105940D03*
D10*
G36*
X132353965Y-141268014D02*
X131786866Y-140700915D01*
X132283255Y-140204526D01*
X132850354Y-140771625D01*
X132353965Y-141268014D01*
X132353965Y-141268014D01*
G37*
G36*
X133414625Y-140207354D02*
X132847526Y-139640255D01*
X133343915Y-139143866D01*
X133911014Y-139710965D01*
X133414625Y-140207354D01*
X133414625Y-140207354D01*
G37*
D46*
X136548940Y-166955940D03*
X136548940Y-168455940D03*
X155098940Y-162705940D03*
X155098940Y-164205940D03*
D21*
X147123940Y-134005940D03*
X146173940Y-134005940D03*
D10*
G36*
X139189784Y-103205419D02*
X138870171Y-103525032D01*
X138479848Y-103134709D01*
X138799461Y-102815096D01*
X139189784Y-103205419D01*
X139189784Y-103205419D01*
G37*
G36*
X138518032Y-103877171D02*
X138198419Y-104196784D01*
X137808096Y-103806461D01*
X138127709Y-103486848D01*
X138518032Y-103877171D01*
X138518032Y-103877171D01*
G37*
D21*
X114212320Y-182712200D03*
X113262320Y-182712200D03*
X145732980Y-185132580D03*
X144782980Y-185132580D03*
D23*
X100233940Y-185721840D03*
X100233940Y-186671840D03*
X107048940Y-148430940D03*
X107048940Y-149380940D03*
D42*
X157216300Y-77312120D03*
X157216300Y-75407120D03*
D45*
X164554360Y-85549340D03*
X162649360Y-85549340D03*
D42*
X157190900Y-91246560D03*
X157190900Y-89341560D03*
X167208200Y-97739200D03*
X167208200Y-99644200D03*
D45*
X178956160Y-52674120D03*
X180861160Y-52674120D03*
X189573360Y-64746740D03*
X191478360Y-64746740D03*
X158994880Y-124143500D03*
X160899880Y-124143500D03*
D44*
X185463640Y-81228800D03*
X184564480Y-81228800D03*
X186845400Y-62039100D03*
X185946240Y-62039100D03*
D10*
G36*
X184138161Y-61963915D02*
X184489805Y-62315559D01*
X184138161Y-62667203D01*
X183786517Y-62315559D01*
X184138161Y-61963915D01*
X184138161Y-61963915D01*
G37*
G36*
X183502359Y-62599717D02*
X183854003Y-62951361D01*
X183502359Y-63303005D01*
X183150715Y-62951361D01*
X183502359Y-62599717D01*
X183502359Y-62599717D01*
G37*
D45*
X153325240Y-104037480D03*
X151420240Y-104037480D03*
X156500240Y-104037480D03*
X154595240Y-104037480D03*
X133634940Y-180315840D03*
X131729940Y-180315840D03*
D46*
X136378720Y-177662240D03*
X136378720Y-179162240D03*
D42*
X150856140Y-178487040D03*
X150856140Y-180392040D03*
D76*
X158181500Y-180359020D03*
X157089300Y-180359020D03*
D46*
X160990740Y-179262440D03*
X160990740Y-177762440D03*
D42*
X148779280Y-154146200D03*
X148779280Y-156051200D03*
D46*
X130848940Y-96805940D03*
X130848940Y-95305940D03*
D10*
G36*
X140787063Y-104061693D02*
X140043187Y-103317817D01*
X140538515Y-102822489D01*
X141282391Y-103566365D01*
X140787063Y-104061693D01*
X140787063Y-104061693D01*
G37*
G36*
X141559365Y-103289391D02*
X140815489Y-102545515D01*
X141310817Y-102050187D01*
X142054693Y-102794063D01*
X141559365Y-103289391D01*
X141559365Y-103289391D01*
G37*
D46*
X107948940Y-96905940D03*
X107948940Y-95405940D03*
D42*
X117384020Y-95696640D03*
X117384020Y-93791640D03*
D46*
X119385540Y-177241740D03*
X119385540Y-178741740D03*
D42*
X129672540Y-177140840D03*
X129672540Y-179045840D03*
D43*
X101878220Y-114751460D03*
X100378220Y-114751460D03*
D46*
X114298940Y-166305940D03*
X114298940Y-164805940D03*
D42*
X123998940Y-166458440D03*
X123998940Y-164553440D03*
D46*
X101548940Y-140955940D03*
X101548940Y-139455940D03*
D42*
X109998940Y-148208440D03*
X109998940Y-146303440D03*
D45*
X131801440Y-138755940D03*
X129896440Y-138755940D03*
D46*
X138998940Y-167205940D03*
X138998940Y-165705940D03*
X188849460Y-81280300D03*
X188849460Y-79780300D03*
D10*
G36*
X187042255Y-86680446D02*
X187609354Y-87247545D01*
X187112965Y-87743934D01*
X186545866Y-87176835D01*
X187042255Y-86680446D01*
X187042255Y-86680446D01*
G37*
G36*
X185981595Y-87741106D02*
X186548694Y-88308205D01*
X186052305Y-88804594D01*
X185485206Y-88237495D01*
X185981595Y-87741106D01*
X185981595Y-87741106D01*
G37*
D43*
X180983940Y-133331820D03*
X179483940Y-133331820D03*
X193211340Y-83527500D03*
X191711340Y-83527500D03*
X191794020Y-139747860D03*
X190294020Y-139747860D03*
D46*
X136048940Y-135455940D03*
X136048940Y-133955940D03*
D43*
X176146220Y-52539500D03*
X177646220Y-52539500D03*
X106702980Y-89012900D03*
X105202980Y-89012900D03*
D46*
X188361780Y-63316020D03*
X188361780Y-64816020D03*
D10*
G36*
X180406146Y-62666805D02*
X180973245Y-62099706D01*
X181469634Y-62596095D01*
X180902535Y-63163194D01*
X180406146Y-62666805D01*
X180406146Y-62666805D01*
G37*
G36*
X181466806Y-63727465D02*
X182033905Y-63160366D01*
X182530294Y-63656755D01*
X181963195Y-64223854D01*
X181466806Y-63727465D01*
X181466806Y-63727465D01*
G37*
D44*
X112734200Y-157683980D03*
X113633360Y-157683980D03*
D43*
X141148940Y-113905940D03*
X139648940Y-113905940D03*
X146248940Y-113905940D03*
X144748940Y-113905940D03*
X139500500Y-129460860D03*
X138000500Y-129460860D03*
X143801300Y-129434320D03*
X142301300Y-129434320D03*
X172148940Y-180355940D03*
X170648940Y-180355940D03*
X149863340Y-104142140D03*
X148363340Y-104142140D03*
X160358620Y-105422300D03*
X158858620Y-105422300D03*
D17*
X131105440Y-173521340D03*
D18*
X134355440Y-174521340D03*
X134355440Y-172521340D03*
D43*
X133064140Y-177585340D03*
X131564140Y-177585340D03*
D45*
X139063500Y-180573780D03*
X137158500Y-180573780D03*
D17*
X140898940Y-134955940D03*
D18*
X137648940Y-133955940D03*
X137648940Y-135955940D03*
D46*
X145848940Y-135255940D03*
X145848940Y-136755940D03*
D43*
X145998940Y-132955940D03*
X147498940Y-132955940D03*
D44*
X139614200Y-77343980D03*
X140513360Y-77343980D03*
D46*
X182855060Y-94588500D03*
X182855060Y-96088500D03*
D43*
X133566600Y-163360100D03*
X132066600Y-163360100D03*
D77*
X154848940Y-169105940D03*
D18*
X155848940Y-165855940D03*
X153848940Y-165855940D03*
D10*
G36*
X132338280Y-101728065D02*
X131276205Y-100665990D01*
X132408990Y-99533205D01*
X133471065Y-100595280D01*
X132338280Y-101728065D01*
X132338280Y-101728065D01*
G37*
G36*
X133964625Y-104485781D02*
X133114683Y-103635839D01*
X133964625Y-102785897D01*
X134814567Y-103635839D01*
X133964625Y-104485781D01*
X133964625Y-104485781D01*
G37*
G36*
X135378839Y-103071567D02*
X134528897Y-102221625D01*
X135378839Y-101371683D01*
X136228781Y-102221625D01*
X135378839Y-103071567D01*
X135378839Y-103071567D01*
G37*
D46*
X130848940Y-99405940D03*
X130848940Y-97905940D03*
D45*
X133751440Y-93805940D03*
X131846440Y-93805940D03*
D43*
X141948940Y-167705940D03*
X140448940Y-167705940D03*
X163433180Y-138702640D03*
X161933180Y-138702640D03*
D10*
G36*
X171700555Y-137079506D02*
X172267654Y-137646605D01*
X171771265Y-138142994D01*
X171204166Y-137575895D01*
X171700555Y-137079506D01*
X171700555Y-137079506D01*
G37*
G36*
X170639895Y-138140166D02*
X171206994Y-138707265D01*
X170710605Y-139203654D01*
X170143506Y-138636555D01*
X170639895Y-138140166D01*
X170639895Y-138140166D01*
G37*
D43*
X138138600Y-163360100D03*
X136638600Y-163360100D03*
D46*
X143148940Y-143655940D03*
X143148940Y-145155940D03*
X136648940Y-143955940D03*
X136648940Y-145455940D03*
D45*
X109954520Y-93905940D03*
X108049520Y-93905940D03*
X117100480Y-163412540D03*
X115195480Y-163412540D03*
X122217640Y-180303140D03*
X120312640Y-180303140D03*
D42*
X103298940Y-141308440D03*
X103298940Y-139403440D03*
D46*
X106998940Y-152405940D03*
X106998940Y-150905940D03*
D43*
X134014100Y-187012180D03*
X132514100Y-187012180D03*
X100843780Y-202893980D03*
X99343780Y-202893980D03*
D45*
X122351440Y-135205940D03*
X120446440Y-135205940D03*
D43*
X128948940Y-142155940D03*
X127448940Y-142155940D03*
D45*
X141097000Y-164312600D03*
X139192000Y-164312600D03*
D46*
X157113780Y-137303980D03*
X157113780Y-135803980D03*
D43*
X145083780Y-167543980D03*
X143583780Y-167543980D03*
X146823780Y-167563980D03*
X148323780Y-167563980D03*
X130233780Y-146283980D03*
X131733780Y-146283980D03*
X142303780Y-132283980D03*
X140803780Y-132283980D03*
D44*
X118873780Y-119708560D03*
X118873780Y-118809400D03*
D46*
X93283780Y-65633980D03*
X93283780Y-67133980D03*
D44*
X89293780Y-66274400D03*
X89293780Y-67173560D03*
X92693780Y-51614400D03*
X92693780Y-52513560D03*
D46*
X91893780Y-65603980D03*
X91893780Y-67103980D03*
X90483780Y-65633980D03*
X90483780Y-67133980D03*
D44*
X94583780Y-69714400D03*
X94583780Y-70613560D03*
X88163780Y-67324400D03*
X88163780Y-68223560D03*
X192097400Y-157812380D03*
X192996560Y-157812380D03*
D43*
X190299780Y-156186780D03*
X188799780Y-156186780D03*
D44*
X193715380Y-162036400D03*
X193715380Y-162935560D03*
X191538600Y-156694780D03*
X192437760Y-156694780D03*
D46*
X197588880Y-160480080D03*
X197588880Y-158980080D03*
D44*
X193867780Y-156092800D03*
X193867780Y-156991960D03*
D43*
X202521940Y-122083700D03*
X201021940Y-122083700D03*
X197329460Y-108010680D03*
X198829460Y-108010680D03*
D44*
X197330160Y-106877840D03*
X198229320Y-106877840D03*
D43*
X202484980Y-123252100D03*
X203984980Y-123252100D03*
D46*
X193836980Y-122649420D03*
X193836980Y-124149420D03*
X195493380Y-155538380D03*
X195493380Y-157038380D03*
D44*
X94303780Y-51594400D03*
X94303780Y-52493560D03*
D46*
X202071980Y-162194580D03*
X202071980Y-160694580D03*
X200344780Y-160770780D03*
X200344780Y-162270780D03*
D44*
X111703780Y-111254400D03*
X111703780Y-112153560D03*
X113123780Y-118783560D03*
X113123780Y-117884400D03*
D35*
X199582780Y-157634580D03*
X201182980Y-157634580D03*
X188150280Y-171008880D03*
X189750480Y-171008880D03*
X195084480Y-168481580D03*
X196684680Y-168481580D03*
X189737780Y-183137380D03*
X191337980Y-183137380D03*
X199564680Y-152086180D03*
X201164880Y-152086180D03*
D42*
X190718180Y-157825080D03*
X190718180Y-159730080D03*
D43*
X95463780Y-52263980D03*
X96963780Y-52263980D03*
D44*
X89018800Y-51908580D03*
X89917960Y-51908580D03*
X93073780Y-70713560D03*
X93073780Y-69814400D03*
X96153780Y-71713560D03*
X96153780Y-70814400D03*
X199562460Y-159031580D03*
X198663300Y-159031580D03*
X195493380Y-153603600D03*
X195493380Y-154502760D03*
X201467460Y-159031580D03*
X200568300Y-159031580D03*
X189559980Y-172324600D03*
X189559980Y-173223760D03*
X192806100Y-183137380D03*
X193705260Y-183137380D03*
X85643780Y-65463560D03*
X85643780Y-64564400D03*
D46*
X190616260Y-117269700D03*
X190616260Y-118769700D03*
D43*
X201292580Y-116907180D03*
X199792580Y-116907180D03*
D46*
X195092420Y-122521000D03*
X195092420Y-124021000D03*
D43*
X202339060Y-118207660D03*
X200839060Y-118207660D03*
D46*
X199557740Y-118744020D03*
X199557740Y-120244020D03*
D43*
X193758220Y-121411720D03*
X195258220Y-121411720D03*
D46*
X192648260Y-122914980D03*
X192648260Y-121414980D03*
D43*
X201414500Y-123216540D03*
X199914500Y-123216540D03*
D44*
X87084200Y-51903980D03*
X87983360Y-51903980D03*
X196610980Y-152689200D03*
X196610980Y-153588360D03*
X202498380Y-152992960D03*
X202498380Y-152093800D03*
D78*
X190525180Y-166983740D03*
X189575180Y-168983740D03*
X191475180Y-168983740D03*
D79*
X192394580Y-153595980D03*
D80*
X190894580Y-154545980D03*
X190894580Y-153595980D03*
X190894580Y-152645980D03*
X193894580Y-152645980D03*
X193894580Y-153595980D03*
X193894580Y-154545980D03*
D81*
X143598940Y-161455940D03*
X149698940Y-161455940D03*
D82*
X146648940Y-161455940D03*
D10*
G36*
X95111699Y-68103276D02*
X96244484Y-69236061D01*
X95818805Y-69661740D01*
X94686020Y-68528955D01*
X95111699Y-68103276D01*
X95111699Y-68103276D01*
G37*
G36*
X96808755Y-66406220D02*
X97941540Y-67539005D01*
X97515861Y-67964684D01*
X96383076Y-66831899D01*
X96808755Y-66406220D01*
X96808755Y-66406220D01*
G37*
G36*
X95960227Y-67254748D02*
X97093012Y-68387533D01*
X96667333Y-68813212D01*
X95534548Y-67680427D01*
X95960227Y-67254748D01*
X95960227Y-67254748D01*
G37*
D43*
X165596000Y-180365400D03*
X164096000Y-180365400D03*
D45*
X113606280Y-159273980D03*
X111701280Y-159273980D03*
D44*
X186213780Y-166463560D03*
X186213780Y-165564400D03*
D46*
X187593780Y-166513980D03*
X187593780Y-165013980D03*
D44*
X188963780Y-166353560D03*
X188963780Y-165454400D03*
D33*
X97843780Y-189304980D03*
X97843780Y-186002980D03*
X93293780Y-133894980D03*
X93293780Y-130592980D03*
X93273780Y-136202980D03*
X93273780Y-139504980D03*
X93223780Y-180922980D03*
X93223780Y-184224980D03*
X93253780Y-178454980D03*
X93253780Y-175152980D03*
X93044700Y-168418380D03*
X93044700Y-165116380D03*
X93213780Y-158274980D03*
X93213780Y-154972980D03*
X93273780Y-148062980D03*
X93273780Y-151364980D03*
X86643780Y-135242980D03*
X86643780Y-138544980D03*
D46*
X93979860Y-204838660D03*
X93979860Y-206338660D03*
D44*
X172683360Y-131993980D03*
X171784200Y-131993980D03*
D43*
X114493780Y-99093980D03*
X115993780Y-99093980D03*
D44*
X152384180Y-83935440D03*
X152384180Y-83036280D03*
X156879980Y-86683720D03*
X156879980Y-87582880D03*
D45*
X159201280Y-87413980D03*
X161106280Y-87413980D03*
D32*
X108384780Y-110773980D03*
X105082780Y-110773980D03*
D44*
X189099880Y-132256400D03*
X189099880Y-133155560D03*
X126284200Y-73173980D03*
X127183360Y-73173980D03*
X200223360Y-89783980D03*
X199324200Y-89783980D03*
D46*
X104343780Y-191323980D03*
X104343780Y-192823980D03*
D35*
X82257320Y-158299020D03*
X83857520Y-158299020D03*
X81863680Y-151753980D03*
X83463880Y-151753980D03*
X82163680Y-166503980D03*
X83763880Y-166503980D03*
D45*
X185701280Y-168283980D03*
X187606280Y-168283980D03*
D43*
X86696540Y-149856060D03*
X88196540Y-149856060D03*
X83252300Y-164410260D03*
X84752300Y-164410260D03*
X85142060Y-145248500D03*
X86642060Y-145248500D03*
X85473780Y-158283980D03*
X86973780Y-158283980D03*
X85716100Y-156190820D03*
X87216100Y-156190820D03*
X87275660Y-171009180D03*
X88775660Y-171009180D03*
X85263780Y-151713980D03*
X86763780Y-151713980D03*
X85363780Y-166503980D03*
X86863780Y-166503980D03*
D46*
X80973780Y-97693980D03*
X80973780Y-99193980D03*
X80973780Y-100333980D03*
X80973780Y-101833980D03*
X80963780Y-103123980D03*
X80963780Y-104623980D03*
X80983780Y-107243980D03*
X80983780Y-105743980D03*
D44*
X107203780Y-115574400D03*
X107203780Y-116473560D03*
X199384200Y-64113980D03*
X200283360Y-64113980D03*
X201254200Y-64113980D03*
X202153360Y-64113980D03*
D42*
X105583780Y-117446480D03*
X105583780Y-115541480D03*
D83*
X91373780Y-105403980D03*
X91373780Y-102863980D03*
X91373780Y-100323980D03*
X91373780Y-97783980D03*
X83113780Y-105403980D03*
X83113780Y-102863980D03*
X83113780Y-100323980D03*
X83113780Y-97783980D03*
D40*
X91168780Y-131303980D03*
X89898780Y-131303980D03*
X88628780Y-131303980D03*
X87358780Y-131303980D03*
X86088780Y-131303980D03*
X84818780Y-131303980D03*
X83548780Y-131303980D03*
X82278780Y-131303980D03*
X91168780Y-125303980D03*
X89898780Y-125303980D03*
X88628780Y-125303980D03*
X87358780Y-125303980D03*
X86088780Y-125303980D03*
X84818780Y-125303980D03*
X83548780Y-125303980D03*
X82278780Y-125303980D03*
D84*
X154103780Y-82593980D03*
X156003780Y-82593980D03*
X156003780Y-84993980D03*
X154103780Y-84993980D03*
X155053780Y-84993980D03*
D85*
X146533780Y-211308980D03*
X149073780Y-211308980D03*
X149073780Y-205658980D03*
X146533780Y-205658980D03*
D46*
X125943780Y-194213980D03*
X125943780Y-195713980D03*
D42*
X127663780Y-193811480D03*
X127663780Y-195716480D03*
D85*
X112163780Y-211308980D03*
X114703780Y-211308980D03*
X114703780Y-205658980D03*
X112163780Y-205658980D03*
D44*
X94443780Y-78003560D03*
X94443780Y-77104400D03*
X180281000Y-105797220D03*
X181180160Y-105797220D03*
X158893780Y-101983560D03*
X158893780Y-101084400D03*
D43*
X100233780Y-183973980D03*
X98733780Y-183973980D03*
X144383780Y-138983980D03*
X142883780Y-138983980D03*
D44*
X114193780Y-61744400D03*
X114193780Y-62643560D03*
X116284200Y-62023980D03*
X117183360Y-62023980D03*
X88378720Y-175703100D03*
X87479560Y-175703100D03*
X80973780Y-195624400D03*
X80973780Y-196523560D03*
X96863780Y-82333560D03*
X96863780Y-81434400D03*
X143063360Y-62053980D03*
X142164200Y-62053980D03*
D10*
G36*
X102258755Y-146661906D02*
X102825854Y-147229005D01*
X102329465Y-147725394D01*
X101762366Y-147158295D01*
X102258755Y-146661906D01*
X102258755Y-146661906D01*
G37*
G36*
X101198095Y-147722566D02*
X101765194Y-148289665D01*
X101268805Y-148786054D01*
X100701706Y-148218955D01*
X101198095Y-147722566D01*
X101198095Y-147722566D01*
G37*
D46*
X108293780Y-147913980D03*
X108293780Y-146413980D03*
D44*
X95323360Y-79113980D03*
X94424200Y-79113980D03*
X92534200Y-68593980D03*
X93433360Y-68593980D03*
X98388860Y-52449600D03*
X98388860Y-51550440D03*
X178314200Y-92503980D03*
X179213360Y-92503980D03*
D42*
X118232380Y-83057600D03*
X118232380Y-84962600D03*
D51*
X182535240Y-54850940D03*
X182535240Y-53900940D03*
X182535240Y-52950940D03*
X184785240Y-52950940D03*
X184785240Y-54850940D03*
X184785240Y-53900940D03*
X194054140Y-65696740D03*
X194054140Y-64746740D03*
X194054140Y-63796740D03*
X196304140Y-63796740D03*
X196304140Y-65696740D03*
X196304140Y-64746740D03*
X149009340Y-74129460D03*
X149009340Y-75079460D03*
X149009340Y-76029460D03*
X146759340Y-76029460D03*
X146759340Y-74129460D03*
X146759340Y-75079460D03*
X163136820Y-100266060D03*
X163136820Y-101216060D03*
X163136820Y-102166060D03*
X160886820Y-102166060D03*
X160886820Y-100266060D03*
X160886820Y-101216060D03*
D86*
X100442540Y-172570100D03*
X100442540Y-173220100D03*
X100442540Y-173870100D03*
X100442540Y-174520100D03*
X104292540Y-172570100D03*
X104292540Y-173220100D03*
X104292540Y-173870100D03*
X104292540Y-174520100D03*
D87*
X101392540Y-171620100D03*
X102042540Y-171620100D03*
X102692540Y-171620100D03*
X103342540Y-171620100D03*
X103342540Y-175470100D03*
X102692540Y-175470100D03*
X102042540Y-175470100D03*
D88*
X102367540Y-173545100D03*
D87*
X101392540Y-175470100D03*
D81*
X141171660Y-179012820D03*
X147271660Y-179012820D03*
D82*
X144221660Y-179012820D03*
D10*
G36*
X138214536Y-92398227D02*
X139743301Y-93926992D01*
X136269992Y-97400301D01*
X134741227Y-95871536D01*
X138214536Y-92398227D01*
X138214536Y-92398227D01*
G37*
G36*
X142527888Y-96711579D02*
X144056653Y-98240344D01*
X140583344Y-101713653D01*
X139054579Y-100184888D01*
X142527888Y-96711579D01*
X142527888Y-96711579D01*
G37*
G36*
X141113674Y-93741731D02*
X142713149Y-95341206D01*
X137684206Y-100370149D01*
X136084731Y-98770674D01*
X141113674Y-93741731D01*
X141113674Y-93741731D01*
G37*
D51*
X125555420Y-85015980D03*
X125555420Y-84065980D03*
X125555420Y-83115980D03*
X127805420Y-83115980D03*
X127805420Y-85015980D03*
X127805420Y-84065980D03*
X162299060Y-124563780D03*
X162299060Y-123613780D03*
X162299060Y-122663780D03*
X164549060Y-122663780D03*
X164549060Y-124563780D03*
X164549060Y-123613780D03*
D89*
X173763780Y-209123980D03*
X168683780Y-209123980D03*
X168683780Y-201823980D03*
X176303780Y-201823980D03*
X178843780Y-209123980D03*
X176303780Y-209123980D03*
X178843780Y-201823980D03*
X173763780Y-201823980D03*
D90*
X175083780Y-197533980D03*
X173083780Y-196583980D03*
X173083780Y-198483980D03*
D43*
X183013780Y-194473980D03*
X181513780Y-194473980D03*
D91*
X194263780Y-201473980D03*
X194263780Y-206553980D03*
X186963780Y-206553980D03*
X186963780Y-198933980D03*
X194263780Y-196393980D03*
X194263780Y-198933980D03*
X186963780Y-196393980D03*
X186963780Y-201473980D03*
D92*
X83513780Y-60223980D03*
X82863780Y-60223980D03*
X82213780Y-60223980D03*
X82213780Y-62063980D03*
X82863780Y-62063980D03*
X83513780Y-62063980D03*
D93*
X192475540Y-68642100D03*
D94*
X192475540Y-70242100D03*
D95*
X179304460Y-58827540D03*
D96*
X178754460Y-59377540D03*
D45*
X127751440Y-93755940D03*
X125846440Y-93755940D03*
D10*
G36*
X144152332Y-103943586D02*
X143161294Y-102952548D01*
X143798510Y-102315332D01*
X144789548Y-103306370D01*
X144152332Y-103943586D01*
X144152332Y-103943586D01*
G37*
G36*
X145499370Y-102596548D02*
X144508332Y-101605510D01*
X145145548Y-100968294D01*
X146136586Y-101959332D01*
X145499370Y-102596548D01*
X145499370Y-102596548D01*
G37*
D46*
X120713500Y-139548300D03*
X120713500Y-138048300D03*
X198719180Y-162194580D03*
X198719180Y-160694580D03*
D44*
X90481840Y-150435180D03*
X89582680Y-150435180D03*
X89364240Y-155804740D03*
X88465080Y-155804740D03*
X87454160Y-164410260D03*
X86555000Y-164410260D03*
X91050800Y-170963460D03*
X90151640Y-170963460D03*
D46*
X159148940Y-176005940D03*
X159148940Y-174505940D03*
X142683780Y-127053980D03*
X142683780Y-125553980D03*
X164803780Y-135603980D03*
X164803780Y-134103980D03*
X158598940Y-154055940D03*
X158598940Y-152555940D03*
X155127380Y-109999080D03*
X155127380Y-108499080D03*
D43*
X97914470Y-207260070D03*
X96414470Y-207260070D03*
X90683300Y-203214620D03*
X92183300Y-203214620D03*
X119798940Y-98205940D03*
X121298940Y-98205940D03*
D46*
X112610140Y-173556540D03*
X112610140Y-175056540D03*
D43*
X101848940Y-117805940D03*
X103348940Y-117805940D03*
D10*
G36*
X105474314Y-186069515D02*
X104907215Y-186636614D01*
X104410826Y-186140225D01*
X104977925Y-185573126D01*
X105474314Y-186069515D01*
X105474314Y-186069515D01*
G37*
G36*
X104413654Y-185008855D02*
X103846555Y-185575954D01*
X103350166Y-185079565D01*
X103917265Y-184512466D01*
X104413654Y-185008855D01*
X104413654Y-185008855D01*
G37*
D43*
X132602140Y-158797640D03*
X131102140Y-158797640D03*
X117353780Y-97243980D03*
X115853780Y-97243980D03*
X114177840Y-176099440D03*
X115677840Y-176099440D03*
X122548940Y-167805940D03*
X121048940Y-167805940D03*
D46*
X127798940Y-168005940D03*
X127798940Y-166505940D03*
X105598940Y-152505940D03*
X105598940Y-154005940D03*
X130398940Y-143655940D03*
X130398940Y-145155940D03*
D43*
X165083780Y-165393980D03*
X166583780Y-165393980D03*
D46*
X161798940Y-143355940D03*
X161798940Y-141855940D03*
D97*
X84411980Y-65980180D03*
X81011980Y-65980180D03*
D98*
X200783780Y-67153980D03*
X200783780Y-68453980D03*
X198583780Y-68453980D03*
X198583780Y-67803980D03*
X198583780Y-67153980D03*
X100873780Y-80883980D03*
X100873780Y-82183980D03*
X98673780Y-82183980D03*
X98673780Y-81533980D03*
X98673780Y-80883980D03*
X104413780Y-60923980D03*
X104413780Y-62223980D03*
X102213780Y-62223980D03*
X102213780Y-61573980D03*
X102213780Y-60923980D03*
X198543420Y-75098540D03*
X198543420Y-73798540D03*
X200743420Y-73798540D03*
X200743420Y-74448540D03*
X200743420Y-75098540D03*
X198533780Y-71593980D03*
X198533780Y-70293980D03*
X200733780Y-70293980D03*
X200733780Y-70943980D03*
X200733780Y-71593980D03*
X138453780Y-83653980D03*
X138453780Y-84953980D03*
X136253780Y-84953980D03*
X136253780Y-84303980D03*
X136253780Y-83653980D03*
X131753780Y-84943980D03*
X131753780Y-83643980D03*
X133953780Y-83643980D03*
X133953780Y-84293980D03*
X133953780Y-84943980D03*
X140123780Y-83613980D03*
X140123780Y-82313980D03*
X142323780Y-82313980D03*
X142323780Y-82963980D03*
X142323780Y-83613980D03*
D99*
X177200220Y-175883260D03*
X178500220Y-175883260D03*
X178500220Y-178083260D03*
X177850220Y-178083260D03*
X177200220Y-178083260D03*
X180705420Y-175883260D03*
X182005420Y-175883260D03*
X182005420Y-178083260D03*
X181355420Y-178083260D03*
X180705420Y-178083260D03*
D100*
X83833780Y-168553980D03*
X86033780Y-168553980D03*
D101*
X84933780Y-171153980D03*
D100*
X81825340Y-153564940D03*
X84025340Y-153564940D03*
D101*
X82925340Y-156164940D03*
D100*
X82170780Y-160092740D03*
X84370780Y-160092740D03*
D101*
X83270780Y-162692740D03*
D100*
X81805020Y-147057460D03*
X84005020Y-147057460D03*
D101*
X82905020Y-149657460D03*
D102*
X131969840Y-204531640D03*
X131969840Y-199031640D03*
X137469840Y-199031640D03*
X137469840Y-204531640D03*
X121373780Y-204483980D03*
X121373780Y-198983980D03*
X126873780Y-198983980D03*
X126873780Y-204483980D03*
D103*
X84923780Y-119253980D03*
X90023780Y-119253980D03*
X84923780Y-116693980D03*
X90023780Y-116693980D03*
X84923780Y-114163980D03*
X90023780Y-114163980D03*
X84923780Y-121783980D03*
X90023780Y-121783980D03*
D37*
X148472580Y-200409580D03*
X151012580Y-198809580D03*
X145932580Y-198809580D03*
D36*
X160098940Y-136325940D03*
X161698940Y-133785940D03*
D37*
X101673780Y-69353980D03*
X99133780Y-70953980D03*
X104213780Y-70953980D03*
D36*
X153748940Y-175525940D03*
X155348940Y-172985940D03*
X160448940Y-165925940D03*
X162048940Y-163385940D03*
X147248940Y-106935940D03*
X145648940Y-109475940D03*
X157248940Y-145875940D03*
X158848940Y-143335940D03*
X114453780Y-202013980D03*
X116053780Y-199473980D03*
D37*
X141193780Y-203213980D03*
X143733780Y-204813980D03*
D36*
X102363780Y-204733980D03*
X100763780Y-207273980D03*
D104*
X152997540Y-180395980D03*
X155487540Y-180395980D03*
X109873640Y-194566140D03*
X107383640Y-194566140D03*
D105*
X182847280Y-93022520D03*
X181897280Y-93022520D03*
X180947280Y-93022520D03*
X182847280Y-91622520D03*
X180947280Y-91622520D03*
X181897280Y-91622520D03*
X182847280Y-92322520D03*
X180947280Y-92322520D03*
D106*
X181897280Y-92322520D03*
D107*
X184157280Y-97602520D03*
D108*
X185267280Y-98462520D03*
D109*
X185267280Y-99322520D03*
X185267280Y-97602520D03*
X183047280Y-97602520D03*
X183047280Y-99322520D03*
D107*
X184157280Y-99322520D03*
D108*
X183047280Y-98462520D03*
D106*
X184157280Y-98462520D03*
D105*
X187693780Y-103153980D03*
X186743780Y-103153980D03*
X185793780Y-103153980D03*
X187693780Y-101753980D03*
X185793780Y-101753980D03*
X186743780Y-101753980D03*
X187693780Y-102453980D03*
X185793780Y-102453980D03*
D106*
X186743780Y-102453980D03*
X181727280Y-83372520D03*
D110*
X180639780Y-83372520D03*
X182814780Y-83372520D03*
D111*
X182677280Y-84210020D03*
X181727280Y-84210020D03*
X180777280Y-84210020D03*
X180777280Y-82535020D03*
X181727280Y-82535020D03*
X182677280Y-82535020D03*
D112*
X164673360Y-78115040D03*
X160498360Y-78115040D03*
X164673360Y-81960040D03*
D110*
X165923360Y-76857540D03*
X165923360Y-77917540D03*
X165923360Y-78977540D03*
X165923360Y-80037540D03*
X165923360Y-81097540D03*
X165923360Y-82157540D03*
X165923360Y-83217540D03*
X159248360Y-83217540D03*
X159248360Y-82157540D03*
X159248360Y-81097540D03*
X159248360Y-80037540D03*
X159248360Y-78977540D03*
X159248360Y-77917540D03*
X159248360Y-76857540D03*
D113*
X162585860Y-80037540D03*
D112*
X160498360Y-81960040D03*
D114*
X176783100Y-79004140D03*
X176783100Y-80004140D03*
X177333100Y-79004140D03*
X177333100Y-80004140D03*
X177883100Y-79004140D03*
X177883100Y-80004140D03*
D110*
X165826840Y-97431380D03*
X165826840Y-96371380D03*
X165826840Y-95311380D03*
X165826840Y-94251380D03*
X165826840Y-93191380D03*
X165826840Y-92131380D03*
X165826840Y-91071380D03*
X159151840Y-97431380D03*
X159151840Y-96371380D03*
X159151840Y-95311380D03*
X159151840Y-91071380D03*
X159151840Y-92131380D03*
X159151840Y-93191380D03*
X159151840Y-94251380D03*
D115*
X162489340Y-96173880D03*
X162489340Y-92328880D03*
D116*
X162489340Y-94251380D03*
D10*
G36*
X176555878Y-94038393D02*
X176910846Y-93683425D01*
X177124392Y-93896971D01*
X176769424Y-94251939D01*
X176555878Y-94038393D01*
X176555878Y-94038393D01*
G37*
G36*
X177262985Y-93331286D02*
X177617953Y-92976318D01*
X177831499Y-93189864D01*
X177476531Y-93544832D01*
X177262985Y-93331286D01*
X177262985Y-93331286D01*
G37*
G36*
X176166970Y-93649484D02*
X176521938Y-93294516D01*
X176735484Y-93508062D01*
X176380516Y-93863030D01*
X176166970Y-93649484D01*
X176166970Y-93649484D01*
G37*
G36*
X176874076Y-92942378D02*
X177229044Y-92587410D01*
X177442590Y-92800956D01*
X177087622Y-93155924D01*
X176874076Y-92942378D01*
X176874076Y-92942378D01*
G37*
G36*
X175778061Y-93260576D02*
X176133029Y-92905608D01*
X176346575Y-93119154D01*
X175991607Y-93474122D01*
X175778061Y-93260576D01*
X175778061Y-93260576D01*
G37*
G36*
X176485168Y-92553469D02*
X176840136Y-92198501D01*
X177053682Y-92412047D01*
X176698714Y-92767015D01*
X176485168Y-92553469D01*
X176485168Y-92553469D01*
G37*
D117*
X112803780Y-70253980D03*
X112803780Y-68983980D03*
X112803780Y-67713980D03*
X112803780Y-66443980D03*
X112803780Y-65173980D03*
X112803780Y-63903980D03*
X112803780Y-62633980D03*
X107483780Y-70253980D03*
X107483780Y-68983980D03*
X107483780Y-67713980D03*
X107483780Y-62633980D03*
X107483780Y-63903980D03*
X107483780Y-65173980D03*
X107483780Y-66443980D03*
X123783780Y-69643980D03*
X123783780Y-68373980D03*
X123783780Y-67103980D03*
X123783780Y-65833980D03*
X123783780Y-64563980D03*
X123783780Y-63293980D03*
X123783780Y-62023980D03*
X118463780Y-69643980D03*
X118463780Y-68373980D03*
X118463780Y-67103980D03*
X118463780Y-62023980D03*
X118463780Y-63293980D03*
X118463780Y-64563980D03*
X118463780Y-65833980D03*
D118*
X189979520Y-55659060D03*
X188679520Y-55659060D03*
X189979520Y-53809060D03*
X188679520Y-53809060D03*
X189329520Y-53809060D03*
X200113780Y-61008980D03*
X201413780Y-61008980D03*
X200113780Y-62858980D03*
X201413780Y-62858980D03*
X200763780Y-62858980D03*
D119*
X164917140Y-65846400D03*
X164917140Y-64556400D03*
X166767140Y-65846400D03*
X166767140Y-64556400D03*
D117*
X197203100Y-97933380D03*
X197203100Y-96663380D03*
X197203100Y-95393380D03*
X197203100Y-94123380D03*
X197203100Y-92853380D03*
X197203100Y-91583380D03*
X197203100Y-90313380D03*
X191883100Y-97933380D03*
X191883100Y-96663380D03*
X191883100Y-95393380D03*
X191883100Y-90313380D03*
X191883100Y-91583380D03*
X191883100Y-92853380D03*
X191883100Y-94123380D03*
D120*
X181273780Y-106868980D03*
X181273780Y-107518980D03*
X181273780Y-108168980D03*
X181273780Y-108818980D03*
X181273780Y-109468980D03*
X181273780Y-110118980D03*
X181273780Y-110768980D03*
X181273780Y-111418980D03*
X181273780Y-112068980D03*
X181273780Y-112718980D03*
X181273780Y-113368980D03*
X181273780Y-114018980D03*
X175473780Y-114018980D03*
X175473780Y-113368980D03*
X175473780Y-112718980D03*
X175473780Y-112068980D03*
X175473780Y-111418980D03*
X175473780Y-110768980D03*
X175473780Y-106868980D03*
X175473780Y-107518980D03*
X175473780Y-108168980D03*
X175473780Y-108818980D03*
X175473780Y-109468980D03*
X175473780Y-110118980D03*
D10*
G36*
X131225480Y-127686940D02*
X130730180Y-128184240D01*
X129813780Y-128184240D01*
X129318480Y-127686940D01*
X131225480Y-127686940D01*
X131225480Y-127686940D01*
G37*
D12*
X130271980Y-126475090D03*
D13*
X131770580Y-129351640D03*
D14*
X130271980Y-127433940D03*
D13*
X128773380Y-129351640D03*
D10*
G36*
X129318480Y-125263240D02*
X129813780Y-124765940D01*
X130730180Y-124765940D01*
X131225480Y-125263240D01*
X129318480Y-125263240D01*
X129318480Y-125263240D01*
G37*
D117*
X87283780Y-184703980D03*
X87283780Y-183433980D03*
X87283780Y-182163980D03*
X87283780Y-180893980D03*
X87283780Y-179623980D03*
X87283780Y-178353980D03*
X87283780Y-177083980D03*
X81963780Y-184703980D03*
X81963780Y-183433980D03*
X81963780Y-182163980D03*
X81963780Y-177083980D03*
X81963780Y-178353980D03*
X81963780Y-179623980D03*
X81963780Y-180893980D03*
D121*
X88583780Y-197833980D03*
X87313780Y-197833980D03*
X86043780Y-197833980D03*
X84773780Y-197833980D03*
X83503780Y-197833980D03*
X82233780Y-197833980D03*
X80963780Y-197833980D03*
X88583780Y-203153980D03*
X87313780Y-203153980D03*
X86043780Y-203153980D03*
X80963780Y-203153980D03*
X82233780Y-203153980D03*
X83503780Y-203153980D03*
X84773780Y-203153980D03*
D112*
X134795920Y-113011280D03*
X130620920Y-113011280D03*
X134795920Y-116856280D03*
D110*
X136045920Y-111753780D03*
X136045920Y-112813780D03*
X136045920Y-113873780D03*
X136045920Y-114933780D03*
X136045920Y-115993780D03*
X136045920Y-117053780D03*
X136045920Y-118113780D03*
X129370920Y-118113780D03*
X129370920Y-117053780D03*
X129370920Y-115993780D03*
X129370920Y-114933780D03*
X129370920Y-113873780D03*
X129370920Y-112813780D03*
X129370920Y-111753780D03*
D113*
X132708420Y-114933780D03*
D112*
X130620920Y-116856280D03*
D121*
X87663780Y-86743980D03*
X88933780Y-86743980D03*
X90203780Y-86743980D03*
X91473780Y-86743980D03*
X92743780Y-86743980D03*
X94013780Y-86743980D03*
X95283780Y-86743980D03*
X87663780Y-81423980D03*
X88933780Y-81423980D03*
X90203780Y-81423980D03*
X95283780Y-81423980D03*
X94013780Y-81423980D03*
X92743780Y-81423980D03*
X91473780Y-81423980D03*
D117*
X142153780Y-52923980D03*
X142153780Y-54193980D03*
X142153780Y-55463980D03*
X142153780Y-56733980D03*
X142153780Y-58003980D03*
X142153780Y-59273980D03*
X142153780Y-60543980D03*
X147473780Y-52923980D03*
X147473780Y-54193980D03*
X147473780Y-55463980D03*
X147473780Y-60543980D03*
X147473780Y-59273980D03*
X147473780Y-58003980D03*
X147473780Y-56733980D03*
D121*
X136333780Y-67913980D03*
X135063780Y-67913980D03*
X133793780Y-67913980D03*
X132523780Y-67913980D03*
X131253780Y-67913980D03*
X129983780Y-67913980D03*
X128713780Y-67913980D03*
X136333780Y-73233980D03*
X135063780Y-73233980D03*
X133793780Y-73233980D03*
X128713780Y-73233980D03*
X129983780Y-73233980D03*
X131253780Y-73233980D03*
X132523780Y-73233980D03*
D122*
X148463460Y-84923180D03*
X148713460Y-84123180D03*
X148213460Y-84123180D03*
X148213460Y-84523180D03*
X148713460Y-84523180D03*
D123*
X129003780Y-61163980D03*
X130273780Y-61163980D03*
X131543780Y-61163980D03*
X132813780Y-61163980D03*
X134083780Y-61163980D03*
X135353780Y-61163980D03*
X136623780Y-61163980D03*
X129003780Y-53363980D03*
X130273780Y-53363980D03*
X131543780Y-53363980D03*
X136623780Y-53363980D03*
X135353780Y-53363980D03*
X134083780Y-53363980D03*
X132813780Y-53363980D03*
D39*
X196134580Y-158995980D03*
X196134580Y-160895980D03*
X193734580Y-160895980D03*
X193734580Y-158995980D03*
X193734580Y-159945980D03*
D29*
X180717280Y-96982520D03*
D30*
X179822280Y-96582520D03*
X179822280Y-97382520D03*
X179822280Y-96982520D03*
D31*
X181392280Y-96087520D03*
X180942280Y-96087520D03*
X180492280Y-96087520D03*
X180042280Y-96087520D03*
X181392280Y-97877520D03*
X180942280Y-97877520D03*
X180492280Y-97877520D03*
D30*
X181612280Y-97382520D03*
X181612280Y-96582520D03*
X181612280Y-96982520D03*
D31*
X180042280Y-97877520D03*
D29*
X189447280Y-83512520D03*
D30*
X190342280Y-83912520D03*
X190342280Y-83112520D03*
X190342280Y-83512520D03*
D31*
X188772280Y-84407520D03*
X189222280Y-84407520D03*
X189672280Y-84407520D03*
X190122280Y-84407520D03*
X188772280Y-82617520D03*
X189222280Y-82617520D03*
X189672280Y-82617520D03*
D30*
X188552280Y-83112520D03*
X188552280Y-83912520D03*
X188552280Y-83512520D03*
D31*
X190122280Y-82617520D03*
D29*
X102860300Y-89714940D03*
D30*
X101965300Y-89314940D03*
X101965300Y-90114940D03*
X101965300Y-89714940D03*
D31*
X103535300Y-88819940D03*
X103085300Y-88819940D03*
X102635300Y-88819940D03*
X102185300Y-88819940D03*
X103535300Y-90609940D03*
X103085300Y-90609940D03*
X102635300Y-90609940D03*
D30*
X103755300Y-90114940D03*
X103755300Y-89314940D03*
X103755300Y-89714940D03*
D31*
X102185300Y-90609940D03*
D29*
X149169580Y-81150060D03*
D30*
X150064580Y-81550060D03*
X150064580Y-80750060D03*
X150064580Y-81150060D03*
D31*
X148494580Y-82045060D03*
X148944580Y-82045060D03*
X149394580Y-82045060D03*
X149844580Y-82045060D03*
X148494580Y-80255060D03*
X148944580Y-80255060D03*
X149394580Y-80255060D03*
D30*
X148274580Y-80750060D03*
X148274580Y-81550060D03*
X148274580Y-81150060D03*
D31*
X149844580Y-80255060D03*
D29*
X108814060Y-126616060D03*
D30*
X107919060Y-126216060D03*
X107919060Y-127016060D03*
X107919060Y-126616060D03*
D31*
X109489060Y-125721060D03*
X109039060Y-125721060D03*
X108589060Y-125721060D03*
X108139060Y-125721060D03*
X109489060Y-127511060D03*
X109039060Y-127511060D03*
X108589060Y-127511060D03*
D30*
X109709060Y-127016060D03*
X109709060Y-126216060D03*
X109709060Y-126616060D03*
D31*
X108139060Y-127511060D03*
D29*
X171775580Y-61828280D03*
D30*
X172670580Y-62228280D03*
X172670580Y-61428280D03*
X172670580Y-61828280D03*
D31*
X171100580Y-62723280D03*
X171550580Y-62723280D03*
X172000580Y-62723280D03*
X172450580Y-62723280D03*
X171100580Y-60933280D03*
X171550580Y-60933280D03*
X172000580Y-60933280D03*
D30*
X170880580Y-61428280D03*
X170880580Y-62228280D03*
X170880580Y-61828280D03*
D31*
X172450580Y-60933280D03*
D29*
X174996460Y-133311500D03*
D30*
X175891460Y-133711500D03*
X175891460Y-132911500D03*
X175891460Y-133311500D03*
D31*
X174321460Y-134206500D03*
X174771460Y-134206500D03*
X175221460Y-134206500D03*
X175671460Y-134206500D03*
X174321460Y-132416500D03*
X174771460Y-132416500D03*
X175221460Y-132416500D03*
D30*
X174101460Y-132911500D03*
X174101460Y-133711500D03*
X174101460Y-133311500D03*
D31*
X175671460Y-132416500D03*
D124*
X92138900Y-79230860D03*
X91638900Y-79230860D03*
X91138900Y-79230860D03*
X90638900Y-79230860D03*
X90138900Y-79230860D03*
X89638900Y-79230860D03*
X89138900Y-79230860D03*
X88638900Y-79230860D03*
X88638900Y-74280860D03*
X89138900Y-74280860D03*
X89638900Y-74280860D03*
X90138900Y-74280860D03*
X90638900Y-74280860D03*
X91138900Y-74280860D03*
X91638900Y-74280860D03*
X92138900Y-74280860D03*
D125*
X87913900Y-78505860D03*
X87913900Y-78005860D03*
X87913900Y-77505860D03*
X87913900Y-77005860D03*
X87913900Y-76505860D03*
X87913900Y-76005860D03*
X87913900Y-75505860D03*
X87913900Y-75005860D03*
X92863900Y-75005860D03*
X92863900Y-75505860D03*
X92863900Y-76005860D03*
X92863900Y-76505860D03*
X92863900Y-77005860D03*
X92863900Y-77505860D03*
X92863900Y-78005860D03*
D126*
X90388900Y-76755860D03*
D125*
X92863900Y-78505860D03*
D29*
X160741820Y-61848600D03*
D30*
X159846820Y-61448600D03*
X159846820Y-62248600D03*
X159846820Y-61848600D03*
D31*
X161416820Y-60953600D03*
X160966820Y-60953600D03*
X160516820Y-60953600D03*
X160066820Y-60953600D03*
X161416820Y-62743600D03*
X160966820Y-62743600D03*
X160516820Y-62743600D03*
D30*
X161636820Y-62248600D03*
X161636820Y-61448600D03*
X161636820Y-61848600D03*
D31*
X160066820Y-62743600D03*
D29*
X148798740Y-87703260D03*
D30*
X147903740Y-87303260D03*
X147903740Y-88103260D03*
X147903740Y-87703260D03*
D31*
X149473740Y-86808260D03*
X149023740Y-86808260D03*
X148573740Y-86808260D03*
X148123740Y-86808260D03*
X149473740Y-88598260D03*
X149023740Y-88598260D03*
X148573740Y-88598260D03*
D30*
X149693740Y-88103260D03*
X149693740Y-87303260D03*
X149693740Y-87703260D03*
D31*
X148123740Y-88598260D03*
D29*
X149139100Y-95308020D03*
D30*
X150034100Y-95708020D03*
X150034100Y-94908020D03*
X150034100Y-95308020D03*
D31*
X148464100Y-96203020D03*
X148914100Y-96203020D03*
X149364100Y-96203020D03*
X149814100Y-96203020D03*
X148464100Y-94413020D03*
X148914100Y-94413020D03*
X149364100Y-94413020D03*
D30*
X148244100Y-94908020D03*
X148244100Y-95708020D03*
X148244100Y-95308020D03*
D31*
X149814100Y-94413020D03*
D44*
X187426600Y-176093120D03*
X187426600Y-176992280D03*
D127*
X166815800Y-191285600D03*
X166815800Y-189155600D03*
D128*
X169195800Y-189270600D03*
X171295800Y-189270600D03*
D129*
X172745800Y-190220600D03*
D128*
X171295800Y-191170600D03*
X169195800Y-191170600D03*
D130*
X172834300Y-182944700D03*
X172834300Y-186904700D03*
D131*
X184516500Y-185634600D03*
X182386500Y-185634600D03*
D132*
X182501500Y-183254600D03*
X182501500Y-181154600D03*
D133*
X183451500Y-179704600D03*
D132*
X184401500Y-181154600D03*
X184401500Y-183254600D03*
D134*
X115413940Y-95705940D03*
X113183940Y-95705940D03*
X141930640Y-174283340D03*
X144160640Y-174283340D03*
X145639040Y-174283340D03*
X147869040Y-174283340D03*
D10*
G36*
X137619762Y-102565075D02*
X138208075Y-101976762D01*
X138654966Y-102423653D01*
X138066653Y-103011966D01*
X137619762Y-102565075D01*
X137619762Y-102565075D01*
G37*
G36*
X136042914Y-100988227D02*
X136631227Y-100399914D01*
X137078118Y-100846805D01*
X136489805Y-101435118D01*
X136042914Y-100988227D01*
X136042914Y-100988227D01*
G37*
G36*
X135319762Y-100215075D02*
X135908075Y-99626762D01*
X136354966Y-100073653D01*
X135766653Y-100661966D01*
X135319762Y-100215075D01*
X135319762Y-100215075D01*
G37*
G36*
X133742914Y-98638227D02*
X134331227Y-98049914D01*
X134778118Y-98496805D01*
X134189805Y-99085118D01*
X133742914Y-98638227D01*
X133742914Y-98638227D01*
G37*
D134*
X147693900Y-185137660D03*
X149923900Y-185137660D03*
X151595340Y-185132580D03*
X153825340Y-185132580D03*
D10*
G36*
X101614118Y-184804305D02*
X101025805Y-185392618D01*
X100578914Y-184945727D01*
X101167227Y-184357414D01*
X101614118Y-184804305D01*
X101614118Y-184804305D01*
G37*
G36*
X103190966Y-186381153D02*
X102602653Y-186969466D01*
X102155762Y-186522575D01*
X102744075Y-185934262D01*
X103190966Y-186381153D01*
X103190966Y-186381153D01*
G37*
G36*
X103938218Y-187115705D02*
X103349905Y-187704018D01*
X102903014Y-187257127D01*
X103491327Y-186668814D01*
X103938218Y-187115705D01*
X103938218Y-187115705D01*
G37*
G36*
X105515066Y-188692553D02*
X104926753Y-189280866D01*
X104479862Y-188833975D01*
X105068175Y-188245662D01*
X105515066Y-188692553D01*
X105515066Y-188692553D01*
G37*
D134*
X111863940Y-95705940D03*
X109633940Y-95705940D03*
X120670840Y-182131940D03*
X122900840Y-182131940D03*
X124315740Y-182106540D03*
X126545740Y-182106540D03*
X148133940Y-134005940D03*
X150363940Y-134005940D03*
X151533940Y-134005940D03*
X153763940Y-134005940D03*
X147213940Y-166155940D03*
X144983940Y-166155940D03*
X143713940Y-166155940D03*
X141483940Y-166155940D03*
X149163940Y-142755940D03*
X146933940Y-142755940D03*
X146933940Y-144455940D03*
X149163940Y-144455940D03*
X117613940Y-165305940D03*
X115383940Y-165305940D03*
X115383940Y-167105940D03*
X117613940Y-167105940D03*
D10*
G36*
X106519762Y-147415075D02*
X107108075Y-146826762D01*
X107554966Y-147273653D01*
X106966653Y-147861966D01*
X106519762Y-147415075D01*
X106519762Y-147415075D01*
G37*
G36*
X104942914Y-145838227D02*
X105531227Y-145249914D01*
X105978118Y-145696805D01*
X105389805Y-146285118D01*
X104942914Y-145838227D01*
X104942914Y-145838227D01*
G37*
G36*
X104019762Y-144915075D02*
X104608075Y-144326762D01*
X105054966Y-144773653D01*
X104466653Y-145361966D01*
X104019762Y-144915075D01*
X104019762Y-144915075D01*
G37*
G36*
X102442914Y-143338227D02*
X103031227Y-142749914D01*
X103478118Y-143196805D01*
X102889805Y-143785118D01*
X102442914Y-143338227D01*
X102442914Y-143338227D01*
G37*
D134*
X128613940Y-139255940D03*
X126383940Y-139255940D03*
X125113940Y-139255940D03*
X122883940Y-139255940D03*
D135*
X189572680Y-177765280D03*
D136*
X189072680Y-178700280D03*
X189572680Y-178700280D03*
X190072680Y-178700280D03*
X190072680Y-176830280D03*
X189572680Y-176830280D03*
X189072680Y-176830280D03*
D137*
X149073060Y-91241860D03*
D138*
X148783060Y-92241860D03*
X149363060Y-92241860D03*
X149363060Y-91741860D03*
X148783060Y-91741860D03*
D139*
X186717280Y-79502520D03*
D140*
X187007280Y-78502520D03*
X186427280Y-78502520D03*
X186427280Y-79002520D03*
X187007280Y-79002520D03*
D137*
X146893740Y-91262180D03*
D138*
X146603740Y-92262180D03*
X147183740Y-92262180D03*
X147183740Y-91762180D03*
X146603740Y-91762180D03*
D141*
X120421860Y-87743900D03*
D142*
X120996860Y-87318900D03*
D143*
X120996860Y-87743900D03*
D142*
X120996860Y-88168900D03*
X119846860Y-88168900D03*
X119846860Y-87318900D03*
D143*
X119846860Y-87743900D03*
D141*
X122184620Y-115943300D03*
D142*
X122759620Y-115518300D03*
D143*
X122759620Y-115943300D03*
D142*
X122759620Y-116368300D03*
X121609620Y-116368300D03*
X121609620Y-115518300D03*
D143*
X121609620Y-115943300D03*
D10*
G36*
X115015200Y-85558500D02*
X114519900Y-86055800D01*
X113603500Y-86055800D01*
X113108200Y-85558500D01*
X115015200Y-85558500D01*
X115015200Y-85558500D01*
G37*
D12*
X114061700Y-84346650D03*
D13*
X115560300Y-87223200D03*
D14*
X114061700Y-85305500D03*
D13*
X112563100Y-87223200D03*
D10*
G36*
X113108200Y-83134800D02*
X113603500Y-82637500D01*
X114519900Y-82637500D01*
X115015200Y-83134800D01*
X113108200Y-83134800D01*
X113108200Y-83134800D01*
G37*
G36*
X135675840Y-154300840D02*
X135180540Y-154798140D01*
X134264140Y-154798140D01*
X133768840Y-154300840D01*
X135675840Y-154300840D01*
X135675840Y-154300840D01*
G37*
D12*
X134722340Y-153088990D03*
D13*
X136220940Y-155965540D03*
D14*
X134722340Y-154047840D03*
D13*
X133223740Y-155965540D03*
D10*
G36*
X133768840Y-151877140D02*
X134264140Y-151379840D01*
X135180540Y-151379840D01*
X135675840Y-151877140D01*
X133768840Y-151877140D01*
X133768840Y-151877140D01*
G37*
G36*
X100900620Y-110198240D02*
X100403320Y-109702940D01*
X100403320Y-108786540D01*
X100900620Y-108291240D01*
X100900620Y-110198240D01*
X100900620Y-110198240D01*
G37*
D144*
X102112470Y-109244740D03*
D145*
X99235920Y-110743340D03*
D146*
X101153620Y-109244740D03*
D145*
X99235920Y-107746140D03*
D10*
G36*
X103324320Y-108291240D02*
X103821620Y-108786540D01*
X103821620Y-109702940D01*
X103324320Y-110198240D01*
X103324320Y-108291240D01*
X103324320Y-108291240D01*
G37*
G36*
X185863100Y-133174940D02*
X185905100Y-133224940D01*
X185905100Y-133326940D01*
X185863100Y-133376940D01*
X185863100Y-133174940D01*
X185863100Y-133174940D01*
G37*
G36*
X186705100Y-132534940D02*
X186655100Y-132576940D01*
X186553100Y-132576940D01*
X186503100Y-132534940D01*
X186705100Y-132534940D01*
X186705100Y-132534940D01*
G37*
G36*
X187345100Y-133376940D02*
X187303100Y-133326940D01*
X187303100Y-133224940D01*
X187345100Y-133174940D01*
X187345100Y-133376940D01*
X187345100Y-133376940D01*
G37*
G36*
X186503100Y-134016940D02*
X186553100Y-133974940D01*
X186655100Y-133974940D01*
X186705100Y-134016940D01*
X186503100Y-134016940D01*
X186503100Y-134016940D01*
G37*
G36*
X185863100Y-133674940D02*
X185905100Y-133724940D01*
X185905100Y-133826940D01*
X185863100Y-133876940D01*
X185863100Y-133674940D01*
X185863100Y-133674940D01*
G37*
G36*
X185863100Y-132674940D02*
X185905100Y-132724940D01*
X185905100Y-132826940D01*
X185863100Y-132876940D01*
X185863100Y-132674940D01*
X185863100Y-132674940D01*
G37*
G36*
X186205100Y-132534940D02*
X186155100Y-132576940D01*
X186053100Y-132576940D01*
X186003100Y-132534940D01*
X186205100Y-132534940D01*
X186205100Y-132534940D01*
G37*
G36*
X187205100Y-132534940D02*
X187155100Y-132576940D01*
X187053100Y-132576940D01*
X187003100Y-132534940D01*
X187205100Y-132534940D01*
X187205100Y-132534940D01*
G37*
G36*
X187345100Y-132876940D02*
X187303100Y-132826940D01*
X187303100Y-132724940D01*
X187345100Y-132674940D01*
X187345100Y-132876940D01*
X187345100Y-132876940D01*
G37*
G36*
X187345100Y-133876940D02*
X187303100Y-133826940D01*
X187303100Y-133724940D01*
X187345100Y-133674940D01*
X187345100Y-133876940D01*
X187345100Y-133876940D01*
G37*
G36*
X187003100Y-134016940D02*
X187053100Y-133974940D01*
X187155100Y-133974940D01*
X187205100Y-134016940D01*
X187003100Y-134016940D01*
X187003100Y-134016940D01*
G37*
D147*
X186604100Y-133275940D03*
D148*
X187564100Y-133775940D03*
X187564100Y-133275940D03*
X187564100Y-132775940D03*
D149*
X186104100Y-132315940D03*
X186604100Y-132315940D03*
X187104100Y-132315940D03*
X187104100Y-134235940D03*
X186104100Y-134235940D03*
X186604100Y-134235940D03*
D148*
X185644100Y-133775940D03*
X185644100Y-132775940D03*
X185644100Y-133275940D03*
D10*
G36*
X186003100Y-134016940D02*
X186053100Y-133974940D01*
X186155100Y-133974940D01*
X186205100Y-134016940D01*
X186003100Y-134016940D01*
X186003100Y-134016940D01*
G37*
G36*
X181936280Y-78901520D02*
X181978280Y-78951520D01*
X181978280Y-79053520D01*
X181936280Y-79103520D01*
X181936280Y-78901520D01*
X181936280Y-78901520D01*
G37*
G36*
X182778280Y-78261520D02*
X182728280Y-78303520D01*
X182626280Y-78303520D01*
X182576280Y-78261520D01*
X182778280Y-78261520D01*
X182778280Y-78261520D01*
G37*
G36*
X183418280Y-79103520D02*
X183376280Y-79053520D01*
X183376280Y-78951520D01*
X183418280Y-78901520D01*
X183418280Y-79103520D01*
X183418280Y-79103520D01*
G37*
G36*
X182576280Y-79743520D02*
X182626280Y-79701520D01*
X182728280Y-79701520D01*
X182778280Y-79743520D01*
X182576280Y-79743520D01*
X182576280Y-79743520D01*
G37*
G36*
X181936280Y-79401520D02*
X181978280Y-79451520D01*
X181978280Y-79553520D01*
X181936280Y-79603520D01*
X181936280Y-79401520D01*
X181936280Y-79401520D01*
G37*
G36*
X181936280Y-78401520D02*
X181978280Y-78451520D01*
X181978280Y-78553520D01*
X181936280Y-78603520D01*
X181936280Y-78401520D01*
X181936280Y-78401520D01*
G37*
G36*
X182278280Y-78261520D02*
X182228280Y-78303520D01*
X182126280Y-78303520D01*
X182076280Y-78261520D01*
X182278280Y-78261520D01*
X182278280Y-78261520D01*
G37*
G36*
X183278280Y-78261520D02*
X183228280Y-78303520D01*
X183126280Y-78303520D01*
X183076280Y-78261520D01*
X183278280Y-78261520D01*
X183278280Y-78261520D01*
G37*
G36*
X183418280Y-78603520D02*
X183376280Y-78553520D01*
X183376280Y-78451520D01*
X183418280Y-78401520D01*
X183418280Y-78603520D01*
X183418280Y-78603520D01*
G37*
G36*
X183418280Y-79603520D02*
X183376280Y-79553520D01*
X183376280Y-79451520D01*
X183418280Y-79401520D01*
X183418280Y-79603520D01*
X183418280Y-79603520D01*
G37*
G36*
X183076280Y-79743520D02*
X183126280Y-79701520D01*
X183228280Y-79701520D01*
X183278280Y-79743520D01*
X183076280Y-79743520D01*
X183076280Y-79743520D01*
G37*
D147*
X182677280Y-79002520D03*
D148*
X183637280Y-79502520D03*
X183637280Y-79002520D03*
X183637280Y-78502520D03*
D149*
X182177280Y-78042520D03*
X182677280Y-78042520D03*
X183177280Y-78042520D03*
X183177280Y-79962520D03*
X182177280Y-79962520D03*
X182677280Y-79962520D03*
D148*
X181717280Y-79502520D03*
X181717280Y-78502520D03*
X181717280Y-79002520D03*
D10*
G36*
X182076280Y-79743520D02*
X182126280Y-79701520D01*
X182228280Y-79701520D01*
X182278280Y-79743520D01*
X182076280Y-79743520D01*
X182076280Y-79743520D01*
G37*
G36*
X176028220Y-88902740D02*
X176070220Y-88952740D01*
X176070220Y-89054740D01*
X176028220Y-89104740D01*
X176028220Y-88902740D01*
X176028220Y-88902740D01*
G37*
G36*
X176870220Y-88262740D02*
X176820220Y-88304740D01*
X176718220Y-88304740D01*
X176668220Y-88262740D01*
X176870220Y-88262740D01*
X176870220Y-88262740D01*
G37*
G36*
X177510220Y-89104740D02*
X177468220Y-89054740D01*
X177468220Y-88952740D01*
X177510220Y-88902740D01*
X177510220Y-89104740D01*
X177510220Y-89104740D01*
G37*
G36*
X176668220Y-89744740D02*
X176718220Y-89702740D01*
X176820220Y-89702740D01*
X176870220Y-89744740D01*
X176668220Y-89744740D01*
X176668220Y-89744740D01*
G37*
G36*
X176028220Y-89402740D02*
X176070220Y-89452740D01*
X176070220Y-89554740D01*
X176028220Y-89604740D01*
X176028220Y-89402740D01*
X176028220Y-89402740D01*
G37*
G36*
X176028220Y-88402740D02*
X176070220Y-88452740D01*
X176070220Y-88554740D01*
X176028220Y-88604740D01*
X176028220Y-88402740D01*
X176028220Y-88402740D01*
G37*
G36*
X176370220Y-88262740D02*
X176320220Y-88304740D01*
X176218220Y-88304740D01*
X176168220Y-88262740D01*
X176370220Y-88262740D01*
X176370220Y-88262740D01*
G37*
G36*
X177370220Y-88262740D02*
X177320220Y-88304740D01*
X177218220Y-88304740D01*
X177168220Y-88262740D01*
X177370220Y-88262740D01*
X177370220Y-88262740D01*
G37*
G36*
X177510220Y-88604740D02*
X177468220Y-88554740D01*
X177468220Y-88452740D01*
X177510220Y-88402740D01*
X177510220Y-88604740D01*
X177510220Y-88604740D01*
G37*
G36*
X177510220Y-89604740D02*
X177468220Y-89554740D01*
X177468220Y-89452740D01*
X177510220Y-89402740D01*
X177510220Y-89604740D01*
X177510220Y-89604740D01*
G37*
G36*
X177168220Y-89744740D02*
X177218220Y-89702740D01*
X177320220Y-89702740D01*
X177370220Y-89744740D01*
X177168220Y-89744740D01*
X177168220Y-89744740D01*
G37*
D147*
X176769220Y-89003740D03*
D148*
X177729220Y-89503740D03*
X177729220Y-89003740D03*
X177729220Y-88503740D03*
D149*
X176269220Y-88043740D03*
X176769220Y-88043740D03*
X177269220Y-88043740D03*
X177269220Y-89963740D03*
X176269220Y-89963740D03*
X176769220Y-89963740D03*
D148*
X175809220Y-89503740D03*
X175809220Y-88503740D03*
X175809220Y-89003740D03*
D10*
G36*
X176168220Y-89744740D02*
X176218220Y-89702740D01*
X176320220Y-89702740D01*
X176370220Y-89744740D01*
X176168220Y-89744740D01*
X176168220Y-89744740D01*
G37*
M02*
