G04 #@! TF.FileFunction,Profile,NP*
%FSLAX46Y46*%
G04 Gerber Fmt 4.6, Leading zero omitted, Abs format (unit mm)*
G04 Created by KiCad (PCBNEW 4.0.7) date Fri Sep 20 17:05:35 2019*
%MOMM*%
%LPD*%
G01*
G04 APERTURE LIST*
%ADD10C,0.150000*%
%ADD11C,0.200000*%
G04 APERTURE END LIST*
D10*
X148050000Y-186403980D02*
X164333780Y-186403980D01*
D11*
X212950480Y-42586780D02*
X71853480Y-42586780D01*
X212950480Y-221097980D02*
X212950480Y-42586780D01*
X71853480Y-221097980D02*
X212950480Y-221097980D01*
X71853480Y-42599480D02*
X71853480Y-221097980D01*
X71866180Y-42599480D02*
X71853480Y-42599480D01*
X76844580Y-47590580D02*
X76844580Y-109236380D01*
X123809180Y-47590580D02*
X76844580Y-47590580D01*
X76844580Y-164963980D02*
X76844580Y-112843180D01*
X76844580Y-216094180D02*
X94294380Y-216094180D01*
X76844580Y-168570780D02*
X76844580Y-216094180D01*
X188909380Y-216094180D02*
X97926580Y-216094180D01*
X207959380Y-216094180D02*
X207959380Y-152746580D01*
X192541580Y-216094180D02*
X207959380Y-216094180D01*
X207959380Y-73549380D02*
X207959380Y-149139780D01*
X207959380Y-47590580D02*
X207959380Y-69942580D01*
X187359980Y-47590580D02*
X207959380Y-47590580D01*
X127441380Y-47590580D02*
X183753180Y-47590580D01*
X79867180Y-168570780D02*
X76844580Y-168570780D01*
X79790980Y-164963980D02*
X76844580Y-164963980D01*
X79841780Y-112843180D02*
X76844580Y-112843180D01*
X79841780Y-109236380D02*
X76844580Y-109236380D01*
X127441380Y-50587780D02*
X127441380Y-47590580D01*
X123809180Y-50587780D02*
X123809180Y-47590580D01*
X183753180Y-50536980D02*
X183753180Y-47590580D01*
X187359980Y-50562380D02*
X187359980Y-47590580D01*
X204962180Y-69942580D02*
X207959380Y-69942580D01*
X204962180Y-73549380D02*
X207959380Y-73549380D01*
X204962180Y-149139780D02*
X207959380Y-149139780D01*
X204962180Y-152746580D02*
X207959380Y-152746580D01*
X192541580Y-213096980D02*
X192541580Y-216094180D01*
X188909380Y-213071580D02*
X188909380Y-216094180D01*
X97926580Y-213071580D02*
X97926580Y-216094180D01*
X94294380Y-213071580D02*
X94294380Y-216094180D01*
X83194580Y-213096980D02*
X94319780Y-213096980D01*
X188934780Y-213096980D02*
X97901180Y-213096980D01*
X201634780Y-213096980D02*
X192516180Y-213096980D01*
X204962180Y-152771980D02*
X204962180Y-209744180D01*
X204962180Y-73549380D02*
X204962180Y-149139780D01*
X204962180Y-69942580D02*
X204987580Y-69942580D01*
X204962180Y-53940580D02*
X204962180Y-69942580D01*
X187359980Y-50587780D02*
X201609380Y-50587780D01*
X183753180Y-50587780D02*
X183753180Y-50562380D01*
X127441380Y-50587780D02*
X183753180Y-50587780D01*
X123834580Y-50587780D02*
X123834580Y-50562380D01*
X82661180Y-50587780D02*
X123834580Y-50587780D01*
X79841780Y-109236380D02*
X79841780Y-53356380D01*
X79841780Y-164963980D02*
X79841780Y-112843180D01*
X79841780Y-209718780D02*
X79841780Y-168519980D01*
X79841780Y-209744180D02*
G75*
G03X83194580Y-213096980I3352800J0D01*
G01*
X82635780Y-50587780D02*
G75*
G03X79841780Y-53381780I0J-2794000D01*
G01*
D10*
X79841780Y-53381780D02*
X79841780Y-53356380D01*
D11*
X201609380Y-213096980D02*
G75*
G03X204962180Y-209744180I0J3352800D01*
G01*
X204962180Y-53940580D02*
G75*
G03X201609380Y-50587780I-3352800J0D01*
G01*
D10*
X148050000Y-196223980D02*
X148050000Y-186413980D01*
X164333780Y-196223980D02*
X148050000Y-196223980D01*
X164333780Y-186403980D02*
X164333780Y-196223980D01*
M02*
